<svg width="181" height="40" viewBox="0 0 181 40" fill="none" xmlns="http://www.w3.org/2000/svg">
<g clip-path="url(#clip0_147_1370)">
<mask id="mask0_147_1370" style="mask-type:luminance" maskUnits="userSpaceOnUse" x="0" y="0" width="181" height="40">
<path d="M180.543 0H0V39.9376H180.543V0Z" fill="white"/>
</mask>
<g mask="url(#mask0_147_1370)">
<path d="M30.275 31.1444C32.7447 27.9701 33.9924 24.1132 33.9924 19.5775C33.9924 14.2882 32.4401 10.0178 29.3356 6.76645C26.2089 3.52241 22.1209 1.90039 17.02 1.90039C11.919 1.90039 7.80527 3.52241 4.67867 6.76645C1.55206 10.0105 -0.00390625 14.2894 -0.00390625 19.5775C-0.00390625 24.8655 1.54839 29.1444 4.675 32.3885C7.8016 35.6325 11.8897 37.2545 16.9906 37.2545C20.2909 37.3077 23.5377 36.4163 26.3484 34.6857L31.097 39.9261L35.2255 35.7976L30.275 31.1444ZM19.2071 30.5793H14.253V25.7609H19.2071V30.5793ZM19.2658 20.3041L18.308 20.5646L18.1429 23.5408H15.3172L15.0713 18.7701L17.7466 18.0876C18.8878 17.8123 19.6915 17.449 20.1319 16.9866C20.5722 16.5242 20.7851 15.849 20.7851 14.9353C20.7851 12.6123 19.7539 11.6068 17.3062 11.6068C14.6456 11.6068 13.508 12.8252 13.508 15.6802H9.55573C9.55573 13.449 10.2713 11.6435 11.6842 10.2564C13.097 8.8692 14.9502 8.20498 17.2768 8.20498C19.5423 8.20498 21.3661 8.78238 22.7484 9.93709C23.4196 10.4872 23.9551 11.1844 24.3134 11.9749C24.6717 12.7652 24.8431 13.6276 24.8144 14.4949C24.8144 17.4637 22.7484 19.438 19.2658 20.3041Z" fill="#00391B"/>
<path d="M57.1962 11.7754H63.8935V36.5277H57.4751V31.5222C55.6403 35.3534 52.5871 37.2543 48.3338 37.2543C45.699 37.2543 43.6329 36.458 42.0953 34.858C40.5577 33.258 39.8164 31.1222 39.8164 28.3956V11.7754H46.4439V25.7864C46.4439 27.9258 46.8109 29.4561 47.5448 30.3222C48.2788 31.1882 49.5448 31.6616 51.354 31.6616C55.0237 31.6616 57.1852 29.5919 57.1852 25.7387L57.1962 11.7754Z" fill="#00391B"/>
<path d="M70.5942 0.751953H77.7172V7.12259H70.5942V0.751953ZM70.8548 11.7611H77.4823V36.5134H70.8548V11.7611Z" fill="#00391B"/>
<path d="M92.1537 31.2396H103.625V36.5277H83.0088V27.0561L100.873 16.8763L94.2198 17.0892H83.2437V11.7754H103.387V21.4121L85.7721 31.3791L92.1537 31.2396Z" fill="#00391B"/>
<path d="M132.796 31.8492V36.5281C131.564 36.8298 130.302 36.9876 129.035 36.9979C125.438 36.9979 123.651 35.3758 123.53 31.7098C122.121 35.0125 119.02 37.2547 114.624 37.2547C112.389 37.2547 110.587 36.6933 109.24 35.563C108.589 35.0319 108.069 34.3589 107.718 33.5956C107.368 32.8324 107.197 31.999 107.218 31.1593C107.218 27.6804 109.332 25.519 114.341 24.5538C119.112 23.6621 122.099 22.9795 123.295 22.5318V22.0621C123.295 17.9006 122.003 16.1391 118.925 16.1391C115.846 16.1391 114.436 17.7612 114.436 21.6144H108.044C108.044 18.4437 109.057 15.8786 111.079 13.952C113.101 12.0254 115.754 11.0859 119.068 11.0859C122.381 11.0859 125.016 11.9777 126.921 13.7648C128.825 15.552 129.765 18.0437 129.765 21.1924V28.9281C129.765 30.2419 129.93 31.0639 130.282 31.3722C130.635 31.6804 131.435 31.8639 132.748 31.8639L132.796 31.8492ZM123.299 26.6566V25.6914C122.565 25.9483 120.598 26.4658 117.427 27.2437C116.018 27.5483 115.075 27.9263 114.631 28.3226C114.386 28.5625 114.196 28.8528 114.074 29.1735C113.952 29.4941 113.902 29.8374 113.926 30.1795C113.926 31.7575 114.983 32.5318 117.097 32.5318C120.88 32.5318 123.299 30.6272 123.299 26.6566Z" fill="#00391B"/>
<path d="M153.299 11.4941V17.5124H149.442C145.846 17.5124 143.706 19.6262 143.706 23.4831V36.5289H137.079V11.7766H143.482V17.795C144.822 13.6335 147.596 11.072 151.075 11.072C151.839 11.0351 152.601 11.1798 153.299 11.4941Z" fill="#00391B"/>
<path d="M173.89 0H180.546V36.5284H174.15V30.9321C172.62 34.9688 169.493 37.255 165.523 37.255C162.252 37.255 159.643 36.0575 157.695 33.6624C155.743 31.2881 154.759 28.1138 154.759 24.1651C154.759 20.2165 155.724 17.0422 157.695 14.6422C159.666 12.2422 162.253 11.0716 165.523 11.0716C169.192 11.0716 172.22 12.855 173.89 16.2642V0ZM167.779 32.0771C169.919 32.0771 171.493 31.4422 172.455 30.1945C173.416 28.9468 173.89 26.9284 173.89 24.1798C173.89 21.4312 173.42 19.4092 172.455 18.1615C171.49 16.9138 169.919 16.2789 167.779 16.2789C165.64 16.2789 164.088 16.9138 163.123 18.1615C162.157 19.4092 161.655 21.4275 161.655 24.1798C161.655 26.9321 162.15 28.9505 163.123 30.1945C164.095 31.4385 165.64 32.0771 167.779 32.0771Z" fill="#00391B"/>
</g>
</g>
<defs>
<clipPath id="clip0_147_1370">
<rect width="180.55" height="40" fill="white"/>
</clipPath>
</defs>
</svg>
