<svg width="106" height="109" viewBox="0 0 106 109" fill="none" xmlns="http://www.w3.org/2000/svg">
<path d="M87.51 84.87C94.24 76.22 97.64 65.71 97.64 53.35C97.64 38.9367 93.41 27.3 84.95 18.44C76.43 9.6 65.29 5.17999 51.39 5.17999C37.49 5.17999 26.28 9.6 17.76 18.44C9.24001 27.28 5 38.94 5 53.35C5 67.76 9.23 79.42 17.75 88.26C26.27 97.1 37.41 101.52 51.31 101.52C60.3034 101.665 69.1508 99.2358 76.81 94.52L89.75 108.8L101 97.55L87.51 84.87ZM57.35 83.33H43.85V70.2H57.35V83.33ZM57.51 55.33L54.9 56.04L54.45 64.15H46.75L46.08 51.15L53.37 49.29C56.48 48.54 58.67 47.55 59.87 46.29C61.07 45.03 61.65 43.19 61.65 40.7C61.65 34.37 58.84 31.63 52.17 31.63C44.92 31.63 41.82 34.95 41.82 42.73H31.05C31.05 36.65 33 31.73 36.85 27.95C40.7 24.17 45.75 22.36 52.09 22.36C58.2633 22.36 63.2333 23.9334 67 27.08C68.829 28.579 70.2883 30.479 71.2646 32.6329C72.2409 34.7867 72.7082 37.1365 72.63 39.5C72.63 47.59 67 52.97 57.51 55.33Z" fill="#00ED85"/>
</svg>
