<svg width="180" height="40" viewBox="0 0 180 40" fill="none" xmlns="http://www.w3.org/2000/svg">
<g clip-path="url(#clip0_2486_15434)">
<mask id="mask0_2486_15434" style="mask-type:luminance" maskUnits="userSpaceOnUse" x="0" y="0" width="180" height="40">
<path d="M179.993 0H0V39.9376H179.993V0Z" fill="white"/>
</mask>
<g mask="url(#mask0_2486_15434)">
<path d="M30.1788 31.1444C32.641 27.9701 33.8849 24.1132 33.8849 19.5775C33.8849 14.2882 32.3373 10.0178 29.2422 6.76645C26.1251 3.52241 22.0495 1.90039 16.9641 1.90039C11.8788 1.90039 7.77756 3.52241 4.66048 6.76645C1.54341 10.0105 -0.0078125 14.2894 -0.0078125 19.5775C-0.0078125 24.8655 1.53975 29.1444 4.65683 32.3885C7.7739 35.6325 11.8495 37.2545 16.9349 37.2545C20.2251 37.3077 23.462 36.4163 26.2641 34.6857L30.9983 39.9261L35.1141 35.7976L30.1788 31.1444ZM19.1446 30.5793H14.2056V25.7609H19.1446V30.5793ZM19.2032 20.3041L18.2483 20.5646L18.0837 23.5408H15.2666L15.0215 18.7701L17.6885 18.0875C18.8263 17.8123 19.6276 17.449 20.0666 16.9866C20.5056 16.5242 20.7178 15.849 20.7178 14.9353C20.7178 12.6123 19.6898 11.6068 17.2495 11.6068C14.5971 11.6068 13.4629 12.8252 13.4629 15.6802H9.52268C9.52268 13.449 10.2361 11.6435 11.6446 10.2564C13.0532 8.8692 14.9007 8.20498 17.2202 8.20498C19.4788 8.20498 21.2971 8.78238 22.6751 9.93709C23.3443 10.4872 23.8782 11.1844 24.2353 11.9749C24.5925 12.7652 24.7635 13.6275 24.7349 14.4949C24.7349 17.4637 22.6751 19.438 19.2032 20.3041Z" fill="#00A65B"/>
<path d="M57.0221 11.7764H63.699V36.5287H57.3002V31.5232C55.4709 35.3543 52.427 37.2553 48.1868 37.2553C45.5599 37.2553 43.5002 36.4589 41.9673 34.8589C40.4343 33.2589 39.6953 31.1232 39.6953 28.3965V11.7764H46.3026V25.7874C46.3026 27.9268 46.6685 29.4571 47.4002 30.3232C48.1319 31.1892 49.3941 31.6626 51.1978 31.6626C54.8563 31.6626 57.0112 29.5929 57.0112 25.7397L57.0221 11.7764Z" fill="#00A65B"/>
<path d="M70.375 0.751953H77.4762V7.12259H70.375V0.751953ZM70.6348 11.7611H77.2421V36.5134H70.6348V11.7611Z" fill="#00A65B"/>
<path d="M91.8671 31.2406H103.304V36.5287H82.75V27.0571L100.56 16.8773L93.9268 17.0901H82.9841V11.7764H103.066V21.4131L85.5049 31.38L91.8671 31.2406Z" fill="#00A65B"/>
<path d="M132.385 31.8492V36.5281C131.157 36.8298 129.899 36.9876 128.635 36.9979C125.049 36.9979 123.267 35.3758 123.147 31.7098C121.742 35.0125 118.65 37.2547 114.268 37.2547C112.039 37.2547 110.243 36.6933 108.9 35.563C108.252 35.0319 107.733 34.3589 107.383 33.5956C107.034 32.8324 106.863 31.999 106.885 31.1593C106.885 27.6804 108.992 25.519 113.986 24.5538C118.742 23.6621 121.72 22.9795 122.913 22.5318V22.0621C122.913 17.9006 121.625 16.1391 118.555 16.1391C115.486 16.1391 114.081 17.7612 114.081 21.6144H107.708C107.708 18.4437 108.717 15.8786 110.733 13.952C112.749 12.0254 115.394 11.0859 118.698 11.0859C122.002 11.0859 124.628 11.9777 126.527 13.7648C128.426 15.552 129.363 18.0437 129.363 21.1924V28.9281C129.363 30.2419 129.527 31.0639 129.878 31.3722C130.23 31.6804 131.027 31.8639 132.337 31.8639L132.385 31.8492ZM122.916 26.6566V25.6914C122.185 25.9483 120.224 26.4658 117.063 27.2437C115.658 27.5483 114.717 27.9263 114.275 28.3226C114.03 28.5625 113.841 28.8528 113.72 29.1735C113.598 29.4941 113.548 29.8374 113.572 30.1795C113.572 31.7575 114.626 32.5318 116.733 32.5318C120.505 32.5318 122.916 30.6272 122.916 26.6566Z" fill="#00A65B"/>
<path d="M152.827 11.4931V17.5114H148.982C145.396 17.5114 143.264 19.6252 143.264 23.4821V36.528H136.656V11.7757H143.04V17.794C144.376 13.6325 147.142 11.0711 150.61 11.0711C151.372 11.0342 152.131 11.1788 152.827 11.4931Z" fill="#00A65B"/>
<path d="M173.353 0H179.99V36.5284H173.613V30.9321C172.087 34.9688 168.97 37.255 165.012 37.255C161.751 37.255 159.15 36.0575 157.208 33.6624C155.262 31.2881 154.281 28.1138 154.281 24.1651C154.281 20.2165 155.243 17.0422 157.208 14.6422C159.173 12.2422 161.752 11.0716 165.012 11.0716C168.67 11.0716 171.689 12.855 173.353 16.2642V0ZM167.262 32.0771C169.395 32.0771 170.964 31.4422 171.923 30.1945C172.881 28.9468 173.353 26.9284 173.353 24.1798C173.353 21.4312 172.885 19.4092 171.923 18.1615C170.961 16.9138 169.395 16.2789 167.262 16.2789C165.129 16.2789 163.581 16.9138 162.619 18.1615C161.657 19.4092 161.156 21.4275 161.156 24.1798C161.156 26.9321 161.65 28.9505 162.619 30.1945C163.589 31.4385 165.129 32.0771 167.262 32.0771Z" fill="#00A65B"/>
</g>
</g>
<defs>
<clipPath id="clip0_2486_15434">
<rect width="180" height="40" fill="white"/>
</clipPath>
</defs>
</svg>
