<svg width="718" height="536" viewBox="0 0 718 536" fill="none" xmlns="http://www.w3.org/2000/svg">
<path d="M718 470.146H0V470.505H718V470.146Z" fill="#EBEBEB"/>
<path d="M646.056 493.252H598.496V493.611H646.056V493.252Z" fill="#EBEBEB"/>
<path d="M475.632 497.16H463.153V497.519H475.632V497.16Z" fill="#EBEBEB"/>
<path d="M597.06 479.924H569.503V480.283H597.06V479.924Z" fill="#EBEBEB"/>
<path d="M137.353 482.338H75.3323V482.697H137.353V482.338Z" fill="#EBEBEB"/>
<path d="M159.238 482.338H150.148V482.697H159.238V482.338Z" fill="#EBEBEB"/>
<path d="M323.315 488.398H188.791V488.757H323.315V488.398Z" fill="#EBEBEB"/>
<path d="M340.332 406.101H63.0548C60.8827 406.097 58.8008 405.231 57.2661 403.694C55.7315 402.157 54.8696 400.073 54.8696 397.901V8.12776C54.8885 5.96805 55.7588 3.90302 57.2914 2.3812C58.8239 0.859386 60.895 0.00369969 63.0548 0H340.332C342.507 0 344.592 0.86388 346.13 2.4016C347.668 3.93931 348.532 6.0249 348.532 8.19956V397.901C348.532 400.076 347.668 402.162 346.13 403.699C344.592 405.237 342.507 406.101 340.332 406.101ZM63.0548 0.287201C60.9779 0.291005 58.9873 1.11874 57.52 2.58872C56.0527 4.05869 55.2286 6.0508 55.2286 8.12776V397.901C55.2286 399.978 56.0527 401.97 57.52 403.44C58.9873 404.91 60.9779 405.738 63.0548 405.742H340.332C342.41 405.738 344.402 404.911 345.872 403.441C347.342 401.972 348.169 399.98 348.173 397.901V8.12776C348.169 6.04948 347.342 4.05741 345.872 2.58784C344.402 1.11827 342.41 0.290997 340.332 0.287201H63.0548Z" fill="#EBEBEB"/>
<path d="M650.953 406.101H373.662C371.488 406.097 369.405 405.232 367.868 403.695C366.331 402.158 365.466 400.075 365.462 397.901V8.12776C365.485 5.96674 366.358 3.90172 367.893 2.3803C369.428 0.858884 371.501 0.00365934 373.662 0H650.953C653.111 0.00747366 655.178 0.86483 656.708 2.38624C658.237 3.90765 659.105 5.97053 659.124 8.12776V397.901C659.124 400.071 658.264 402.152 656.733 403.689C655.201 405.226 653.123 406.093 650.953 406.101ZM373.662 0.287201C371.583 0.290997 369.591 1.11827 368.122 2.58784C366.652 4.05741 365.825 6.04948 365.821 8.12776V397.901C365.825 399.98 366.652 401.972 368.122 403.441C369.591 404.911 371.583 405.738 373.662 405.742H650.953C653.032 405.738 655.024 404.911 656.493 403.441C657.963 401.972 658.79 399.98 658.794 397.901V8.12776C658.79 6.04948 657.963 4.05741 656.493 2.58784C655.024 1.11827 653.032 0.290997 650.953 0.287201H373.662Z" fill="#EBEBEB"/>
<path d="M122.634 262.457H130.719L130.719 92.291H122.634L122.634 262.457Z" fill="#E0E0E0"/>
<path d="M281.155 92.3066H127.302V262.473H281.155V92.3066Z" fill="#E0E0E0"/>
<path d="M286.066 92.3066H126.483V262.473H286.066V92.3066Z" fill="#F0F0F0"/>
<path d="M279.316 97.7344H132.988V254.646H279.316V97.7344Z" fill="#EAFFEB"/>
<path d="M279.317 97.7344H275.08V254.646H279.317V97.7344Z" fill="#E0E0E0"/>
<path d="M132.6 210.561V214.797H275.525V210.561H132.6Z" fill="#E0E0E0"/>
<path d="M279.316 203.467H130.719V210.575H279.316V203.467Z" fill="#F0F0F0"/>
<path d="M393.048 467.49H604.728V199.432H393.048V467.49Z" fill="#F0F0F0"/>
<path d="M400.529 266.506H597.247V209.181L400.529 209.181V266.506Z" fill="#E0E0E0"/>
<path d="M586.061 266.506H597.233V218.472H586.061V266.506Z" fill="#EBEBEB"/>
<path d="M532.023 266.506H543.196V218.472H532.023V266.506Z" fill="#EBEBEB"/>
<path d="M462.534 264.606L473.544 266.504L481.703 219.168L470.694 217.27L462.534 264.606Z" fill="#EBEBEB"/>
<path d="M572.232 266.506H583.404V224.79H572.232V266.506Z" fill="#EBEBEB"/>
<path d="M546.527 266.506H557.699V224.79H546.527V266.506Z" fill="#EBEBEB"/>
<path d="M481.692 266.506H492.864V224.79H481.692V266.506Z" fill="#EBEBEB"/>
<path d="M508.324 264.082L519.23 266.506L528.281 225.784L517.375 223.36L508.324 264.082Z" fill="#EBEBEB"/>
<path d="M562.568 266.506H568.154V216.074H562.568V266.506Z" fill="#EBEBEB"/>
<path d="M496.095 266.506H501.681V216.074H496.095V266.506Z" fill="#EBEBEB"/>
<path d="M597.232 275.598H400.515V332.923H597.232V275.598Z" fill="#E0E0E0"/>
<path d="M411.687 284.873H400.515V332.907H411.687V284.873Z" fill="#EBEBEB"/>
<path d="M465.723 284.873H454.551V332.907H465.723V284.873Z" fill="#EBEBEB"/>
<path d="M527.073 283.657L516.064 285.555L524.223 332.891L535.233 330.993L527.073 283.657Z" fill="#EBEBEB"/>
<path d="M425.544 291.205H414.372V332.921H425.544V291.205Z" fill="#EBEBEB"/>
<path d="M451.22 291.205H440.048V332.921H451.22V291.205Z" fill="#EBEBEB"/>
<path d="M516.055 291.205H504.883V332.921H516.055V291.205Z" fill="#EBEBEB"/>
<path d="M480.42 289.752L469.514 292.176L478.564 332.898L489.47 330.474L480.42 289.752Z" fill="#EBEBEB"/>
<path d="M435.209 282.49H429.623V332.923H435.209V282.49Z" fill="#EBEBEB"/>
<path d="M501.667 282.49H496.081V332.923H501.667V282.49Z" fill="#EBEBEB"/>
<path d="M586.061 332.908H597.233V284.874H586.061V332.908Z" fill="#EBEBEB"/>
<path d="M572.232 332.908H583.404V291.192H572.232V332.908Z" fill="#EBEBEB"/>
<path d="M546.527 332.908H557.699V291.192H546.527V332.908Z" fill="#EBEBEB"/>
<path d="M562.568 332.908H568.154V282.476H562.568V332.908Z" fill="#EBEBEB"/>
<path d="M400.529 399.309H597.247V341.983H400.529V399.309Z" fill="#E0E0E0"/>
<path d="M473.148 399.309H484.32V351.274H473.148V399.309Z" fill="#EBEBEB"/>
<path d="M403.663 397.391L414.673 399.289L422.832 351.953L411.822 350.055L403.663 397.391Z" fill="#EBEBEB"/>
<path d="M513.356 399.309H524.528V357.593H513.356V399.309Z" fill="#EBEBEB"/>
<path d="M487.666 399.309H498.838V357.593H487.666V399.309Z" fill="#EBEBEB"/>
<path d="M422.816 399.309H433.988V357.593H422.816V399.309Z" fill="#EBEBEB"/>
<path d="M449.459 396.865L460.365 399.289L469.415 358.567L458.509 356.143L449.459 396.865Z" fill="#EBEBEB"/>
<path d="M503.691 399.309H509.277V348.876H503.691V399.309Z" fill="#EBEBEB"/>
<path d="M437.219 399.309H442.805V348.876H437.219V399.309Z" fill="#EBEBEB"/>
<path d="M532.23 397.395L543.24 399.293L551.399 351.957L540.389 350.059L532.23 397.395Z" fill="#EBEBEB"/>
<path d="M551.395 399.309H562.567V357.593H551.395V399.309Z" fill="#EBEBEB"/>
<path d="M578.027 396.859L588.933 399.283L597.983 358.561L587.077 356.137L578.027 396.859Z" fill="#EBEBEB"/>
<path d="M565.77 399.309H571.356V348.876H565.77V399.309Z" fill="#EBEBEB"/>
<path d="M253.31 302.68H130.446C127.274 302.674 124.131 303.294 121.199 304.503C118.266 305.713 115.6 307.489 113.354 309.73C111.109 311.97 109.326 314.631 108.11 317.561C106.893 320.491 106.266 323.632 106.264 326.805V422.758H277.449V326.805C277.449 323.635 276.825 320.497 275.612 317.569C274.398 314.641 272.62 311.981 270.378 309.741C268.137 307.5 265.476 305.724 262.547 304.512C259.618 303.3 256.48 302.678 253.31 302.68Z" fill="#E6E6E6"/>
<path d="M313.78 373.791H291.795C287.987 373.791 284.334 375.304 281.641 377.997C278.948 380.69 277.435 384.343 277.435 388.151V467.49H328.097V388.137C328.094 384.338 326.585 380.696 323.902 378.007C321.218 375.318 317.579 373.802 313.78 373.791Z" fill="#E0E0E0"/>
<path d="M313.78 373.791H313.307C309.498 373.791 305.846 375.304 303.152 377.997C300.459 380.69 298.947 384.343 298.947 388.151V467.49H328.083V388.137C328.079 384.341 326.573 380.7 323.892 378.012C321.212 375.324 317.576 373.806 313.78 373.791Z" fill="#EBEBEB"/>
<path d="M292.844 431.029H124.214V467.475H292.844V431.029Z" fill="#E6E6E6"/>
<path d="M293.073 397.701H130.446C122.396 397.701 115.871 404.227 115.871 412.277V421.366C115.871 429.416 122.396 435.942 130.446 435.942H293.073C301.123 435.942 307.649 429.416 307.649 421.366V412.277C307.649 404.227 301.123 397.701 293.073 397.701Z" fill="#F5F5F5"/>
<path d="M150.895 397.701H130.719C122.669 397.701 116.144 404.227 116.144 412.277V421.366C116.144 429.416 122.669 435.942 130.719 435.942H150.895C158.945 435.942 165.47 429.416 165.47 421.366V412.277C165.47 404.227 158.945 397.701 150.895 397.701Z" fill="#E0E0E0"/>
<path d="M128.536 373.791H106.551C102.743 373.791 99.0901 375.304 96.3971 377.997C93.7041 380.69 92.1912 384.343 92.1912 388.151V467.49H142.882V388.137C142.878 384.333 141.366 380.686 138.676 377.997C135.987 375.307 132.34 373.795 128.536 373.791Z" fill="#E0E0E0"/>
<path d="M128.536 373.791H128.077C124.268 373.791 120.616 375.304 117.923 377.997C115.23 380.69 113.717 384.343 113.717 388.151V467.49H142.882V388.137C142.878 384.333 141.366 380.686 138.676 377.997C135.987 375.307 132.34 373.795 128.536 373.791Z" fill="#F0F0F0"/>
<path d="M493.525 135.745C509.672 135.745 522.762 122.656 522.762 106.508C522.762 90.3613 509.672 77.2715 493.525 77.2715C477.377 77.2715 464.288 90.3613 464.288 106.508C464.288 122.656 477.377 135.745 493.525 135.745Z" fill="#00E37F"/>
<path d="M518.086 110.5C520.285 96.9489 511.083 84.1807 497.532 81.981C483.981 79.7814 471.213 88.9834 469.014 102.534C466.814 116.085 476.016 128.853 489.567 131.053C503.118 133.253 515.886 124.051 518.086 110.5Z" fill="#C3FFD0"/>
<path d="M492.361 89.4492V106.825L480.845 100.305" fill="#C3FFD0"/>
<path d="M492.361 108.073C492.144 108.073 491.93 108.014 491.744 107.9L480.256 101.395C479.986 101.223 479.793 100.953 479.716 100.642C479.639 100.331 479.685 100.003 479.843 99.7242C480.002 99.4459 480.261 99.2391 480.568 99.1465C480.874 99.054 481.205 99.0827 481.491 99.2268L491.141 104.698V89.4476C491.174 89.1412 491.319 88.8578 491.548 88.6519C491.777 88.4459 492.075 88.332 492.383 88.332C492.691 88.332 492.988 88.4459 493.218 88.6519C493.447 88.8578 493.592 89.1412 493.625 89.4476V106.823C493.626 107.041 493.57 107.256 493.461 107.445C493.353 107.634 493.196 107.791 493.008 107.9C492.813 108.019 492.589 108.079 492.361 108.073Z" fill="#00C46D"/>
<path opacity="0.6" d="M359 535.008C512.771 535.008 637.426 526.155 637.426 515.235C637.426 504.314 512.771 495.461 359 495.461C205.23 495.461 80.574 504.314 80.574 515.235C80.574 526.155 205.23 535.008 359 535.008Z" fill="#00E37F"/>
<path d="M558.116 216.578H519.344C515.813 216.578 512.428 217.981 509.931 220.477C507.435 222.973 506.032 226.359 506.032 229.89V245.944C506.032 249.475 507.435 252.861 509.931 255.357C512.428 257.854 515.813 259.256 519.344 259.256H535.915L540.367 273.314L544.862 259.256H558.044C561.575 259.256 564.961 257.854 567.457 255.357C569.953 252.861 571.356 249.475 571.356 245.944V229.89C571.356 226.372 569.963 222.997 567.482 220.502C565.001 218.008 561.634 216.597 558.116 216.578Z" fill="#006D3A"/>
<path d="M523.68 236.941C523.68 237.472 523.523 237.991 523.228 238.433C522.933 238.875 522.513 239.219 522.023 239.422C521.532 239.625 520.992 239.679 520.471 239.575C519.95 239.471 519.472 239.216 519.096 238.84C518.721 238.464 518.465 237.986 518.361 237.465C518.258 236.944 518.311 236.404 518.514 235.914C518.717 235.423 519.062 235.003 519.503 234.708C519.945 234.413 520.464 234.256 520.995 234.256C521.348 234.256 521.697 234.325 522.023 234.46C522.349 234.595 522.645 234.793 522.894 235.042C523.143 235.292 523.341 235.588 523.476 235.914C523.611 236.239 523.68 236.589 523.68 236.941ZM532.842 234.256C532.311 234.256 531.792 234.413 531.35 234.708C530.909 235.003 530.564 235.423 530.361 235.914C530.158 236.404 530.105 236.944 530.208 237.465C530.312 237.986 530.568 238.464 530.943 238.84C531.319 239.216 531.797 239.471 532.318 239.575C532.839 239.679 533.379 239.625 533.87 239.422C534.36 239.219 534.78 238.875 535.075 238.433C535.37 237.991 535.527 237.472 535.527 236.941C535.512 236.239 535.223 235.571 534.721 235.079C534.219 234.588 533.544 234.313 532.842 234.313V234.256ZM544.689 234.256C544.158 234.256 543.639 234.413 543.197 234.708C542.756 235.003 542.411 235.423 542.208 235.914C542.005 236.404 541.952 236.944 542.055 237.465C542.159 237.986 542.415 238.464 542.79 238.84C543.166 239.216 543.644 239.471 544.165 239.575C544.686 239.679 545.226 239.625 545.717 239.422C546.207 239.219 546.627 238.875 546.922 238.433C547.217 237.991 547.374 237.472 547.374 236.941C547.359 236.239 547.07 235.571 546.568 235.079C546.066 234.588 545.391 234.313 544.689 234.313V234.256ZM556.536 234.256C556.005 234.256 555.486 234.413 555.044 234.708C554.603 235.003 554.258 235.423 554.055 235.914C553.852 236.404 553.799 236.944 553.902 237.465C554.006 237.986 554.262 238.464 554.637 238.84C555.013 239.216 555.491 239.471 556.012 239.575C556.533 239.679 557.073 239.625 557.564 239.422C558.054 239.219 558.474 238.875 558.769 238.433C559.064 237.991 559.221 237.472 559.221 236.941C559.206 236.239 558.917 235.571 558.415 235.079C557.913 234.588 557.238 234.313 556.536 234.313V234.256Z" fill="white"/>
<path d="M160.114 263.967H121.414C119.666 263.967 117.935 264.311 116.32 264.98C114.705 265.649 113.237 266.63 112.001 267.866C110.765 269.102 109.784 270.569 109.115 272.184C108.446 273.799 108.102 275.53 108.102 277.279V293.333C108.102 296.863 109.505 300.249 112.001 302.746C114.497 305.242 117.883 306.645 121.414 306.645H137.985L142.437 320.689L146.931 306.645H160.114C163.644 306.645 167.03 305.242 169.527 302.746C172.023 300.249 173.426 296.863 173.426 293.333V277.279C173.426 275.53 173.081 273.799 172.412 272.184C171.743 270.569 170.763 269.102 169.527 267.866C168.291 266.63 166.823 265.649 165.208 264.98C163.593 264.311 161.862 263.967 160.114 263.967Z" fill="#006D3A"/>
<path d="M125.679 284.33C125.679 284.861 125.521 285.38 125.226 285.822C124.931 286.263 124.512 286.608 124.021 286.811C123.53 287.014 122.99 287.067 122.47 286.964C121.949 286.86 121.47 286.604 121.095 286.229C120.719 285.853 120.463 285.375 120.36 284.854C120.256 284.333 120.309 283.793 120.513 283.302C120.716 282.812 121.06 282.392 121.502 282.097C121.943 281.802 122.462 281.645 122.993 281.645C123.706 281.645 124.389 281.928 124.892 282.431C125.396 282.935 125.679 283.618 125.679 284.33ZM134.84 281.645C134.309 281.645 133.79 281.802 133.349 282.097C132.907 282.392 132.563 282.812 132.36 283.302C132.156 283.793 132.103 284.333 132.207 284.854C132.31 285.375 132.566 285.853 132.942 286.229C133.317 286.604 133.796 286.86 134.317 286.964C134.837 287.067 135.377 287.014 135.868 286.811C136.359 286.608 136.778 286.263 137.073 285.822C137.368 285.38 137.526 284.861 137.526 284.33C137.514 283.627 137.226 282.956 136.723 282.464C136.22 281.972 135.544 281.698 134.84 281.702V281.645ZM146.687 281.645C146.155 281.639 145.633 281.792 145.188 282.083C144.742 282.375 144.394 282.792 144.186 283.282C143.978 283.772 143.921 284.313 144.022 284.836C144.122 285.359 144.375 285.84 144.75 286.218C145.124 286.597 145.602 286.855 146.124 286.961C146.646 287.067 147.187 287.016 147.68 286.814C148.172 286.611 148.593 286.267 148.889 285.825C149.186 285.383 149.344 284.862 149.344 284.33C149.333 283.632 149.048 282.965 148.552 282.474C148.055 281.983 147.386 281.706 146.687 281.702V281.645ZM158.534 281.645C158.003 281.645 157.484 281.802 157.043 282.097C156.601 282.392 156.257 282.812 156.054 283.302C155.85 283.793 155.797 284.333 155.901 284.854C156.004 285.375 156.26 285.853 156.636 286.229C157.011 286.604 157.49 286.86 158.011 286.964C158.531 287.067 159.071 287.014 159.562 286.811C160.053 286.608 160.472 286.263 160.767 285.822C161.062 285.38 161.22 284.861 161.22 284.33C161.208 283.627 160.92 282.956 160.417 282.464C159.914 281.972 159.238 281.698 158.534 281.702V281.645Z" fill="white"/>
<path d="M593.068 517.244H410.811C376.763 517.244 374.581 477.151 402.568 458.282C407.685 454.88 413.349 452.383 419.312 450.901C474.727 436.325 552.587 338.347 607.428 379.345L607.586 379.46C662.211 420.745 624.028 517.244 593.068 517.244Z" fill="#263238"/>
<path opacity="0.5" d="M593.068 517.244H410.811C376.763 517.244 374.581 477.151 402.568 458.282C407.685 454.88 413.349 452.383 419.312 450.901C474.727 436.325 552.587 338.347 607.428 379.345L607.586 379.46C662.211 420.745 624.028 517.244 593.068 517.244Z" fill="white"/>
<path opacity="0.2" d="M607.285 379.274C602.689 378.973 597.118 380.265 591.115 385.291C575.535 398.359 599.229 461.27 561.964 487.434C541.171 502.038 451.464 508.471 421.524 490.564C399.424 477.339 399.136 469.024 402.568 458.283C407.685 454.881 413.349 452.384 419.312 450.902C474.656 436.255 552.516 338.277 607.285 379.274Z" fill="black"/>
<path d="M465.58 367.414L454.709 359.76L462.837 351.445C462.837 351.445 471.18 355.753 470.391 363.436L465.58 367.414Z" fill="#E4897B"/>
<path d="M450.445 351.315L457.984 346.576L462.837 351.444L454.71 359.759L450.445 351.315Z" fill="#E4897B"/>
<path d="M519.057 347.639C508.761 350.669 503.692 368.777 495.19 385.879L470.448 361.295L462.579 368.274C462.579 368.274 485.239 404.275 495.937 404.275C509.292 404.275 523.149 367.183 523.149 367.183L519.057 347.639Z" fill="#263238"/>
<path opacity="0.1" d="M523.149 367.182C523.149 367.182 520.952 373.055 517.405 380.106C514.031 386.97 509.435 394.969 504.481 399.808C501.681 402.522 498.737 404.245 495.865 404.245C485.167 404.245 462.507 368.245 462.507 368.245L470.376 361.266L495.118 385.85C503.62 368.747 508.674 350.639 518.999 347.609L523.149 367.182Z" fill="white"/>
<path opacity="0.2" d="M517.463 380.135C514.088 386.999 509.493 394.998 504.539 399.837C505.07 383.424 513.155 367.412 513.155 367.412C515.384 371.342 516.846 375.659 517.463 380.135Z" fill="black"/>
<path d="M509.206 447.67C509.206 447.67 421.825 435.12 417.201 454.29C412.333 474.567 482.496 488.237 524.427 489.673C566.359 491.109 578.392 481.057 571.657 429.361H514.217L509.206 447.67Z" fill="#006D3A"/>
<path opacity="0.6" d="M509.206 447.67C509.206 447.67 421.825 435.12 417.201 454.29C412.333 474.567 482.496 488.237 524.427 489.673C566.359 491.109 578.392 481.057 571.657 429.361H514.217L509.206 447.67Z" fill="white"/>
<path d="M460.54 487.649L442.231 487.663L433.442 487.677L432.394 478.415L440.522 477.324L460.382 474.682L460.54 487.649Z" fill="#E4897B"/>
<path d="M434.376 477.254L436.602 487.823C436.633 487.961 436.635 488.105 436.609 488.245C436.583 488.385 436.529 488.518 436.45 488.636C436.37 488.755 436.268 488.856 436.148 488.933C436.029 489.01 435.895 489.062 435.754 489.086L430.484 490.034C430.484 490.034 423.491 491.815 421.524 490.565C415.78 486.889 410.265 463.655 412.606 461.931C413.453 461.3 414.932 462.262 415.679 463.023C418.034 465.421 423.046 472.127 425.042 474.109C427.354 476.435 431.475 476.507 433.284 476.406C433.537 476.394 433.786 476.473 433.987 476.628C434.187 476.784 434.325 477.005 434.376 477.254Z" fill="#263238"/>
<path opacity="0.2" d="M460.54 487.649L442.231 487.663L440.522 477.324L460.382 474.682L460.54 487.649Z" fill="black"/>
<path d="M487.307 471.309L504.683 477.096L513.026 479.867L511.087 488.971L503.031 487.435L483.358 483.673L487.307 471.309Z" fill="#E4897B"/>
<path d="M508.847 489.445L510.067 478.718C510.085 478.577 510.13 478.441 510.201 478.318C510.271 478.195 510.365 478.087 510.477 478.001C510.589 477.914 510.717 477.85 510.854 477.813C510.99 477.776 511.133 477.766 511.274 477.784L516.572 478.56C516.572 478.56 523.752 479.077 525.188 480.886C529.496 486.185 527.371 509.979 524.614 510.87C523.594 511.2 522.503 509.821 522.029 508.874C520.593 505.844 517.922 497.888 516.659 495.39C515.223 492.446 511.302 491.082 509.565 490.593C509.329 490.518 509.127 490.361 508.995 490.15C508.864 489.94 508.811 489.69 508.847 489.445Z" fill="#263238"/>
<path opacity="0.2" d="M487.307 471.309L504.683 477.096L503.031 487.435L483.358 483.673L487.307 471.309Z" fill="black"/>
<path d="M500.015 489.041L495.061 489.515L498.019 472.369L503.706 475.37L500.015 489.041Z" fill="#006D3A"/>
<path opacity="0.6" d="M500.015 489.041L495.061 489.515L498.019 472.369L503.706 475.37L500.015 489.041Z" fill="white"/>
<path d="M516.601 495.26C516.73 496.037 516.614 496.835 516.271 497.543C516.132 497.756 515.939 497.927 515.712 498.041C515.485 498.154 515.232 498.206 514.978 498.19C514.825 498.196 514.673 498.163 514.537 498.092C514.401 498.022 514.286 497.917 514.203 497.788C513.456 496.524 515.208 492.632 515.424 492.202C515.437 492.153 515.468 492.112 515.511 492.085C515.553 492.059 515.604 492.049 515.653 492.058C515.708 492.063 515.76 492.085 515.801 492.121C515.842 492.157 515.871 492.205 515.883 492.259C516.223 493.233 516.464 494.238 516.601 495.26ZM514.533 497.127C514.543 497.254 514.582 497.377 514.648 497.486C514.675 497.541 514.719 497.586 514.773 497.615C514.827 497.643 514.889 497.653 514.95 497.644C515.124 497.665 515.3 497.635 515.458 497.559C515.615 497.482 515.748 497.362 515.84 497.213C516.258 495.848 516.182 494.378 515.625 493.063C515.02 494.341 514.65 495.718 514.533 497.127Z" fill="#006D3A"/>
<path d="M515.926 492.287V492.402C515.452 493.651 513.298 496.121 512.078 495.949C511.878 495.914 511.696 495.813 511.56 495.662C511.425 495.511 511.344 495.319 511.331 495.116C511.276 494.915 511.265 494.704 511.3 494.498C511.335 494.292 511.414 494.096 511.532 493.924C512.422 492.488 515.51 492.029 515.682 492.043C515.73 492.034 515.779 492.04 515.823 492.061C515.867 492.082 515.903 492.116 515.926 492.158C515.937 492.2 515.937 492.245 515.926 492.287ZM511.791 494.915V495.03C511.877 495.389 512.02 495.403 512.092 495.432C512.81 495.533 514.462 493.924 515.18 492.689C513.955 492.838 512.813 493.389 511.934 494.255C511.812 494.452 511.756 494.684 511.776 494.915H511.791Z" fill="#006D3A"/>
<path d="M443.896 475.99C443.896 475.99 525.188 444.398 550.089 449.682C574.989 454.966 575.104 467.991 562.481 480.14C549.859 492.288 531.004 487.607 531.004 487.607C531.004 487.607 545.824 478.732 544.79 473.247C543.756 467.761 534.336 480.298 534.336 480.298C534.336 480.298 485.21 492.317 444.643 489.143L443.896 475.99Z" fill="#006D3A"/>
<path d="M425.602 474.281C425.13 473.656 424.868 472.896 424.855 472.113C424.878 471.861 424.967 471.619 425.113 471.412C425.259 471.205 425.458 471.041 425.688 470.935C425.822 470.861 425.973 470.822 426.126 470.822C426.279 470.822 426.43 470.861 426.564 470.935C427.799 471.725 428 475.99 428 476.478C428.006 476.527 427.995 476.577 427.969 476.619C427.943 476.66 427.903 476.692 427.856 476.708C427.812 476.738 427.759 476.754 427.705 476.754C427.652 476.754 427.599 476.738 427.555 476.708C426.821 475.97 426.166 475.156 425.602 474.281ZM426.578 471.668C426.505 471.564 426.413 471.476 426.305 471.409C426.257 471.375 426.199 471.357 426.14 471.357C426.081 471.357 426.023 471.375 425.975 471.409C425.809 471.469 425.664 471.576 425.558 471.716C425.451 471.856 425.386 472.023 425.372 472.199C425.629 473.604 426.377 474.871 427.483 475.775C427.427 474.363 427.121 472.972 426.578 471.668Z" fill="#006D3A"/>
<path d="M427.555 476.606V476.476C427.411 475.155 428.172 471.967 429.35 471.551C429.544 471.49 429.754 471.497 429.944 471.57C430.134 471.643 430.294 471.778 430.398 471.953C430.668 472.272 430.802 472.685 430.771 473.102C430.628 474.782 428.1 476.606 427.899 476.692C427.859 476.719 427.812 476.734 427.763 476.734C427.714 476.734 427.667 476.719 427.627 476.692C427.596 476.67 427.571 476.64 427.555 476.606ZM430.025 472.37V472.269C429.795 471.996 429.651 472.054 429.579 472.068C428.89 472.298 428.143 474.48 428.143 475.916C428.847 475.328 430.211 474.093 430.297 473.044C430.312 472.812 430.252 472.58 430.125 472.384L430.025 472.37Z" fill="#006D3A"/>
<path opacity="0.7" d="M443.896 475.99C443.896 475.99 525.188 444.398 550.089 449.682C574.989 454.966 575.104 467.991 562.481 480.14C549.859 492.288 531.004 487.607 531.004 487.607C531.004 487.607 545.824 478.732 544.79 473.247C543.756 467.761 534.336 480.298 534.336 480.298C534.336 480.298 485.21 492.317 444.643 489.143L443.896 475.99Z" fill="white"/>
<path d="M442.906 475.745L447.472 473.648L450.1 490.751L443.753 489.717L442.906 475.745Z" fill="#006D3A"/>
<path opacity="0.6" d="M442.906 475.745L447.472 473.648L450.1 490.751L443.753 489.717L442.906 475.745Z" fill="white"/>
<path d="M577.43 350.381C568.656 399.205 571.844 430.797 571.844 430.797C571.844 430.797 531.019 430.237 514.246 429.29C505.3 370.112 519.057 347.624 519.057 347.624C523.443 346.745 527.879 346.136 532.34 345.801C533.273 345.729 534.235 345.686 535.212 345.643C543.124 345.637 551.03 346.083 558.891 346.978C560.327 347.136 561.893 347.337 563.357 347.552C570.839 348.687 577.43 350.381 577.43 350.381Z" fill="#263238"/>
<path opacity="0.1" d="M577.43 350.382C576.339 356.442 575.434 362.243 574.687 367.728C573.51 376.344 572.72 384.329 572.203 391.422C572.045 393.562 571.901 395.644 571.801 397.626C571.384 404.892 571.27 411.11 571.284 416.136C571.284 425.585 571.844 430.798 571.844 430.798C571.844 430.798 531.019 430.238 514.246 429.29C505.285 370.112 519.071 347.624 519.071 347.624C523.452 346.745 527.884 346.136 532.34 345.801C533.273 345.729 534.235 345.686 535.212 345.643C543.124 345.63 551.031 346.076 558.891 346.978C560.327 347.136 561.893 347.337 563.357 347.553C570.839 348.673 577.43 350.382 577.43 350.382Z" fill="white"/>
<path opacity="0.2" d="M540.97 404.275C551.432 403.032 561.754 400.811 571.801 397.641C571.385 404.907 571.27 411.125 571.284 416.151C551.798 417.946 543.842 414.198 543.842 414.198L540.97 404.275Z" fill="black"/>
<path opacity="0.2" d="M574.687 367.745C573.51 376.361 572.72 384.345 572.203 391.439C566.617 380.066 570.767 366.424 570.767 366.424L574.687 367.745Z" fill="black"/>
<path d="M543.182 424.322H513.485C512.908 424.313 512.355 424.088 511.936 423.692C511.516 423.296 511.259 422.758 511.216 422.182L507.081 382.764C507.052 382.499 507.08 382.232 507.163 381.979C507.245 381.726 507.381 381.493 507.56 381.296C507.739 381.1 507.958 380.943 508.202 380.837C508.446 380.731 508.71 380.678 508.976 380.682H538.673C539.238 380.693 539.78 380.911 540.195 381.295C540.611 381.679 540.871 382.201 540.927 382.764L545.077 422.182C545.115 422.451 545.093 422.725 545.015 422.985C544.936 423.245 544.802 423.485 544.622 423.688C544.442 423.892 544.22 424.054 543.971 424.163C543.723 424.272 543.453 424.326 543.182 424.322Z" fill="#263238"/>
<path opacity="0.6" d="M543.182 424.322H513.485C512.908 424.313 512.355 424.088 511.936 423.692C511.516 423.296 511.259 422.758 511.216 422.182L507.081 382.764C507.052 382.499 507.08 382.232 507.163 381.979C507.245 381.726 507.381 381.493 507.56 381.296C507.739 381.1 507.958 380.943 508.202 380.837C508.446 380.731 508.71 380.678 508.976 380.682H538.673C539.238 380.693 539.78 380.911 540.195 381.295C540.611 381.679 540.871 382.201 540.927 382.764L545.077 422.182C545.115 422.451 545.093 422.725 545.015 422.985C544.936 423.245 544.802 423.485 544.622 423.688C544.442 423.892 544.22 424.054 543.971 424.163C543.723 424.272 543.453 424.326 543.182 424.322Z" fill="white"/>
<path opacity="0.2" d="M541.947 424.322H513.485C512.908 424.313 512.355 424.088 511.936 423.692C511.516 423.296 511.259 422.758 511.216 422.182L507.081 382.764C507.052 382.499 507.08 382.232 507.163 381.979C507.245 381.726 507.381 381.493 507.56 381.296C507.739 381.1 507.958 380.943 508.202 380.837C508.446 380.731 508.71 380.678 508.976 380.682H537.438C538.003 380.693 538.545 380.911 538.96 381.295C539.376 381.679 539.636 382.201 539.692 382.764L543.842 422.182C543.88 422.451 543.858 422.725 543.78 422.985C543.701 423.245 543.567 423.485 543.387 423.688C543.207 423.892 542.985 424.054 542.736 424.163C542.488 424.272 542.218 424.326 541.947 424.322Z" fill="white"/>
<path d="M524.629 399.307C524.219 399.304 523.814 399.388 523.44 399.554C523.066 399.72 522.732 399.965 522.46 400.271C522.188 400.577 521.984 400.937 521.863 401.328C521.742 401.719 521.705 402.132 521.757 402.538C521.841 403.409 522.244 404.219 522.888 404.812C523.531 405.405 524.371 405.741 525.246 405.754C525.654 405.757 526.058 405.673 526.431 405.508C526.804 405.343 527.138 405.1 527.409 404.795C527.681 404.491 527.885 404.132 528.007 403.743C528.129 403.354 528.167 402.943 528.118 402.538C527.242 402.521 526.402 402.182 525.758 401.586C525.115 400.991 524.713 400.179 524.629 399.307Z" fill="#263238"/>
<path opacity="0.3" d="M531.062 383.869H515.366C514.981 383.863 514.604 383.75 514.279 383.542C513.954 383.334 513.694 383.039 513.528 382.691L512.595 380.738H533.302L532.756 382.691C532.649 383.051 532.423 383.363 532.115 383.577C531.808 383.791 531.436 383.894 531.062 383.869Z" fill="black"/>
<path d="M540.281 403.011L533.417 402.451L533.704 411.584L539.448 414.6L552.688 413.393L553.765 407.233C549.414 400.857 540.281 403.011 540.281 403.011Z" fill="#E4897B"/>
<path d="M577.43 350.383C584.481 352.508 594.475 393.463 592.881 402.51C591.287 411.556 573.897 415.434 551.797 414.931V404.247L577.43 396.766L573.122 380.97C573.122 380.97 569.561 369.352 571.155 361.225C572.03 357.031 574.23 353.23 577.43 350.383Z" fill="#263238"/>
<path opacity="0.1" d="M577.43 350.383C584.481 352.508 594.475 393.463 592.881 402.51C591.287 411.556 573.897 415.434 551.797 414.931V404.247L577.43 396.766L573.122 380.97C573.122 380.97 569.561 369.352 571.155 361.225C572.03 357.031 574.23 353.23 577.43 350.383Z" fill="white"/>
<path d="M555.473 346.519C551.898 350.253 546.283 353.383 537.279 353.053C530.372 352.78 529.41 348.443 530.616 346.06C534.809 345.198 536.705 343.374 537.294 341.048C537.882 338.722 537.064 335.591 535.858 332.69L547.504 322.883L549.471 321.217C549.471 321.777 549.399 322.366 549.37 322.983C549.235 325.26 549.235 327.542 549.37 329.818C549.758 336.237 551.28 343.202 555.473 346.519Z" fill="#E4897B"/>
<path opacity="0.2" d="M549.385 329.819C547.217 334.256 543.411 339.612 537.294 341.048C537.926 338.578 537.064 335.591 535.858 332.691L547.504 322.883C548.121 322.883 548.753 322.883 549.371 322.983C549.24 325.26 549.245 327.543 549.385 329.819Z" fill="black"/>
<path d="M522.704 303.384C520.995 307.29 520.78 315.676 526.725 313.594C532.67 311.512 525.576 296.678 522.704 303.384Z" fill="#263238"/>
<path d="M551.18 312.039C550.663 322.494 550.907 328.654 545.68 334.039C537.811 342.138 524.829 337.371 522.187 326.945C519.832 317.539 521.067 302.016 531.263 297.823C533.524 296.897 535.984 296.559 538.411 296.841C540.839 297.122 543.155 298.015 545.145 299.435C547.134 300.855 548.731 302.755 549.786 304.96C550.842 307.164 551.321 309.6 551.18 312.039Z" fill="#E4897B"/>
<path d="M535.327 314.999C535.327 315.847 534.896 316.55 534.336 316.55C533.776 316.55 533.316 315.861 533.302 314.999C533.287 314.138 533.747 313.463 534.293 313.463C534.838 313.463 535.312 314.152 535.327 314.999Z" fill="#263238"/>
<path d="M525.677 315.027C525.677 315.874 525.246 316.563 524.686 316.563C524.126 316.563 523.667 315.874 523.667 315.027C523.667 314.18 524.097 313.49 524.657 313.49C525.217 313.49 525.677 314.165 525.677 315.027Z" fill="#263238"/>
<path d="M528.75 315.443C527.734 317.966 526.371 320.334 524.7 322.48C525.293 322.87 525.961 323.131 526.661 323.247C527.361 323.364 528.077 323.332 528.764 323.155L528.75 315.443Z" fill="#DE5753"/>
<path d="M538.256 311.883C538.17 311.896 538.082 311.885 538.001 311.852C537.92 311.82 537.849 311.766 537.797 311.696C537.425 311.186 536.939 310.77 536.378 310.481C535.817 310.191 535.197 310.037 534.566 310.031C534.433 310.039 534.302 309.996 534.201 309.91C534.099 309.825 534.034 309.703 534.02 309.571C534.014 309.505 534.021 309.439 534.041 309.375C534.061 309.312 534.093 309.253 534.136 309.203C534.179 309.152 534.231 309.11 534.29 309.08C534.349 309.049 534.413 309.031 534.479 309.025C535.277 309.02 536.065 309.204 536.779 309.561C537.492 309.917 538.112 310.438 538.586 311.079C538.668 311.184 538.705 311.317 538.688 311.449C538.672 311.58 538.605 311.7 538.5 311.783C538.429 311.837 538.345 311.871 538.256 311.883Z" fill="#263238"/>
<path d="M521.484 311.724C521.39 311.752 521.29 311.752 521.196 311.724C521.137 311.695 521.084 311.655 521.04 311.605C520.996 311.555 520.962 311.497 520.941 311.435C520.92 311.372 520.911 311.306 520.915 311.24C520.92 311.173 520.937 311.109 520.967 311.049C521.285 310.319 521.775 309.676 522.395 309.176C523.015 308.676 523.747 308.334 524.528 308.177C524.594 308.169 524.661 308.175 524.725 308.193C524.789 308.211 524.849 308.242 524.901 308.283C524.953 308.324 524.996 308.376 525.029 308.434C525.061 308.492 525.081 308.556 525.088 308.623C525.098 308.687 525.095 308.752 525.08 308.816C525.064 308.879 525.036 308.938 524.997 308.99C524.959 309.042 524.91 309.086 524.854 309.119C524.798 309.152 524.736 309.174 524.671 309.183C524.055 309.299 523.477 309.565 522.988 309.958C522.5 310.352 522.116 310.86 521.871 311.437C521.834 311.512 521.779 311.577 521.712 311.627C521.645 311.677 521.566 311.711 521.484 311.724Z" fill="#263238"/>
<path d="M534.752 303.655C534.752 303.655 537.624 301.587 538.945 303.813C540.266 306.038 540.18 311.969 540.18 311.969L540.755 310.921C540.755 310.921 544.474 324.132 549.859 320.8C555.244 317.469 563.156 304.057 550.577 297.221C550.577 297.221 549.241 294.033 540.927 292.454C532.613 290.874 522.561 296.015 520.823 301.515C519.085 307.015 521.512 310.131 521.512 310.131C521.779 308.934 522.325 307.817 523.106 306.871C523.218 307.432 523.466 307.956 523.829 308.397C524.193 308.838 524.66 309.182 525.188 309.399C525.104 308.275 525.337 307.15 525.863 306.153C526.138 307.13 526.629 308.033 527.299 308.796C527.902 303.138 531.751 301.989 532.957 302.032C533.389 302.08 533.795 302.262 534.117 302.553C534.439 302.845 534.661 303.23 534.752 303.655Z" fill="#263238"/>
<path d="M555.33 320.7C554.946 321.944 554.319 323.1 553.486 324.1C552.653 325.101 551.63 325.927 550.476 326.53C547.375 328.124 545.106 325.496 545.364 322.222C545.594 319.25 547.475 314.841 550.879 314.626C551.623 314.592 552.364 314.743 553.036 315.065C553.708 315.387 554.291 315.87 554.731 316.471C555.172 317.072 555.457 317.772 555.561 318.51C555.666 319.248 555.586 320 555.33 320.7Z" fill="#E4897B"/>
<path d="M529.094 326.66C529.991 327.598 530.816 328.601 531.564 329.661L532.182 329.359C534.953 327.923 535.786 326.387 535.858 325.051C535.876 324.407 535.743 323.768 535.47 323.185C535.324 322.852 535.13 322.543 534.896 322.266C533.573 323.895 531.912 325.218 530.028 326.143C529.468 326.487 529.094 326.66 529.094 326.66Z" fill="#263238"/>
<path d="M530.028 326.17L530.789 327.032C533.388 325.711 535.097 324.418 535.47 323.212C535.324 322.88 535.131 322.57 534.896 322.293C533.573 323.922 531.912 325.245 530.028 326.17Z" fill="white"/>
<path d="M532.182 329.359C534.953 327.923 535.786 326.386 535.858 325.051C534.814 325.605 533.876 326.339 533.087 327.219C532.566 327.819 532.249 328.568 532.182 329.359Z" fill="#A24E3F"/>
<path d="M279.173 360.693L279.92 368.663C279.92 368.663 326.561 375.757 334.028 383.023C341.495 390.289 367.99 505.212 367.99 505.212L357.306 506.648C357.306 506.648 320.228 421.924 318.246 409.66C318.246 409.66 285.592 410.881 263.305 410.881C241.018 410.881 238.362 360.621 238.362 360.621L279.173 360.693Z" fill="#006D3A"/>
<path opacity="0.3" d="M367.99 505.227L357.306 506.663C357.306 506.663 342.142 472.012 330.697 443.824C324.22 427.927 318.95 414.084 318.247 409.661C318.247 409.661 295.644 410.494 275.167 410.781C271.031 410.781 266.996 410.867 263.248 410.867C240.961 410.867 238.304 360.607 238.304 360.607H279.116L279.862 368.577C279.862 368.577 326.518 375.657 333.971 382.937C341.424 390.218 367.99 505.227 367.99 505.227Z" fill="white"/>
<path d="M376.232 515.523C369.052 515.523 368.09 515.408 364.04 515.265C360.58 515.15 359.732 515.58 356.975 515.523C354.649 515.523 354.735 513.24 355.453 510.684C355.812 509.391 356.358 506.677 356.889 504.609L367.429 503.834C368.865 506.706 372.254 510.712 376.304 511.258C380.353 511.804 379.104 515.523 376.232 515.523Z" fill="#263238"/>
<path opacity="0.2" d="M330.697 443.882C324.22 427.986 318.95 414.143 318.247 409.72C318.247 409.72 295.644 410.553 275.167 410.84L272.955 371.795C272.955 371.795 301.79 375.931 321.176 392.631C323.632 394.699 328.413 426.679 330.697 443.882Z" fill="black"/>
<path d="M320.645 418.348H237.199V413.221C237.199 411.511 237.878 409.871 239.087 408.662C240.296 407.453 241.936 406.774 243.646 406.774H314.197C315.907 406.774 317.547 407.453 318.756 408.662C319.965 409.871 320.645 411.511 320.645 413.221V418.348Z" fill="#263238"/>
<path opacity="0.2" d="M320.645 418.348H237.199V413.221C237.199 411.511 237.878 409.871 239.087 408.662C240.296 407.453 241.936 406.774 243.646 406.774H314.197C315.907 406.774 317.547 407.453 318.756 408.662C319.965 409.871 320.645 411.511 320.645 413.221V418.348Z" fill="white"/>
<path d="M317.744 493.379L285.578 490.579V448.332H274.276V490.565L241.995 493.437C240.623 493.572 239.35 494.213 238.423 495.235C237.497 496.257 236.984 497.586 236.983 498.965V503.273H322.77V498.965C322.784 497.574 322.275 496.228 321.344 495.194C320.414 494.16 319.129 493.512 317.744 493.379Z" fill="#263238"/>
<path d="M247.38 508.516C247.38 509.979 246.946 511.409 246.134 512.625C245.321 513.841 244.166 514.789 242.815 515.349C241.463 515.909 239.976 516.055 238.542 515.77C237.107 515.484 235.789 514.78 234.755 513.746C233.721 512.712 233.017 511.394 232.731 509.959C232.446 508.525 232.592 507.038 233.152 505.686C233.712 504.335 234.66 503.18 235.876 502.367C237.092 501.555 238.522 501.121 239.985 501.121C241.946 501.121 243.827 501.9 245.214 503.287C246.601 504.674 247.38 506.555 247.38 508.516Z" fill="#263238"/>
<path d="M319.74 515.912C323.825 515.912 327.136 512.601 327.136 508.516C327.136 504.432 323.825 501.121 319.74 501.121C315.656 501.121 312.345 504.432 312.345 508.516C312.345 512.601 315.656 515.912 319.74 515.912Z" fill="#263238"/>
<path d="M272.323 415.594H287.531V451.623C287.531 453.036 286.969 454.391 285.97 455.39C284.971 456.389 283.616 456.951 282.203 456.951H277.665C276.252 456.951 274.897 456.389 273.898 455.39C272.899 454.391 272.338 453.036 272.338 451.623V415.594H272.323Z" fill="#263238"/>
<path opacity="0.2" d="M272.323 415.594H287.531V451.623C287.531 453.036 286.969 454.391 285.97 455.39C284.971 456.389 283.616 456.951 282.203 456.951H277.665C276.252 456.951 274.897 456.389 273.898 455.39C272.899 454.391 272.338 453.036 272.338 451.623V415.594H272.323Z" fill="white"/>
<path d="M236.61 419.686H321.219C322.655 419.686 323.818 418.522 323.818 417.086V416.498C323.818 415.062 322.655 413.898 321.219 413.898H236.61C235.175 413.898 234.011 415.062 234.011 416.498V417.086C234.011 418.522 235.175 419.686 236.61 419.686Z" fill="#263238"/>
<path opacity="0.2" d="M247.38 508.516C247.38 509.979 246.946 511.409 246.134 512.625C245.321 513.841 244.166 514.789 242.815 515.349C241.463 515.909 239.976 516.055 238.542 515.77C237.107 515.484 235.789 514.78 234.755 513.746C233.721 512.712 233.017 511.394 232.731 509.959C232.446 508.525 232.592 507.038 233.152 505.686C233.712 504.335 234.66 503.18 235.876 502.367C237.092 501.555 238.522 501.121 239.985 501.121C241.946 501.121 243.827 501.9 245.214 503.287C246.601 504.674 247.38 506.555 247.38 508.516Z" fill="white"/>
<path opacity="0.2" d="M319.74 515.912C323.825 515.912 327.136 512.601 327.136 508.516C327.136 504.432 323.825 501.121 319.74 501.121C315.656 501.121 312.345 504.432 312.345 508.516C312.345 512.601 315.656 515.912 319.74 515.912Z" fill="white"/>
<path d="M327.739 347.31H301.962C294.409 347.31 288.952 340.518 289.785 332.16L290.877 320.988C291.709 312.616 298.487 305.824 306.041 305.824H331.817C339.37 305.824 344.827 312.616 344.009 320.988L342.903 332.16C342.084 340.518 335.292 347.31 327.739 347.31Z" fill="#263238"/>
<path opacity="0.2" d="M327.739 347.31H301.962C294.409 347.31 288.952 340.518 289.785 332.16L290.877 320.988C291.709 312.616 298.487 305.824 306.041 305.824H331.817C339.37 305.824 344.827 312.616 344.009 320.988L342.903 332.16C342.084 340.518 335.292 347.31 327.739 347.31Z" fill="white"/>
<path d="M325.369 341.868H310.176C305.71 341.868 302.479 337.862 302.996 332.907L303.657 326.316C304.131 321.362 308.151 317.355 312.617 317.355H327.839C332.305 317.355 335.536 321.362 335.019 326.316L334.358 332.907C333.842 337.862 329.835 341.868 325.369 341.868Z" fill="#263238"/>
<path d="M313.278 332.018C313.278 332.018 309.803 401.879 294.754 413.87H310.851C310.851 413.87 325.211 390.075 326.26 332.018H313.278Z" fill="#263238"/>
<path d="M326.231 302.911L329.002 301.475C329.522 301.209 330.098 301.07 330.682 301.07C331.267 301.07 331.842 301.209 332.363 301.475L337.331 303.916C338.309 304.397 339.158 305.106 339.805 305.983C340.452 306.86 340.879 307.88 341.05 308.956L341.28 310.321C336.843 313.107 330.008 312.848 330.008 312.848L328.04 313.006C327.639 313.048 327.233 313.009 326.847 312.892C326.461 312.776 326.102 312.584 325.791 312.327C325.479 312.071 325.222 311.755 325.034 311.398C324.846 311.041 324.73 310.651 324.694 310.249L324.35 306.372C324.284 305.673 324.428 304.971 324.763 304.355C325.098 303.738 325.609 303.236 326.231 302.911Z" fill="#B97964"/>
<path opacity="0.2" d="M326.231 302.911L329.002 301.475C329.522 301.209 330.098 301.07 330.682 301.07C331.267 301.07 331.842 301.209 332.363 301.475L337.331 303.916C338.309 304.397 339.158 305.106 339.805 305.983C340.452 306.86 340.879 307.88 341.05 308.956L341.28 310.321C336.843 313.107 330.008 312.848 330.008 312.848L328.04 313.006C327.639 313.048 327.233 313.009 326.847 312.892C326.461 312.776 326.102 312.584 325.791 312.327C325.479 312.071 325.222 311.755 325.034 311.398C324.846 311.041 324.73 310.651 324.694 310.249L324.35 306.372C324.284 305.673 324.428 304.971 324.763 304.355C325.098 303.738 325.609 303.236 326.231 302.911Z" fill="black"/>
<path d="M305.868 306.327L295.816 319.035H286.252L287.502 301.301C294.739 302.694 305.868 306.327 305.868 306.327Z" fill="#006A68"/>
<path opacity="0.2" d="M294.969 319.035H286.698L291.838 306.326C291.838 306.326 294.782 310.792 294.969 319.035Z" fill="black"/>
<path d="M279.791 365.491L237.701 361.585C239.023 357.105 240.186 352.711 241.162 348.475C242.397 343.291 243.374 338.322 244.149 333.684C244.925 329.045 245.585 324.738 246.045 320.832L246.174 319.726C246.174 319.108 246.317 318.505 246.375 317.931C246.791 314.154 247.05 310.866 247.222 308.152C247.581 302.853 247.581 299.794 247.581 299.794C262.002 297.033 276.884 297.916 290.876 302.365C297.137 319.999 279.791 365.491 279.791 365.491Z" fill="#006A68"/>
<path d="M279.647 305.179C279.008 306.504 278.03 307.636 276.813 308.462C275.596 309.288 274.183 309.778 272.716 309.883C271.249 309.988 269.78 309.704 268.458 309.06C267.136 308.415 266.007 307.433 265.186 306.213L263.362 303.499L261.122 300.125C264.885 297.899 266.364 290.776 266.866 284.659C267.024 282.735 267.082 280.925 267.082 279.389L276.531 292.313C275.87 293.681 275.387 295.129 275.095 296.621C274.975 297.235 274.927 297.862 274.951 298.487C274.965 301 276.215 303.327 279.647 305.179Z" fill="#B97964"/>
<path opacity="0.2" d="M276.502 292.384C275.841 293.753 275.358 295.201 275.066 296.692C272.582 299.88 268.719 303.255 263.391 303.47L261.122 300.125C264.885 297.899 266.364 290.776 266.866 284.659C267.024 282.735 267.082 280.925 267.082 279.389L276.502 292.384Z" fill="black"/>
<path d="M253.799 270.801C253.799 270.801 249.132 269.049 250.511 265.818C251.889 262.587 253.555 262.616 253.555 262.616C252.85 261.295 252.466 259.826 252.436 258.328C252.406 256.831 252.731 255.348 253.383 254C255.695 249.692 260.807 251.444 260.807 251.444C260.827 250.09 261.307 248.784 262.168 247.74C263.03 246.696 264.221 245.977 265.545 245.7C266.898 245.476 268.286 245.7 269.499 246.338C270.712 246.975 271.684 247.992 272.266 249.232C272.266 249.232 275.483 245.053 280.193 246.202C284.903 247.351 285.851 253.914 285.851 253.914C287.137 253.494 288.536 253.587 289.755 254.173C290.975 254.758 291.922 255.792 292.399 257.058C293.039 258.38 293.307 259.852 293.173 261.314C293.038 262.777 292.508 264.175 291.638 265.358C291.638 265.358 294.639 263.922 295.63 268.762C296.621 273.601 291.566 277.852 291.566 277.852C291.566 277.852 294.294 278.182 292.887 281.758C291.48 285.333 287.042 285.391 287.042 285.391C287.042 285.391 288.766 286.267 285.506 289.21C282.246 292.154 271.749 287.947 271.749 287.947L253.799 270.801Z" fill="#263238"/>
<path d="M266.637 263.133C256.585 263.65 253.713 269.193 253.469 279.575C253.224 292.499 256.57 301.561 268.963 298.143C285.764 293.505 283.294 262.257 266.637 263.133Z" fill="#B97964"/>
<path d="M259.916 278.67C259.192 280.209 258.286 281.655 257.217 282.978C257.533 283.378 257.954 283.683 258.433 283.861C258.911 284.038 259.43 284.08 259.931 283.983L259.916 278.67Z" fill="#A24E3F"/>
<path d="M266.019 277.52C266.019 278.353 266.507 278.956 267.053 278.956C267.599 278.956 268.03 278.267 268.015 277.434C268.001 276.601 267.527 275.998 266.967 275.998C266.407 275.998 265.991 276.702 266.019 277.52Z" fill="#263238"/>
<path d="M267.197 276.043L265.387 275.383C265.387 275.383 266.321 276.876 267.197 276.043Z" fill="#263238"/>
<path d="M255.752 277.649C255.752 278.482 256.24 279.085 256.8 279.085C257.36 279.085 257.777 278.396 257.748 277.563C257.719 276.73 257.26 276.127 256.714 276.127C256.168 276.127 255.738 276.831 255.752 277.649Z" fill="#263238"/>
<path d="M256.944 276.158L255.12 275.512C255.12 275.512 256.068 276.991 256.944 276.158Z" fill="#263238"/>
<path d="M270.184 272.308C270.124 272.309 270.064 272.297 270.009 272.272C269.955 272.247 269.906 272.21 269.868 272.164C269.325 271.68 268.681 271.326 267.982 271.127C267.283 270.928 266.548 270.89 265.832 271.015C265.777 271.026 265.72 271.025 265.664 271.013C265.609 271.002 265.556 270.979 265.51 270.947C265.463 270.915 265.423 270.874 265.392 270.827C265.361 270.779 265.34 270.726 265.33 270.671C265.313 270.56 265.34 270.448 265.404 270.357C265.468 270.266 265.565 270.203 265.675 270.182C266.535 270.025 267.421 270.073 268.259 270.323C269.097 270.572 269.865 271.016 270.499 271.618C270.578 271.699 270.623 271.807 270.623 271.92C270.623 272.033 270.578 272.141 270.499 272.221C270.409 272.289 270.296 272.32 270.184 272.308Z" fill="#263238"/>
<path d="M254.488 272.008C254.423 272.008 254.358 271.994 254.299 271.967C254.239 271.939 254.186 271.9 254.144 271.85C254.075 271.759 254.046 271.644 254.062 271.531C254.078 271.418 254.138 271.316 254.23 271.247C254.819 270.752 255.512 270.396 256.258 270.204C257.004 270.013 257.783 269.992 258.538 270.142C258.593 270.158 258.644 270.185 258.688 270.222C258.733 270.258 258.769 270.303 258.796 270.354C258.823 270.405 258.839 270.46 258.844 270.518C258.849 270.575 258.843 270.633 258.825 270.687C258.789 270.793 258.713 270.88 258.614 270.931C258.515 270.981 258.4 270.992 258.294 270.96C257.662 270.846 257.014 270.875 256.395 271.044C255.777 271.213 255.204 271.518 254.718 271.937C254.649 271.981 254.57 272.006 254.488 272.008Z" fill="#263238"/>
<path d="M278.484 279.461C278.484 279.461 273.357 271.462 273.745 265.101C273.745 265.101 253.44 258.021 253.512 278.24C253.512 278.24 250.64 260.434 267.872 259.127C285.104 257.82 286.339 283.051 277.823 291.035C277.809 291.006 281.657 284.458 278.484 279.461Z" fill="#263238"/>
<path d="M276.961 281.671C276.974 281.091 277.102 280.519 277.337 279.988C277.571 279.457 277.908 278.978 278.328 278.577C278.749 278.177 279.244 277.864 279.786 277.655C280.327 277.447 280.905 277.348 281.485 277.363C284.615 277.55 286.425 283.854 278.771 285.792C277.679 286.094 276.99 285.045 276.961 281.671Z" fill="#B97964"/>
<path d="M262.343 289.829C262.056 289.85 261.768 289.85 261.482 289.829C261.426 289.819 261.373 289.798 261.325 289.767C261.278 289.736 261.237 289.696 261.205 289.649C261.173 289.603 261.151 289.55 261.139 289.495C261.127 289.439 261.127 289.382 261.137 289.327C261.146 289.272 261.165 289.219 261.195 289.171C261.224 289.124 261.263 289.083 261.308 289.051C261.354 289.019 261.405 288.996 261.46 288.984C261.514 288.972 261.57 288.972 261.625 288.982C262.707 289.172 263.821 288.992 264.788 288.471C265.754 287.95 266.517 287.118 266.953 286.11C266.973 286.057 267.004 286.009 267.044 285.968C267.083 285.927 267.13 285.895 267.182 285.872C267.234 285.849 267.29 285.837 267.347 285.836C267.404 285.835 267.46 285.845 267.513 285.866C267.566 285.887 267.614 285.918 267.655 285.957C267.695 285.996 267.728 286.043 267.751 286.095C267.774 286.147 267.786 286.203 267.787 286.26C267.788 286.317 267.778 286.373 267.757 286.426C267.317 287.483 266.56 288.377 265.59 288.987C264.621 289.596 263.487 289.891 262.343 289.829Z" fill="#263238"/>
<path d="M282.174 275.798C279.776 263.348 261.367 252.894 254.459 267.369C255.618 263.741 257.857 260.554 260.878 258.236C260.878 258.236 279.546 252.909 282.835 274.176L282.174 275.798Z" fill="#006D3A"/>
<path d="M272.366 515.523C265.186 515.523 264.224 515.408 260.175 515.265C256.714 515.15 255.867 515.58 253.11 515.523C250.783 515.523 250.869 513.24 251.587 510.684C251.946 509.391 252.492 506.677 253.023 504.609L263.564 503.834C265 506.706 268.389 510.712 272.438 511.258C276.488 511.804 275.224 515.523 272.366 515.523Z" fill="#263238"/>
<path d="M238.376 360.693C238.376 360.693 224.016 382.047 231.799 399.595C239.583 417.143 278.943 409.216 278.943 409.216L253.009 504.652L265.416 506.706C265.416 506.706 309.401 412.117 310.521 395.99C311.641 379.864 264.152 369.51 264.152 369.51L238.376 360.693Z" fill="#006D3A"/>
<path opacity="0.3" d="M238.376 360.693C238.376 360.693 224.016 382.047 231.799 399.595C239.583 417.143 278.943 409.216 278.943 409.216L253.009 504.652L265.416 506.706C265.416 506.706 309.401 412.117 310.521 395.99C311.641 379.864 264.152 369.51 264.152 369.51L238.376 360.693Z" fill="white"/>
<path opacity="0.2" d="M282.174 311.612C282.174 311.612 262.07 325.771 246.174 319.682C246.174 319.064 246.317 318.461 246.375 317.887C246.791 314.11 247.05 310.822 247.222 308.108C252.374 305.754 257.722 303.856 263.205 302.436C268.849 306.735 275.3 309.856 282.174 311.612Z" fill="black"/>
<path d="M254.172 299.822C263.018 304.13 272.151 309.487 281.786 311.454C287.329 311.095 293.533 308.841 299.105 307.318L315.805 302.264C316.521 302.039 317.294 302.088 317.975 302.402C318.656 302.717 319.195 303.274 319.488 303.964C319.78 304.655 319.805 305.43 319.556 306.138C319.308 306.845 318.806 307.435 318.146 307.792C312.933 310.664 307.677 313.307 302.235 315.719C295.515 318.476 289.311 321.693 281.729 322.382C279.008 322.35 276.303 321.954 273.687 321.205C264.859 318.615 256.359 315.015 248.356 310.478C247.083 309.644 246.169 308.364 245.794 306.889C245.42 305.414 245.613 303.852 246.335 302.512C247.057 301.173 248.256 300.153 249.694 299.655C251.132 299.157 252.704 299.217 254.1 299.822H254.172Z" fill="#B97864"/>
<path d="M249.419 298.23C241.679 300.068 241.421 313.351 248.529 319.584L265.761 305.037C265.761 305.037 258.595 296.048 249.419 298.23Z" fill="#006A68"/>
<rect x="328.204" y="288.231" width="10.6837" height="23.6" rx="1.8" transform="rotate(9.69221 328.204 288.231)" fill="#7D8488" stroke="black" stroke-width="0.4"/>
<path opacity="0.2" d="M334.551 296.5C334.489 297.152 334.198 297.76 333.73 298.218C333.262 298.676 332.647 298.953 331.994 299C330.913 299 330.269 297.881 330.582 296.5C330.894 295.119 331.963 294.05 333.019 294C332.713 295.375 333.376 296.5 334.451 296.5H334.551Z" fill="black"/>
<path d="M316.251 302.335L325.8 302.105L321.492 311.77C321.492 311.77 312.876 311.468 313.292 307.074L316.251 302.335Z" fill="#B97964"/>
<path d="M333.999 306.83L327.451 313.881L321.463 311.77L325.8 302.105L333.999 306.83Z" fill="#B97964"/>
<path d="M462.22 418.607C468.897 432.422 475.33 446.236 479.681 461.027C481.677 471.079 482.051 481.303 482.797 491.283C483.314 499.54 483.616 507.783 483.731 516.069L476.335 516.844C473.995 505.198 471.798 492.202 469.759 480.456C468.782 475.143 468.035 469.916 466.7 464.804C461.616 451.635 454.566 438.08 448.721 425.127L462.22 418.607Z" fill="#DC897C"/>
<path d="M473.248 436.688L461.545 442.288L454.279 445.806L449.87 435.209L445.26 424.108L449.152 403.875C461.1 409.102 473.248 436.688 473.248 436.688Z" fill="#006D3A"/>
<path opacity="0.2" d="M461.545 442.287L454.279 445.805L449.87 435.208C450.775 429.205 451.536 424.107 451.536 424.107C451.536 424.107 460.037 431.733 461.545 442.287Z" fill="black"/>
<path d="M426.492 367.183C426.621 368.045 427.181 368.619 427.741 368.619C428.301 368.619 428.646 367.772 428.517 366.911C428.387 366.049 427.813 365.475 427.253 365.475C426.693 365.475 426.276 366.336 426.492 367.183Z" fill="#263238"/>
<path d="M427.023 368.676C428.447 371.134 430.201 373.386 432.236 375.368C431.72 375.881 431.098 376.276 430.413 376.524C429.729 376.772 428.998 376.867 428.273 376.804L427.023 368.676Z" fill="#DE5753"/>
<path d="M422.543 362.919C422.415 362.915 422.292 362.864 422.198 362.776C422.105 362.679 422.053 362.551 422.053 362.417C422.053 362.283 422.105 362.154 422.198 362.058C422.76 361.481 423.454 361.049 424.219 360.799C424.984 360.549 425.799 360.488 426.593 360.622C426.658 360.635 426.72 360.662 426.775 360.7C426.83 360.737 426.877 360.786 426.913 360.842C426.949 360.898 426.974 360.961 426.985 361.027C426.997 361.092 426.995 361.16 426.98 361.225C426.967 361.29 426.94 361.352 426.902 361.407C426.865 361.462 426.816 361.509 426.76 361.545C426.704 361.581 426.641 361.606 426.575 361.617C426.51 361.629 426.442 361.627 426.377 361.612C425.746 361.523 425.102 361.585 424.5 361.795C423.898 362.005 423.355 362.356 422.916 362.819C422.864 362.859 422.804 362.889 422.74 362.906C422.676 362.924 422.609 362.928 422.543 362.919Z" fill="#263238"/>
<path d="M429.163 380.165C428.888 383.631 427.41 386.892 424.984 389.384C423.382 391.029 421.414 392.274 419.24 393.017C417.16 393.739 414.933 393.932 412.759 393.579C410.586 393.225 408.534 392.336 406.79 390.992C400.644 386.426 399.84 380.208 397.571 369.797C397.012 367.383 397.08 364.867 397.768 362.487C398.455 360.107 399.74 357.942 401.5 356.198C403.259 354.455 405.436 353.19 407.822 352.523C410.208 351.857 412.725 351.812 415.133 352.393C426.104 354.992 429.953 370.371 429.163 380.165Z" fill="#E4897B"/>
<path d="M401.52 386.786C405.828 389.5 422.112 381.875 419.427 369.051C419.427 369.051 425.846 362.029 425.53 353.945C425.214 345.86 419.786 342.457 413.869 343.979C408.614 345.257 408.628 348.114 408.628 348.114C408.628 348.114 383.986 349.852 388.754 360.062C378.271 370.487 396.221 383.411 401.52 386.786Z" fill="#263238"/>
<path d="M415.004 371.048C415.586 373.634 417.004 375.956 419.039 377.654C421.724 379.865 423.907 377.912 423.864 374.782C423.864 371.91 422.428 367.358 419.312 366.367C416.196 365.376 414.401 367.932 415.004 371.048Z" fill="#E4897B"/>
<path opacity="0.2" d="M428.416 383.785C427.699 385.882 426.527 387.795 424.984 389.386C423.382 391.031 421.414 392.276 419.24 393.019C417.78 392.279 416.378 391.43 415.047 390.477L417.23 385.121C417.23 385.121 423.922 388.395 428.416 383.785Z" fill="black"/>
<path d="M405.024 399.926L403.186 387.332C403.186 387.332 411.385 381.588 419.972 385.451L432.896 401.032L405.024 399.926Z" fill="#E4897B"/>
<path d="M434.39 399.479L431.389 394.984C431.389 394.984 409.619 386.928 400.127 397.253C400.127 397.253 421.365 408.483 434.39 399.479Z" fill="#006D3A"/>
<path opacity="0.2" d="M434.39 399.479L431.389 394.984C431.389 394.984 409.619 386.928 400.127 397.253C400.127 397.253 421.365 408.483 434.39 399.479Z" fill="black"/>
<path d="M350.8 521.581L342.601 516.297L345.746 511.601L354.29 498.85L362.504 504.134L353.055 518.221L350.8 521.581Z" fill="#E4897B"/>
<path d="M343.204 515.623L354.692 515.508C354.878 515.512 355.058 515.578 355.204 515.694C355.349 515.811 355.452 515.973 355.496 516.154L357.42 524.497C357.491 524.856 357.421 525.228 357.226 525.538C357.032 525.847 356.726 526.071 356.372 526.163H356.07C352.366 526.163 349.68 525.933 345.042 525.976C342.17 525.976 333.554 526.393 329.619 526.421C325.685 526.45 325.11 522.573 326.747 522.2C333.927 520.548 339.413 518.308 341.71 516.197C342.121 515.829 342.653 515.625 343.204 515.623Z" fill="#263238"/>
<path d="M345.416 508.429L360.436 512.478L441.972 450.616L400.141 441.454C397.154 440.815 394.042 441.101 391.221 442.273C388.399 443.445 386.001 445.448 384.345 448.016L345.416 508.429Z" fill="#263238"/>
<path opacity="0.2" d="M345.416 508.429L360.436 512.478L441.972 450.616L400.141 441.454C397.154 440.815 394.042 441.101 391.221 442.273C388.399 443.445 386.001 445.448 384.345 448.016L345.416 508.429Z" fill="black"/>
<path d="M300.842 521.883L292.37 517.044L295.27 512.19L303.125 499.008L311.598 503.847L302.91 518.408L300.842 521.883Z" fill="#E4897B"/>
<path d="M292.7 515.42H304.188C304.375 515.422 304.556 515.487 304.702 515.604C304.848 515.721 304.95 515.884 304.992 516.067L306.844 524.438C306.91 524.799 306.834 525.171 306.634 525.478C306.434 525.785 306.124 526.004 305.767 526.09H305.466C301.775 526.09 299.076 525.803 294.437 525.803C291.565 525.803 282.949 526.104 279.015 526.104C275.08 526.104 274.549 522.198 276.143 521.796C283.323 520.217 288.851 518.034 291.178 515.952C291.605 515.598 292.145 515.409 292.7 515.42Z" fill="#263238"/>
<path d="M461.645 483.097L404.636 483.241C403.2 478.186 401.391 460.595 395.819 438.84C394.311 432.938 392.516 426.734 390.405 420.373C388.652 414.619 386.522 408.988 384.03 403.514C389.188 400.396 394.856 398.214 400.773 397.066C426.004 392.758 449.152 403.873 449.152 403.873C449.152 403.873 459.161 431.732 461.645 483.097Z" fill="#00ED85"/>
<path opacity="0.2" d="M395.819 438.841C394.311 432.939 392.516 426.735 390.405 420.374L394.383 418.766C394.383 418.766 400.644 432.882 395.819 438.841Z" fill="black"/>
<path d="M370.876 448.603L377.496 451.734L380.023 440.591C380.023 440.591 374.739 438.738 370.775 441.438L370.876 448.603Z" fill="#E4897B"/>
<path d="M381.007 453.928C382.942 454.698 385.053 453.311 385.115 451.23L385.239 447.036C385.27 445.994 384.758 445.011 383.886 444.439L381.638 442.964C379.888 441.815 377.53 442.767 377.067 444.808L376.063 449.233C375.736 450.673 376.507 452.138 377.88 452.684L381.007 453.928Z" fill="#E4897B"/>
<rect x="382.204" y="425.231" width="10.6837" height="23.6" rx="1.8" transform="rotate(9.69221 382.204 425.231)" fill="#C3FFD0" stroke="black" stroke-width="0.4"/>
<path d="M391.511 420.963C380.497 426.922 367.917 432.451 358.339 440.248C358.124 440.435 358.196 440.521 358.44 439.688C358.486 439.158 358.417 438.624 358.239 438.123C358.08 437.577 357.728 437.107 357.248 436.802C357.061 436.73 357.176 436.902 357.435 437.074C357.793 437.298 358.173 437.486 358.569 437.635C362.992 439.315 369.124 439.875 374.078 440.507L374.825 447.902C373.259 448.347 371.795 448.649 370.258 448.936C364.514 449.927 358.555 450.63 352.509 448.634C349.911 447.853 347.719 446.091 346.398 443.722C345.076 441.352 344.729 438.561 345.43 435.94C348.388 425.443 375.155 412.347 384.977 407.479L391.511 420.977V420.963Z" fill="#DC897C"/>
<path d="M401.951 471.108L399.395 477.656C399.395 477.656 368.851 439.918 352.007 437.764C335.162 435.61 296.003 507.324 296.003 507.324L310.851 511.819L352.639 473.908C369.871 503.978 390.477 526.035 414.975 526.035H438.899C465.652 526.035 465.953 496.195 460.669 470.893L401.951 471.108Z" fill="#263238"/>
<path d="M384.029 403.516C374.451 407.019 363.193 417.646 363.193 417.646C363.193 417.646 372.671 434.074 373.618 433.442C374.566 432.81 394.01 427.238 394.01 427.238C394.01 427.238 397.973 422.097 394.929 413.395C394.137 410.938 392.713 408.732 390.8 406.998C388.888 405.264 386.553 404.063 384.029 403.516Z" fill="#006D3A"/>
<path d="M480.213 511.115L490.624 511.632L485.124 521.799C485.124 521.799 475.862 520.78 476.594 516.055L480.213 511.115Z" fill="#E4897B"/>
<path d="M499.154 517.434L491.471 524.571L485.124 521.8L490.624 511.633L499.154 517.434Z" fill="#E4897B"/>
<path d="M380.717 442.857C381.316 442.935 381.861 442.499 381.915 441.897C381.964 441.361 381.605 440.874 381.079 440.76L378.32 440.166C377.853 440.066 377.371 440.256 377.1 440.649C376.598 441.376 377.042 442.377 377.918 442.491L380.717 442.857Z" fill="#E4897B"/>
<path d="M157.558 408.139C164.537 415.176 171.416 423.059 179.773 428.387C179.773 428.387 180.29 428.66 180.333 428.703C180.108 428.619 179.869 428.58 179.629 428.588C179.414 428.588 179.759 428.588 180.132 428.588C189.667 425.888 198.527 419.67 207.301 414.888C207.98 414.479 208.786 414.334 209.565 414.481C210.345 414.627 211.043 415.055 211.527 415.683C212.011 416.311 212.247 417.095 212.191 417.886C212.135 418.676 211.79 419.419 211.221 419.972C204.386 426.305 185.962 443.235 176.284 439.688C170.367 437.52 165.427 433.442 160.775 429.521C156.23 425.582 151.946 421.351 147.951 416.856C142.48 410.351 151.613 402.065 157.558 408.154V408.139Z" fill="#E9B376"/>
<path d="M169.563 418.075C168.342 427.208 160.947 436.168 160.947 436.168L159.396 435.106L151.843 430.094C151.843 430.094 151.699 429.663 151.484 428.902C151.268 428.141 150.995 427.251 150.665 426.03C148.928 419.942 145.797 408.554 145.409 403.83C154.787 403.614 159.008 408.08 169.563 418.075Z" fill="#006D3A"/>
<path opacity="0.7" d="M169.563 418.075C168.342 427.208 160.947 436.168 160.947 436.168L159.396 435.106L151.843 430.094C151.843 430.094 151.699 429.663 151.484 428.902C151.268 428.141 150.995 427.251 150.665 426.03C148.928 419.942 145.797 408.554 145.409 403.83C154.787 403.614 159.008 408.08 169.563 418.075Z" fill="white"/>
<path opacity="0.2" d="M159.396 435.107L151.843 430.095C151.843 430.095 151.699 429.664 151.484 428.903C151.764 426.591 152.186 424.299 152.747 422.039C154.737 423.604 156.363 425.584 157.511 427.841C158.659 430.097 159.302 432.577 159.396 435.107Z" fill="black"/>
<path d="M150.206 463.107L156.653 474.394C173.885 470.374 229.286 461.93 236.079 480.928C244.537 504.522 183.464 523.348 149.674 524.496C115.885 525.645 86.4043 517.604 107.772 468.334L150.206 463.107Z" fill="#263238"/>
<path opacity="0.2" d="M150.206 463.107L156.653 474.394C173.885 470.374 229.286 461.93 236.079 480.928C244.537 504.522 183.464 523.348 149.674 524.496C115.885 525.645 86.4043 517.604 107.772 468.334L150.206 463.107Z" fill="black"/>
<path d="M226.3 514.289C226.261 514.313 226.216 514.326 226.17 514.326C226.125 514.326 226.08 514.313 226.041 514.289C226.021 514.257 226.01 514.22 226.01 514.181C226.01 514.143 226.021 514.106 226.041 514.074C226.156 513.7 227.276 510.455 228.41 510.11C228.53 510.081 228.654 510.083 228.772 510.116C228.89 510.149 228.998 510.211 229.085 510.297C229.241 510.429 229.36 510.598 229.431 510.79C229.501 510.981 229.521 511.187 229.487 511.388C229.302 511.999 228.931 512.536 228.425 512.925C227.765 513.452 227.053 513.909 226.3 514.289ZM226.587 513.672C227.642 513.213 228.494 512.386 228.985 511.345C229.017 511.21 229.008 511.068 228.959 510.938C228.911 510.807 228.825 510.694 228.712 510.613C228.68 510.573 228.637 510.544 228.589 510.529C228.54 510.513 228.488 510.513 228.439 510.527C228.343 510.562 228.256 510.616 228.181 510.685C227.472 511.575 226.932 512.587 226.587 513.672Z" fill="#263238"/>
<path d="M226.228 514.332C226.199 514.355 226.164 514.368 226.127 514.368C226.09 514.368 226.055 514.355 226.027 514.332C225.912 514.245 224.361 512.278 224.591 510.943C224.618 510.777 224.679 510.619 224.771 510.478C224.862 510.337 224.982 510.217 225.122 510.124C225.243 510.014 225.397 509.947 225.56 509.931C225.723 509.916 225.887 509.953 226.027 510.038C226.845 510.627 226.745 513.255 226.342 514.26V514.36L226.228 514.332ZM225.352 510.483C225.208 510.598 225.111 510.761 225.079 510.943C225.122 511.938 225.49 512.891 226.127 513.657C226.371 512.537 226.299 510.684 225.811 510.354C225.811 510.354 225.668 510.239 225.423 510.354V510.426L225.352 510.483Z" fill="#263238"/>
<path d="M166.892 519.831C166.914 519.795 166.946 519.767 166.985 519.749C167.023 519.731 167.066 519.725 167.107 519.731C167.146 519.734 167.183 519.749 167.211 519.775C167.24 519.801 167.259 519.836 167.265 519.874C167.352 520.262 167.94 523.651 167.122 524.498C167.03 524.581 166.917 524.637 166.796 524.663C166.675 524.688 166.55 524.681 166.433 524.642C166.23 524.609 166.041 524.52 165.887 524.386C165.732 524.251 165.618 524.076 165.557 523.881C165.415 523.264 165.48 522.618 165.743 522.043C166.048 521.268 166.433 520.527 166.892 519.831ZM166.892 520.521C166.193 521.432 165.842 522.562 165.901 523.709C165.941 523.847 166.021 523.97 166.131 524.062C166.241 524.154 166.376 524.211 166.519 524.226C166.559 524.253 166.607 524.267 166.655 524.267C166.704 524.267 166.751 524.253 166.792 524.226C166.856 524.15 166.905 524.062 166.935 523.967C167.15 522.828 167.15 521.659 166.935 520.521H166.892Z" fill="#263238"/>
<path d="M189.007 502.727L175.106 507.681L168.429 510.065L170.138 517.374L176.6 515.995L192.396 512.621L189.007 502.727Z" fill="#EBB376"/>
<path d="M171.961 517.721L170.783 509.105C170.768 508.991 170.729 508.882 170.671 508.783C170.612 508.684 170.534 508.598 170.442 508.53C170.35 508.462 170.245 508.413 170.133 508.386C170.022 508.359 169.906 508.354 169.793 508.372L165.485 509.09C165.485 509.09 159.741 509.622 158.549 511.115C155.188 515.423 157.285 534.579 159.525 535.254C160.344 535.498 161.205 534.378 161.564 533.603C162.699 531.133 164.695 524.685 165.671 522.646C166.791 520.248 169.979 519.085 171.3 518.668C171.508 518.62 171.691 518.497 171.813 518.322C171.935 518.147 171.988 517.932 171.961 517.721Z" fill="#006D3A"/>
<path d="M166.921 519.831C166.952 519.809 166.99 519.797 167.029 519.797C167.067 519.797 167.105 519.809 167.136 519.831C167.266 519.831 169.592 520.836 170.008 522.114C170.059 522.275 170.077 522.444 170.063 522.611C170.048 522.779 170 522.942 169.922 523.091C169.876 523.25 169.777 523.388 169.641 523.482C169.505 523.577 169.34 523.621 169.175 523.608C168.185 523.493 166.993 521.138 166.864 520.075V519.831C166.882 519.827 166.902 519.827 166.921 519.831ZM169.563 522.775C169.62 522.597 169.62 522.407 169.563 522.229C169.29 521.411 167.998 520.693 167.337 520.362C167.653 521.468 168.615 523.048 169.204 523.105C169.204 523.105 169.377 523.105 169.506 522.861V522.775H169.563Z" fill="#263238"/>
<path opacity="0.2" d="M189.006 502.727L175.106 507.681L176.599 515.995L192.395 512.621L189.006 502.727Z" fill="black"/>
<path d="M179.069 517.245L183.061 517.532L180.39 503.775L175.853 506.274L179.069 517.245Z" fill="#006D3A"/>
<path opacity="0.6" d="M179.069 517.245L183.061 517.532L180.39 503.775L175.853 506.274L179.069 517.245Z" fill="white"/>
<path opacity="0.2" d="M121.069 463.826L141.891 486.917C141.891 486.917 164.867 486.4 192.869 500.071C192.869 500.071 222.867 487.678 225.625 477.382C229.243 463.898 156.697 474.438 156.697 474.438L121.069 463.826Z" fill="black"/>
<path d="M149.99 473.061L107.528 468.135C108.341 463.75 108.821 459.31 108.964 454.852C109.134 448.5 108.884 442.144 108.217 435.825C107.628 429.78 106.781 422.829 105.345 414.673C105.058 413.214 105.1 411.71 105.47 410.27C105.84 408.83 106.527 407.491 107.481 406.351C108.435 405.211 109.632 404.299 110.984 403.681C112.337 403.064 113.81 402.757 115.297 402.783C117.005 402.783 118.8 402.869 120.638 402.984C127.141 403.275 133.615 404.028 140.01 405.238C142.078 405.655 144.218 406.172 146.271 406.674C153.638 408.584 158.204 417.861 157.572 425.342C157.324 431.157 156.681 436.948 155.648 442.675C154.341 451.119 152.805 459.361 149.99 473.061Z" fill="#006D3A"/>
<path opacity="0.7" d="M149.99 473.061L107.528 468.135C108.341 463.75 108.821 459.31 108.964 454.852C109.134 448.5 108.884 442.144 108.217 435.825C107.628 429.78 106.781 422.829 105.345 414.673C105.058 413.214 105.1 411.71 105.47 410.27C105.84 408.83 106.527 407.491 107.481 406.351C108.435 405.211 109.632 404.299 110.984 403.681C112.337 403.064 113.81 402.757 115.297 402.783C117.005 402.783 118.8 402.869 120.638 402.984C127.141 403.275 133.615 404.028 140.01 405.238C142.078 405.655 144.218 406.172 146.271 406.674C153.638 408.584 158.204 417.861 157.572 425.342C157.324 431.157 156.681 436.948 155.648 442.675C154.341 451.119 152.805 459.361 149.99 473.061Z" fill="white"/>
<path opacity="0.2" d="M108.992 454.865C109.162 448.513 108.913 442.157 108.246 435.838C113.559 429.562 118.585 424.35 118.585 424.35C118.585 424.35 126.914 445.789 108.992 454.865Z" fill="black"/>
<path d="M115.699 422.025C116.187 431.114 116.101 445.259 117.752 453.947L117.321 452.884C117.034 452.468 117.207 452.884 117.508 453.114C117.897 453.499 118.309 453.858 118.743 454.191C124.487 458.499 131.38 461.816 137.856 465.248L146.027 469.456C146.735 469.811 147.289 470.414 147.581 471.15C147.874 471.887 147.886 472.705 147.614 473.45C147.343 474.194 146.808 474.813 146.11 475.189C145.412 475.564 144.601 475.67 143.83 475.487C140.714 474.74 137.727 473.85 134.697 472.931C126.081 470.059 117.235 467.302 109.826 461.687C108.378 460.563 107.254 459.077 106.566 457.379C103.249 445.604 102.99 434.231 102.746 422.226C103.048 413.854 115.167 413.696 115.67 422.068L115.699 422.025Z" fill="#E9B376"/>
<path d="M157.486 468.938L154.901 467.057C154.423 466.71 153.867 466.484 153.283 466.396C152.698 466.309 152.101 466.363 151.541 466.554L146.228 468.335C145.181 468.69 144.233 469.289 143.464 470.083C142.695 470.877 142.126 471.844 141.805 472.902L141.403 474.237C145.481 477.626 152.388 478.301 152.388 478.301L154.327 478.703C154.724 478.799 155.136 478.815 155.54 478.75C155.943 478.686 156.329 478.542 156.677 478.327C157.024 478.112 157.325 477.83 157.563 477.498C157.8 477.165 157.969 476.789 158.061 476.391L158.922 472.543C159.061 471.867 158.999 471.166 158.743 470.526C158.488 469.885 158.051 469.333 157.486 468.938Z" fill="#EBB376"/>
<path d="M111.822 403.371C103.521 406.344 101.138 413.581 100.965 428.673C105.273 432.594 118.355 432.809 118.355 432.809C118.355 432.809 120.624 409.919 111.822 403.371Z" fill="#006D3A"/>
<path d="M212.37 477.254V480.672C212.37 481.548 211.336 481.907 210.46 481.907H142.164C141.274 481.907 140.226 481.548 140.226 480.672V477.254H212.37Z" fill="#263238"/>
<path opacity="0.4" d="M212.37 477.254V480.672C212.37 481.548 211.336 481.907 210.46 481.907H142.164C141.274 481.907 140.226 481.548 140.226 480.672V477.254H212.37Z" fill="white"/>
<path opacity="0.2" d="M212.37 477.254V480.672C212.37 481.548 211.336 481.907 210.46 481.907H165.37C164.494 481.907 163.446 481.548 163.446 480.672V477.254H212.37Z" fill="black"/>
<path d="M223.815 441.727L215.673 478.647C215.522 479.237 215.182 479.762 214.705 480.14C214.228 480.519 213.64 480.731 213.031 480.743H168.515C168.238 480.736 167.966 480.664 167.721 480.534C167.477 480.404 167.265 480.219 167.104 479.994C166.943 479.768 166.836 479.509 166.791 479.235C166.747 478.962 166.767 478.682 166.849 478.417L174.977 441.784C175.143 441.226 175.496 440.741 175.977 440.411C176.458 440.082 177.038 439.928 177.619 439.975H222.135C223.327 439.975 224.016 440.521 223.815 441.727Z" fill="#263238"/>
<path opacity="0.4" d="M223.815 441.727L215.673 478.647C215.522 479.237 215.182 479.762 214.705 480.14C214.228 480.519 213.64 480.731 213.03 480.743H170.065C169.788 480.735 169.516 480.663 169.271 480.533C169.026 480.403 168.815 480.219 168.652 479.994C168.49 479.769 168.381 479.51 168.335 479.236C168.289 478.963 168.306 478.683 168.385 478.417L176.527 441.784C176.693 441.226 177.047 440.741 177.528 440.411C178.009 440.082 178.588 439.928 179.17 439.975H222.135C223.327 439.975 224.016 440.521 223.815 441.727Z" fill="white"/>
<path opacity="0.2" d="M201.888 460.482C201.746 461.979 201.078 463.378 200.002 464.429C198.927 465.481 197.514 466.118 196.014 466.226C193.53 466.226 192.051 463.656 192.769 460.482C193.487 457.309 195.943 454.853 198.369 454.738C197.666 457.897 199.188 460.482 201.658 460.482H201.888Z" fill="black"/>
<path d="M208.938 421.149L218.502 421.394L214.194 411.715C214.194 411.715 205.664 412.016 205.994 416.411L208.938 421.149Z" fill="#EBB376"/>
<path d="M226.702 416.682L220.153 409.617L214.165 411.714L218.502 421.392L226.702 416.682Z" fill="#EBB376"/>
<path d="M118.542 402.883C117.565 402.811 120.552 414.802 135.056 417.76C149.559 420.718 148.439 407.378 147.305 404.032C147.305 404.032 128.235 403.515 118.542 402.883Z" fill="#EBB376"/>
<path d="M122.52 355.997C122.52 355.997 130.834 346.778 146.041 351.531C161.249 356.285 160.602 383.425 152.877 393.276C140.777 392.851 128.674 393.981 116.862 396.636C116.862 396.636 109.538 376.949 113.171 365.374C116.804 353.8 122.52 355.997 122.52 355.997Z" fill="#263238"/>
<path d="M125.578 383.066C126.54 389.471 127.287 401.074 122.706 404.75C122.706 404.75 128.68 404.549 140.269 413.711C144.476 408.943 141.992 406.976 141.992 406.976C135.142 404.52 135.53 399.351 136.923 394.626L125.578 383.066Z" fill="#EBB376"/>
<path opacity="0.2" d="M130.231 387.789L136.995 394.624C136.653 395.731 136.408 396.865 136.262 398.013C133.634 397.324 130.116 393.978 129.958 391.149C129.847 390.022 129.939 388.884 130.231 387.789Z" fill="black"/>
<path d="M121.716 369.998C122.434 380.237 122.534 384.574 127.689 390.102C135.458 398.316 147.793 395.846 150.019 385.794C152.101 376.719 150.565 361.497 140.628 357.003C138.532 355.965 136.197 355.506 133.864 355.672C131.531 355.838 129.285 356.624 127.357 357.949C125.429 359.274 123.89 361.089 122.898 363.207C121.907 365.325 121.499 367.67 121.716 369.998Z" fill="#EBB376"/>
<path d="M134.324 373.143C134.324 374.019 134.798 374.722 135.358 374.751C135.918 374.78 136.32 374.091 136.305 373.229C136.291 372.367 135.817 371.649 135.271 371.635C134.726 371.621 134.295 372.281 134.324 373.143Z" fill="#263238"/>
<path d="M145.036 373.258C145.036 374.12 145.524 374.838 146.07 374.866C146.616 374.895 147.032 374.206 147.018 373.344C147.003 372.483 146.53 371.765 145.984 371.75C145.438 371.736 145.036 372.396 145.036 373.258Z" fill="#263238"/>
<path d="M145.697 371.779L147.693 371.262C147.693 371.262 146.702 372.841 145.697 371.779Z" fill="#263238"/>
<path d="M141.791 375.023C142.594 377.024 143.646 378.915 144.921 380.653C144.491 380.945 144 381.138 143.486 381.215C142.971 381.292 142.446 381.252 141.949 381.098L141.791 375.023Z" fill="#D58745"/>
<path d="M132.6 367.686C132.665 367.696 132.731 367.691 132.793 367.671C132.856 367.652 132.913 367.617 132.959 367.571C133.407 367.156 133.952 366.86 134.544 366.71C135.136 366.559 135.756 366.559 136.348 366.709C136.408 366.729 136.472 366.736 136.535 366.73C136.598 366.723 136.659 366.704 136.715 366.673C136.77 366.642 136.818 366.6 136.857 366.549C136.895 366.499 136.922 366.441 136.937 366.379C136.973 366.246 136.955 366.104 136.888 365.983C136.821 365.863 136.71 365.773 136.578 365.733C135.829 365.532 135.04 365.524 134.287 365.71C133.534 365.896 132.84 366.269 132.27 366.796C132.178 366.89 132.126 367.016 132.126 367.147C132.126 367.279 132.178 367.405 132.27 367.499C132.352 367.601 132.47 367.668 132.6 367.686Z" fill="#263238"/>
<path d="M149.2 367.773C149.316 367.817 149.444 367.817 149.559 367.773C149.615 367.738 149.663 367.692 149.701 367.638C149.738 367.584 149.765 367.523 149.778 367.459C149.791 367.394 149.792 367.328 149.779 367.263C149.766 367.199 149.74 367.138 149.703 367.083C149.308 366.375 148.756 365.767 148.089 365.306C147.421 364.845 146.657 364.545 145.854 364.427C145.791 364.423 145.726 364.432 145.666 364.454C145.606 364.476 145.551 364.511 145.505 364.556C145.459 364.6 145.423 364.654 145.399 364.713C145.375 364.773 145.364 364.837 145.366 364.901C145.369 365.035 145.419 365.164 145.509 365.264C145.598 365.364 145.721 365.429 145.854 365.446C146.489 365.543 147.093 365.785 147.619 366.154C148.144 366.522 148.577 367.008 148.884 367.572C148.921 367.624 148.968 367.669 149.022 367.704C149.077 367.738 149.137 367.761 149.2 367.773Z" fill="#263238"/>
<path d="M134.984 371.665L136.98 371.162C136.98 371.162 136.032 372.727 134.984 371.665Z" fill="#263238"/>
<path d="M123.841 376.144C123.841 376.144 131.739 369.941 129.944 360.233C129.944 360.233 144.074 354.647 149.646 368.849C149.646 368.849 150.823 356.672 137.54 354.288C124.257 351.905 108.533 369.912 123.582 383.568L123.841 376.144Z" fill="#263238"/>
<path d="M118.456 378.269C118.968 379.219 119.663 380.058 120.501 380.738C121.339 381.418 122.303 381.926 123.338 382.232C126.023 382.965 127.23 380.322 126.368 377.594C125.578 375.138 123.237 371.85 120.624 372.266C118.01 372.683 117.12 375.842 118.456 378.269Z" fill="#EBB376"/>
<path d="M151.196 374.881C151.132 374.881 151.069 374.86 151.017 374.821C150.966 374.782 150.928 374.728 150.909 374.666C145.84 356.816 129.111 360.492 128.938 360.521C128.902 360.53 128.864 360.531 128.826 360.525C128.789 360.518 128.753 360.505 128.721 360.485C128.689 360.465 128.662 360.439 128.64 360.408C128.618 360.377 128.602 360.343 128.594 360.306C128.585 360.269 128.584 360.231 128.59 360.194C128.597 360.156 128.61 360.121 128.63 360.089C128.65 360.057 128.676 360.029 128.707 360.007C128.738 359.985 128.772 359.97 128.809 359.961C128.981 359.961 146.257 356.127 151.469 374.508C151.48 374.545 151.484 374.583 151.479 374.621C151.475 374.659 151.463 374.696 151.444 374.73C151.426 374.763 151.4 374.793 151.37 374.816C151.34 374.84 151.305 374.857 151.268 374.867L151.196 374.881Z" fill="#263238"/>
<path d="M142.451 384.071C141.95 385.245 141.537 386.454 141.216 387.689H140.542C137.512 387.359 136.234 386.253 135.688 385.033C135.443 384.453 135.34 383.823 135.386 383.195C135.408 382.838 135.476 382.486 135.587 382.146C137.374 383.181 139.363 383.817 141.417 384.013C142.049 384.042 142.451 384.071 142.451 384.071Z" fill="#263238"/>
<path d="M141.417 383.957L141.029 385.005C138.157 384.703 136.19 384.1 135.386 383.138C135.408 382.782 135.476 382.429 135.587 382.09C137.374 383.124 139.362 383.761 141.417 383.957Z" fill="white"/>
<path d="M140.541 387.633C137.511 387.303 136.233 386.197 135.688 384.977C136.839 385.126 137.956 385.47 138.991 385.996C139.664 386.368 140.206 386.94 140.541 387.633Z" fill="#DE5753"/>
<path d="M140.053 431.919C140.007 431.922 139.962 431.914 139.919 431.897C139.877 431.88 139.839 431.853 139.809 431.819C132.179 423.638 126.425 413.89 122.95 403.257C122.928 403.169 122.942 403.076 122.987 402.998C123.033 402.921 123.107 402.864 123.194 402.84C123.237 402.829 123.281 402.827 123.324 402.834C123.368 402.84 123.409 402.855 123.447 402.878C123.484 402.901 123.516 402.931 123.542 402.966C123.568 403.001 123.586 403.042 123.596 403.084C126.979 413.426 132.542 422.921 139.909 430.928C140.771 428.056 144.347 414.414 138.962 403.96C138.935 403.882 138.938 403.798 138.968 403.722C138.999 403.645 139.056 403.583 139.128 403.544C139.201 403.506 139.285 403.496 139.365 403.514C139.445 403.532 139.516 403.578 139.565 403.644C145.725 415.606 140.426 431.531 140.369 431.689C140.35 431.745 140.318 431.794 140.275 431.834C140.233 431.874 140.181 431.904 140.125 431.919H140.053Z" fill="#263238"/>
<path d="M140.498 431.315L141.59 432.751C141.688 432.873 141.741 433.025 141.741 433.182C141.741 433.338 141.688 433.49 141.59 433.612L140.484 435.048C140.418 435.127 140.336 435.19 140.243 435.233C140.15 435.277 140.048 435.299 139.946 435.299C139.843 435.299 139.742 435.277 139.649 435.233C139.556 435.19 139.473 435.127 139.407 435.048L138.373 433.871C138.282 433.751 138.233 433.605 138.233 433.455C138.233 433.304 138.282 433.158 138.373 433.038L139.292 431.372C139.352 431.268 139.438 431.181 139.54 431.118C139.643 431.056 139.76 431.02 139.88 431.014C140 431.009 140.119 431.033 140.227 431.086C140.335 431.138 140.429 431.217 140.498 431.315Z" fill="white"/>
<path opacity="0.7" d="M111.822 403.371C103.521 406.344 101.138 413.581 100.965 428.673C105.273 432.594 118.355 432.809 118.355 432.809C118.355 432.809 120.624 409.919 111.822 403.371Z" fill="white"/>
<path d="M198.656 518.552L213.218 520.95L220.211 522.099L222.25 514.876L215.932 512.952L200.48 508.256L198.656 518.552Z" fill="#EBB376"/>
<path d="M220.828 513.697L217.683 521.796C217.642 521.905 217.622 522.02 217.626 522.136C217.63 522.252 217.657 522.366 217.705 522.472C217.753 522.577 217.821 522.672 217.906 522.751C217.991 522.83 218.091 522.891 218.2 522.931L222.264 524.367C222.264 524.367 227.592 526.693 229.315 525.946C234.355 523.778 241.779 506.015 240.142 504.406C239.539 503.789 238.247 504.406 237.557 504.866C235.375 506.474 230.507 511.141 228.669 512.462C226.515 514.013 223.226 513.525 221.805 513.223C221.612 513.173 221.408 513.193 221.228 513.279C221.049 513.366 220.907 513.515 220.828 513.697Z" fill="#006D3A"/>
<path opacity="0.2" d="M198.656 518.552L213.218 520.95L215.932 512.952L200.48 508.256L198.656 518.552Z" fill="black"/>
<path d="M213.419 511.445C213.419 511.445 154.054 478.072 133.548 479.02C113.042 479.968 110.113 498.032 118.556 509.334C127 520.635 142.624 523.392 142.624 523.392C142.624 523.392 132.012 508.343 133.548 504.15C135.085 499.957 141.087 505.816 141.087 505.816C141.087 505.816 178.423 517.878 211.121 520.649L213.419 511.445Z" fill="#263238"/>
<path d="M214.381 510.524L211.02 508.27L206.698 521.524H211.882L214.381 510.524Z" fill="#006D3A"/>
<path opacity="0.6" d="M214.381 510.524L211.02 508.27L206.698 521.524H211.882L214.381 510.524Z" fill="white"/>
<line x1="381.052" y1="448.482" x2="385.981" y2="449.323" stroke="black" stroke-width="0.2"/>
</svg>
