<svg width="80" height="8" viewBox="0 0 80 8" fill="none" xmlns="http://www.w3.org/2000/svg">
<path d="M4.53516 0.578247L3.50391 3.94153L2.47266 0.578247H4.53516ZM1.53516 1.03528L3.50391 3.94153L0.234375 2.65247L1.53516 1.03528ZM6.78516 2.65247L3.50391 3.94153L5.49609 1.03528L6.78516 2.65247ZM0 3.68372L3.50391 3.94153L0.457031 5.69934L0 3.68372ZM6.57422 5.69934L3.50391 3.94153L7.03125 3.68372L6.57422 5.69934ZM1.125 6.50793L3.50391 3.94153L3 7.422L1.125 6.50793ZM4.03125 7.422L3.50391 3.94153L5.90625 6.50793L4.03125 7.422Z" fill="#586059"/>
<path d="M14.8805 0.578247L13.8492 3.94153L12.818 0.578247H14.8805ZM11.8805 1.03528L13.8492 3.94153L10.5797 2.65247L11.8805 1.03528ZM17.1305 2.65247L13.8492 3.94153L15.8414 1.03528L17.1305 2.65247ZM10.3453 3.68372L13.8492 3.94153L10.8023 5.69934L10.3453 3.68372ZM16.9195 5.69934L13.8492 3.94153L17.3766 3.68372L16.9195 5.69934ZM11.4703 6.50793L13.8492 3.94153L13.3453 7.422L11.4703 6.50793ZM14.3766 7.422L13.8492 3.94153L16.2516 6.50793L14.3766 7.422Z" fill="#586059"/>
<path d="M25.2258 0.578247L24.1945 3.94153L23.1633 0.578247H25.2258ZM22.2258 1.03528L24.1945 3.94153L20.925 2.65247L22.2258 1.03528ZM27.4758 2.65247L24.1945 3.94153L26.1867 1.03528L27.4758 2.65247ZM20.6906 3.68372L24.1945 3.94153L21.1477 5.69934L20.6906 3.68372ZM27.2648 5.69934L24.1945 3.94153L27.7219 3.68372L27.2648 5.69934ZM21.8156 6.50793L24.1945 3.94153L23.6906 7.422L21.8156 6.50793ZM24.7219 7.422L24.1945 3.94153L26.5969 6.50793L24.7219 7.422Z" fill="#586059"/>
<path d="M35.5711 0.578247L34.5398 3.94153L33.5086 0.578247H35.5711ZM32.5711 1.03528L34.5398 3.94153L31.2703 2.65247L32.5711 1.03528ZM37.8211 2.65247L34.5398 3.94153L36.532 1.03528L37.8211 2.65247ZM31.0359 3.68372L34.5398 3.94153L31.493 5.69934L31.0359 3.68372ZM37.6102 5.69934L34.5398 3.94153L38.0672 3.68372L37.6102 5.69934ZM32.1609 6.50793L34.5398 3.94153L34.0359 7.422L32.1609 6.50793ZM35.0672 7.422L34.5398 3.94153L36.9422 6.50793L35.0672 7.422Z" fill="#586059"/>
<path d="M45.9164 0.578247L44.8852 3.94153L43.8539 0.578247H45.9164ZM42.9164 1.03528L44.8852 3.94153L41.6156 2.65247L42.9164 1.03528ZM48.1664 2.65247L44.8852 3.94153L46.8773 1.03528L48.1664 2.65247ZM41.3812 3.68372L44.8852 3.94153L41.8383 5.69934L41.3812 3.68372ZM47.9555 5.69934L44.8852 3.94153L48.4125 3.68372L47.9555 5.69934ZM42.5062 6.50793L44.8852 3.94153L44.3812 7.422L42.5062 6.50793ZM45.4125 7.422L44.8852 3.94153L47.2875 6.50793L45.4125 7.422Z" fill="#586059"/>
<path d="M56.2617 0.578247L55.2305 3.94153L54.1992 0.578247H56.2617ZM53.2617 1.03528L55.2305 3.94153L51.9609 2.65247L53.2617 1.03528ZM58.5117 2.65247L55.2305 3.94153L57.2227 1.03528L58.5117 2.65247ZM51.7266 3.68372L55.2305 3.94153L52.1836 5.69934L51.7266 3.68372ZM58.3008 5.69934L55.2305 3.94153L58.7578 3.68372L58.3008 5.69934ZM52.8516 6.50793L55.2305 3.94153L54.7266 7.422L52.8516 6.50793ZM55.7578 7.422L55.2305 3.94153L57.6328 6.50793L55.7578 7.422Z" fill="#586059"/>
<path d="M66.607 0.578247L65.5758 3.94153L64.5445 0.578247H66.607ZM63.607 1.03528L65.5758 3.94153L62.3063 2.65247L63.607 1.03528ZM68.857 2.65247L65.5758 3.94153L67.568 1.03528L68.857 2.65247ZM62.0719 3.68372L65.5758 3.94153L62.5289 5.69934L62.0719 3.68372ZM68.6461 5.69934L65.5758 3.94153L69.1031 3.68372L68.6461 5.69934ZM63.1969 6.50793L65.5758 3.94153L65.0719 7.422L63.1969 6.50793ZM66.1031 7.422L65.5758 3.94153L67.9781 6.50793L66.1031 7.422Z" fill="#586059"/>
<path d="M76.9523 0.578247L75.9211 3.94153L74.8898 0.578247H76.9523ZM73.9523 1.03528L75.9211 3.94153L72.6516 2.65247L73.9523 1.03528ZM79.2023 2.65247L75.9211 3.94153L77.9133 1.03528L79.2023 2.65247ZM72.4172 3.68372L75.9211 3.94153L72.8742 5.69934L72.4172 3.68372ZM78.9914 5.69934L75.9211 3.94153L79.4484 3.68372L78.9914 5.69934ZM73.5422 6.50793L75.9211 3.94153L75.4172 7.422L73.5422 6.50793ZM76.4484 7.422L75.9211 3.94153L78.3234 6.50793L76.4484 7.422Z" fill="#586059"/>
</svg>
