<svg width="20" height="20" viewBox="0 0 20 20" fill="none" xmlns="http://www.w3.org/2000/svg">
<path d="M10.3849 12.7591H10.3905M10.3849 8.83751V11.0784M7.25437 15H13.5154C14.5135 15 15.0126 15 15.3053 14.7901C15.5607 14.6069 15.7275 14.3249 15.7649 14.0128C15.8077 13.6552 15.5672 13.2179 15.0862 12.3433L11.9557 6.6515C11.4435 5.72031 11.1875 5.25472 10.8491 5.10069C10.5542 4.96644 10.2156 4.96644 9.92066 5.10069C9.58229 5.25472 9.32621 5.72031 8.81406 6.65149L5.68355 12.3433C5.20254 13.2179 4.96203 13.6552 5.00488 14.0128C5.04227 14.3249 5.20902 14.6069 5.46445 14.7901C5.75717 15 6.25624 15 7.25437 15Z" stroke="#FFC107" stroke-width="1.5" stroke-linecap="round" stroke-linejoin="round"/>
</svg>
