<svg width="201" height="189" viewBox="0 0 201 189" fill="none" xmlns="http://www.w3.org/2000/svg">
<path d="M194.707 37.2819C194.107 37.1713 193.491 37.1833 192.896 37.3175C192.3 37.4516 191.739 37.705 191.244 38.0623C190.254 38.781 189.444 39.7188 188.876 40.8024C187.719 42.8542 187.412 45.5461 187.478 47.9004C190.082 47.6593 192.208 45.4935 193.217 44.3273C194.813 42.486 196.575 38.1895 194.707 37.2819Z" fill="#E0E0E0"/>
<path d="M183.361 49.6898C183.862 49.2264 184.231 48.6388 184.431 47.9866C184.631 47.3344 184.655 46.6409 184.501 45.9764C184.335 45.3156 184.04 44.6943 183.632 44.1487C183.224 43.603 182.712 43.1438 182.125 42.7978C181.872 42.6096 181.58 42.4791 181.271 42.4155C180.962 42.3519 180.643 42.3567 180.336 42.4296C180.061 42.5407 179.822 42.7241 179.643 42.9603C179.464 43.1964 179.352 43.4766 179.319 43.7711C179.259 44.3596 179.359 44.9533 179.608 45.4897C180.362 47.3574 181.436 49.0278 183.344 49.6898" fill="#E0E0E0"/>
<path d="M181.327 57.2416C181.358 57.078 181.41 56.919 181.48 56.7681L181.949 55.5186C182.504 54.1571 182.898 52.7359 183.124 51.2835C183.333 49.8318 183.172 48.3509 182.655 46.9782C182.409 46.4237 182.116 45.8912 181.778 45.3867C181.906 45.4917 182.018 45.6142 182.112 45.7506C182.388 46.1099 182.619 46.5015 182.8 46.9168C183.371 48.3029 183.561 49.8169 183.348 51.301C183.122 52.7705 182.702 54.2034 182.099 55.5624C181.875 56.0885 181.686 56.505 181.546 56.79C181.491 56.9484 181.417 57.0999 181.327 57.2416Z" fill="#EBEBEB"/>
<path d="M193.072 40.4375C193.072 40.4375 193.042 40.5033 192.963 40.6172L192.612 41.1083L191.297 42.8926C190.179 44.3964 188.64 46.4833 186.974 48.8069C185.308 51.1305 183.831 53.2612 182.765 54.8045L181.511 56.6152L181.161 57.1062C181.123 57.1666 181.078 57.2213 181.025 57.2684C181.025 57.2684 181.051 57.2026 181.121 57.0799L181.437 56.5669C181.713 56.1285 182.125 55.484 182.642 54.6993C183.673 53.1341 185.133 50.9902 186.799 48.6622C188.465 46.3342 190.025 44.278 191.183 42.783C191.757 42.0421 192.231 41.4678 192.564 41.0294L192.95 40.5646C192.987 40.5189 193.028 40.4764 193.072 40.4375Z" fill="#EBEBEB"/>
<path d="M185.255 52.5074C186.344 51.5692 187.641 50.9037 189.039 50.566C190.436 50.2283 191.894 50.228 193.291 50.5652C194.001 50.745 194.795 51.1352 194.896 51.8805C194.997 52.6258 194.343 53.1958 193.703 53.5597C192.351 54.2702 190.82 54.5649 189.301 54.4065C187.782 54.2481 186.343 53.6438 185.167 52.6697" fill="#E0E0E0"/>
<path d="M191.617 51.9716C191.617 52.0198 190.95 51.8883 189.863 51.9146C189.235 51.9315 188.61 52.0049 187.995 52.1338C187.243 52.2989 186.509 52.5368 185.803 52.844C185.104 53.1667 184.439 53.5573 183.817 54.0102C183.311 54.3844 182.84 54.8041 182.41 55.2641C181.678 56.0489 181.336 56.632 181.296 56.6057C181.349 56.4539 181.421 56.3095 181.511 56.176C181.604 56.0157 181.708 55.8619 181.822 55.7157C181.965 55.5156 182.118 55.3238 182.283 55.1414C182.704 54.6572 183.172 54.2165 183.681 53.8261C184.934 52.8667 186.393 52.2109 187.943 51.9102C188.572 51.7873 189.213 51.7285 189.854 51.7348C190.1 51.7334 190.346 51.7466 190.591 51.7743C190.775 51.786 190.958 51.8109 191.139 51.8488C191.303 51.8688 191.463 51.9101 191.617 51.9716Z" fill="#EBEBEB"/>
<path d="M8.01966 10.66C7.66421 11.1555 7.4123 11.7177 7.27897 12.3127C7.14564 12.9078 7.13363 13.5237 7.24366 14.1235C7.47427 15.3245 7.97667 16.4567 8.71237 17.4336C10.0715 19.3538 12.3776 20.7831 14.5302 21.7301C15.429 19.2749 14.3811 16.4296 13.7542 15.0179C12.7721 12.7732 9.65058 9.35352 8.01966 10.66Z" fill="#E0E0E0"/>
<path d="M14.3855 26.2206C14.1819 25.5683 13.8095 24.9814 13.3059 24.5194C12.8024 24.0574 12.1857 23.7368 11.5183 23.5901C10.8498 23.4576 10.1617 23.4596 9.49408 23.5958C8.82642 23.7321 8.19257 23.9999 7.62947 24.3836C7.35082 24.5311 7.10788 24.7378 6.91776 24.9893C6.72764 25.2408 6.59495 25.5309 6.52904 25.8392C6.5167 26.1341 6.58334 26.4269 6.72208 26.6874C6.86081 26.9479 7.06661 27.1667 7.31819 27.321C7.82514 27.6233 8.40279 27.7866 8.99295 27.7945C11.0053 27.9085 12.9738 27.6498 14.3855 26.2118" fill="#E0E0E0"/>
<path d="M20.3478 31.2867C20.2154 31.1866 20.0948 31.0719 19.9883 30.9447L19.0588 29.9758C18.0661 28.893 16.9509 27.9293 15.7356 27.1041C14.5118 26.2946 13.1032 25.8075 11.6408 25.688C11.0351 25.6706 10.4292 25.7073 9.83008 25.7977C9.97823 25.7251 10.1363 25.6748 10.2992 25.6486C10.743 25.5556 11.1963 25.5158 11.6495 25.5302C13.1518 25.6036 14.6062 26.0823 15.8583 26.9156C17.0918 27.7477 18.2081 28.7415 19.1772 29.8706C19.5586 30.309 19.8524 30.6466 20.054 30.8921C20.1659 31.0126 20.2644 31.1449 20.3478 31.2867Z" fill="#EBEBEB"/>
<path d="M10.1765 13.4844C10.1765 13.4844 10.2247 13.5414 10.2904 13.6597C10.3562 13.7781 10.4702 13.9798 10.5842 14.1902C10.8516 14.6813 11.2024 15.3433 11.632 16.1456C12.5088 17.8028 13.7452 20.0913 15.1394 22.5816C16.5335 25.0718 17.8225 27.3296 18.7607 28.9518L19.8743 30.8765C19.9883 31.0869 20.0847 31.2579 20.168 31.4026C20.2513 31.5472 20.2645 31.5911 20.2557 31.5955C20.2068 31.5452 20.1641 31.4893 20.1286 31.4289L19.7954 30.9203C19.5148 30.4819 19.1114 29.8374 18.6248 29.0351C17.6471 27.4305 16.3363 25.1945 14.9421 22.6956C13.5479 20.1966 12.3379 17.8949 11.4917 16.2201C11.0533 15.3827 10.7289 14.7032 10.5053 14.2297L10.251 13.6817C10.194 13.5545 10.1677 13.4888 10.1765 13.4844Z" fill="#EBEBEB"/>
<path d="M17.7481 25.7102C17.3651 24.3248 17.3176 22.8681 17.6096 21.4607C17.9016 20.0533 18.5247 18.7357 19.4272 17.617C19.8919 17.0514 20.5846 16.5034 21.2817 16.7401C21.9788 16.9769 22.2419 17.8055 22.2901 18.5333C22.3616 20.0587 21.9802 21.5713 21.1938 22.8804C20.4074 24.1895 19.2512 25.2366 17.8708 25.8899" fill="#E0E0E0"/>
<path d="M19.9839 19.7305C20.0234 19.7568 19.6244 20.3004 19.186 21.2825C18.9325 21.858 18.7314 22.4552 18.5853 23.0668C18.4127 23.8167 18.3143 24.5818 18.2916 25.351C18.2858 26.12 18.3533 26.8878 18.4933 27.6439C18.617 28.2547 18.7945 28.8532 19.0238 29.4327C19.4227 30.4323 19.8042 30.9934 19.7647 31.0154C19.6547 30.9012 19.5604 30.7729 19.4841 30.6339C19.376 30.4828 19.2807 30.323 19.1991 30.1561C19.0797 29.9426 18.9715 29.7231 18.8747 29.4984C18.6217 28.9119 18.425 28.3027 18.2872 27.679C18.1286 26.9089 18.0536 26.124 18.0636 25.3378C18.0862 24.5529 18.192 23.7725 18.3793 23.0098C18.5379 22.3888 18.7582 21.7852 19.0369 21.2079C19.1416 20.9853 19.2587 20.7686 19.3877 20.5591C19.4769 20.3956 19.578 20.2388 19.6902 20.09C19.7722 19.958 19.8709 19.8372 19.9839 19.7305Z" fill="#EBEBEB"/>
<path d="M56.8728 188.039C57.4506 188.235 58.0621 188.313 58.6708 188.268C59.2794 188.223 59.8727 188.056 60.4152 187.776C61.497 187.208 62.4356 186.401 63.1597 185.417C64.6021 183.558 65.3036 180.941 65.5886 178.6C62.9581 178.455 60.5555 180.283 59.3849 181.287C57.5348 182.874 55.1586 186.868 56.8728 188.039Z" fill="#E0E0E0"/>
<path d="M69.9246 177.439C69.361 177.825 68.9092 178.352 68.6151 178.968C68.321 179.584 68.195 180.266 68.2498 180.947C68.3134 181.627 68.5125 182.288 68.8356 182.891C69.1586 183.493 69.5989 184.025 70.1306 184.454C70.353 184.677 70.6212 184.848 70.9165 184.956C71.2117 185.064 71.527 185.107 71.8405 185.081C72.1262 185.008 72.3873 184.861 72.5969 184.653C72.8065 184.446 72.9571 184.187 73.033 183.902C73.1794 183.325 73.1673 182.719 72.9979 182.148C72.5288 180.188 71.7089 178.378 69.929 177.439" fill="#E0E0E0"/>
<path d="M73.0505 170.271C72.9944 170.426 72.9193 170.574 72.8269 170.71L72.1692 171.876C71.4202 173.141 70.8214 174.489 70.3849 175.892C69.964 177.297 69.9052 178.785 70.2139 180.219C70.3738 180.803 70.5835 181.372 70.8408 181.92C70.7295 181.798 70.6365 181.661 70.5646 181.513C70.3429 181.118 70.172 180.696 70.0561 180.259C69.6923 178.8 69.7302 177.27 70.1657 175.831C70.6039 174.409 71.2306 173.052 72.0289 171.797C72.3271 171.311 72.577 170.92 72.7523 170.662C72.8356 170.52 72.9357 170.389 73.0505 170.271Z" fill="#EBEBEB"/>
<path d="M58.9507 185.159C58.9507 185.159 58.9945 185.098 59.0866 184.997L59.525 184.558L61.0989 182.989C62.4142 181.674 64.2556 179.828 66.246 177.776C68.2364 175.724 70.012 173.83 71.2922 172.467L72.8135 170.845L73.2519 170.406C73.3484 170.31 73.401 170.262 73.4098 170.266C73.3745 170.328 73.3318 170.385 73.2826 170.437L72.8968 170.902C72.5548 171.301 72.055 171.871 71.4281 172.572C70.1523 173.975 68.3986 175.865 66.3907 177.938C64.3827 180.012 62.5501 181.814 61.191 183.107C60.5115 183.756 59.9591 184.273 59.5689 184.624L59.1304 185.027C59.077 185.079 59.0165 185.124 58.9507 185.159Z" fill="#EBEBEB"/>
<path d="M68.4688 174.371C67.253 175.139 65.8715 175.607 64.4389 175.735C63.0062 175.863 61.5637 175.648 60.2309 175.107C59.5557 174.827 58.8279 174.322 58.8323 173.595C58.8367 172.867 59.5776 172.367 60.2615 172.108C61.702 171.595 63.2624 171.521 64.7452 171.895C66.2279 172.268 67.5665 173.074 68.5915 174.209" fill="#E0E0E0"/>
<path d="M62.0942 173.964C62.0942 173.92 62.7431 174.144 63.8128 174.279C64.4369 174.354 65.0663 174.373 65.6937 174.336C66.4616 174.286 67.2224 174.158 67.9647 173.955C68.7038 173.734 69.419 173.441 70.0998 173.078C70.6567 172.784 71.1851 172.439 71.6781 172.048C72.5199 171.377 72.9451 170.855 72.9933 170.886C72.9107 171.021 72.8153 171.147 72.7084 171.263C72.5918 171.407 72.4658 171.543 72.3313 171.671C72.1617 171.849 71.9817 172.018 71.7921 172.175C71.3029 172.59 70.7743 172.955 70.2138 173.267C69.516 173.635 68.7812 173.929 68.0217 174.144C67.2628 174.351 66.4837 174.476 65.698 174.516C65.0588 174.546 64.4181 174.51 63.7865 174.407C63.5427 174.373 63.3012 174.324 63.0631 174.262C62.8814 174.224 62.7026 174.172 62.5283 174.108C62.3787 174.076 62.2331 174.028 62.0942 173.964Z" fill="#EBEBEB"/>
<path d="M149.531 132.733C150.886 130.725 150.356 128 148.349 126.645C146.341 125.291 143.615 125.82 142.261 127.828C140.906 129.835 141.436 132.561 143.443 133.916C145.451 135.27 148.177 134.741 149.531 132.733Z" fill="#EBEBEB"/>
<path d="M162.405 122.146C162.405 123.013 162.147 123.861 161.666 124.582C161.184 125.303 160.499 125.865 159.698 126.196C158.897 126.528 158.016 126.615 157.165 126.446C156.315 126.277 155.533 125.859 154.92 125.246C154.307 124.633 153.89 123.852 153.72 123.001C153.551 122.151 153.638 121.269 153.97 120.468C154.302 119.667 154.864 118.982 155.585 118.501C156.306 118.019 157.153 117.762 158.02 117.762C159.183 117.762 160.298 118.224 161.121 119.046C161.943 119.868 162.405 120.983 162.405 122.146Z" fill="#EBEBEB"/>
<path d="M162.427 140.721C162.427 143.352 160.471 145.491 158.042 145.491C155.614 145.491 153.658 143.365 153.658 140.73C153.658 138.095 155.644 135.969 158.038 135.969C160.432 135.969 162.427 138.086 162.427 140.721Z" fill="#EBEBEB"/>
<path d="M156.753 140.166C156.565 140.442 153.654 138.785 150.243 136.47C146.832 134.155 144.228 132.05 144.412 131.774C144.596 131.498 147.516 133.155 150.922 135.47C154.329 137.785 156.959 139.889 156.753 140.166Z" fill="#EBEBEB"/>
<path d="M157.104 121.848C157.306 122.111 155.057 124.198 152.08 126.504C149.103 128.81 146.516 130.449 146.315 130.208C146.113 129.967 148.358 127.858 151.339 125.552C154.32 123.246 156.898 121.585 157.104 121.848Z" fill="#EBEBEB"/>
<path d="M132.763 79.8516C132.878 80.7233 132.917 81.6036 132.877 82.4821C132.917 83.3606 132.879 84.2408 132.763 85.1126C132.65 84.2406 132.612 83.3606 132.649 82.4821C132.612 81.6036 132.651 80.7236 132.763 79.8516Z" fill="#E0E0E0"/>
<path d="M132.763 69.3301C132.878 70.2019 132.917 71.0821 132.877 71.9606C132.917 72.8391 132.879 73.7193 132.763 74.5911C132.65 73.7191 132.612 72.8391 132.649 71.9606C132.612 71.0821 132.651 70.2021 132.763 69.3301Z" fill="#E0E0E0"/>
<path d="M132.763 58.8086C132.878 59.6804 132.917 60.5606 132.877 61.4391C132.917 62.3176 132.879 63.1979 132.763 64.0696C132.65 63.1976 132.612 62.3176 132.649 61.4391C132.612 60.5606 132.651 59.6806 132.763 58.8086Z" fill="#E0E0E0"/>
<path d="M132.763 48.2852C132.878 49.1569 132.917 50.0372 132.877 50.9157C132.917 51.7942 132.879 52.6744 132.763 53.5462C132.65 52.6742 132.612 51.7942 132.649 50.9157C132.612 50.0372 132.651 49.1572 132.763 48.2852Z" fill="#E0E0E0"/>
<path d="M132.763 37.7617C132.878 38.6335 132.917 39.5137 132.877 40.3922C132.917 41.2707 132.879 42.151 132.763 43.0227C132.65 42.1508 132.612 41.2707 132.649 40.3922C132.612 39.5137 132.651 38.6337 132.763 37.7617Z" fill="#E0E0E0"/>
<path d="M129.777 30.2447C130.649 30.1321 131.529 30.094 132.408 30.1307H132.886V30.2403C132.916 30.9978 132.878 31.7564 132.772 32.507C132.665 31.7564 132.627 30.9978 132.658 30.2403L132.772 30.3543H132.408C131.53 30.3952 130.649 30.3585 129.777 30.2447Z" fill="#E0E0E0"/>
<path d="M119.256 30.2429C121.006 30.0909 122.766 30.0909 124.517 30.2429C122.766 30.3949 121.006 30.3949 119.256 30.2429Z" fill="#E0E0E0"/>
<path d="M114.674 24.2988C114.787 25.1708 114.825 26.0509 114.788 26.9293C114.825 27.8078 114.787 28.6878 114.674 29.5599C114.559 28.6881 114.521 27.8078 114.56 26.9293C114.521 26.0509 114.559 25.1706 114.674 24.2988Z" fill="#E0E0E0"/>
<path d="M114.674 15.8418C114.786 16.3643 114.825 16.9 114.788 17.4333C114.824 17.9665 114.786 18.5021 114.674 19.0247C114.559 18.5025 114.521 17.9665 114.56 17.4333C114.521 16.9 114.559 16.364 114.674 15.8418Z" fill="#E0E0E0"/>
<path d="M51.2129 135.2C52.0826 135.043 52.9737 135.043 53.8434 135.2C52.9732 135.352 52.0831 135.352 51.2129 135.2Z" fill="#E0E0E0"/>
<path d="M39.7437 135.202C40.6945 135.083 41.6535 135.044 42.6109 135.083C43.5683 135.044 44.5273 135.083 45.4782 135.202C44.5269 135.314 43.5682 135.352 42.6109 135.316C41.6536 135.353 40.695 135.315 39.7437 135.202Z" fill="#E0E0E0"/>
<path d="M28.2703 135.201C29.2199 135.086 30.1775 135.049 31.1331 135.091C32.0905 135.052 33.0495 135.091 34.0004 135.209C33.0491 135.322 32.0904 135.36 31.1331 135.323C30.1771 135.357 29.2199 135.316 28.2703 135.201Z" fill="#E0E0E0"/>
<path d="M19.9051 132.57C20.0206 133.442 20.0588 134.322 20.0191 135.201L19.9051 135.087H20.4356H20.931L21.764 135.109C22.024 135.096 22.2844 135.124 22.5356 135.192C22.2834 135.254 22.0236 135.281 21.764 135.271L20.931 135.297H19.9051C20.0059 135.398 19.7648 135.157 19.7911 135.179C19.7553 134.308 19.7934 133.435 19.9051 132.57Z" fill="#E0E0E0"/>
<path d="M19.905 122.379C20.057 124.075 20.057 125.782 19.905 127.478C19.753 125.782 19.753 124.075 19.905 122.379Z" fill="#E0E0E0"/>
<path d="M19.9052 112.172C20.0572 113.868 20.0572 115.574 19.9052 117.271C19.7533 115.574 19.7533 113.868 19.9052 112.172Z" fill="#E0E0E0"/>
<path d="M19.9052 104.439C20.0572 105.31 20.0572 106.2 19.9052 107.07C19.7533 106.2 19.7533 105.31 19.9052 104.439Z" fill="#E0E0E0"/>
<path d="M39.8445 101.404C40.1235 100.531 40.1326 99.594 39.8705 98.7156C39.6085 97.8372 39.0876 97.0583 38.3758 96.4807C37.6429 95.9217 36.7542 95.6045 35.833 95.5732C35.142 95.5493 34.4719 95.3308 33.8995 94.9431C33.3272 94.5553 32.8759 94.0139 32.5974 93.3811C32.0525 92.0735 31.1587 90.9408 30.0137 90.1067C28.8686 89.2727 27.5164 88.7693 26.1047 88.6517C24.693 88.5341 23.2761 88.8066 22.0088 89.4397C20.7415 90.0727 19.6726 91.0419 18.9187 92.2412C18.4277 93.0172 18.0419 93.9204 17.2308 94.3719C16.2093 94.9419 14.951 94.5561 13.7892 94.4815C10.3301 94.2623 7.0551 97.9538 7.23486 101.413L39.8445 101.404Z" fill="#F5F5F5"/>
<path d="M129.142 15.8415C129.422 14.9688 129.432 14.0319 129.171 13.1534C128.91 12.2749 128.389 11.4958 127.678 10.918C126.943 10.3576 126.053 10.0389 125.13 10.0061C124.44 9.98166 123.77 9.76304 123.197 9.37533C122.625 8.98762 122.174 8.44651 121.895 7.81403C121.349 6.50669 120.455 5.37436 119.31 4.54073C118.165 3.7071 116.812 3.20423 115.401 3.08705C113.989 2.96986 112.572 3.24286 111.305 3.87624C110.038 4.50962 108.97 5.47901 108.216 6.67852C107.725 7.45014 107.339 8.35767 106.528 8.80485C105.511 9.3748 104.253 8.98899 103.087 8.91884C99.6275 8.69963 96.3525 12.3911 96.5104 15.8502L129.142 15.8415Z" fill="#F5F5F5"/>
<path d="M180.088 94.6031C191.525 83.1661 191.525 64.623 180.088 53.1859C168.651 41.7489 150.108 41.7489 138.671 53.1859C127.234 64.623 127.234 83.1661 138.671 94.6031C150.108 106.04 168.651 106.04 180.088 94.6031Z" fill="#E0E0E0"/>
<path d="M123.201 151.361C122.508 168.973 109.536 183.55 91.9111 183.892C83.448 184.056 75.2662 180.852 69.1655 174.984C63.0649 169.116 59.5451 161.065 59.3804 152.602C59.0384 134.978 73.0941 118.717 90.6704 120.071C109.408 121.501 123.828 135.289 123.201 151.361Z" fill="#E0E0E0"/>
<path d="M63.3442 67.144C75.0056 55.4827 75.0056 36.5759 63.3442 24.9146C51.6829 13.2533 32.7761 13.2533 21.1147 24.9146C9.45339 36.5759 9.45339 55.4827 21.1147 67.144C32.7761 78.8053 51.6829 78.8053 63.3442 67.144Z" fill="#E0E0E0"/>
<path d="M155.6 80.798C156.065 81.2364 144.75 94.2487 130.33 109.883C115.91 125.517 103.841 137.849 103.376 137.42C102.911 136.99 114.227 123.973 128.651 108.335C143.075 92.6967 155.136 80.3684 155.6 80.798Z" fill="#00CBC8"/>
<path d="M149.598 59.5604C149.463 60.1786 129.523 56.36 105.064 51.0376C80.6044 45.7152 60.8799 40.9013 61.0114 40.2875C61.1429 39.6737 81.0822 43.4836 105.55 48.8104C130.019 54.1372 149.734 58.9466 149.598 59.5604Z" fill="#00CBC8"/>
<path d="M76.904 131.698C76.6409 131.86 73.5413 127.423 68.8458 120.049C64.1504 112.675 57.8766 102.35 51.3003 90.7584C44.724 79.1666 39.0245 68.4999 35.0788 60.696C31.133 52.8922 28.8883 47.9643 29.1601 47.846C29.4319 47.7276 32.1852 52.3573 36.4817 59.9595C40.7782 67.5617 46.71 78.0574 53.2644 89.6536L70.2268 119.238C74.5628 126.792 77.167 131.527 76.904 131.698Z" fill="#00CBC8"/>
<path d="M170.375 33.5254C170.524 36.0288 170.699 36.7872 171.624 38.7864C172.177 39.9701 172.94 41.0662 173.255 42.3332C173.571 43.6003 173.391 44.8147 173.61 46.0335C173.974 48.0239 175.294 49.6811 176.289 51.4436C177.284 53.206 177.946 55.442 176.964 57.2088L166.819 56.0119L166.105 43.4205L170.375 33.5254Z" fill="#263238"/>
<path d="M150.208 29.2539C148.892 32.0422 150.721 34.8262 149.405 37.6102C148.707 38.9689 148.153 40.3972 147.753 41.8716C147.441 43.1869 147.376 44.6205 146.832 45.8831C145.955 47.8955 143.987 49.2546 143.07 51.245C141.716 54.1956 143.158 57.8914 145.745 59.8512C148.331 61.8109 151.777 62.2932 155.017 62.0696C156.977 61.9293 158.963 61.5391 160.66 60.5307C162.356 59.5223 163.702 57.8125 163.917 55.8572" fill="#263238"/>
<path d="M165.25 24.2949C171.774 27.1885 173.071 37.9078 173.106 39.3546C173.146 41.0732 174.062 41.4327 175.207 42.3315C176.351 43.2302 177.46 44.3219 177.776 45.7204C178.026 46.8209 177.776 48.0353 178.289 49.0393C178.916 50.2362 180.406 50.679 181.559 51.4199C183.751 52.8184 184.821 55.449 184.939 57.9962C185.058 60.5434 184.365 63.0336 183.672 65.48C183.396 66.4533 183.059 67.5143 182.177 68.0447C181.498 68.4525 180.647 68.4481 179.849 68.4305L167.451 68.1543C164.29 68.0842 161.046 67.9965 158.126 66.8391C155.738 65.9041 153.724 64.2094 152.396 62.0165C151.752 60.9388 151.329 59.7438 151.151 58.5012C150.974 57.2586 151.045 55.993 151.361 54.7782C151.878 52.9193 153.005 51.2401 153.334 49.3418C153.737 46.9875 151.764 45.9835 151.05 43.6993C150.335 41.4152 149.734 35.9481 150.721 33.7604" fill="#263238"/>
<path d="M172.707 83.4028L170.669 76.8703L170.375 86.8663C170.375 86.8663 173.006 93.6837 175.031 98.8921C170.36 101.676 165.03 103.163 159.593 103.201C154.155 103.238 148.806 101.825 144.096 99.107L147.235 87.8264L145.74 75.029L141.615 80.9696L132.781 72.4292C132.781 72.4292 139.247 60.4822 140.05 59.3906C145.166 52.4373 153.996 52.6039 153.996 52.6039L166.495 53.2966C166.495 53.2966 173.51 52.9064 178.139 58.4655C178.139 58.4655 182.651 65.3531 186.355 82.3462L172.707 83.4028Z" fill="#00A65B"/>
<path d="M178.959 60.3334C178.9 60.3481 178.84 60.3584 178.78 60.3641C178.657 60.3641 178.477 60.3904 178.245 60.4342C177.56 60.5432 176.89 60.733 176.25 60.9998C175.241 61.4257 174.319 62.0318 173.527 62.7885C173.026 63.2576 172.585 63.7861 172.212 64.3625C171.782 64.9954 171.474 65.7032 171.305 66.4493C171.226 66.8475 171.239 67.2585 171.344 67.6506C171.468 68.0536 171.72 68.4047 172.063 68.6502C172.235 68.7789 172.435 68.8637 172.646 68.8973C172.858 68.9309 173.075 68.9123 173.278 68.8431C173.482 68.7529 173.664 68.6178 173.81 68.4478C173.956 68.2779 174.061 68.0773 174.119 67.861C174.261 67.4107 174.226 66.9235 174.023 66.4976C173.802 66.0576 173.475 65.6795 173.071 65.3971C172.217 64.7918 171.22 64.42 170.178 64.3186C169.076 64.2107 167.964 64.3088 166.899 64.608C165.777 64.8918 164.703 65.3348 163.707 65.9232C162.679 66.543 161.785 67.3612 161.076 68.3302C160.712 68.8128 160.493 69.3892 160.445 69.9918C160.436 70.2881 160.514 70.5806 160.669 70.8335C160.833 71.0875 161.051 71.3017 161.309 71.4605H161.287C161.564 71.5821 161.877 71.5961 162.164 71.4999C162.45 71.3606 162.676 71.1223 162.799 70.8291C163.067 70.1978 163.193 69.5153 163.168 68.83C163.18 68.1509 163.07 67.4752 162.843 66.8352C162.601 66.209 162.22 65.6455 161.73 65.1867C160.767 64.2861 159.534 63.7282 158.222 63.5996C156.947 63.4923 155.664 63.6414 154.447 64.038C153.259 64.4063 152.071 64.8886 151.308 65.7917C151.112 65.9948 150.961 66.2368 150.864 66.502C150.767 66.7672 150.727 67.0498 150.746 67.3315C150.765 67.6132 150.843 67.8877 150.974 68.1375C151.106 68.3873 151.288 68.6068 151.51 68.7817C151.714 68.9529 151.964 69.0611 152.229 69.093C152.487 69.1213 152.748 69.0593 152.966 68.9176C153.175 68.766 153.346 68.5688 153.468 68.3409C153.59 68.1131 153.658 67.8605 153.667 67.6024C153.71 67.0875 153.652 66.5692 153.496 66.0767C153.417 65.8356 153.312 65.6032 153.224 65.3665C153.176 65.2525 153.137 65.1297 153.08 65.0201L152.904 64.6913C152.46 63.8531 151.888 63.0898 151.208 62.429C150.031 61.287 148.605 60.4344 147.043 59.9388C145.866 59.5557 144.63 59.3922 143.395 59.4566C142.614 59.5055 141.842 59.6528 141.098 59.895L140.523 60.101L140.322 60.1624L140.514 60.0791L141.08 59.8511C141.825 59.5927 142.6 59.4335 143.386 59.3776C144.635 59.295 145.888 59.4437 147.082 59.8161C148.669 60.3077 150.119 61.1635 151.317 62.3151C152.022 62.9793 152.614 63.7537 153.071 64.608L153.255 64.9412C153.312 65.0552 153.351 65.1779 153.4 65.2963C153.496 65.5374 153.601 65.7742 153.685 66.0241C153.85 66.5389 153.912 67.0811 153.869 67.6199C153.86 67.9092 153.784 68.1926 153.648 68.448C153.512 68.7035 153.319 68.9242 153.084 69.093C152.824 69.26 152.514 69.3328 152.207 69.2991C151.906 69.2641 151.621 69.1423 151.387 68.9483C150.911 68.558 150.607 67.9958 150.541 67.3832C150.508 67.0716 150.553 66.7566 150.673 66.4669C150.788 66.178 150.948 65.9088 151.146 65.669C151.957 64.7 153.18 64.209 154.382 63.8364C155.626 63.4296 156.94 63.2804 158.244 63.3979C159.611 63.5255 160.898 64.1039 161.901 65.042C162.413 65.5239 162.811 66.114 163.067 66.7694C163.305 67.4358 163.421 68.1398 163.409 68.8475C163.434 69.5676 163.301 70.2845 163.019 70.9475C162.87 71.2918 162.6 71.5695 162.26 71.7279C161.915 71.8506 161.536 71.8381 161.199 71.6928C160.912 71.518 160.669 71.2795 160.489 70.9957C160.31 70.7081 160.222 70.3738 160.235 70.0356C160.282 69.3874 160.515 68.7666 160.905 68.2469C161.636 67.2537 162.557 66.4161 163.615 65.7829C164.63 65.179 165.727 64.7243 166.872 64.4326C167.963 64.1289 169.1 64.0307 170.226 64.1433C171.302 64.2508 172.331 64.6377 173.212 65.2656C173.639 65.5695 173.984 65.9748 174.216 66.445C174.44 66.9133 174.476 67.4501 174.317 67.9444C174.25 68.1855 174.13 68.4085 173.965 68.5968C173.801 68.7851 173.595 68.9337 173.365 69.0316C173.136 69.112 172.891 69.134 172.651 69.0958C172.412 69.0575 172.185 68.9601 171.993 68.8124C171.622 68.5448 171.35 68.1628 171.217 67.7251C171.105 67.3086 171.093 66.8714 171.182 66.4493C171.357 65.6849 171.676 64.9604 172.12 64.3142C172.5 63.7334 172.949 63.2005 173.457 62.7272C174.265 61.9678 175.206 61.3643 176.232 60.9472C176.876 60.6845 177.551 60.5047 178.24 60.4123C178.478 60.3721 178.718 60.3457 178.959 60.3334Z" fill="#00ED85"/>
<path d="M184.255 74.6172C183.866 74.777 183.487 74.96 183.12 75.1652C182.142 75.7636 181.362 76.6375 180.88 77.6773C180.722 78.0186 180.601 78.3758 180.52 78.7427C180.412 79.1284 180.412 79.5363 180.52 79.9221C180.569 80.1144 180.682 80.2844 180.84 80.4043C180.92 80.4583 181.013 80.4921 181.109 80.5027C181.205 80.5134 181.302 80.5007 181.392 80.4657C181.585 80.3647 181.747 80.2153 181.864 80.0323C181.981 79.8493 182.048 79.6391 182.059 79.4223C182.104 78.9404 182.003 78.4562 181.768 78.033C181.533 77.6098 181.176 77.2673 180.744 77.0504C180.265 76.8395 179.74 76.7545 179.219 76.8036C178.698 76.8528 178.198 77.0343 177.767 77.331C176.901 77.9544 176.299 78.8783 176.079 79.9221C175.936 80.3934 175.979 80.9013 176.197 81.3425C176.298 81.542 176.468 81.6971 176.676 81.7781C176.884 81.8591 177.115 81.8601 177.324 81.7809C177.518 81.6847 177.681 81.5357 177.794 81.3512C177.907 81.1667 177.966 80.954 177.964 80.7375C177.952 80.3105 177.82 79.8956 177.583 79.5406C177.167 78.8782 176.542 78.3736 175.807 78.107C175.2 77.8853 174.542 77.8456 173.913 77.993C173.438 78.1069 172.99 78.3156 172.598 78.6068C172.267 78.858 171.972 79.153 171.721 79.4836C171.731 79.4574 171.745 79.4324 171.76 79.4091C171.798 79.3366 171.842 79.2676 171.892 79.2031C172.073 78.943 172.294 78.7124 172.545 78.5191C172.94 78.2041 173.397 77.9769 173.887 77.8527C174.54 77.6824 175.229 77.7129 175.864 77.9404C176.642 78.2072 177.306 78.7295 177.749 79.4223C178.012 79.8112 178.157 80.2681 178.166 80.7375C178.171 80.9934 178.102 81.2454 177.969 81.4636C177.835 81.6819 177.642 81.8574 177.412 81.9695C177.287 82.0247 177.151 82.0532 177.015 82.0532C176.878 82.0532 176.743 82.0247 176.618 81.9695C176.366 81.8612 176.156 81.6753 176.017 81.439C175.764 80.9509 175.709 80.3839 175.864 79.8563C176.094 78.755 176.729 77.7802 177.644 77.1249C178.108 76.8042 178.647 76.6089 179.208 76.5582C179.77 76.5075 180.335 76.6031 180.849 76.8356C181.323 77.0726 181.714 77.4472 181.971 77.9103C182.229 78.3734 182.34 78.9035 182.291 79.431C182.274 79.6851 182.191 79.9303 182.049 80.1419C181.908 80.3535 181.713 80.5242 181.485 80.6367C181.363 80.6818 181.233 80.697 181.105 80.6809C180.977 80.6649 180.854 80.6181 180.748 80.5446C180.558 80.3969 180.422 80.1903 180.362 79.9571C180.244 79.5416 180.244 79.1012 180.362 78.6857C180.45 78.3085 180.579 77.9424 180.748 77.5941C181.25 76.5327 182.068 75.6522 183.089 75.0731C183.451 74.8596 183.845 74.7056 184.255 74.6172Z" fill="#FAFAFA"/>
<path d="M170.423 80.9265C170.387 80.9314 170.35 80.9314 170.314 80.9265L170.002 80.852C169.602 80.7575 169.197 80.6887 168.788 80.6459C167.282 80.487 165.76 80.6992 164.356 81.2641C163.898 81.4504 163.458 81.6763 163.04 81.9393C162.582 82.2143 162.188 82.5834 161.883 83.0221C161.722 83.2499 161.618 83.5126 161.579 83.7887C161.54 84.0647 161.568 84.346 161.659 84.6092C161.751 84.8801 161.922 85.117 162.15 85.2888C162.266 85.3729 162.398 85.4319 162.537 85.4621C162.677 85.4923 162.821 85.493 162.961 85.4641C163.257 85.3853 163.522 85.22 163.722 84.9896C163.923 84.7592 164.05 84.4741 164.088 84.1708C164.139 83.5143 163.961 82.8605 163.584 82.3207C162.809 81.1373 161.616 80.2902 160.243 79.9488C158.865 79.6211 157.413 79.8395 156.192 80.5582C155.615 80.8864 155.108 81.326 154.702 81.8516C154.518 82.1165 154.387 82.4142 154.316 82.7284C154.231 83.0194 154.256 83.3315 154.386 83.6052C154.455 83.7264 154.552 83.8293 154.668 83.9056C154.785 83.9818 154.918 84.0292 155.057 84.0437C155.34 84.0603 155.621 83.9782 155.85 83.8113C156.071 83.6459 156.243 83.4234 156.347 83.1678C156.452 82.9122 156.484 82.633 156.442 82.3601C156.382 81.8296 156.209 81.3182 155.934 80.8607C155.684 80.4324 155.376 80.0413 155.017 79.6989C154.39 79.1069 153.643 78.6581 152.825 78.3837C152.21 78.1741 151.563 78.0733 150.914 78.0856C150.361 78.1034 149.813 78.1918 149.283 78.3486C149.283 78.3486 149.313 78.3486 149.384 78.3048L149.686 78.1952C150.086 78.0794 150.498 78.0131 150.914 77.9979C151.574 77.9678 152.235 78.0569 152.865 78.2609C153.701 78.5301 154.469 78.9791 155.114 79.5762C155.488 79.9148 155.813 80.3027 156.083 80.7292C156.375 81.2068 156.561 81.7424 156.626 82.2988C156.657 82.5946 156.624 82.8936 156.53 83.1756C156.425 83.4777 156.227 83.7387 155.964 83.9209C155.694 84.114 155.366 84.2098 155.035 84.1927C154.86 84.1769 154.693 84.1181 154.547 84.0217C154.401 83.9254 154.281 83.7943 154.197 83.6403C154.042 83.3261 154.007 82.9655 154.101 82.6276C154.179 82.2927 154.321 81.9758 154.517 81.6937C154.94 81.1379 155.471 80.6739 156.078 80.3303C157.347 79.5785 158.858 79.3505 160.291 79.6946C161.722 80.0476 162.965 80.9316 163.768 82.1672C164.172 82.7516 164.362 83.4582 164.303 84.1664C164.256 84.5149 164.106 84.8412 163.871 85.1031C163.637 85.365 163.329 85.5504 162.988 85.6351C162.819 85.6691 162.646 85.6675 162.478 85.6305C162.311 85.5935 162.153 85.5219 162.014 85.4203C161.752 85.224 161.556 84.9515 161.453 84.6399C161.35 84.3431 161.321 84.0254 161.37 83.7149C161.424 83.4169 161.539 83.1332 161.708 82.8819C162.03 82.4231 162.447 82.0389 162.931 81.7551C163.364 81.49 163.821 81.2641 164.294 81.08C165.725 80.5215 167.274 80.3345 168.797 80.5363C169.354 80.5935 169.901 80.7247 170.423 80.9265Z" fill="#00ED85"/>
<path d="M121.448 44.384C122.355 44.4278 122.096 49.3863 122.763 48.3297C123.429 47.2731 122.377 42.2488 123.324 42.3365C124.56 42.4549 124.201 47.637 124.201 48.0798C124.201 48.5226 124.836 48.5182 124.815 48.1193C124.784 47.5493 124.591 41.543 125.805 41.6438C126.481 41.7008 126.244 42.9065 126.244 42.9065C126.244 42.9065 126.007 48.5489 126.581 48.5752C127.156 48.6015 127.419 45.2959 127.423 44.191C127.428 43.0862 127.958 42.6259 128.445 43.0205C128.778 43.2923 128.844 46.7207 128.813 47.8431C128.782 48.9654 128.642 51.9905 129.927 50.5174C131.211 49.0443 132.746 48.3823 133.276 48.4876C133.807 48.5928 133.837 49.3644 133.276 49.6274C132.708 49.9642 132.187 50.3756 131.728 50.8506C131.366 51.2362 131.049 51.6612 130.781 52.1177C130.473 52.6014 130.243 53.1312 130.102 53.6872L131.829 74.3586L133.096 72.776L140.317 79.76L136.547 84.0959C133.789 87.2745 128.791 87.4761 125.985 84.3414C125.884 84.2275 125.783 84.1091 125.691 83.9863C125.005 83.0772 124.598 81.988 124.521 80.8516L122.136 54.0555H122.114C122.061 51.0786 121.237 48.7944 121.11 47.2775C120.856 44.3971 121.11 44.3664 121.448 44.384Z" fill="#FFBE9D"/>
<path d="M154.837 55.4267C154.864 52.3095 154.837 49.0302 154.837 49.0302C154.837 49.0302 150.83 48.3155 150.063 43.0677C149.327 38.0609 150.572 27.2846 150.572 27.2846C156.381 24.996 162.918 25.8816 166.982 30.5508L166.35 55.8651C166.276 58.8025 163.694 61.0779 160.546 60.9771C157.367 60.885 154.811 58.3948 154.837 55.4267Z" fill="#FFBE9D"/>
<path d="M151.659 35.572C151.655 35.7474 151.72 35.9173 151.84 36.0458C151.959 36.1743 152.124 36.2512 152.299 36.2603C152.385 36.2675 152.471 36.2576 152.553 36.2312C152.634 36.2048 152.71 36.1625 152.775 36.1066C152.841 36.0507 152.894 35.9824 152.933 35.9057C152.972 35.829 152.995 35.7454 153.001 35.6597C153.004 35.4847 152.939 35.3152 152.82 35.1875C152.7 35.0597 152.535 34.9837 152.361 34.9757C152.275 34.9673 152.189 34.9762 152.107 35.0019C152.025 35.0275 151.949 35.0694 151.883 35.125C151.818 35.1807 151.764 35.2489 151.726 35.3257C151.687 35.4025 151.665 35.4862 151.659 35.572Z" fill="#263238"/>
<path d="M150.58 34.7984C150.659 34.8861 151.177 34.5134 151.896 34.5266C152.615 34.5398 153.145 34.9036 153.211 34.816C153.277 34.7283 153.167 34.6187 152.939 34.4477C152.629 34.2263 152.259 34.1068 151.878 34.1057C151.501 34.0994 151.132 34.2147 150.826 34.4345C150.615 34.6011 150.536 34.759 150.58 34.7984Z" fill="#263238"/>
<path d="M159.06 35.7771C159.055 35.9524 159.119 36.1225 159.239 36.2505C159.359 36.3785 159.524 36.4542 159.7 36.461C159.785 36.4694 159.871 36.4605 159.953 36.4348C160.034 36.4091 160.11 36.3672 160.175 36.3115C160.24 36.2558 160.294 36.1875 160.332 36.1108C160.37 36.034 160.392 35.9503 160.397 35.8648C160.402 35.6898 160.338 35.5198 160.219 35.3912C160.1 35.2626 159.936 35.1856 159.761 35.1765C159.675 35.1687 159.589 35.1781 159.507 35.2043C159.425 35.2305 159.349 35.2728 159.284 35.3288C159.218 35.3847 159.165 35.4533 159.126 35.5303C159.088 35.6073 159.065 35.6912 159.06 35.7771Z" fill="#263238"/>
<path d="M158.121 35.1345C158.2 35.2222 158.717 34.8495 159.436 34.8627C160.155 34.8758 160.686 35.2397 160.752 35.152C160.817 35.0643 160.708 34.9547 160.48 34.7837C160.17 34.5631 159.799 34.4437 159.419 34.4418C159.042 34.4341 158.673 34.5479 158.367 34.7662C158.156 34.9547 158.077 35.1345 158.121 35.1345Z" fill="#263238"/>
<path d="M155.434 40.4828C155.055 40.355 154.662 40.2783 154.263 40.2548C154.079 40.2329 153.903 40.1978 153.873 40.0707C153.861 39.879 153.907 39.6883 154.004 39.5227C154.18 39.0843 154.368 38.6108 154.565 38.1241C155.346 36.1337 155.916 34.494 155.833 34.4633C155.749 34.4326 155.057 36.0197 154.272 38.0145L153.732 39.4218C153.616 39.6439 153.58 39.8997 153.632 40.1452C153.656 40.2111 153.696 40.2702 153.748 40.3175C153.799 40.3648 153.862 40.3989 153.93 40.4171C154.031 40.448 154.136 40.4642 154.241 40.4653C154.636 40.5199 155.037 40.5258 155.434 40.4828Z" fill="#263238"/>
<path d="M154.833 49.0314C157.301 49.0971 159.738 48.4763 161.874 47.2383C161.874 47.2383 160.12 50.8202 154.89 50.2678L154.833 49.0314Z" fill="#EB996E"/>
<path d="M155.719 42.225C155.859 42.0543 156.041 41.9218 156.246 41.8399C156.451 41.7579 156.674 41.729 156.894 41.7559C157.052 41.7701 157.206 41.8163 157.346 41.8917C157.486 41.967 157.61 42.07 157.709 42.1943C157.808 42.3171 157.865 42.4677 157.874 42.6249C157.883 42.7822 157.842 42.9382 157.757 43.0711C157.639 43.1993 157.486 43.2895 157.316 43.3301C157.147 43.3707 156.969 43.3599 156.806 43.2991C156.466 43.1758 156.154 42.9849 155.89 42.7379C155.809 42.6786 155.74 42.6059 155.684 42.5231C155.657 42.4828 155.643 42.4355 155.643 42.3872C155.643 42.3388 155.657 42.2915 155.684 42.2513" fill="#EB996E"/>
<path d="M157.556 41.004C157.437 41.004 157.429 41.78 156.749 42.3192C156.07 42.8585 155.237 42.7577 155.228 42.8804C155.219 43.0032 155.412 43.0339 155.767 43.047C156.228 43.0571 156.678 42.9015 157.034 42.6086C157.38 42.3353 157.605 41.937 157.661 41.4994C157.696 41.1969 157.608 40.9996 157.556 41.004Z" fill="#263238"/>
<path d="M164.702 26.8291C162.786 29.5605 157.713 32.3707 154.079 33.024C154.517 32.4672 156.736 31.0905 157.148 30.5338C155.504 31.7613 153.145 33.4054 150.962 33.5194C150.704 33.5553 150.442 33.5141 150.208 33.401C150.084 33.3028 149.986 33.1771 149.919 33.0341C149.853 32.891 149.821 32.7344 149.826 32.5768C149.704 30.9947 149.755 29.404 149.98 27.8331C150.152 26.5031 150.829 25.29 151.869 24.4441C153.268 23.3612 155.271 23.0938 157.161 23.0499C158.741 22.9486 160.325 23.1617 161.821 23.6769C163.273 24.2468 164.509 25.378 164.719 26.7458" fill="#263238"/>
<path d="M170.2 39.0783C170.443 37.9207 170.618 36.7494 170.721 35.571C170.875 32.8703 170.094 22.8919 160.774 23.6942L163.018 26.5571C163.018 26.5571 161.177 32.6029 165.096 36.7766C165.096 36.7766 165.32 39.2186 168.051 42.0376C168.051 42.0376 169.634 41.9894 170.2 39.0783Z" fill="#263238"/>
<path d="M164.987 36.3204C165.551 36.2083 166.134 36.2522 166.675 36.4475C167.215 36.6509 167.653 37.0589 167.894 37.583C168.106 38.121 168.106 38.7197 167.894 39.2578C167.678 39.7895 167.347 40.2671 166.925 40.6563C166.639 40.9544 166.288 41.1812 165.899 41.3183C165.704 41.3845 165.495 41.4016 165.292 41.3679C165.088 41.3343 164.896 41.251 164.733 41.1254" fill="#FFBE9D"/>
<path d="M165.259 39.7247C165.193 39.7247 165.434 40.0842 165.947 39.9526C166.223 39.8623 166.453 39.6671 166.587 39.409C166.744 39.1213 166.842 38.8054 166.876 38.4795C166.921 38.1346 166.842 37.7851 166.653 37.4931C166.571 37.3699 166.463 37.2665 166.337 37.1906C166.21 37.1147 166.068 37.0683 165.921 37.0547C165.395 37.0547 165.224 37.401 165.285 37.4098C165.346 37.4186 165.535 37.2695 165.877 37.3528C166.086 37.4369 166.259 37.5932 166.363 37.7933C166.468 37.9935 166.498 38.2244 166.447 38.4445C166.381 39.0188 166.153 39.5449 165.842 39.672C165.53 39.7992 165.289 39.6764 165.259 39.7247Z" fill="#EB996E"/>
<path d="M171.559 89.9188V87.5251H154.71L149.765 65.8672L124.552 66.0776L130.667 89.9188H171.559Z" fill="#263238"/>
<path d="M136.498 77.9045C136.871 79.0532 137.884 79.7503 138.765 79.4653C139.646 79.1803 140.054 78.0185 139.677 76.8743C139.3 75.73 138.291 75.0285 137.414 75.3135C136.538 75.5985 136.126 76.7822 136.498 77.9045Z" fill="#FAFAFA"/>
<path d="M148.63 89.7726C148.204 88.9647 147.851 88.1212 147.573 87.2517C147.496 87.0461 147.463 86.8264 147.476 86.6072C147.487 86.4989 147.529 86.3961 147.597 86.3117C147.666 86.2274 147.758 86.1655 147.862 86.1337C148.257 86.0548 148.502 86.5327 148.656 86.901C148.949 87.5905 149.401 88.2012 149.975 88.6834C150.548 89.1656 151.227 89.5057 151.957 89.6761L152.979 89.6498V89.606L175.018 87.6419L173.966 83.2577L185.632 82.3809L186.698 86.6861C186.835 87.9539 186.698 89.2365 186.295 90.4465C185.893 91.6565 185.234 92.7655 184.364 93.6979C183.494 94.6303 182.433 95.3643 181.254 95.8497C180.074 96.3352 178.804 96.5608 177.53 96.5111H152.242C144.197 97.0372 142.685 89.9348 142.685 89.9348L148.63 89.7726Z" fill="#FFBE9D"/>
<path d="M119.308 160.428L109.347 166.566L113.004 175.356C116.396 172.203 119.065 168.351 120.825 164.067L119.308 160.428Z" fill="#B78876"/>
<path d="M122.013 160.632C120.724 157.563 116.314 147.374 112.609 143.568C107.072 137.869 97.3256 138.641 97.3256 138.641L84.6641 139.079C81.4176 139.519 78.2665 140.493 75.3389 141.964L75.0276 142.06V142.122C71.4852 144.046 66.4697 148.663 61.6865 153.143L67.4079 158.448L73.7387 164.069C73.7245 164.105 73.7245 164.146 73.7387 164.183C73.8044 164.525 72.7084 171.325 71.7395 177.199C76.4624 180.858 82.1173 183.119 88.0611 183.723C94.0048 184.328 99.999 183.252 105.362 180.619L105.835 175.187C106.274 170.264 106.598 164.17 106.598 164.17L108.413 168.777L121.623 161.912C121.759 161.495 121.886 161.066 122.013 160.632Z" fill="#00CBC8"/>
<path d="M97.6762 138.16C97.7045 138.234 97.7236 138.31 97.7332 138.388C97.7764 138.607 97.8043 138.828 97.8165 139.05C97.8597 139.875 97.7481 140.7 97.4877 141.483C97.1026 142.653 96.4124 143.699 95.4885 144.513C94.3252 145.485 92.8757 146.05 91.3614 146.121C89.847 146.192 88.3509 145.766 87.1015 144.907C86.1019 144.185 85.3134 143.209 84.8173 142.08C84.4844 141.325 84.297 140.514 84.2649 139.69C84.2473 139.468 84.2473 139.246 84.2649 139.024C84.2645 138.945 84.2764 138.867 84.3 138.791C84.3263 138.791 84.3 139.112 84.3351 139.668C84.404 140.474 84.6116 141.261 84.9489 141.996C85.4518 143.084 86.2283 144.022 87.2023 144.719C88.4176 145.54 89.8657 145.946 91.3306 145.876C92.7954 145.807 94.1985 145.265 95.3306 144.333C96.0913 143.678 96.6996 142.865 97.1131 141.95C97.5266 141.035 97.7352 140.041 97.7244 139.037C97.7156 138.476 97.6499 138.16 97.6762 138.16Z" fill="#263238"/>
<path d="M109.733 140.907C109.435 140.954 109.142 141.024 108.856 141.117C108.073 141.414 107.393 141.93 106.896 142.604C106.181 143.62 105.751 144.81 105.651 146.05C105.563 146.747 105.524 147.488 105.498 148.242C105.471 148.996 105.454 149.802 105.445 150.618C105.427 153.399 105.551 156.179 105.818 158.948C105.919 160.009 106.024 160.868 106.09 161.464C106.125 161.741 106.147 161.964 106.168 162.148C106.18 162.228 106.18 162.309 106.168 162.389C106.14 162.313 106.12 162.234 106.111 162.153C106.076 161.973 106.037 161.749 105.989 161.473C105.897 160.886 105.765 160.026 105.647 158.961C105.331 156.188 105.185 153.399 105.208 150.609C105.208 149.794 105.23 148.996 105.265 148.224C105.3 147.452 105.335 146.707 105.432 146.001C105.544 144.735 105.999 143.522 106.747 142.494C107.27 141.806 107.988 141.293 108.808 141.021C109.106 140.923 109.42 140.884 109.733 140.907Z" fill="#263238"/>
<path d="M79.6003 140.082C79.5924 140.166 79.5747 140.248 79.5477 140.328L79.3504 141.02L78.6051 143.563C77.9869 145.711 77.1671 148.688 76.3648 152.003C75.5625 155.317 74.9355 158.329 74.5103 160.521C74.2998 161.595 74.1332 162.472 74.0105 163.121C73.9535 163.406 73.9052 163.638 73.8658 163.827C73.8574 163.91 73.8367 163.991 73.8044 164.068C73.7947 163.985 73.7947 163.901 73.8044 163.818C73.8307 163.629 73.8614 163.38 73.9052 163.103C73.9929 162.485 74.1376 161.591 74.3437 160.473C74.7339 158.281 75.3389 155.212 76.1368 151.915C76.9347 148.618 77.7853 145.619 78.4473 143.484C78.7761 142.414 79.0567 141.551 79.2584 140.959C79.3548 140.683 79.4337 140.459 79.4995 140.279C79.5266 140.21 79.5604 140.144 79.6003 140.082Z" fill="#263238"/>
<path d="M121.763 158.512C121.603 158.656 121.43 158.785 121.246 158.898C120.908 159.134 120.408 159.467 119.786 159.866C118.541 160.673 116.8 161.747 114.841 162.87C112.881 163.992 111.07 164.952 109.751 165.618C109.088 165.952 108.549 166.215 108.177 166.39C107.985 166.49 107.786 166.573 107.58 166.64C107.755 166.515 107.94 166.405 108.133 166.311L109.676 165.474C110.991 164.772 112.771 163.795 114.727 162.672C116.682 161.55 118.436 160.48 119.698 159.731L121.198 158.823C121.375 158.701 121.565 158.597 121.763 158.512Z" fill="#263238"/>
<path d="M74.4009 160.437C74.357 160.485 71.8712 158.525 68.8417 156.053C65.8122 153.58 63.3834 151.541 63.4228 151.493C63.4623 151.445 65.9525 153.405 68.982 155.877C72.0115 158.35 74.4403 160.389 74.4009 160.437Z" fill="#263238"/>
<path opacity="0.2" d="M105.3 151.527L110.255 167.828L108.409 168.788L106.594 164.18C106.594 164.18 104.722 154.491 105.3 151.527Z" fill="black"/>
<g opacity="0.2">
<path d="M80.1351 140.089C77.4651 141.501 84.1598 144.912 87.1849 144.798L84.9928 139.002C84.9928 139.002 81.0338 139.62 80.1351 140.089Z" fill="black"/>
</g>
<path opacity="0.2" d="M97.1853 163.734L81.3232 163.796L82.3667 157.956L98.3602 157.645L97.1853 163.734Z" fill="white"/>
<path d="M95.6685 119.349C95.6088 119.57 95.6139 119.803 95.6831 120.022C95.7522 120.24 95.8826 120.434 96.0587 120.581C96.2396 120.722 96.457 120.808 96.6853 120.83C96.9136 120.851 97.1434 120.808 97.3477 120.703C98.1105 120.296 98.1894 119.226 98.0184 118.375C97.8475 117.525 97.5449 116.622 97.8869 115.828C98.15 115.219 98.7331 114.824 99.2022 114.338C99.6024 113.918 99.8991 113.412 100.069 112.857C100.239 112.303 100.277 111.717 100.18 111.146C100.073 110.578 99.8124 110.05 99.4257 109.621C99.039 109.192 98.5415 108.878 97.9878 108.713C96.8479 108.419 95.4537 108.796 94.5944 107.989C93.9674 107.406 93.9105 106.428 93.4238 105.727C92.6653 104.64 91.1046 104.495 89.7937 104.697C88.4828 104.898 87.1632 105.35 85.8479 105.056C84.765 104.811 83.8706 104.074 82.8535 103.636C81.7413 103.142 80.5022 103.011 79.3111 103.259C78.12 103.508 77.0371 104.124 76.2151 105.021C75.3931 105.918 74.8735 107.051 74.7297 108.259C74.5859 109.467 74.8251 110.69 75.4135 111.755C75.8016 112.537 76.4517 113.157 77.2505 113.509" fill="#263238"/>
<path d="M91.0695 145.983C89.4008 145.995 87.7915 145.364 86.5754 144.221C85.3592 143.079 84.6293 141.512 84.5371 139.845C84.3924 136.969 84.274 134.203 84.274 134.203C84.274 134.203 78.9384 133.817 78.4474 128.604C77.9564 123.392 77.8862 111.331 77.8862 111.331C80.7769 109.813 84.0177 109.088 87.2794 109.228C90.5412 109.368 93.7078 110.369 96.4577 112.129L96.9663 112.453L97.5844 139.438C97.5896 140.296 97.4249 141.147 97.0997 141.942C96.7745 142.736 96.2953 143.458 95.6897 144.067C95.0841 144.675 94.3641 145.158 93.5711 145.487C92.7782 145.816 91.928 145.985 91.0695 145.983Z" fill="#B78876"/>
<path d="M88.0093 119.346C87.9137 119.376 87.8251 119.425 87.7485 119.49C87.672 119.555 87.6091 119.634 87.5634 119.723C87.5177 119.813 87.4902 119.91 87.4825 120.01C87.4747 120.11 87.4869 120.211 87.5183 120.306C87.5842 120.498 87.7234 120.657 87.9057 120.747C88.088 120.838 88.2985 120.852 88.4916 120.788C88.5863 120.757 88.6738 120.707 88.7492 120.641C88.8246 120.576 88.8863 120.496 88.9309 120.407C88.9755 120.317 89.002 120.22 89.009 120.12C89.016 120.021 89.0033 119.921 88.9716 119.826C88.94 119.731 88.89 119.644 88.8245 119.568C88.759 119.493 88.6792 119.431 88.5899 119.387C88.5005 119.342 88.4033 119.315 88.3036 119.309C88.204 119.302 88.104 119.314 88.0093 119.346Z" fill="#263238"/>
<path d="M86.545 119.612C86.6327 119.699 87.1281 119.274 87.8602 119.226C88.5924 119.178 89.136 119.519 89.2106 119.423C89.2851 119.327 89.1536 119.221 88.9124 119.064C88.5887 118.86 88.2086 118.765 87.8271 118.792C87.4457 118.818 87.0826 118.966 86.7905 119.213C86.5713 119.405 86.5055 119.576 86.545 119.612Z" fill="#263238"/>
<path d="M80.0473 119.345C79.9517 119.375 79.8632 119.424 79.7868 119.489C79.7104 119.554 79.6478 119.633 79.6025 119.723C79.5572 119.812 79.5301 119.91 79.5229 120.009C79.5158 120.109 79.5286 120.21 79.5606 120.305C79.6069 120.45 79.6952 120.578 79.8144 120.673C79.9336 120.767 80.0783 120.824 80.2301 120.837C80.3819 120.849 80.5338 120.816 80.6667 120.741C80.7995 120.667 80.9072 120.555 80.976 120.419C81.0449 120.283 81.0717 120.13 81.0532 119.979C81.0347 119.827 80.9716 119.685 80.872 119.57C80.7725 119.455 80.6409 119.372 80.494 119.332C80.3471 119.292 80.1916 119.296 80.0473 119.345Z" fill="#263238"/>
<path d="M78.4825 119.63C78.5702 119.717 79.0656 119.288 79.7978 119.244C80.53 119.2 81.0736 119.538 81.1481 119.441C81.2227 119.345 81.0911 119.239 80.85 119.077C80.5254 118.876 80.1453 118.782 79.7641 118.809C79.383 118.837 79.0203 118.984 78.7281 119.231C78.5132 119.424 78.4475 119.59 78.4825 119.63Z" fill="#263238"/>
<path d="M83.967 125.268C83.5809 125.151 83.1776 125.1 82.7745 125.119C82.5816 125.119 82.4282 125.079 82.4062 124.983C82.3844 124.794 82.4163 124.602 82.4983 124.431L82.9367 122.927C83.5593 120.779 83.9714 119.016 83.8618 118.981C83.7522 118.946 83.1603 120.66 82.5465 122.808L82.1081 124.321C82.0032 124.573 81.9893 124.853 82.0687 125.114C82.1017 125.184 82.1506 125.245 82.2116 125.292C82.2725 125.339 82.3437 125.372 82.4194 125.386C82.5272 125.399 82.636 125.399 82.7438 125.386C83.1553 125.418 83.5692 125.378 83.967 125.268Z" fill="#263238"/>
<path d="M86.3739 125.885C85.2655 126.443 84.1017 126.884 82.9016 127.2C83.1802 127.558 83.5713 127.812 84.0119 127.921C84.4525 128.03 84.917 127.988 85.3305 127.801C86.8737 127.082 86.3739 125.885 86.3739 125.885Z" fill="white"/>
<path d="M84.2563 134.121C86.6884 133.971 89.022 133.106 90.9642 131.635C90.9642 131.635 89.6489 135.524 84.3572 135.475L84.2563 134.121Z" fill="#A36957"/>
<path d="M97.1019 117.726C97.0982 117.521 97.1736 117.323 97.3125 117.173C97.4514 117.023 97.643 116.932 97.8473 116.919C98.8293 116.876 100.447 117.231 100.653 119.918C100.942 123.759 97.194 122.873 97.1765 122.763C97.1589 122.654 97.1195 119.221 97.1019 117.726Z" fill="#B78876"/>
<path d="M98.0051 121.234C98.0051 121.234 98.0752 121.278 98.1936 121.322C98.3591 121.375 98.5387 121.366 98.6978 121.296C99.0967 121.116 99.3905 120.445 99.3554 119.752C99.3419 119.421 99.2534 119.097 99.0967 118.805C99.0504 118.688 98.9764 118.584 98.881 118.501C98.7855 118.419 98.6715 118.361 98.5487 118.332C98.47 118.316 98.3883 118.33 98.3185 118.369C98.2486 118.408 98.195 118.471 98.1673 118.547C98.1234 118.656 98.1673 118.731 98.1322 118.74C98.0971 118.748 98.0445 118.683 98.0621 118.52C98.0774 118.423 98.1253 118.333 98.198 118.266C98.2992 118.18 98.4294 118.136 98.5619 118.143C98.7227 118.161 98.8763 118.22 99.0076 118.314C99.139 118.409 99.2437 118.536 99.3116 118.683C99.5035 119.003 99.612 119.366 99.6272 119.739C99.6623 120.515 99.3159 121.269 98.7504 121.471C98.6489 121.508 98.5404 121.522 98.4327 121.513C98.325 121.503 98.2208 121.469 98.1278 121.414C98.0182 121.326 97.9919 121.243 98.0051 121.234Z" fill="#A36957"/>
<path d="M89.1315 117.471C88.9692 117.681 88.3949 117.585 87.654 117.554C86.9131 117.524 86.3387 117.519 86.194 117.291C86.0494 117.063 86.7596 116.506 87.7154 116.581C88.6711 116.656 89.3156 117.252 89.1315 117.471Z" fill="#263238"/>
<path d="M80.7533 117.341C80.6963 117.604 80.2185 117.731 79.6748 117.779C79.1312 117.827 78.6314 117.779 78.5305 117.529C78.4297 117.279 78.8857 116.872 79.5871 116.81C80.2886 116.749 80.8103 117.082 80.7533 117.341Z" fill="#263238"/>
<path d="M77.1669 112.974C77.1669 112.974 80.3323 114.504 84.449 112.448C87.1541 111.102 90.3019 110.44 90.9946 110.984C91.6874 111.527 91.8364 114.311 94.502 115.127C94.502 115.127 94.3179 120.436 96.4354 120.248C98.553 120.059 97.229 111.83 97.229 111.83L92.0469 109.3L86.3737 108.23L81.0425 108.985L76.9214 110.111L77.1669 112.974Z" fill="#263238"/>
<path d="M58.2186 122.066C58.4071 122.369 64.5011 143.483 64.5011 143.483L52.4095 145.136L46.8459 127.902L58.2186 122.066Z" fill="#455A64"/>
<path d="M64.501 143.489L65.5883 142.91L59.2575 121.516L58.0869 122.138L64.501 143.489Z" fill="#263238"/>
<path d="M53.1504 127.675C53.1718 127.774 53.1632 127.878 53.1256 127.972C53.0881 128.066 53.0233 128.148 52.9396 128.205C52.8558 128.263 52.7568 128.294 52.6552 128.295C52.5536 128.297 52.4539 128.268 52.3687 128.212C52.2836 128.157 52.2169 128.077 52.177 127.984C52.1372 127.89 52.126 127.787 52.145 127.687C52.1639 127.587 52.2121 127.495 52.2834 127.423C52.3547 127.35 52.4459 127.301 52.5454 127.28C52.6779 127.253 52.8158 127.279 52.9291 127.353C53.0425 127.427 53.122 127.542 53.1504 127.675Z" fill="#263238"/>
<path d="M62.2214 153.125L54.286 158.294L52.8261 139.806L52.9488 138.881L58.3151 136.847L56.7718 132.901C56.5943 132.464 56.3279 132.068 55.9893 131.739C55.6508 131.41 55.2476 131.155 54.8052 130.99C54.3629 130.825 53.8912 130.754 53.4199 130.781C52.9486 130.808 52.4881 130.933 52.0676 131.147L50.3446 132.024C49.7388 132.334 49.2045 132.766 48.7764 133.295C48.3482 133.824 48.0356 134.436 47.8588 135.093C47.2494 137.382 46.7057 139.859 46.7627 139.644L43.3606 163.441C43.3606 163.441 41.7472 170.302 46.4295 173.569C49.9763 176.033 55.9476 173.415 59.1174 171.622L72.8575 163.345L62.2214 153.125Z" fill="#B78876"/>
<path d="M70.3233 56.072L64.9439 47.8867L55.8687 53.5862L64.0934 66.2609C64.0934 66.2609 68.6179 61.3593 70.3233 56.072Z" fill="#EB996E"/>
<path d="M36.6089 15.1234C37.0473 14.6368 36.451 13.8739 35.8285 13.646C35.2059 13.418 34.4387 13.3171 34.1406 12.7297C33.7811 12.015 34.4168 11.2127 34.5307 10.4192C34.6447 9.62565 34.1625 8.76635 34.0178 7.92021C33.9256 7.37998 33.9759 6.82506 34.1636 6.31018C34.3514 5.79531 34.6701 5.33828 35.0884 4.98419C35.5067 4.63009 36.01 4.39116 36.5488 4.29097C37.0876 4.19078 37.6433 4.23279 38.1609 4.41286C38.1941 3.58081 38.4796 2.77854 38.9796 2.11263C39.4795 1.44672 40.1703 0.948666 40.96 0.684626C41.7498 0.420586 42.6011 0.403053 43.4011 0.634359C44.201 0.865665 44.9117 1.33486 45.4386 1.97963C46.2288 1.3215 47.1031 0.771562 48.0385 0.344329C48.5072 0.13317 49.013 0.0167196 49.5269 0.0016719C50.0408 -0.0133758 50.5526 0.0732757 51.0329 0.256645C51.5081 0.454993 51.9066 0.801592 52.1689 1.2448C52.4312 1.68801 52.5433 2.2041 52.4884 2.71617C52.8708 2.31627 53.3707 2.04876 53.9156 1.95257C54.4604 1.85637 55.0217 1.9365 55.5179 2.1813C56.0074 2.43932 56.4362 2.79884 56.7757 3.23583C57.1152 3.67283 57.3575 4.17724 57.4864 4.71536C57.8897 6.20599 57.539 7.95966 56.3509 8.94172C55.1628 9.92378 53.1329 9.81856 52.2517 8.56907" fill="#263238"/>
<path d="M42.4311 40.3237C43.9934 40.3316 45.4989 39.7383 46.6358 38.6667C47.7727 37.5951 48.4539 36.1273 48.5383 34.5673C48.6742 31.8798 48.7882 29.3062 48.7882 29.3062C48.7882 29.3062 53.7774 28.9423 54.2378 24.0452C54.6981 19.1481 54.7595 7.8807 54.7595 7.8807C52.053 6.4612 49.0188 5.78363 45.9656 5.91685C42.9123 6.05007 39.9487 6.98933 37.3761 8.63917L36.9026 8.94168L36.3283 34.1902C36.3219 34.9949 36.4752 35.7928 36.7793 36.5378C37.0833 37.2829 37.5321 37.9602 38.0997 38.5306C38.6672 39.101 39.3423 39.5532 40.0858 39.861C40.8293 40.1688 41.6264 40.326 42.4311 40.3237Z" fill="#FFBE9D"/>
<path d="M45.2941 15.4032C45.4659 15.4651 45.6073 15.5906 45.6889 15.7539C45.7705 15.9172 45.7862 16.1056 45.7326 16.2801C45.668 16.4568 45.5372 16.6015 45.3677 16.6833C45.1983 16.7652 45.0036 16.7778 44.825 16.7185C44.6526 16.6576 44.5105 16.5322 44.4288 16.3686C44.347 16.2051 44.3319 16.0161 44.3866 15.8417C44.4502 15.6642 44.581 15.5188 44.7507 15.4368C44.9204 15.3548 45.1156 15.3428 45.2941 15.4032Z" fill="#263238"/>
<path d="M46.6618 15.6511C46.5785 15.73 46.1138 15.3311 45.4386 15.2916C44.7634 15.2522 44.2417 15.5634 44.1716 15.4758C44.1014 15.3881 44.2242 15.2872 44.4478 15.1338C44.7514 14.9439 45.1079 14.8563 45.4649 14.8839C45.8221 14.907 46.1621 15.0455 46.4338 15.2785C46.6355 15.4582 46.7013 15.616 46.6618 15.6511Z" fill="#263238"/>
<path d="M52.7426 15.4032C52.9137 15.4659 53.0544 15.5916 53.1359 15.7546C53.2174 15.9176 53.2335 16.1056 53.181 16.2801C53.1165 16.4568 52.9856 16.6015 52.8162 16.6833C52.6468 16.7652 52.4521 16.7778 52.2735 16.7185C52.1011 16.6576 51.959 16.5322 51.8773 16.3686C51.7955 16.2051 51.7804 16.0161 51.8351 15.8417C51.8987 15.6642 52.0294 15.5188 52.1992 15.4368C52.3689 15.3548 52.5641 15.3428 52.7426 15.4032Z" fill="#263238"/>
<path d="M54.1982 15.666C54.1193 15.7449 53.6546 15.346 52.975 15.3021C52.2955 15.2583 51.7825 15.5783 51.7124 15.4863C51.6422 15.3942 51.765 15.2977 51.9886 15.1487C52.2917 14.9585 52.6475 14.8696 53.0045 14.8948C53.3614 14.92 53.7012 15.0581 53.9746 15.289C54.1763 15.4687 54.2376 15.6266 54.1982 15.666Z" fill="#263238"/>
<path d="M49.0732 20.942C49.4349 20.8304 49.813 20.7815 50.1912 20.7973C50.371 20.7973 50.5113 20.7667 50.5332 20.6702C50.5517 20.4944 50.5214 20.3169 50.4455 20.1572C50.3096 19.7188 50.1693 19.2366 50.0071 18.7499C49.4284 16.742 49.0382 15.0891 49.1302 15.0628C49.2223 15.0365 49.7879 16.6367 50.371 18.6403C50.5069 19.1313 50.6384 19.6005 50.7699 20.0608C50.8642 20.2954 50.8766 20.5549 50.805 20.7973C50.7742 20.8632 50.7284 20.9208 50.6713 20.9658C50.6142 21.0107 50.5474 21.0416 50.4762 21.056C50.3744 21.0708 50.2711 21.0708 50.1693 21.056C49.8002 21.078 49.4299 21.0395 49.0732 20.942Z" fill="#263238"/>
<path d="M46.8067 21.5078C47.8462 22.026 48.9363 22.4359 50.0598 22.731C49.7996 23.0651 49.4349 23.3024 49.024 23.4049C48.6132 23.5074 48.1798 23.4693 47.7931 23.2966C46.3551 22.6389 46.8067 21.5078 46.8067 21.5078Z" fill="white"/>
<path d="M48.8014 29.2225C46.528 29.0803 44.3472 28.2705 42.532 26.8945C42.532 26.8945 43.7639 30.5334 48.7181 30.4896L48.8014 29.2225Z" fill="#EB996E"/>
<path d="M36.7843 16.1189C36.788 15.9275 36.7175 15.7421 36.5875 15.6015C36.4576 15.461 36.2783 15.3761 36.0872 15.3649C35.1665 15.321 33.6539 15.6542 33.4567 18.1664C33.1848 21.7614 36.6966 20.9328 36.7097 20.8276C36.7229 20.7223 36.7667 17.5131 36.7843 16.1189Z" fill="#FFBE9D"/>
<path d="M35.9557 19.3975C35.9557 19.3975 35.89 19.437 35.776 19.4808C35.6217 19.5301 35.4547 19.5208 35.3069 19.4545C34.9342 19.2836 34.6536 18.6566 34.6887 18.0078C34.702 17.7011 34.7844 17.4013 34.9298 17.1309C34.9732 17.0217 35.0427 16.9246 35.132 16.8482C35.2214 16.7718 35.3281 16.7184 35.4428 16.6925C35.5164 16.6772 35.593 16.6887 35.6589 16.7248C35.7248 16.761 35.7757 16.8195 35.8023 16.8898C35.8417 16.995 35.8023 17.0652 35.833 17.0695C35.8636 17.0739 35.9163 17.0169 35.8987 16.8679C35.8869 16.776 35.8416 16.6917 35.7716 16.6311C35.7254 16.5895 35.6713 16.5576 35.6126 16.5373C35.5539 16.517 35.4916 16.5086 35.4296 16.5128C35.2787 16.5295 35.1346 16.5852 35.0117 16.6743C34.8887 16.7635 34.791 16.8831 34.7281 17.0213C34.5499 17.3207 34.449 17.6597 34.4344 18.0078C34.4037 18.7312 34.7238 19.437 35.2367 19.6255C35.3322 19.6618 35.4347 19.6759 35.5365 19.6668C35.6383 19.6577 35.7366 19.6256 35.8242 19.5729C35.9294 19.4852 35.9557 19.4063 35.9557 19.3975Z" fill="#EB996E"/>
<path d="M44.2417 13.6503C44.3952 13.8476 44.93 13.7555 45.6227 13.7292C46.3154 13.7029 46.8635 13.6985 46.9862 13.4837C47.109 13.2689 46.4601 12.7471 45.5657 12.8217C44.6714 12.8962 44.0664 13.4442 44.2417 13.6503Z" fill="#263238"/>
<path d="M52.0808 13.5233C52.1334 13.7732 52.5806 13.8916 53.0891 13.9618C53.5977 14.0319 54.0624 13.9618 54.1589 13.725C54.2553 13.4883 53.8257 13.1112 53.1724 13.0542C52.5192 12.9972 52.0282 13.2822 52.0808 13.5233Z" fill="#263238"/>
<path d="M55.4567 9.43676C55.4567 9.43676 52.4929 10.8704 48.6436 8.94573C46.1139 7.68308 43.1678 7.0693 42.5058 7.57786C41.8437 8.08643 41.7166 10.6906 39.2132 11.4491C39.2132 11.4491 39.3842 16.4208 37.4025 16.241C35.4209 16.0613 36.6616 8.34948 36.6616 8.34948L41.4842 5.98202L46.776 4.98242L51.7608 5.68389L55.6189 6.74048L55.4567 9.43676Z" fill="#263238"/>
<path d="M22.2771 38.2001C27.4592 32.8733 36.574 33.452 36.574 33.452L48.4113 33.8905C51.4484 34.3039 54.3963 35.2164 57.1358 36.5911L57.4252 36.6832V36.7402C60.744 38.5421 65.4395 42.878 69.9114 47.0518L64.5583 52.0147L58.6352 57.2757C58.6476 57.3097 58.6476 57.347 58.6352 57.3809C58.5739 57.6966 59.5998 64.0624 60.5029 69.5558C56.0838 72.978 50.7936 75.0924 45.2331 75.6589C39.6727 76.2254 34.0648 75.2213 29.0463 72.7607L28.6079 67.6794C28.2045 63.0716 27.8976 57.3678 27.8976 57.3678" fill="#006D3A"/>
<path d="M53.1591 34.8008C53.1989 34.8697 53.2299 34.9433 53.2512 35.02C53.3126 35.1866 53.3871 35.397 53.4748 35.6557C53.6677 36.2081 53.9132 37.0148 54.2376 38.0144C54.8558 40.0136 55.6494 42.7975 56.399 45.9059C57.1487 49.0143 57.7143 51.8509 58.0782 53.9158C58.2579 54.9461 58.3939 55.7791 58.4772 56.3622C58.5122 56.6297 58.5429 56.8489 58.5648 57.0286C58.5746 57.1072 58.5746 57.1867 58.5648 57.2654C58.5335 57.1927 58.5129 57.1159 58.5035 57.0374L58.3719 56.3754C58.2536 55.7704 58.0957 54.9461 57.8984 53.9421C57.4995 51.8903 56.9076 49.0625 56.1448 45.9585C55.3819 42.8545 54.6278 40.075 54.0491 38.067C53.7641 37.0893 53.5274 36.2826 53.3564 35.6908L53.1723 35.0419C53.156 34.9626 53.1515 34.8814 53.1591 34.8008Z" fill="#263238"/>
<path d="M58.0259 53.8464C57.9864 53.7982 60.2531 51.8867 63.0853 49.5762C65.9175 47.2658 68.2542 45.4332 68.2937 45.4814C68.3331 45.5296 66.0665 47.4411 63.2299 49.7516C60.3934 52.0621 58.0654 53.8947 58.0259 53.8464Z" fill="#263238"/>
<path opacity="0.2" d="M29.1165 45.5098L24.478 60.7624L26.2054 61.6392L27.9065 57.3252C27.9065 57.3252 29.6514 48.285 29.1165 45.5098Z" fill="black"/>
<g opacity="0.2">
<path d="M52.6547 34.8062C55.1537 36.1214 48.893 39.2956 46.0784 39.2123L48.1346 33.7891C48.1346 33.7891 51.8173 34.3634 52.6547 34.8062Z" fill="black"/>
</g>
<path d="M35.8284 33.7917V29.7539C35.8284 29.7539 43.7199 31.7838 44.0049 36.5056C44.0049 36.5056 45.0089 31.2884 49.073 31.0341L49.6474 38.3732L44.9168 42.49H40.1249L36.3282 39.215L35.8284 34.1206" fill="#006D3A"/>
<path d="M45.7807 59.1446C45.7695 59.0704 45.7695 58.9951 45.7807 58.921C45.7807 58.7456 45.7807 58.5351 45.7807 58.2765C45.7807 57.7197 45.807 56.9086 45.8114 55.9134C45.8114 53.9186 45.7632 51.1609 45.5133 48.1271C45.2634 45.0932 44.8644 42.3663 44.5224 40.3978C44.3558 39.4157 44.2112 38.6441 44.084 38.0741C44.0402 37.8199 44.0007 37.6094 43.97 37.4428C43.952 37.3683 43.9446 37.2915 43.9481 37.2148C43.9773 37.284 43.9993 37.356 44.0139 37.4297C44.0577 37.6007 44.1103 37.8067 44.1717 38.0566C44.3032 38.5959 44.4742 39.3719 44.6671 40.3715C45.1555 42.9304 45.5081 45.5134 45.7237 48.1096C45.9381 50.705 46.0156 53.3098 45.9561 55.9134C45.9298 56.913 45.8947 57.7241 45.8509 58.2809C45.8509 58.5352 45.8158 58.75 45.8026 58.921C45.8075 58.9962 45.8001 59.0717 45.7807 59.1446Z" fill="#263238"/>
<path d="M43.6413 35.1323C43.4846 35.101 43.3224 35.1131 43.1722 35.1673C42.9965 35.2351 42.8442 35.3524 42.7338 35.5049C42.586 35.7139 42.4625 35.9389 42.3655 36.1757C41.7134 37.5814 41.208 39.0505 40.8573 40.5599L40.8222 40.709L40.6907 40.63C40.2172 40.3451 39.735 40.0382 39.2483 39.705C38.3615 39.1064 37.5082 38.4594 36.6923 37.7672C36.3191 37.4605 36.0194 37.074 35.8155 36.636C35.6578 36.2494 35.5674 35.8387 35.5481 35.4216C35.5321 34.8325 35.5881 34.2436 35.7147 33.668C35.7461 33.4533 35.802 33.243 35.8813 33.041C35.8736 33.2563 35.8472 33.4704 35.8023 33.6811C35.711 34.2609 35.6802 34.8486 35.7103 35.4348C35.7378 35.829 35.8312 36.2157 35.9865 36.5791C36.1844 36.9874 36.4704 37.3467 36.8239 37.6313C37.638 38.3105 38.4867 38.947 39.3667 39.5384C39.849 39.8672 40.3312 40.1741 40.7959 40.4591L40.6293 40.5292C40.9905 39.0112 41.526 37.54 42.2252 36.145C42.3349 35.9028 42.4732 35.6747 42.6373 35.4655C42.7663 35.3064 42.9383 35.1877 43.1327 35.1235C43.4791 35.0095 43.6544 35.1323 43.6413 35.1323Z" fill="#263238"/>
<path d="M49.0733 31.0352C49.1164 31.2428 49.1384 31.4544 49.139 31.6665C49.1697 32.1049 49.2092 32.6968 49.2574 33.3895C49.3056 34.0822 49.4021 34.9722 49.5468 35.9235C49.6735 36.4261 49.7062 36.9479 49.6432 37.4624C49.4502 38.0002 49.0889 38.4614 48.6129 38.7776C47.9876 39.1589 47.4003 39.5993 46.8593 40.0929L46.6883 40.2902V40.0271C46.5914 38.6409 46.1886 37.2934 45.5089 36.0814C45.0047 35.1826 44.5882 34.7223 44.6321 34.7003C44.748 34.7914 44.8512 34.8976 44.939 35.016C45.2018 35.3283 45.4393 35.6611 45.6492 36.0112C46.3801 37.2248 46.817 38.5926 46.925 40.0052L46.7321 39.9394C47.2693 39.4284 47.8569 38.9731 48.4858 38.5803C48.9209 38.2971 49.2542 37.8824 49.4372 37.3966C49.4947 36.9103 49.4665 36.4176 49.3539 35.9411C49.2179 34.9809 49.1478 34.1129 49.1083 33.3851C49.0689 32.6573 49.0645 32.0698 49.0645 31.6577C49.0507 31.4503 49.0536 31.2421 49.0733 31.0352Z" fill="#263238"/>
<path d="M74.4665 32.0625C74.1464 32.4395 62.5327 47.9683 62.5327 47.9683L64.168 48.8934L76.0843 33.5487L74.4665 32.0625Z" fill="#263238"/>
<path d="M27.8098 44.3401C27.8098 44.3401 40.0285 61.9294 40.7651 62.2758C42.2118 62.9553 58.9288 48.5094 60.5246 47.1284C60.7438 46.8347 61.1954 46.2165 62.0854 44.9845C62.0854 44.9845 63.4007 38.9475 64.8124 39.4122C66.2241 39.877 64.0408 42.4812 64.957 44.7697C65.8733 47.0583 70.0734 41.5956 70.2181 41.1045L71.301 39.6884C71.301 39.6884 72.4365 42.9108 72.3576 44.2524C72.1121 48.5577 68.0391 53.6784 68.0391 53.6784C68.0391 53.6784 49.7658 76.3446 37.2358 77.0286C33.6276 77.2303 27.2135 66.9932 22.9258 59.3121C21.6845 57.0705 21.3038 54.4531 21.8551 51.9508C22.4064 49.4486 23.8518 47.2334 25.9202 45.7211L27.8098 44.3401Z" fill="#FFBE9D"/>
<path d="M70.3232 45.0073C70.2925 44.9854 70.6871 44.2971 71.1211 43.4202C71.5552 42.5434 71.8621 41.8112 71.8971 41.8244C71.7479 42.4014 71.5285 42.958 71.2439 43.4816C70.9975 44.0243 70.6885 44.5364 70.3232 45.0073Z" fill="#EB996E"/>
<path d="M25.7406 35.7422C25.7406 35.7422 12.6275 40.3938 22.3648 62.4594L37.5034 53.3228L35.3508 48.167L25.7406 35.7422Z" fill="#006D3A"/>
<path d="M24.7364 36.123H24.8416H25.1441C25.5389 36.1297 25.9316 36.1812 26.3147 36.2765C26.9189 36.433 27.4966 36.6783 28.0289 37.0043C28.7288 37.4407 29.3685 37.9669 29.9317 38.5694C31.3603 40.1715 32.5572 41.966 33.4872 43.9006C34.5964 46.0445 35.6311 48.4865 36.6921 51.0512L37.6215 53.2959L37.661 53.3924L37.5689 53.4406C33.1847 55.83 29.3749 58.0659 26.683 59.7451C25.337 60.5824 24.2629 61.2708 23.5263 61.7486L22.6802 62.2967C22.5845 62.3648 22.4833 62.4249 22.3777 62.4764C22.4648 62.3987 22.5571 62.3269 22.6539 62.2616C22.8424 62.1301 23.1186 61.9284 23.4781 61.6785C24.2015 61.1787 25.2625 60.4684 26.604 59.6135C29.2784 57.9037 33.0795 55.6371 37.4637 53.2389L37.4111 53.3836L36.4816 51.1389C35.4207 48.5741 34.3948 46.1365 33.3031 43.9971C32.3802 42.0777 31.2003 40.293 29.7957 38.6922C29.2474 38.09 28.6225 37.5623 27.9368 37.1226C27.4338 36.7899 26.8862 36.5301 26.3103 36.351C25.7934 36.2291 25.2667 36.1528 24.7364 36.123Z" fill="#263238"/>
<path d="M98.3122 96.2616C98.3105 96.8054 98.1475 97.3366 97.8438 97.7877C97.5401 98.2389 97.1094 98.5899 96.6062 98.7962C96.103 99.0025 95.5499 99.0549 95.0168 98.9468C94.4838 98.8387 93.9949 98.5749 93.6118 98.1888C93.2288 97.8027 92.9689 97.3116 92.8651 96.7778C92.7612 96.2439 92.818 95.6913 93.0283 95.1897C93.2387 94.6882 93.593 94.2603 94.0466 93.9602C94.5002 93.6601 95.0326 93.5013 95.5765 93.5039C96.3048 93.5074 97.0019 93.7998 97.5148 94.3168C98.0278 94.8338 98.3146 95.5333 98.3122 96.2616Z" fill="#263238"/>
<path d="M90.0744 92.7309C90.775 91.9761 91.6215 91.3713 92.5627 90.9533C93.5039 90.5354 94.5202 90.3129 95.55 90.2994C96.5797 90.2858 97.6015 90.4816 98.5534 90.8746C99.5052 91.2677 100.367 91.85 101.088 92.5862C102.49 93.9979 104.687 91.8234 103.28 90.3941C102.271 89.3748 101.068 88.5678 99.7429 88.0208C98.4173 87.4738 96.9956 87.1979 95.5616 87.2093C94.1277 87.2208 92.7106 87.5193 91.3939 88.0874C90.0772 88.6555 88.8877 89.4816 87.8955 90.5169C86.5232 91.9593 88.6934 94.1558 90.0876 92.709L90.0744 92.7309Z" fill="#263238"/>
<path d="M80.7448 79.9434C84.9186 76.3308 89.9078 74.0598 95.4933 74.0466C101.058 73.9834 106.438 76.0417 110.54 79.8031C111.987 81.1622 114.187 78.992 112.732 77.611C108.047 73.2757 101.885 70.8894 95.502 70.9382C89.0748 70.9382 83.3666 73.5688 78.5659 77.7293C77.0577 79.0446 79.2411 81.2367 80.758 79.9214L80.7448 79.9434Z" fill="#263238"/>
<path d="M84.4274 87.0339C85.8203 85.4801 87.5199 84.2316 89.4191 83.3671C91.3183 82.5025 93.376 82.0407 95.4625 82.0106C97.549 81.9805 99.6192 82.3829 101.543 83.1924C103.466 84.0018 105.201 85.2008 106.638 86.7139C108.028 88.1431 110.22 85.9686 108.83 84.5218C107.107 82.7207 105.033 81.2927 102.735 80.3262C100.438 79.3598 97.9667 78.8755 95.4745 78.9035C92.9823 78.9314 90.5224 79.471 88.2473 80.4887C85.9722 81.5064 83.9304 82.9806 82.2485 84.8199C80.9025 86.2755 83.0727 88.4763 84.4406 87.012L84.4274 87.0339Z" fill="#263238"/>
<path d="M98.3691 94.3202C98.3674 94.8641 98.2043 95.3952 97.9006 95.8463C97.597 96.2975 97.1663 96.6485 96.663 96.8548C96.1598 97.0611 95.6067 97.1135 95.0737 97.0054C94.5407 96.8973 94.0518 96.6335 93.6687 96.2474C93.2857 95.8613 93.0258 95.3702 92.9219 94.8364C92.8181 94.3025 92.8749 93.7499 93.0852 93.2483C93.2956 92.7468 93.6499 92.3189 94.1035 92.0188C94.5571 91.7187 95.0895 91.5599 95.6334 91.5625C96.3613 91.5672 97.0578 91.8599 97.5704 92.3767C98.0831 92.8935 98.3703 93.5922 98.3691 94.3202Z" fill="#455A64"/>
<path d="M90.1311 90.7683C90.8316 90.0137 91.678 89.4091 92.6191 88.9911C93.5601 88.5731 94.5761 88.3504 95.6057 88.3365C96.6353 88.3226 97.657 88.5177 98.6089 88.9101C99.5609 89.3024 100.423 89.8839 101.144 90.6192C102.547 92.0353 104.744 89.8608 103.336 88.4271C102.327 87.4081 101.125 86.6014 99.7988 86.0548C98.4731 85.5082 97.0513 85.2327 95.6173 85.2445C94.1834 85.2564 92.7663 85.5553 91.4498 86.1238C90.1333 86.6922 88.944 87.5187 87.9521 88.5543C86.5799 89.9923 88.75 92.1931 90.1442 90.7464L90.1311 90.7683Z" fill="#455A64"/>
<path d="M80.7973 77.9786C84.9754 74.366 89.9646 72.095 95.5501 72.0819C101.115 72.0169 106.496 74.0754 110.597 77.8383C112.043 79.1974 114.244 77.0272 112.789 75.6462C108.108 71.3206 101.954 68.9408 95.5808 68.991C89.1536 68.991 83.4409 71.6215 78.6402 75.7821C77.1365 77.0974 79.3154 79.2895 80.8323 77.9742L80.7973 77.9786Z" fill="#455A64"/>
<path d="M84.4799 85.0627C85.8735 83.5098 87.5734 82.2622 89.4728 81.3984C91.3721 80.5346 93.4297 80.0734 95.516 80.0437C97.6023 80.0141 99.6722 80.4166 101.595 81.2261C103.518 82.0356 105.253 83.2344 106.69 84.7471C108.08 86.1763 110.277 83.9974 108.882 82.555C107.16 80.7539 105.085 79.3259 102.788 78.3594C100.491 77.393 98.0192 76.9087 95.527 76.9367C93.0348 76.9646 90.5749 77.5042 88.2998 78.5219C86.0247 79.5396 83.9829 81.0138 82.301 82.8531C80.955 84.3087 83.1252 86.5095 84.4931 85.0452L84.4799 85.0627Z" fill="#455A64"/>
</svg>
