<svg width="407" height="600" viewBox="0 0 407 600" fill="none" xmlns="http://www.w3.org/2000/svg">
<g clip-path="url(#clip0_197_1597)">
<g clip-path="url(#clip1_197_1597)">
<mask id="mask0_197_1597" style="mask-type:luminance" maskUnits="userSpaceOnUse" x="-198" y="-200" width="800" height="800">
<path d="M602 -200H-198V600H602V-200Z" fill="white"/>
</mask>
<g mask="url(#mask0_197_1597)">
<path d="M248.751 204.492C256.718 204.236 265.309 201.769 273.434 200.966M248.751 225.649C254.901 223.933 263.482 224.992 269.32 222.123M272.651 248.569C277.156 221.927 283.642 212.848 283.425 197.832C288.537 200.934 293.131 213.53 295.963 218.597C300.064 225.935 304.211 236.719 310.248 242.391M275.784 227.412C284.535 227.742 293.279 224.114 302.23 224.473M328.285 195.285C314.686 194.235 308.78 203.887 311.642 221.408C313.612 233.482 324.104 248.716 338.134 242.424C359.487 232.844 346.443 191.445 327.698 195.676M329.853 225.649C334.77 230.155 338.181 235.923 342.669 240.832C347.598 246.223 346.404 244.322 349.834 249.156M248.751 204.296C248.555 216.05 248.306 216.736 248.692 227.139C249.088 237.793 247.924 241.475 248.555 252.096" stroke="white" stroke-width="1.03126" stroke-linecap="round" stroke-linejoin="round"/>
<mask id="mask1_197_1597" style="mask-type:alpha" maskUnits="userSpaceOnUse" x="-1" y="4" width="409" height="462">
<path d="M110.645 87.4301C105.942 85.2163 99.1635 83.8413 96.606 83.4563C81.9896 81.2013 67.9782 82.3426 56.7993 90.8264C55.3693 91.9126 53.9943 93.1089 52.6605 94.4427C47.9167 99.1864 39.6529 121.709 45.3455 127.402C46.5005 128.557 55.4106 131.307 55.4106 132.888C55.4106 133.961 44.1905 136.931 42.5955 137.467C36.0092 139.667 31.5266 143.201 26.1228 147.532C14.7652 156.621 7.87639 168.638 3.97135 181.729C0.767568 192.522 -0.428711 204.045 -0.428711 215.279C-0.428711 221.109 0.066277 227.008 1.70254 232.494C2.66505 235.794 4.05384 238.943 5.97886 241.83C14.2977 254.315 27.7728 262.084 42.1692 265.192C48.6593 266.594 55.3418 267.048 61.8181 266.553C68.3357 266.044 75.912 264.394 81.9621 261.974C83.8596 261.204 85.5096 258.578 87.4484 259.224C89.9922 260.063 82.6083 273.442 81.9621 275.697C79.6796 283.7 80.7796 292.871 83.7909 300.42C88.1222 311.255 96.001 322.351 105.31 332.237C115.884 343.416 128.328 353.055 139.63 359.009C159.155 369.28 179.547 369.074 200.97 369.074C225.541 369.074 250.222 366.558 266.888 346.194C273.68 337.875 278.121 328.456 282.453 318.735C283.539 316.274 284.804 313.235 285.189 310.485C285.327 309.577 284.543 308.395 285.189 307.749C285.423 307.515 292.422 310.32 293.439 310.485C301.277 311.791 313.019 311.612 320.898 310.485C328.227 309.44 336.023 307.474 343.806 304.71C360.375 298.838 376.889 289.365 388.769 277.443C392.206 274.019 395.259 270.376 397.803 266.553C403.151 258.523 402.959 250.232 404.21 240.909C404.829 236.262 406.644 231.875 406.947 227.186C407.029 225.935 407.084 224.656 407.098 223.364C407.552 203.949 401.68 181.247 388.645 166.755C387.078 165.008 385.304 163.441 383.379 162.025C377.604 157.803 370.564 155.026 363.922 153.032C360.719 152.069 357.116 149.911 353.857 149.374C352.95 149.223 350.695 150.186 351.107 149.374C352.207 147.161 355.782 147.449 357.515 145.703C359.811 143.407 362.259 141.166 363.922 138.388C369.189 129.602 372.049 119.853 373.561 109.898C374.249 105.374 374.661 100.809 374.909 96.2714C375.802 79.2488 374.757 63.3949 368.529 49.4935C368.185 48.7097 367.814 47.9397 367.429 47.1697C367.332 46.9772 367.236 46.7847 367.14 46.6059C362.864 38.2321 356.552 30.6283 347.45 23.9457C323.497 6.38681 290.469 2.26176 264.138 16.6306C252.615 22.9145 244.997 32.7183 238.507 44.0897C236.335 47.8847 235.757 56.9048 235.757 56.9048V50.4972C235.757 45.4509 236.115 45.0934 234.85 40.4321C232.334 31.2058 229.267 24.8945 222.035 18.4594C206.538 4.68178 177.182 2.66051 157.945 7.47305C137.306 12.6294 124.409 28.2495 117.987 46.7572C116.117 52.0923 114.811 57.6748 114 63.3124C113.546 66.5436 110.755 80.1563 110.645 87.4301ZM283.182 436.711C288.434 433.287 291.638 434.813 297.372 436.725C300.246 437.687 306.419 449.952 305.608 453.197C303.532 461.53 290.235 467.566 282.728 463.276C279.799 461.599 276.087 454.462 276.32 450.461C276.554 446.446 277.915 440.149 283.182 436.711ZM295.543 350.676C298.059 345.864 301.29 345.259 304.7 343.348C308.166 341.395 318.093 341.766 320.266 346.098C326.989 359.545 320.417 382.714 303.779 382.714C301.95 382.714 299.984 383.388 298.293 382.714C293.04 380.61 290.565 373.35 291.885 368.07C292.38 366.077 293.027 355.475 295.543 350.676Z" stroke="#FF0000" stroke-width="1.03126" stroke-linecap="round" stroke-linejoin="round"/>
<path d="M110.645 87.4301C105.942 85.2163 99.1635 83.8413 96.606 83.4563C81.9896 81.2013 67.9782 82.3426 56.7993 90.8264C55.3693 91.9126 53.9943 93.1089 52.6605 94.4426C47.9167 99.1864 39.6529 121.709 45.3455 127.402C46.5005 128.557 55.4106 131.307 55.4106 132.888C55.4106 133.961 44.1905 136.931 42.5955 137.467C36.0092 139.667 31.5266 143.201 26.1228 147.532C14.7652 156.621 7.87639 168.638 3.97135 181.729C0.767568 192.522 -0.428711 204.045 -0.428711 215.279C-0.428711 221.109 0.0662771 227.008 1.70254 232.494C2.66505 235.794 4.05384 238.943 5.97886 241.83C14.2977 254.315 27.7728 262.084 42.1692 265.192C48.6593 266.594 55.3418 267.048 61.8181 266.553C68.3357 266.044 75.912 264.394 81.9621 261.974C83.8596 261.204 85.5096 258.578 87.4484 259.224C89.9922 260.063 82.6083 273.442 81.9621 275.697C79.6796 283.7 80.7796 292.871 83.7909 300.42C88.1222 311.255 96.001 322.351 105.31 332.237C115.884 343.416 128.328 353.055 139.63 359.009C159.155 369.28 179.547 369.074 200.97 369.074C225.541 369.074 250.222 366.558 266.888 346.194C273.68 337.875 278.121 328.456 282.453 318.735C283.539 316.274 284.804 313.235 285.189 310.485C285.327 309.577 284.543 308.395 285.189 307.749C285.423 307.515 292.422 310.32 293.439 310.485C301.277 311.791 313.019 311.612 320.898 310.485C328.227 309.44 336.023 307.474 343.806 304.71C360.375 298.838 376.889 289.365 388.769 277.443C392.206 274.019 395.259 270.376 397.803 266.553C403.151 258.523 402.959 250.232 404.21 240.909C404.829 236.262 406.644 231.875 406.947 227.186C407.029 225.935 407.084 224.656 407.098 223.364C407.552 203.949 401.68 181.247 388.645 166.755C387.078 165.008 385.304 163.441 383.379 162.025C377.604 157.803 370.564 155.026 363.922 153.032C360.719 152.069 357.116 149.911 353.857 149.374C352.95 149.223 350.695 150.186 351.107 149.374C352.207 147.161 355.782 147.449 357.515 145.703C359.811 143.407 362.259 141.166 363.922 138.388C369.189 129.602 372.049 119.853 373.561 109.898C374.249 105.374 374.661 100.809 374.909 96.2714C375.802 79.2488 374.757 63.3949 368.529 49.4935C368.185 48.7097 367.814 47.9397 367.429 47.1697C367.332 46.9772 367.236 46.7847 367.14 46.6059C362.864 38.2321 356.552 30.6283 347.45 23.9457C323.497 6.38681 290.469 2.26176 264.138 16.6306C252.615 22.9145 244.997 32.7183 238.507 44.0897C236.335 47.8847 235.757 56.9048 235.757 56.9048V50.4972C235.757 45.4509 236.115 45.0934 234.85 40.4321C232.334 31.2058 229.267 24.8945 222.035 18.4594C206.538 4.68178 177.182 2.66051 157.945 7.47305C137.306 12.6294 124.409 28.2495 117.987 46.7572C116.117 52.0923 114.811 57.6748 114 63.3124C113.546 66.5436 110.755 80.1563 110.645 87.4301ZM283.182 436.711C288.434 433.287 291.638 434.813 297.372 436.725C300.246 437.687 306.419 449.952 305.608 453.197C303.532 461.53 290.235 467.566 282.728 463.276C279.799 461.599 276.087 454.462 276.32 450.461C276.554 446.446 277.915 440.149 283.182 436.711ZM295.543 350.676C298.059 345.864 301.29 345.259 304.701 343.348C308.166 341.395 318.093 341.766 320.266 346.098C326.989 359.545 320.417 382.714 303.779 382.714C301.951 382.714 299.984 383.388 298.293 382.714C293.04 380.61 290.565 373.35 291.885 368.07C292.38 366.077 293.027 355.475 295.543 350.676Z" fill="#FF0000"/>
<path d="M110.645 87.4301C105.942 85.2163 99.1635 83.8413 96.606 83.4563C81.9896 81.2013 67.9782 82.3425 56.7993 90.8264C55.3693 91.9126 53.9943 93.1089 52.6605 94.4427C47.9168 99.1864 39.6529 121.709 45.3455 127.402C46.5005 128.557 55.4106 131.307 55.4106 132.888C55.4106 133.961 44.1905 136.931 42.5954 137.467C36.0091 139.667 31.5266 143.201 26.1228 147.532C14.7652 156.621 7.87636 168.638 3.97133 181.729C0.767544 192.522 -0.428711 204.045 -0.428711 215.279C-0.428711 221.109 0.0662947 227.008 1.70256 232.494C2.66507 235.794 4.05383 238.943 5.97884 241.83C14.2977 254.315 27.7728 262.084 42.1692 265.192C48.6593 266.594 55.3418 267.048 61.8181 266.553C68.3357 266.044 75.912 264.394 81.9621 261.974C83.8596 261.204 85.5096 258.578 87.4484 259.224C89.9922 260.063 82.6083 273.442 81.9621 275.697C79.6796 283.7 80.7796 292.871 83.7908 300.42C88.1221 311.255 96.001 322.351 105.31 332.237C115.884 343.416 128.328 353.055 139.63 359.009C159.155 369.28 179.547 369.074 200.969 369.074C225.541 369.074 250.222 366.558 266.886 346.194C273.68 337.875 278.12 328.456 282.453 318.735C283.539 316.274 284.804 313.235 285.189 310.485C285.327 309.577 284.543 308.395 285.189 307.748C285.423 307.515 292.422 310.32 293.439 310.485C301.277 311.791 313.019 311.612 320.898 310.485C328.227 309.44 336.023 307.474 343.806 304.71C360.375 298.838 376.887 289.365 388.769 277.443C392.206 274.019 395.259 270.376 397.801 266.553C403.151 258.523 402.958 250.232 404.21 240.909C404.829 236.262 406.644 231.875 406.946 227.186C407.028 225.935 407.083 224.656 407.098 223.364C407.552 203.949 401.68 181.247 388.645 166.755C387.078 165.008 385.304 163.441 383.379 162.025C377.604 157.803 370.564 155.026 363.922 153.032C360.719 152.069 357.116 149.911 353.856 149.374C352.95 149.223 350.695 150.186 351.106 149.374C352.207 147.161 355.782 147.449 357.515 145.703C359.81 143.407 362.259 141.166 363.922 138.388C369.189 129.602 372.049 119.853 373.56 109.898C374.247 105.374 374.661 100.809 374.909 96.2714C375.801 79.2487 374.757 63.3949 368.527 49.4935C368.183 48.7097 367.814 47.9397 367.429 47.1697C367.332 46.9772 367.236 46.7847 367.14 46.6059C362.864 38.2321 356.551 30.6283 347.45 23.9457C323.496 6.38678 290.469 2.26174 264.136 16.6306C252.615 22.9144 244.996 32.7183 238.507 44.0897C236.335 47.8847 235.757 56.9048 235.757 56.9048V50.4972C235.757 45.4509 236.115 45.0934 234.85 40.4321C232.334 31.2058 229.267 24.8945 222.035 18.4594C206.538 4.68178 177.182 2.66051 157.945 7.47305C137.306 12.6294 124.409 28.2495 117.987 46.7572C116.117 52.0922 114.811 57.6748 114 63.3124C113.546 66.5436 110.755 80.1563 110.645 87.4301ZM283.182 436.711C288.433 433.287 291.636 434.813 297.37 436.725C300.245 437.687 306.418 449.952 305.608 453.197C303.532 461.53 290.235 467.566 282.728 463.276C279.799 461.599 276.086 454.462 276.32 450.461C276.554 446.446 277.915 440.149 283.182 436.711ZM295.543 350.676C298.058 345.864 301.29 345.259 304.699 343.348C308.166 341.395 318.092 341.766 320.264 346.098C326.988 359.545 320.417 382.714 303.778 382.714C301.949 382.714 299.983 383.388 298.293 382.714C293.04 380.61 290.565 373.35 291.885 368.07C292.379 366.077 293.027 355.475 295.543 350.676Z" stroke="black" stroke-width="1.03126" stroke-linecap="round" stroke-linejoin="round"/>
</mask>
<g mask="url(#mask1_197_1597)">
<path d="M180.716 304.888C180.564 304.668 180.427 304.462 180.262 304.256C173.827 295.401 161.259 290.313 161.672 277.471C161.795 273.937 167.419 272.548 169.908 271.146C179.973 265.481 187.769 269.427 196.721 274.446C198.275 275.312 201.231 275.229 202.248 276.728M162.125 134.579C163.583 141.839 172.851 175.238 172.851 178.332M162.139 134.208C162.139 134.208 180.111 121.585 182.022 120.884C195.236 116.085 224.633 108.853 240.405 117.942C243.389 119.66 245.877 121.957 247.679 124.968C263.959 152.111 240.735 177.535 221.388 196.867C215.682 202.587 201.96 213.505 200.337 221.59C198.481 230.844 198.508 240.304 198.508 249.97V258.207C196.927 259.389 188.787 258.207 186.601 258.207C185.184 258.207 175.614 259.128 175.614 259.128C175.546 259.059 175.477 258.949 175.436 258.812C174.679 256.955 175.614 249.709 175.614 248.142C175.614 236.262 176.412 224.808 179.286 213.354C183.356 197.074 203.61 181.563 214.073 168.501C216.576 165.366 220.577 160.663 221.388 156.593C222.832 149.374 216.562 138.402 207.652 142.857C196.267 148.563 185.391 164.541 185.391 164.541C185.391 164.541 175.381 176.765 174.102 179.308M173.552 179.171C173.263 178.978 172.974 178.786 172.686 178.58C170.623 177.205 168.56 175.802 166.484 174.358C152.459 164.706 138.145 154.297 123.254 146.844M122.938 146.239C120.449 141.262 120.916 135.294 120.188 129.767C119.789 126.728 119.747 123.648 119.28 120.609C119.129 119.66 117.932 118.725 118.359 117.859C118.496 117.584 118.702 117.46 118.936 117.46C119.926 117.46 121.631 119.509 122.938 119.702C125.371 120.045 161.287 133.754 161.287 133.754M119.775 117.172C119.775 117.172 148.829 97.8389 159.142 93.4251C171.049 88.3238 184.263 86.6326 196.68 91.5964C199.87 92.8751 231.467 112.62 240.446 117.873C241.381 118.423 242.069 118.808 242.454 119M165.962 175.115C150.452 185.469 153.16 206.465 153.16 206.465L153.642 231.655L155.484 234.405L175.298 258.867M20.004 -30.7248C21.0216 -34.2449 24.6791 -34.7811 23.7303 -38.6449C23.2216 -40.7624 13.4452 -44.9562 19.0965 -51.3638C24.7478 -57.7713 33.9879 -48.105 35.638 -47.1012C43.7642 -42.1649 38.4567 -26.2835 33.6167 -20.3847M57.0744 91.0326L56.7994 90.8264L45.6205 82.4388C45.6205 82.4388 12.579 53.7698 8.08267 50.401C5.00266 48.0772 -1.66617 45.7259 -2.88995 41.9034C-3.08243 41.3121 -3.13744 40.6796 -3.02746 40.0059C-2.16119 34.8496 2.44511 29.5558 5.34641 25.6782C11.9052 16.9331 24.5553 4.17301 34.6342 -0.873288C38.8417 -2.96331 44.053 -8.18837 49.4981 -6.59335C49.7318 -6.53834 49.9656 -6.45584 50.1993 -6.3596C52.2619 -5.53458 76.8746 16.1219 78.8408 17.5931C84.6709 21.9657 98.5585 30.9308 105.049 37.4208C107.551 39.9234 116.227 43.3059 117.946 46.7434M-3.81118 42.1646C-6.21746 44.5709 -7.86749 48.9022 -13.4913 46.4959C-20.8614 43.3334 -18.7576 38.6171 -17.9051 33.5296C-17.7538 32.622 -17.5613 31.7558 -17.3413 30.917C-15.0451 22.3644 -9.14624 17.2356 -3.81118 10.1131C-1.23992 6.67554 0.836327 2.743 4.42513 0.0479685C13.2802 -6.59335 22.4653 -15.2284 33.0254 -19.5735C33.2867 -19.6835 33.5479 -19.7935 33.8092 -19.8897C36.1467 -20.811 38.553 -21.5122 41.0417 -21.9247C42.6092 -22.186 51.3681 -22.186 51.6431 -20.6322C53.0868 -12.0109 55.7681 -8.79336 51.6018 -6.71709M-17.6163 30.8483C-27.0077 26.1457 -37.6915 22.1169 -37.6915 9.20556C-37.6915 7.39053 -36.7703 3.70551 -36.7703 3.70551C-36.7703 3.70551 -24.8626 3.92552 -24.8626 1.87674C-24.8626 0.707969 -29.6064 -2.6058 -30.3627 -3.60957C-34.199 -8.72462 -32.2465 -14.5409 -28.5339 -18.2672C-24.6427 -22.1447 -20.0501 -18.941 -16.6263 -18.2672C-16.1176 -18.1572 -12.3638 -15.8059 -12.0475 -16.4247C-11.25 -18.0197 -9.07751 -19.711 -9.38001 -21.471C-9.72377 -23.5748 -14.7976 -27.411 -14.7976 -27.411L-32.0402 -45.1075L-40.5241 -57.7438C-40.5241 -57.7438 -36.454 -64.4127 -31.2702 -63.1201C-26.1827 -61.8414 -15.8151 -49.0813 -10.2188 -45.7262C-6.31372 -43.3887 2.17009 -35.5649 6.25388 -34.7399C9.77391 -34.0386 15.219 -32.3061 19.5915 -29.9823C21.5578 -28.9373 23.3178 -27.7548 24.5691 -26.5035C26.6178 -24.441 30.0554 -21.471 32.8054 -20.096M381.413 162.162C382.06 162.162 382.719 162.107 383.38 162.025C389.938 161.158 397.101 156.401 403.564 155.672C423.515 153.458 443.343 143.146 463.076 139.199C464.396 138.938 470.639 136.889 471.311 135.542C471.998 134.167 470.898 131.1 472.837 130.262M472.837 130.262C473.155 130.124 473.554 130.042 474.061 130.042C477.705 130.042 483.383 143.201 485.047 146.528C485.625 147.683 487.015 148.233 487.797 149.264C493.93 157.446 496.089 176.448 494.205 185.881C493.806 187.847 493.216 193.911 491.772 198.38C491.001 200.717 490.025 202.629 488.705 203.275C486.396 204.43 483.906 201.859 481.376 202.367C479.011 202.835 476.467 203.715 474.061 204.196C463.53 206.3 453.133 211.786 442.931 215.183C430.241 219.418 419.775 217.424 407.868 223.378M472.837 130.262C472.921 130.482 473.016 130.715 473.14 130.963M472.837 130.262C471.861 127.622 473.36 126.027 475.766 125.229M475.766 125.229C479.521 123.978 485.515 124.679 487.797 126.384C488.361 126.797 488.897 127.237 489.406 127.69M475.766 125.229C475.573 125.71 475.422 126.013 475.353 126.054M475.766 125.229C476.467 123.565 477.815 119.798 478.64 118.148C481.914 111.589 490.492 104.975 497.862 103.49C504.724 102.129 508.615 107.78 504.27 113.569C503.239 114.944 501.492 115.742 500.612 117.227C499.595 118.918 500.681 123.098 499.169 124.17M489.406 127.69C497.905 135.171 500.545 147.078 502.443 158.422C503.39 164.087 503.775 183.145 501.877 192.179C501.534 193.815 501.123 195.121 500.612 195.96C500.007 196.977 496.64 204.196 495.112 204.196C493.271 204.196 493.765 199.989 494.137 198.875C494.164 198.806 494.179 198.751 494.205 198.71M489.406 127.69C489.132 127.622 488.884 127.484 488.705 127.305M489.406 127.69C491.592 128.35 496.322 126.013 499.361 124.569C500.269 124.143 501.025 123.799 501.52 123.634C512.548 119.963 523.768 114.105 535.4 112.648C537.312 112.414 547.571 108.138 549.123 113.569C552.423 125.037 523.493 131.87 523.493 131.87C523.493 131.87 513.896 136.298 510.858 138.099M510.719 138.168C510.734 138.168 510.734 138.154 510.748 138.154M510.748 138.154C510.76 138.141 510.803 138.127 510.858 138.099M510.748 138.154C510.775 138.127 510.816 138.113 510.858 138.099M510.858 138.099C511.97 137.591 519.451 134.249 524.579 136.009C536.267 140.052 531.206 149.567 531.206 149.567C531.206 149.567 534.687 172.516 531.729 182.223C528.773 191.931 510.375 192.302 502.441 192.302M41.2618 269.441C39.818 273.621 39.6667 273.758 39.213 280.179C38.5392 289.571 36.9854 298.343 35.5554 307.638C34.2354 316.164 33.6579 324.757 32.8054 333.282C31.8016 343.361 28.2266 353.426 28.2266 363.492C28.2266 368.057 25.8891 386.619 21.6128 389.273M21.6128 389.273C21.544 389.342 21.4753 389.369 21.4066 389.411M21.6128 389.273C21.049 389.067 20.5128 388.998 19.9903 389.122C17.6803 389.699 15.4115 396.286 15.4115 398.279C15.4115 408.413 17.3227 418.423 18.1615 428.488C18.2715 429.863 18.4503 431.238 18.684 432.6C18.2165 431.555 17.7215 430.51 17.2403 429.396C15.5903 425.56 13.5965 422.122 11.7539 418.423C7.94515 410.819 7.2164 388.806 -5.63997 390.951C-9.82002 391.652 -9.31124 400.053 -9.31124 402.858C-9.31124 422.067 -8.61 439.887 -0.607421 457.322C1.88135 462.754 2.51385 469.271 6.25388 474.263C12.1939 482.169 19.069 488.123 28.2266 490.735C31.9666 491.808 31.4854 492.825 34.6342 494.393C39.873 497.019 44.823 496.208 50.1993 495.314C52.6056 494.915 55.2044 496.084 57.5281 495.314C62.1894 493.76 68.927 488.357 73.0795 485.249C76.8471 482.43 82.1409 481.66 85.9084 478.841C95.0523 471.98 103.99 465.861 113.367 459.619C117.245 457.034 126.183 449.554 120.682 444.054C116.791 440.149 110.755 445.126 106.96 445.882C104.76 446.322 99.906 447.477 94.5985 448.564M21.6128 389.273C24.3216 390.318 27.2916 394.801 28.2266 396.451C33.4104 405.526 32.7504 417.667 36.4629 427.567C38.0304 431.747 40.1755 434.071 41.963 437.646C42.1142 437.935 42.3068 438.21 42.4993 438.471M42.4993 438.471C42.238 436.01 42.1692 433.315 41.963 432.146C39.983 421.297 38.9105 408.386 40.1342 397.358C40.4367 394.608 41.303 387.293 45.6205 387.293C53.0868 387.293 56.1119 399.984 57.5281 405.594C60.1819 416.21 65.4757 425.257 67.5932 435.817C68.4458 440.08 70.6595 448.33 74.9221 450.461C77.5346 451.754 86.5822 450.241 94.5985 448.564M42.4993 438.471C42.9943 439.09 43.5443 439.653 43.7918 440.382C44.0805 441.249 44.438 443.779 43.7918 443.132C43.0768 442.431 42.7193 440.534 42.4993 438.471ZM94.5985 448.564C100.332 435.955 96.4685 420.912 98.7235 407.423C100.429 397.207 101.212 386.771 102.381 376.307C104.1 360.852 100.841 348.05 103.412 332.622M94.5985 448.564C94.461 448.894 94.3098 449.21 94.1448 449.54M367.91 46.1797C367.58 46.3447 367.332 46.4822 367.138 46.6059C366.37 47.0734 366.617 47.2247 367.427 47.1697C369.574 47.0184 375.637 45.4509 377.026 44.9009C383.063 42.4946 389.317 40.9134 394.419 36.6646C404.637 28.1395 403.989 15.0906 397.156 3.70551C388.59 -10.5671 363.302 -12.4096 348.645 -10.9384C346.735 -10.7459 337.426 -8.57337 333.658 -8.71086C332.887 -8.72462 332.352 -8.86211 332.16 -9.10963C328.652 -13.7847 327.347 -23.8498 326.673 -29.2398C326.466 -30.8623 323.826 -51.0888 323.923 -51.2125C324.857 -52.4638 327.841 -53.5913 331.665 -54.5676C340.381 -56.7813 353.486 -58.2113 356.881 -58.5414C377.052 -60.5626 397.266 -57.5651 415.472 -48.4762C417.713 -47.3487 427.997 -35.1799 431.943 -29.2398C444.622 -10.2371 444.292 17.7031 438.35 38.4934C436.934 43.4709 436.755 48.6822 433.772 53.151C422.044 70.7374 406.286 87.4988 389.84 99.8327C383.228 104.796 381.853 106.323 374.455 110.008M305.842 -31.4536C305.251 -31.1648 298.54 -28.0023 297.372 -27.411C294.857 -26.1598 293.013 -26.3385 293.716 -22.8323C294.527 -18.7897 299.2 -10.9384 299.2 -10.9384C299.2 -10.9384 303.834 -2.70206 307.533 -1.35455C317.778 2.358 335.803 -7.85836 333.686 -7.69336M305.842 -31.4536C305.098 -31.2336 293.109 -27.7685 291.885 -27.411C286.468 -25.871 265.566 -18.3085 261.47 -22.406C253.714 -30.1611 258.321 -31.0548 268.111 -34.6161C280.803 -39.2362 296.258 -44.3512 303.436 -46.51C305.168 -47.0325 308.729 -48.0363 310.916 -48.6413M305.842 -31.4536C305.869 -31.4673 305.883 -31.4673 305.883 -31.4673M323.002 -51.2125C318.946 -51.2125 312.772 -49.15 312.772 -49.15C312.772 -49.15 312.016 -48.9438 310.916 -48.6413M310.916 -48.6413C310.916 -48.6275 310.916 -48.6138 310.902 -48.6M310.916 -48.6413C312.88 -52.7251 298.388 -53.1375 296.464 -57.6201C292.31 -67.3002 310.474 -68.8677 315.685 -66.7777C323.317 -63.7252 330.701 -54.1001 331.665 -54.5813C331.787 -54.6501 331.816 -54.8701 331.72 -55.2826M344.658 307.13C347.408 308.958 349.622 308.518 351.382 311.31C365.641 333.709 361.461 363.767 361.461 389.122C361.461 397.661 360.581 423.745 360.581 423.745C360.581 423.745 362.767 422.851 365.861 421.613M365.861 421.613C372.736 418.85 384.121 414.34 386.074 414.023C396.785 412.236 404.444 410.311 414.193 411.122C416.324 411.287 418.552 411.59 420.944 412.057C421.054 412.085 421.178 412.098 421.288 412.126M365.861 421.613C365.916 421.462 365.985 421.311 366.04 421.16M365.861 421.613C361.2 433.48 359.399 447.216 361.461 459.619C361.599 460.499 362.369 470.591 362.369 470.591C362.369 470.591 363.097 470.66 364.156 470.701C365.889 470.77 368.529 470.743 370.234 470.165C375.61 468.378 391.835 467.965 397.445 466.563M390.171 278.846C406.685 282.146 411.814 312.217 411.814 312.217C411.814 312.217 417.3 335.331 419.129 347.926C420.958 360.508 420.958 396.464 420.958 412.002M414.083 412.36C421.522 421.201 440.662 419.18 450.259 420.252C456.227 420.912 468.808 419.537 479.561 424.803C490.327 430.07 492.789 433.108 496.776 441.084C498.976 445.484 497.862 461.448 497.862 461.448C497.862 461.448 469.317 463.427 463.996 462.355C458.152 461.186 451.923 459.632 445.681 460.526C441.446 461.131 410.645 465.16 406.397 465.16M396.634 464.005C394.681 458.134 403.371 456.786 403.371 456.786C403.371 456.786 403.866 461.062 406.232 465.256C408.968 470.151 414.234 474.936 424.203 472.613M397.308 465.352C397.376 465.765 397.445 466.15 397.528 466.549C398.696 472.943 399.906 477.013 399.906 477.013C399.906 477.013 392.11 477.92 390.749 477.92C381.248 477.92 371.939 479.831 362.355 479.831L364.129 471.87M423.612 472.613C442.628 468.804 467.186 470.591 486.876 470.591C488.787 470.591 504.174 470.88 504.27 470.591C504.792 469.024 499.939 464.775 498.77 464.184M-74.6656 96.7114C-75.7106 98.2927 -78.2544 103.504 -80.317 103.504M-101.533 86.5363C-101.616 86.7426 -101.698 86.9488 -101.781 87.1688C-102.95 90.3451 -103.995 95.4326 -100.708 97.3989M-100.708 97.3989C-100.612 97.4539 -100.516 97.5089 -100.406 97.5639M-100.708 97.3989C-103.513 99.0077 -107.46 103.669 -108.147 104.301C-113.304 109.004 -116.81 117.557 -119.257 123.923M-100.708 97.3989C-100.406 97.2064 -100.117 97.0689 -99.8559 96.9727C-97.7521 96.2302 -93.8608 95.4877 -90.1621 95.5977C-85.0883 95.7627 -80.3857 97.5502 -81.2245 103.174C-81.2245 103.215 -81.2382 103.27 -81.252 103.311C-82.022 107.505 -89.3508 109.87 -92.4033 111.782C-99.0584 115.962 -101.451 121.613 -100.722 129.12M3.72386 181.66C-14.0413 186.541 -52.9542 193.567 -66.9793 176.737C-72.6856 169.89 -71.5719 154.902 -70.6368 146.528C-70.3343 143.806 -67.7906 134.456 -69.7293 131.87C-70.1418 131.334 -71.4206 131.554 -72.6444 131.926C-73.8131 132.269 -74.9544 132.751 -75.2157 132.792C-77.6357 133.136 -80.0969 132.792 -82.5445 132.792C-90.5883 132.792 -98.3434 136.229 -106.346 137.371C-109.646 137.838 -112.437 137.206 -115.669 138.058C-115.902 138.113 -116.164 138.196 -116.411 138.278C-122.764 140.396 -117.951 157.157 -117.332 161.172C-114.871 177.163 -113.991 192.866 -110.003 208.775C-107.941 217.039 -107.033 225.99 -99.9384 231.655C-91.4958 238.407 -78.8044 237.87 -68.8081 238.984C-59.5268 240.015 -47.0279 243.48 -37.6915 240.813C-34.8728 240.015 -32.6177 237.609 -29.4415 237.155C-25.4814 236.592 -21.4939 236.894 -17.5476 236.234C-11.195 235.175 -5.81872 232.576 0.767593 232.576M-116.562 136.174C-116.934 132.297 -118.116 128.117 -119.546 124.019C-120.907 120.087 -122.516 116.237 -123.85 112.854C-125.046 109.802 -130.697 83.8825 -132.746 78.1625C-133.337 76.485 -135.524 62.8173 -137.215 58.0598C-138.824 53.5497 -140.501 49.5347 -139.855 45.1209C-139.745 44.4609 -138.439 35.0146 -134.946 34.8496C-131.454 34.6983 -127.329 39.9783 -126.93 41.4634C-124.785 49.4247 -126.339 50.786 -123.63 58.376C-122.956 60.2598 -119.821 76.4712 -118.267 77.75C-117.979 77.9837 -117.511 78.3825 -117.222 78.1487C-115.49 76.7325 -116.205 60.9061 -116.604 59.4485C-118.405 52.766 -118.336 44.4609 -118.226 42.1784C-118.144 40.2671 -117.924 34.1345 -115.036 33.8595C-109.563 33.3233 -107.955 39.7584 -107.57 43.6497C-106.69 52.6972 -106.965 63.0786 -104.806 71.9199C-103.94 75.495 -103.156 78.52 -102.798 82.2463C-102.633 83.91 -101.822 87.1551 -101.822 87.1551C-101.822 87.1551 -101.753 85.7663 -101.52 85.12C-100.942 83.635 -101.341 81.9575 -100.461 80.5138C-97.9034 76.3062 -97.8621 68.7436 -91.6608 68.1249C-90.6983 68.0424 -89.4745 67.6436 -88.6358 68.3311C-84.7307 71.5349 -88.8833 81.5725 -89.3645 86.4401C-89.612 88.8326 -89.9283 91.1151 -90.1758 93.5351C-90.1758 93.5901 -90.162 93.6314 -90.1345 93.6314C-89.4745 93.6314 -81.1282 81.325 -76.5082 79.675C-76.0682 79.51 -74.0194 78.3 -73.6206 78.3962C-72.1494 78.7262 -71.7781 84.0888 -71.9568 85.2438C-72.5619 89.3138 -73.5106 92.9851 -74.0881 96.7939C-74.5419 99.6952 -74.7619 102.693 -74.4319 106.02C-74.0194 110.255 -73.4281 114.339 -72.2181 118.327C-71.9981 119.055 -71.5581 131.692 -72.6444 131.692C-72.7269 131.692 -72.8231 131.609 -72.9331 131.444M180.674 303.953C180.482 303.692 180.317 303.39 180.193 303.073C179.712 301.85 179.891 291.895 182.462 287.33C186.491 280.193 195.181 276.948 199.402 277.429C200.268 277.526 201.176 277.636 202.083 277.787C208.34 278.763 214.582 281.472 210.127 296.666C207.982 303.94 185.322 310.54 180.674 303.953ZM18.684 432.627C19.674 434.8 20.5403 436.931 20.8978 439.475C21.1591 441.29 20.8978 444.961 20.8978 444.961C20.8978 444.961 20.3478 441.29 19.9903 439.475C19.5365 437.192 19.0553 434.923 18.684 432.627Z" stroke="white" stroke-width="1.03126" stroke-linecap="round" stroke-linejoin="round"/>
</g>
<mask id="mask2_197_1597" style="mask-type:alpha" maskUnits="userSpaceOnUse" x="-1" y="4" width="409" height="462">
<path d="M110.645 87.4301C105.942 85.2163 99.1635 83.8413 96.606 83.4563C81.9896 81.2013 67.9782 82.3426 56.7993 90.8264C55.3693 91.9126 53.9943 93.1089 52.6605 94.4427C47.9167 99.1864 39.6529 121.709 45.3455 127.402C46.5005 128.557 55.4106 131.307 55.4106 132.888C55.4106 133.961 44.1905 136.931 42.5955 137.467C36.0092 139.667 31.5266 143.201 26.1228 147.532C14.7652 156.621 7.87639 168.638 3.97135 181.729C0.767568 192.522 -0.428711 204.045 -0.428711 215.279C-0.428711 221.109 0.066277 227.008 1.70254 232.494C2.66505 235.794 4.05384 238.943 5.97886 241.83C14.2977 254.315 27.7728 262.084 42.1692 265.192C48.6593 266.594 55.3418 267.048 61.8181 266.553C68.3357 266.044 75.912 264.394 81.9621 261.974C83.8596 261.204 85.5096 258.578 87.4484 259.224C89.9922 260.063 82.6083 273.442 81.9621 275.697C79.6796 283.7 80.7796 292.871 83.7909 300.42C88.1222 311.255 96.001 322.351 105.31 332.237C115.884 343.416 128.328 353.055 139.63 359.009C159.155 369.28 179.547 369.074 200.97 369.074C225.541 369.074 250.222 366.558 266.888 346.194C273.68 337.875 278.121 328.456 282.453 318.735C283.539 316.274 284.804 313.235 285.189 310.485C285.327 309.577 284.543 308.395 285.189 307.749C285.423 307.515 292.422 310.32 293.439 310.485C301.277 311.791 313.019 311.612 320.898 310.485C328.227 309.44 336.023 307.474 343.806 304.71C360.375 298.838 376.889 289.365 388.769 277.443C392.206 274.019 395.259 270.376 397.803 266.553C403.151 258.523 402.959 250.232 404.21 240.909C404.829 236.262 406.644 231.875 406.947 227.186C407.029 225.935 407.084 224.656 407.098 223.364C407.552 203.949 401.68 181.247 388.645 166.755C387.078 165.008 385.304 163.441 383.379 162.025C377.604 157.803 370.564 155.026 363.922 153.032C360.719 152.069 357.116 149.911 353.857 149.374C352.95 149.223 350.695 150.186 351.107 149.374C352.207 147.161 355.782 147.449 357.515 145.703C359.811 143.407 362.259 141.166 363.922 138.388C369.189 129.602 372.049 119.853 373.561 109.898C374.249 105.374 374.661 100.809 374.909 96.2714C375.802 79.2488 374.757 63.3949 368.529 49.4935C368.185 48.7097 367.814 47.9397 367.429 47.1697C367.332 46.9772 367.236 46.7847 367.14 46.6059C362.864 38.2321 356.552 30.6283 347.45 23.9457C323.497 6.38681 290.469 2.26176 264.138 16.6306C252.615 22.9145 244.997 32.7183 238.507 44.0897C236.335 47.8847 235.757 56.9048 235.757 56.9048V50.4972C235.757 45.4509 236.115 45.0934 234.85 40.4321C232.334 31.2058 229.267 24.8945 222.035 18.4594C206.538 4.68178 177.182 2.66051 157.945 7.47305C137.306 12.6294 124.409 28.2495 117.987 46.7572C116.117 52.0923 114.811 57.6748 114 63.3124C113.546 66.5436 110.755 80.1563 110.645 87.4301ZM283.182 436.711C288.434 433.287 291.638 434.813 297.372 436.725C300.246 437.687 306.419 449.952 305.608 453.197C303.532 461.53 290.235 467.566 282.728 463.276C279.799 461.599 276.087 454.462 276.32 450.461C276.554 446.446 277.915 440.149 283.182 436.711ZM295.543 350.676C298.059 345.864 301.29 345.259 304.7 343.348C308.166 341.395 318.093 341.766 320.266 346.098C326.989 359.545 320.417 382.714 303.779 382.714C301.95 382.714 299.984 383.388 298.293 382.714C293.04 380.61 290.565 373.35 291.885 368.07C292.38 366.077 293.027 355.475 295.543 350.676Z" stroke="#FF0000" stroke-width="1.03126" stroke-linecap="round" stroke-linejoin="round"/>
<path d="M110.645 87.4301C105.942 85.2163 99.1635 83.8413 96.606 83.4563C81.9896 81.2013 67.9782 82.3426 56.7993 90.8264C55.3693 91.9126 53.9943 93.1089 52.6605 94.4426C47.9167 99.1864 39.6529 121.709 45.3455 127.402C46.5005 128.557 55.4106 131.307 55.4106 132.888C55.4106 133.961 44.1905 136.931 42.5955 137.467C36.0092 139.667 31.5266 143.201 26.1228 147.532C14.7652 156.621 7.87639 168.638 3.97135 181.729C0.767568 192.522 -0.428711 204.045 -0.428711 215.279C-0.428711 221.109 0.0662771 227.008 1.70254 232.494C2.66505 235.794 4.05384 238.943 5.97886 241.83C14.2977 254.315 27.7728 262.084 42.1692 265.192C48.6593 266.594 55.3418 267.048 61.8181 266.553C68.3357 266.044 75.912 264.394 81.9621 261.974C83.8596 261.204 85.5096 258.578 87.4484 259.224C89.9922 260.063 82.6083 273.442 81.9621 275.697C79.6796 283.7 80.7796 292.871 83.7909 300.42C88.1222 311.255 96.001 322.351 105.31 332.237C115.884 343.416 128.328 353.055 139.63 359.009C159.155 369.28 179.547 369.074 200.97 369.074C225.541 369.074 250.222 366.558 266.888 346.194C273.68 337.875 278.121 328.456 282.453 318.735C283.539 316.274 284.804 313.235 285.189 310.485C285.327 309.577 284.543 308.395 285.189 307.749C285.423 307.515 292.422 310.32 293.439 310.485C301.277 311.791 313.019 311.612 320.898 310.485C328.227 309.44 336.023 307.474 343.806 304.71C360.375 298.838 376.889 289.365 388.769 277.443C392.206 274.019 395.259 270.376 397.803 266.553C403.151 258.523 402.959 250.232 404.21 240.909C404.829 236.262 406.644 231.875 406.947 227.186C407.029 225.935 407.084 224.656 407.098 223.364C407.552 203.949 401.68 181.247 388.645 166.755C387.078 165.008 385.304 163.441 383.379 162.025C377.604 157.803 370.564 155.026 363.922 153.032C360.719 152.069 357.116 149.911 353.857 149.374C352.95 149.223 350.695 150.186 351.107 149.374C352.207 147.161 355.782 147.449 357.515 145.703C359.811 143.407 362.259 141.166 363.922 138.388C369.189 129.602 372.049 119.853 373.561 109.898C374.249 105.374 374.661 100.809 374.909 96.2714C375.802 79.2488 374.757 63.3949 368.529 49.4935C368.185 48.7097 367.814 47.9397 367.429 47.1697C367.332 46.9772 367.236 46.7847 367.14 46.6059C362.864 38.2321 356.552 30.6283 347.45 23.9457C323.497 6.38681 290.469 2.26176 264.138 16.6306C252.615 22.9145 244.997 32.7183 238.507 44.0897C236.335 47.8847 235.757 56.9048 235.757 56.9048V50.4972C235.757 45.4509 236.115 45.0934 234.85 40.4321C232.334 31.2058 229.267 24.8945 222.035 18.4594C206.538 4.68178 177.182 2.66051 157.945 7.47305C137.306 12.6294 124.409 28.2495 117.987 46.7572C116.117 52.0923 114.811 57.6748 114 63.3124C113.546 66.5436 110.755 80.1563 110.645 87.4301ZM283.182 436.711C288.434 433.287 291.638 434.813 297.372 436.725C300.246 437.687 306.419 449.952 305.608 453.197C303.532 461.53 290.235 467.566 282.728 463.276C279.799 461.599 276.087 454.462 276.32 450.461C276.554 446.446 277.915 440.149 283.182 436.711ZM295.543 350.676C298.059 345.864 301.29 345.259 304.701 343.348C308.166 341.395 318.093 341.766 320.266 346.098C326.989 359.545 320.417 382.714 303.779 382.714C301.951 382.714 299.984 383.388 298.293 382.714C293.04 380.61 290.565 373.35 291.885 368.07C292.38 366.077 293.027 355.475 295.543 350.676Z" fill="#FF0000"/>
<path d="M110.645 87.4301C105.942 85.2163 99.1635 83.8413 96.606 83.4563C81.9896 81.2013 67.9782 82.3425 56.7993 90.8264C55.3693 91.9126 53.9943 93.1089 52.6605 94.4427C47.9168 99.1864 39.6529 121.709 45.3455 127.402C46.5005 128.557 55.4106 131.307 55.4106 132.888C55.4106 133.961 44.1905 136.931 42.5954 137.467C36.0091 139.667 31.5266 143.201 26.1228 147.532C14.7652 156.621 7.87636 168.638 3.97133 181.729C0.767544 192.522 -0.428711 204.045 -0.428711 215.279C-0.428711 221.109 0.0662947 227.008 1.70256 232.494C2.66507 235.794 4.05383 238.943 5.97884 241.83C14.2977 254.315 27.7728 262.084 42.1692 265.192C48.6593 266.594 55.3418 267.048 61.8181 266.553C68.3357 266.044 75.912 264.394 81.9621 261.974C83.8596 261.204 85.5096 258.578 87.4484 259.224C89.9922 260.063 82.6083 273.442 81.9621 275.697C79.6796 283.7 80.7796 292.871 83.7908 300.42C88.1221 311.255 96.001 322.351 105.31 332.237C115.884 343.416 128.328 353.055 139.63 359.009C159.155 369.28 179.547 369.074 200.969 369.074C225.541 369.074 250.222 366.558 266.886 346.194C273.68 337.875 278.12 328.456 282.453 318.735C283.539 316.274 284.804 313.235 285.189 310.485C285.327 309.577 284.543 308.395 285.189 307.748C285.423 307.515 292.422 310.32 293.439 310.485C301.277 311.791 313.019 311.612 320.898 310.485C328.227 309.44 336.023 307.474 343.806 304.71C360.375 298.838 376.887 289.365 388.769 277.443C392.206 274.019 395.259 270.376 397.801 266.553C403.151 258.523 402.958 250.232 404.21 240.909C404.829 236.262 406.644 231.875 406.946 227.186C407.028 225.935 407.083 224.656 407.098 223.364C407.552 203.949 401.68 181.247 388.645 166.755C387.078 165.008 385.304 163.441 383.379 162.025C377.604 157.803 370.564 155.026 363.922 153.032C360.719 152.069 357.116 149.911 353.856 149.374C352.95 149.223 350.695 150.186 351.106 149.374C352.207 147.161 355.782 147.449 357.515 145.703C359.81 143.407 362.259 141.166 363.922 138.388C369.189 129.602 372.049 119.853 373.56 109.898C374.247 105.374 374.661 100.809 374.909 96.2714C375.801 79.2487 374.757 63.3949 368.527 49.4935C368.183 48.7097 367.814 47.9397 367.429 47.1697C367.332 46.9772 367.236 46.7847 367.14 46.6059C362.864 38.2321 356.551 30.6283 347.45 23.9457C323.496 6.38678 290.469 2.26174 264.136 16.6306C252.615 22.9144 244.996 32.7183 238.507 44.0897C236.335 47.8847 235.757 56.9048 235.757 56.9048V50.4972C235.757 45.4509 236.115 45.0934 234.85 40.4321C232.334 31.2058 229.267 24.8945 222.035 18.4594C206.538 4.68178 177.182 2.66051 157.945 7.47305C137.306 12.6294 124.409 28.2495 117.987 46.7572C116.117 52.0922 114.811 57.6748 114 63.3124C113.546 66.5436 110.755 80.1563 110.645 87.4301ZM283.182 436.711C288.433 433.287 291.636 434.813 297.37 436.725C300.245 437.687 306.418 449.952 305.608 453.197C303.532 461.53 290.235 467.566 282.728 463.276C279.799 461.599 276.086 454.462 276.32 450.461C276.554 446.446 277.915 440.149 283.182 436.711ZM295.543 350.676C298.058 345.864 301.29 345.259 304.699 343.348C308.166 341.395 318.092 341.766 320.264 346.098C326.988 359.545 320.417 382.714 303.778 382.714C301.949 382.714 299.983 383.388 298.293 382.714C293.04 380.61 290.565 373.35 291.885 368.07C292.379 366.077 293.027 355.475 295.543 350.676Z" stroke="black" stroke-width="1.03126" stroke-linecap="round" stroke-linejoin="round"/>
</mask>
<g mask="url(#mask2_197_1597)">
<path d="M180.716 304.888C180.565 304.668 180.427 304.462 180.262 304.256C173.827 295.401 161.259 290.313 161.672 277.471C161.796 273.937 167.419 272.548 169.908 271.146C179.973 265.481 187.77 269.427 196.721 274.446C198.275 275.312 201.231 275.229 202.248 276.728M162.126 134.579C163.583 141.839 172.851 175.238 172.851 178.332M162.139 134.208C162.139 134.208 180.111 121.585 182.022 120.884C195.236 116.085 224.634 108.853 240.405 117.942C243.389 119.66 245.878 121.957 247.679 124.968C263.959 152.111 240.735 177.535 221.389 196.867C215.682 202.587 201.96 213.505 200.337 221.59C198.481 230.844 198.508 240.304 198.508 249.97V258.207C196.927 259.389 188.787 258.207 186.601 258.207C185.185 258.207 175.614 259.128 175.614 259.128C175.546 259.059 175.477 258.949 175.436 258.812C174.679 256.956 175.614 249.709 175.614 248.142C175.614 236.262 176.412 224.808 179.286 213.354C183.356 197.074 203.61 181.564 214.074 168.501C216.576 165.366 220.577 160.663 221.389 156.593C222.832 149.374 216.562 138.402 207.652 142.857C196.267 148.563 185.391 164.541 185.391 164.541C185.391 164.541 175.381 176.765 174.102 179.308M173.552 179.171C173.263 178.979 172.974 178.786 172.686 178.58C170.623 177.205 168.561 175.802 166.484 174.358C152.459 164.706 138.145 154.297 123.254 146.844M122.938 146.239C120.449 141.262 120.916 135.294 120.188 129.767C119.789 126.728 119.748 123.648 119.28 120.609C119.129 119.66 117.933 118.725 118.359 117.859C118.496 117.584 118.703 117.46 118.936 117.46C119.926 117.46 121.631 119.509 122.938 119.702C125.371 120.045 161.287 133.754 161.287 133.754M119.775 117.172C119.775 117.172 148.829 97.839 159.142 93.4252C171.049 88.3239 184.263 86.6326 196.68 91.5964C199.87 92.8752 231.467 112.62 240.446 117.873C241.381 118.423 242.069 118.808 242.454 119M165.962 175.115C150.452 185.469 153.16 206.465 153.16 206.465L153.642 231.655L155.484 234.405L175.298 258.867M180.674 303.953C180.482 303.692 180.317 303.39 180.193 303.073C179.712 301.85 179.891 291.895 182.462 287.33C186.491 280.193 195.181 276.948 199.402 277.429C200.268 277.526 201.176 277.636 202.083 277.787C208.34 278.763 214.582 281.472 210.127 296.666C207.982 303.94 185.322 310.54 180.674 303.953Z" stroke="white" stroke-width="1.03126" stroke-linecap="round" stroke-linejoin="round"/>
</g>
<path d="M283.182 436.711C288.433 433.287 291.637 434.814 297.37 436.725C300.245 437.687 306.418 449.952 305.608 453.197C303.532 461.53 290.235 467.566 282.728 463.276C279.799 461.599 276.086 454.462 276.32 450.461C276.554 446.446 277.915 440.149 283.182 436.711ZM295.543 350.676C298.058 345.864 301.29 345.259 304.699 343.348C308.166 341.395 318.092 341.766 320.264 346.098C326.988 359.545 320.417 382.714 303.778 382.714C301.949 382.714 299.983 383.388 298.293 382.714C293.04 380.61 290.565 373.35 291.885 368.07C292.379 366.077 293.027 355.475 295.543 350.676ZM110.645 87.4301C105.942 85.2163 99.1635 83.8413 96.606 83.4563C81.9896 81.2013 67.9782 82.3426 56.7993 90.8264C55.3693 91.9126 53.9943 93.1089 52.6605 94.4427C47.9167 99.1864 39.6529 121.709 45.3455 127.402C46.5005 128.557 55.4106 131.307 55.4106 132.888C55.4106 133.961 44.1905 136.931 42.5955 137.467C36.0092 139.667 31.5266 143.201 26.1228 147.532C14.7652 156.621 7.87639 168.638 3.97135 181.729C0.767568 192.522 -0.428711 204.045 -0.428711 215.279C-0.428711 221.109 0.066277 227.008 1.70254 232.494C2.66505 235.794 4.05384 238.943 5.97886 241.83C14.2977 254.315 27.7728 262.084 42.1692 265.192C48.6593 266.594 55.3418 267.048 61.8181 266.553C68.3357 266.044 75.912 264.394 81.9621 261.974C83.8596 261.204 85.5096 258.578 87.4484 259.224C89.9922 260.063 82.6083 273.442 81.9621 275.697C79.6796 283.7 80.7796 292.871 83.7909 300.42C88.1222 311.255 96.001 322.351 105.31 332.237C115.884 343.416 128.328 353.055 139.63 359.009C159.155 369.28 179.547 369.074 200.97 369.074C225.541 369.074 250.222 366.558 266.888 346.194C273.68 337.875 278.121 328.456 282.453 318.735C283.539 316.274 284.804 313.235 285.189 310.485C285.327 309.577 284.543 308.395 285.189 307.749C285.423 307.515 292.422 310.32 293.439 310.485C301.277 311.791 313.019 311.612 320.898 310.485C328.227 309.44 336.023 307.474 343.806 304.71C360.375 298.838 376.889 289.365 388.769 277.443C392.206 274.019 395.259 270.376 397.803 266.553C403.151 258.523 402.959 250.232 404.21 240.909C404.829 236.262 406.644 231.875 406.947 227.186C407.029 225.935 407.084 224.656 407.098 223.364C407.552 203.949 401.68 181.247 388.645 166.755C387.078 165.008 385.304 163.441 383.379 162.025C377.604 157.803 370.564 155.026 363.922 153.032C360.719 152.069 357.116 149.911 353.857 149.374C352.95 149.223 350.695 150.186 351.107 149.374C352.207 147.161 355.782 147.449 357.515 145.703C359.811 143.407 362.259 141.166 363.922 138.388C369.189 129.602 372.049 119.853 373.561 109.898C374.249 105.374 374.661 100.809 374.909 96.2714C375.802 79.2488 374.757 63.3949 368.529 49.4935C368.185 48.7097 367.814 47.9397 367.429 47.1697C367.332 46.9772 367.236 46.7847 367.14 46.6059C362.864 38.2321 356.552 30.6283 347.45 23.9457C323.497 6.38681 290.469 2.26176 264.138 16.6306C252.615 22.9145 244.997 32.7183 238.507 44.0897C236.335 47.8847 235.757 56.9048 235.757 56.9048V50.4972C235.757 45.4509 236.115 45.0934 234.85 40.4321C232.334 31.2058 229.267 24.8945 222.035 18.4594C206.538 4.68178 177.182 2.66051 157.945 7.47305C137.306 12.6294 124.409 28.2495 117.987 46.7572C116.117 52.0923 114.811 57.6748 114 63.3124C113.546 66.5436 110.755 80.1563 110.645 87.4301Z" stroke="white" stroke-width="1.03126" stroke-linecap="round" stroke-linejoin="round"/>
<path d="M110.645 87.4301C105.942 85.2163 99.1635 83.8413 96.606 83.4563C81.9896 81.2013 67.9782 82.3425 56.7993 90.8264C55.3693 91.9126 53.9943 93.1089 52.6605 94.4426C47.9168 99.1864 39.6529 121.709 45.3455 127.402C46.5005 128.557 55.4106 131.307 55.4106 132.888C55.4106 133.961 44.1905 136.931 42.5954 137.467C36.0091 139.667 31.5266 143.201 26.1228 147.532C14.7652 156.621 7.87636 168.638 3.97133 181.728C0.767544 192.522 -0.428711 204.045 -0.428711 215.279C-0.428711 221.109 0.0662947 227.008 1.70256 232.494C2.66507 235.794 4.05383 238.943 5.97884 241.83C14.2977 254.315 27.7728 262.084 42.1692 265.192C48.6593 266.594 55.3418 267.048 61.8181 266.553C68.3357 266.044 75.912 264.394 81.9621 261.974C83.8596 261.204 85.5096 258.578 87.4484 259.224C89.9922 260.063 82.6083 273.442 81.9621 275.697C79.6796 283.699 80.7796 292.871 83.7908 300.42C88.1221 311.255 96.001 322.351 105.31 332.237C115.884 343.416 128.328 353.055 139.63 359.009C159.155 369.28 179.547 369.074 200.969 369.074C225.541 369.074 250.222 366.558 266.886 346.194C273.68 337.875 278.12 328.456 282.453 318.735C283.539 316.274 284.804 313.235 285.189 310.485C285.327 309.577 284.543 308.395 285.189 307.748C285.423 307.515 292.422 310.32 293.439 310.485C301.277 311.791 313.019 311.612 320.898 310.485C328.227 309.44 336.023 307.473 343.806 304.71C360.375 298.838 376.887 289.365 388.769 277.443C392.206 274.019 395.259 270.376 397.801 266.553C403.151 258.523 402.958 250.232 404.21 240.909C404.829 236.262 406.644 231.875 406.946 227.186C407.028 225.935 407.083 224.656 407.098 223.364C407.552 203.949 401.68 181.247 388.645 166.755C387.078 165.008 385.304 163.441 383.379 162.025C377.604 157.803 370.564 155.026 363.922 153.032C360.719 152.069 357.116 149.911 353.856 149.374C352.95 149.223 350.695 150.186 351.106 149.374C352.207 147.161 355.782 147.449 357.515 145.703C359.81 143.407 362.259 141.166 363.922 138.388C369.189 129.602 372.049 119.853 373.56 109.898C374.247 105.374 374.661 100.809 374.909 96.2714C375.801 79.2487 374.757 63.3948 368.527 49.4935C368.183 48.7097 367.814 47.9397 367.429 47.1697C367.332 46.9772 367.236 46.7847 367.14 46.6059C362.864 38.2321 356.551 30.6283 347.45 23.9457C323.496 6.38678 290.469 2.26174 264.136 16.6306C252.615 22.9144 244.996 32.7183 238.507 44.0897C236.335 47.8847 235.757 56.9048 235.757 56.9048V50.4972C235.757 45.4509 236.115 45.0934 234.85 40.4321C232.334 31.2058 229.267 24.8945 222.035 18.4594C206.538 4.68178 177.182 2.66051 157.945 7.47305C137.306 12.6294 124.409 28.2495 117.987 46.7572C116.117 52.0922 114.811 57.6748 114 63.3123C113.546 66.5436 110.755 80.1563 110.645 87.4301Z" stroke="white" stroke-width="1.03126" stroke-linecap="round" stroke-linejoin="round"/>
</g>
</g>
</g>
<defs>
<clipPath id="clip0_197_1597">
<rect width="407" height="600" fill="white"/>
</clipPath>
<clipPath id="clip1_197_1597">
<rect width="800" height="800" fill="white" transform="translate(-198 -200)"/>
</clipPath>
</defs>
</svg>
