<svg width="282" height="191" viewBox="0 0 282 191" fill="none" xmlns="http://www.w3.org/2000/svg">
<path d="M126.571 13.5293C127.377 13.436 128.183 13.3507 128.988 13.2734" stroke="#00CBC8" stroke-width="2.51797" stroke-miterlimit="10" stroke-linecap="round"/>
<path d="M136.167 12.6773C142.769 12.2412 149.389 12.1358 156.001 12.3615" stroke="#00CBC8" stroke-width="2.51797" stroke-miterlimit="10" stroke-linecap="round" stroke-dasharray="9.4 5.64 11.27 9.4"/>
<path d="M159.002 12.4902C170.162 13.0579 180.484 14.6009 189.283 16.9715" stroke="#00CBC8" stroke-width="2.51797" stroke-miterlimit="10" stroke-linecap="round" stroke-dasharray="5.64 11.27 9.4 5.64 11.27 9.4"/>
<path d="M192.171 17.7949C192.953 18.0321 193.721 18.2746 194.476 18.5225" stroke="#00CBC8" stroke-width="2.51797" stroke-miterlimit="10" stroke-linecap="round"/>
<path d="M193.489 179.73C192.715 179.89 191.924 180.044 191.116 180.19" stroke="#00CBC8" stroke-width="2.51797" stroke-miterlimit="10" stroke-linecap="round"/>
<path d="M180.568 181.678C170.852 182.661 161.091 183.156 151.324 183.161" stroke="#00CBC8" stroke-width="2.51797" stroke-miterlimit="10" stroke-linecap="round" stroke-dasharray="13.88 8.33 16.66 13.88"/>
<path d="M146.88 183.165C125.262 183.065 103.2 181.338 88.8659 179.195C71.1328 176.581 54.4878 169.105 40.807 157.609C32.9227 150.957 25.4051 142.418 20.5867 131.805" stroke="#00CBC8" stroke-width="2.51797" stroke-miterlimit="10" stroke-linecap="round" stroke-dasharray="8.33 16.66 13.88 8.33 16.66 13.88"/>
<path d="M18.9188 127.71C18.6502 126.961 18.3897 126.204 18.1372 125.439" stroke="#00CBC8" stroke-width="2.51797" stroke-miterlimit="10" stroke-linecap="round"/>
<path d="M221.086 31.4746C221.754 31.9183 222.423 32.3701 223.1 32.8258" stroke="#00CBC8" stroke-width="2.51797" stroke-miterlimit="10" stroke-linecap="round"/>
<path d="M229.993 38.0312C236.148 43.0417 241.727 48.7112 246.628 54.9368" stroke="#00CBC8" stroke-width="2.51797" stroke-miterlimit="10" stroke-linecap="round" stroke-dasharray="11.3 6.78 13.55 11.3"/>
<path d="M248.799 57.8066C256.273 68.0523 261.542 79.3293 264.068 90.8302" stroke="#00CBC8" stroke-width="2.51797" stroke-miterlimit="10" stroke-linecap="round" stroke-dasharray="6.78 13.55 11.3 6.78 13.55 11.3"/>
<path d="M264.757 94.3477C264.89 95.1472 265.011 95.9467 265.12 96.7182" stroke="#00CBC8" stroke-width="2.51797" stroke-miterlimit="10" stroke-linecap="round"/>
<g opacity="0.4">
<path d="M252.683 87.5713C228.208 64.6655 186.511 60.9918 165.118 87.4834C154.313 100.871 153.656 120.119 157.395 130.657C169.038 163.46 224.977 214.521 266.002 177.623C292.539 153.746 279.668 112.824 252.683 87.5713Z" fill="#CCC0B2"/>
</g>
<mask id="mask0_543_14228" style="mask-type:luminance" maskUnits="userSpaceOnUse" x="124" y="54" width="158" height="137">
<path d="M255.761 63.7098C231.287 40.804 148.77 67.3076 127.377 93.7832C116.572 107.171 140.217 156.264 143.959 166.81C148.282 178.99 175.227 161.965 185.657 169.32C208.137 188.58 240.21 200.829 266.002 177.631C292.54 153.746 282.726 88.9622 255.761 63.7098Z" fill="white"/>
</mask>
<g mask="url(#mask0_543_14228)">
<path d="M234.098 64.178C234.098 64.178 243.981 63.6823 247.281 70.5061C250.101 76.2945 247.442 79.3446 248.618 82.4587C249.794 85.5728 253.553 86.3723 251.938 90.7895C250.322 95.2068 256.305 95.0109 255.725 99.724C255.145 104.437 251.998 104.673 255.648 107.211C259.298 109.75 262.191 117.445 257.796 120.259C251.499 124.297 236.069 111.741 225.082 115.086C214.096 118.432 202.755 114.087 204.012 109.774C205.269 105.46 212.279 104.205 210.22 100.46C208.161 96.7139 206.973 91.9008 210.373 88.355C213.773 84.8092 212.388 85.0371 212.448 80.5359C212.48 77.7696 214.684 74.4517 215.711 71.4535C216.952 67.8557 217.383 66.3727 221.964 64.3659C229.284 61.1599 234.098 64.178 234.098 64.178Z" fill="#442017"/>
<path d="M235.061 65.0743C235.061 65.0743 235.815 56.5876 245.415 59.9535C255.016 63.3194 254.214 74.8123 243.554 74.7723C232.894 74.7323 235.061 65.0743 235.061 65.0743Z" fill="#442017"/>
<path d="M248.38 74.3096C248.431 74.3177 248.483 74.3177 248.533 74.3096C248.584 74.3062 248.633 74.292 248.678 74.268C248.722 74.244 248.761 74.2107 248.791 74.1705C248.821 74.1302 248.842 74.0839 248.853 74.0348C248.863 73.9857 248.863 73.9349 248.852 73.8859C248.828 73.7899 246.12 64.028 234.852 63.8041C234.801 63.7997 234.75 63.8057 234.702 63.8217C234.654 63.8377 234.609 63.8634 234.572 63.8971C234.534 63.9309 234.503 63.972 234.482 64.0179C234.461 64.0638 234.45 64.1135 234.449 64.1639C234.464 64.2702 234.518 64.3673 234.6 64.4366C234.683 64.506 234.788 64.5427 234.896 64.5397C245.452 64.7515 247.925 73.626 248.026 74.0058C248.05 74.0843 248.097 74.1543 248.159 74.208C248.222 74.2617 248.299 74.2969 248.38 74.3096Z" fill="#FCF9ED"/>
<path d="M234.199 71.4849C234.199 71.4849 234.969 78.9323 236.757 80.7352C238.546 82.5381 240.964 79.44 240.964 79.44C240.964 79.44 238.889 67.8632 234.199 71.4849Z" fill="#442017"/>
<path d="M225.324 70.0122C225.324 70.0122 228.184 76.5882 233.547 76.2244C238.909 75.8606 236.322 70.9996 236.322 70.9996C236.322 70.9996 227.62 65.2912 225.324 70.0122Z" fill="#442017"/>
<path d="M226.778 69.7996C226.778 69.7996 222.749 76.8192 218.036 74.5526C213.322 72.286 221.803 66.2458 225.07 67.2012C228.337 68.1566 226.778 69.7996 226.778 69.7996Z" fill="#442017"/>
<path d="M235.992 77.9937C235.992 77.9937 236.665 79.4248 235.662 83.89C234.659 88.3553 233.901 89.3866 233.901 89.3866C233.901 89.3866 237.503 86.3045 238.063 79.9445C238.885 70.5583 235.992 77.9937 235.992 77.9937Z" fill="#442017"/>
<path d="M194.713 126.962L197.533 119.471C198.854 115.98 201.217 112.972 204.306 110.848C207.395 108.724 211.063 107.586 214.821 107.586H246.064C250.279 107.587 254.367 109.018 257.65 111.643C260.932 114.267 263.211 117.926 264.109 122.013L269.66 147.301L248.884 161.896L253.404 190.379C253.404 190.379 203.15 188.564 199.604 183.983L203.633 150.004L194.713 126.962Z" fill="#C1725C"/>
<path d="M194.713 126.964L183.872 139.2L161.931 117.846L152.262 124.114C152.262 124.114 164.043 150.234 169.707 156.79C175.371 163.345 185.568 170.381 194.234 162.134L205.293 148.739L194.713 126.964Z" fill="#B76856"/>
<path d="M187.2 145.212C187.266 145.212 187.331 145.196 187.389 145.165C187.473 145.115 187.534 145.034 187.559 144.94C187.584 144.845 187.571 144.745 187.522 144.661L183.896 138.501C183.872 138.459 183.839 138.422 183.8 138.393C183.761 138.364 183.717 138.343 183.67 138.33C183.623 138.318 183.574 138.315 183.525 138.322C183.477 138.328 183.431 138.344 183.389 138.369C183.346 138.393 183.31 138.426 183.28 138.464C183.251 138.503 183.229 138.546 183.217 138.593C183.205 138.64 183.202 138.689 183.208 138.737C183.215 138.785 183.231 138.831 183.256 138.872L186.881 145.033C186.914 145.087 186.961 145.133 187.017 145.164C187.072 145.196 187.136 145.212 187.2 145.212Z" fill="#7D351D"/>
<path d="M194.713 126.965C194.713 126.965 196.945 120.209 198.166 117.846C202.92 108.652 208.008 107.409 215.369 107.589C218.225 107.661 223.132 130.219 223.132 130.219C223.132 130.219 234.679 107.945 239.3 107.589C247.422 106.961 259.262 107.253 263.629 120.277L272.001 146.069L246.273 147.108L253.489 190.633C253.489 190.633 205.176 191.089 199.608 183.981L203.637 148.403L194.713 126.965Z" fill="url(#paint0_linear_543_14228)"/>
<path d="M242.793 82.7987L241.181 82.3989L238.51 85.473C238.299 85.7133 238.017 85.8806 237.704 85.9505C237.391 86.0204 237.063 85.9893 236.769 85.8617C236.475 85.7341 236.23 85.5167 236.069 85.2411C235.908 84.9656 235.84 84.6463 235.875 84.3297L236.717 76.9183C236.751 76.6189 236.694 76.3164 236.553 76.0492C236.413 75.7821 236.196 75.5624 235.929 75.418C235.663 75.2736 235.359 75.211 235.057 75.2383C234.755 75.2656 234.467 75.3814 234.232 75.5711L232.169 77.2301L230.279 76.7584C229.19 76.4843 228.219 75.87 227.509 75.0063C226.799 74.1425 226.387 73.075 226.335 71.9614L226.283 70.8301C225.745 72.0267 224.772 72.9778 223.558 73.4929C222.345 74.0081 220.979 74.0493 219.736 73.6084H219.684L214.535 86.1886C212.521 91.1415 214.334 96.6541 218.604 99.3044L218.008 105.417C217.544 110.214 221.231 114.491 226.178 114.967H226.384C231.339 115.442 229.264 115.366 229.727 110.593L234.965 110.665L237.785 92.3207L240.202 92.9204C241.542 93.2466 242.957 93.0354 244.14 92.3326C245.324 91.6298 246.18 90.4922 246.523 89.1667L246.551 89.0548C246.876 87.7312 246.664 86.3341 245.961 85.164C245.258 83.9939 244.12 83.1445 242.793 82.7987Z" fill="#C1725C"/>
<path d="M217.286 80.8842C217.211 81.067 217.191 81.2678 217.231 81.4614C217.27 81.655 217.366 81.8327 217.508 81.9721C217.649 82.1114 217.828 82.2062 218.023 82.2443C218.219 82.2825 218.421 82.2624 218.605 82.1865C218.789 82.1107 218.946 81.9825 219.056 81.8182C219.167 81.6538 219.225 81.4607 219.225 81.2632C219.225 81.0657 219.166 80.8726 219.055 80.7084C218.945 80.5442 218.788 80.4162 218.604 80.3406C218.356 80.24 218.079 80.2407 217.832 80.3426C217.585 80.4444 217.389 80.6392 217.286 80.8842Z" fill="#111111"/>
<path d="M225.207 82.9237C225.177 83.1385 225.212 83.3572 225.308 83.5523C225.403 83.7473 225.555 83.9098 225.743 84.0193C225.932 84.1288 226.149 84.1802 226.367 84.1672C226.585 84.1541 226.794 84.0772 226.968 83.946C227.142 83.8148 227.273 83.6354 227.344 83.4304C227.416 83.2254 227.424 83.0041 227.368 82.7945C227.312 82.5849 227.195 82.3964 227.031 82.2528C226.868 82.1093 226.665 82.0173 226.448 81.9883C226.159 81.9496 225.865 82.0263 225.633 82.2017C225.4 82.377 225.247 82.6367 225.207 82.9237Z" fill="#111111"/>
<path d="M220.228 95.0905C220.273 95.1064 220.323 95.1064 220.369 95.0905C220.721 95.0186 221.086 95.0533 221.418 95.1902C221.75 95.327 222.033 95.5597 222.23 95.8581C222.26 95.9047 222.307 95.9379 222.361 95.9506C222.415 95.9633 222.472 95.9545 222.52 95.926C222.567 95.8971 222.6 95.8512 222.613 95.798C222.626 95.7449 222.617 95.689 222.588 95.6422C221.807 94.363 220.292 94.6828 220.276 94.6868C220.222 94.6992 220.175 94.7322 220.146 94.7786C220.117 94.825 220.107 94.8811 220.119 94.9346C220.123 94.9674 220.135 94.9987 220.154 95.0259C220.173 95.0531 220.198 95.0752 220.228 95.0905Z" fill="#7D351D"/>
<path d="M231.004 79.9978C230.555 79.9547 230.12 79.8185 229.727 79.598C229.296 79.4022 228.857 79.1983 228.47 79.0704C228.084 78.9425 227.632 78.7666 227.181 78.6227C226.743 78.5238 226.33 78.333 225.972 78.063C225.694 77.7952 225.711 77.3434 226.299 76.9997C226.887 76.6559 228.023 76.512 229.308 76.9997C230.593 77.4874 231.323 78.3788 231.508 78.9984C231.693 79.618 231.395 79.9898 231.004 79.9978Z" fill="#442017"/>
<path d="M217.101 76.6634C217.392 76.7716 217.704 76.8099 218.012 76.7753C218.342 76.7753 218.669 76.7753 218.955 76.7753C219.241 76.7753 219.571 76.8113 219.897 76.8433C220.202 76.9034 220.517 76.8897 220.816 76.8033C221.066 76.6954 221.178 76.3596 220.904 75.9358C220.681 75.6477 220.394 75.415 220.065 75.2561C219.735 75.0972 219.373 75.0165 219.007 75.0204C218.643 74.989 218.278 75.0429 217.939 75.1776C217.6 75.3123 217.298 75.5241 217.057 75.7959C216.763 76.1957 216.856 76.5355 217.101 76.6634Z" fill="#381812"/>
<path d="M227.169 84.43C226.925 84.1767 226.603 84.0121 226.254 83.9628C225.904 83.9135 225.548 83.9823 225.243 84.1581" fill="#C1725C"/>
<path d="M225.163 84.537C225.109 84.5248 225.058 84.5019 225.014 84.4696C224.97 84.4373 224.933 84.3963 224.905 84.3492C224.857 84.2589 224.846 84.1541 224.874 84.056C224.902 83.9579 224.966 83.874 225.054 83.8215C225.437 83.5981 225.885 83.5112 226.325 83.5752C226.764 83.6391 227.169 83.8502 227.471 84.1733C227.512 84.2515 227.525 84.3409 227.51 84.4276C227.494 84.5144 227.45 84.5935 227.384 84.6527C227.319 84.712 227.235 84.7481 227.147 84.7553C227.058 84.7626 226.97 84.7407 226.895 84.6929C226.712 84.5006 226.469 84.3759 226.205 84.3396C225.942 84.3032 225.673 84.3574 225.445 84.4931C225.36 84.5437 225.259 84.5594 225.163 84.537Z" fill="#7D351D"/>
<path d="M218.6 82.1909C218.448 82.0426 218.248 81.9534 218.036 81.9394C217.824 81.9255 217.613 81.9878 217.444 82.1149" fill="#C1725C"/>
<path d="M217.363 82.4945C217.293 82.4738 217.23 82.4346 217.181 82.381C217.132 82.3275 217.098 82.2617 217.083 82.1907C217.069 82.1197 217.074 82.0461 217.099 81.9777C217.123 81.9094 217.166 81.849 217.222 81.8029C217.466 81.6211 217.769 81.5335 218.073 81.5563C218.378 81.5791 218.664 81.7107 218.878 81.9268C218.931 81.958 218.977 82.0009 219.011 82.0523C219.044 82.1036 219.066 82.1621 219.073 82.223C219.081 82.284 219.074 82.3458 219.054 82.4038C219.033 82.4617 219 82.5142 218.955 82.5571C218.911 82.6 218.857 82.6323 218.799 82.6514C218.74 82.6704 218.677 82.6758 218.616 82.667C218.555 82.6582 218.496 82.6356 218.445 82.6008C218.394 82.5661 218.352 82.5201 218.322 82.4665C218.237 82.3811 218.123 82.3305 218.002 82.3245C217.881 82.3186 217.762 82.3579 217.669 82.4345C217.625 82.4642 217.575 82.4848 217.522 82.4951C217.47 82.5054 217.416 82.5052 217.363 82.4945Z" fill="#7D351D"/>
<path d="M225.96 87.8998C225.818 87.759 225.632 87.6699 225.433 87.6467C225.233 87.6235 225.032 87.6676 224.86 87.7719C223.73 88.425 222.419 88.705 221.118 88.5714C221.017 88.5672 220.918 88.5865 220.826 88.6279C220.735 88.6692 220.655 88.7314 220.592 88.8094C220.53 88.8874 220.487 88.9789 220.467 89.0764C220.447 89.174 220.45 89.2749 220.477 89.3709C220.691 90.2744 221.762 93.0326 224.163 92.481C227.088 91.8214 226.726 88.6634 225.96 87.8998Z" fill="white"/>
<path d="M222.387 79.8926L221.142 83.7902L220.115 83.6383C219.908 83.565 219.68 83.576 219.482 83.669C219.283 83.7619 219.13 83.9291 219.055 84.1339L218.797 84.8415C218.694 85.1214 218.707 85.4304 218.834 85.7008C218.96 85.9712 219.188 86.1811 219.47 86.2846L221.243 86.9402" fill="#C1725C"/>
<path d="M221.162 87.3318H221.106L219.333 86.6722C218.957 86.5327 218.651 86.2519 218.483 85.8905C218.314 85.5291 218.295 85.1163 218.431 84.7414L218.688 84.0298C218.743 83.881 218.826 83.7443 218.934 83.6277C219.042 83.511 219.172 83.4167 219.317 83.3502C219.46 83.281 219.616 83.2414 219.776 83.2338C219.935 83.2262 220.094 83.2509 220.243 83.3063L220.868 83.3942L222.016 79.7964C222.019 79.735 222.035 79.6749 222.065 79.6209C222.094 79.5669 222.136 79.5204 222.187 79.485C222.237 79.4496 222.296 79.4263 222.357 79.4168C222.418 79.4074 222.481 79.4121 222.54 79.4306C222.599 79.4491 222.653 79.4808 222.698 79.5234C222.742 79.566 222.777 79.6182 222.798 79.676C222.819 79.7339 222.826 79.7957 222.819 79.8568C222.812 79.9179 222.791 79.9766 222.757 80.0283L221.412 84.2537L220.054 84.0538C219.99 84.0272 219.922 84.0135 219.853 84.0135C219.784 84.0135 219.715 84.0272 219.651 84.0538C219.598 84.0774 219.55 84.1115 219.511 84.1541C219.471 84.1968 219.441 84.247 219.422 84.3016L219.164 85.0092C219.098 85.1938 219.108 85.3965 219.191 85.5742C219.273 85.7519 219.423 85.8905 219.607 85.9606L221.38 86.6162C221.454 86.6621 221.512 86.7308 221.543 86.812C221.575 86.8932 221.579 86.9824 221.555 87.0661C221.531 87.1498 221.479 87.2233 221.409 87.2756C221.339 87.3279 221.254 87.356 221.166 87.3558L221.162 87.3318Z" fill="#7D351D"/>
<path d="M241.66 89.7518C241.587 89.7357 241.52 89.6997 241.467 89.6479L240.021 88.2168C239.982 88.1772 239.952 88.1302 239.933 88.0786C239.913 88.027 239.905 87.972 239.908 87.917C239.913 87.8614 239.929 87.8075 239.956 87.7586C239.983 87.7097 240.02 87.667 240.065 87.6332L242.265 86.0341C242.349 85.9771 242.452 85.954 242.553 85.9696C242.654 85.9852 242.746 86.0383 242.809 86.1181C242.866 86.2019 242.889 86.3043 242.874 86.4045C242.858 86.5047 242.804 86.5952 242.724 86.6578L240.891 87.9769L241.999 89.0883C242.068 89.1622 242.106 89.2593 242.106 89.3601C242.106 89.4609 242.068 89.558 241.999 89.6319C241.956 89.6765 241.903 89.7106 241.844 89.7314C241.785 89.7522 241.722 89.7592 241.66 89.7518Z" fill="#7D351D"/>
<path d="M218.592 99.4299C218.592 99.4299 227.729 102.108 230.328 98.9941C230.328 98.9941 229.264 104.898 218.072 104.767L218.592 99.4299Z" fill="#7D351D"/>
<path d="M240.665 95.273C240.043 95.1482 239.495 94.7855 239.14 94.2632C238.785 93.7409 238.651 93.101 238.768 92.4818C238.884 91.8625 239.242 91.3136 239.763 90.9536C240.284 90.5936 240.927 90.4515 241.552 90.5579C242.178 90.6644 242.737 91.0108 243.107 91.5225C243.478 92.0341 243.63 92.6698 243.532 93.2922C243.434 93.9146 243.093 94.4738 242.583 94.8489C242.073 95.224 241.435 95.385 240.806 95.2969L240.665 95.273Z" fill="#467B6C"/>
<path d="M231.766 87.9808C231.625 88.6204 230.642 88.9522 229.57 88.7243C228.499 88.4965 227.737 87.7929 227.874 87.1533C228.011 86.5137 228.994 86.1819 230.07 86.4098C231.145 86.6376 231.903 87.3412 231.766 87.9808Z" fill="#7D351D"/>
<g opacity="0.2">
<mask id="mask1_543_14228" style="mask-type:luminance" maskUnits="userSpaceOnUse" x="194" y="107" width="79" height="84">
<path d="M194.714 126.963C194.714 126.963 196.946 120.207 198.166 117.844C202.92 108.65 208.008 107.407 215.369 107.587C218.225 107.659 223.132 130.217 223.132 130.217C223.132 130.217 234.679 107.943 239.3 107.587C247.422 106.959 259.262 107.251 263.629 120.275L272.001 146.067L246.274 147.106L253.489 190.631C253.489 190.631 205.176 191.087 199.609 183.979L203.637 148.401L194.714 126.963Z" fill="white"/>
</mask>
<g mask="url(#mask1_543_14228)">
<path d="M271.848 115.476H192.711C192.051 115.476 191.418 115.216 190.951 114.753C190.484 114.289 190.221 113.661 190.221 113.006C190.221 112.35 190.484 111.722 190.951 111.259C191.418 110.795 192.051 110.535 192.711 110.535H271.848C272.508 110.535 273.142 110.795 273.608 111.259C274.075 111.722 274.338 112.35 274.338 113.006C274.338 113.661 274.075 114.289 273.608 114.753C273.142 115.216 272.508 115.476 271.848 115.476Z" fill="#F2EAE1"/>
<path d="M271.848 129.73H192.711C192.051 129.73 191.418 129.47 190.951 129.006C190.484 128.543 190.221 127.915 190.221 127.26C190.221 126.604 190.484 125.976 190.951 125.513C191.418 125.049 192.051 124.789 192.711 124.789H271.848C272.508 124.789 273.142 125.049 273.608 125.513C274.075 125.976 274.338 126.604 274.338 127.26C274.338 127.915 274.075 128.543 273.608 129.006C273.142 129.47 272.508 129.73 271.848 129.73Z" fill="#F2EAE1"/>
<path d="M271.848 143.986H192.711C192.051 143.986 191.418 143.726 190.951 143.262C190.484 142.799 190.221 142.171 190.221 141.515C190.221 140.86 190.484 140.232 190.951 139.768C191.418 139.305 192.051 139.045 192.711 139.045H271.848C272.508 139.045 273.142 139.305 273.608 139.768C274.075 140.232 274.338 140.86 274.338 141.515C274.338 142.171 274.075 142.799 273.608 143.262C273.142 143.726 272.508 143.986 271.848 143.986Z" fill="#F2EAE1"/>
<path d="M271.848 158.24H192.711C192.051 158.24 191.418 157.979 190.951 157.516C190.484 157.053 190.221 156.425 190.221 155.769C190.221 155.114 190.484 154.486 190.951 154.022C191.418 153.559 192.051 153.299 192.711 153.299H271.848C272.508 153.299 273.142 153.559 273.608 154.022C274.075 154.486 274.338 155.114 274.338 155.769C274.338 156.425 274.075 157.053 273.608 157.516C273.142 157.979 272.508 158.24 271.848 158.24Z" fill="#F2EAE1"/>
<path d="M271.848 172.496H192.711C192.051 172.496 191.418 172.235 190.951 171.772C190.484 171.309 190.221 170.68 190.221 170.025C190.221 169.37 190.484 168.742 190.951 168.278C191.418 167.815 192.051 167.555 192.711 167.555H271.848C272.508 167.555 273.142 167.815 273.608 168.278C274.075 168.742 274.338 169.37 274.338 170.025C274.338 170.68 274.075 171.309 273.608 171.772C273.142 172.235 272.508 172.496 271.848 172.496Z" fill="#F2EAE1"/>
<path d="M271.848 186.751H192.711C192.051 186.751 191.418 186.491 190.951 186.028C190.484 185.565 190.221 184.936 190.221 184.281C190.221 183.626 190.484 182.997 190.951 182.534C191.418 182.071 192.051 181.811 192.711 181.811H271.848C272.508 181.811 273.142 182.071 273.608 182.534C274.075 182.997 274.338 183.626 274.338 184.281C274.338 184.936 274.075 185.565 273.608 186.028C273.142 186.491 272.508 186.751 271.848 186.751Z" fill="#F2EAE1"/>
</g>
</g>
<path d="M204.886 152.068C204.822 152.068 204.758 152.05 204.704 152.015C204.649 151.981 204.606 151.931 204.58 151.872L202.566 147.339C201.056 143.945 200.957 140.096 202.292 136.63L204.709 130.358C204.744 130.282 204.807 130.222 204.885 130.191C204.963 130.159 205.05 130.158 205.129 130.187C205.208 130.216 205.273 130.274 205.311 130.349C205.349 130.423 205.357 130.509 205.333 130.59L202.916 136.866C201.642 140.17 201.736 143.84 203.178 147.075L205.192 151.605C205.227 151.685 205.229 151.776 205.196 151.858C205.164 151.94 205.1 152.005 205.019 152.04C204.977 152.059 204.932 152.069 204.886 152.068Z" fill="#322380"/>
<path d="M196.945 145.542C195.91 145.57 195.016 145.906 194.911 147.141C194.46 149.3 196.365 150.135 198.166 150.315C196.422 150.651 197.36 153.465 199.54 154.277L211.123 159.262C211.979 159.588 212.9 159.712 213.814 159.625L253.223 175.048C255.489 175.896 257.936 176.151 260.33 175.791C262.725 175.43 264.985 174.465 266.895 172.988C268.806 171.511 270.301 169.572 271.239 167.357C272.177 165.142 272.525 162.724 272.251 160.337L269.471 146.422L246.261 147.097L247.522 153.597L219.724 144.871C219.189 143.957 218.584 143.086 217.915 142.264C217.915 142.264 211.276 135.568 208.621 133.762C208.346 133.551 208.037 133.388 207.706 133.282C207.54 133.229 207.365 133.215 207.193 133.242C207.021 133.268 206.857 133.334 206.715 133.434C206.558 133.595 206.441 133.79 206.371 134.003C206.301 134.217 206.281 134.443 206.312 134.665C206.361 136.056 206.9 137.363 207.44 138.662C206.28 138.263 205.043 137.863 203.698 137.387C200.789 136.588 196.152 134.697 195.326 138.535C195.153 139.89 196.091 140.481 197.199 140.749C195.588 140.669 193.944 141.021 193.976 143.032C193.747 144.827 195.302 145.354 196.945 145.542ZM198.879 145.71C199.149 145.73 199.395 145.758 199.608 145.794C199.395 145.778 199.145 145.754 198.879 145.71Z" fill="#C1725C"/>
<path d="M247.426 153.4H247.494C247.542 153.391 247.588 153.373 247.628 153.346C247.669 153.32 247.704 153.285 247.731 153.245C247.759 153.205 247.778 153.16 247.788 153.113C247.797 153.065 247.797 153.016 247.788 152.969L246.579 146.737L243.558 146.761C243.281 146.762 243.013 146.656 242.813 146.466C242.612 146.276 242.494 146.016 242.482 145.741L241.676 128.852C241.675 128.802 241.663 128.753 241.642 128.707C241.621 128.662 241.59 128.622 241.552 128.589C241.514 128.556 241.47 128.531 241.422 128.516C241.374 128.5 241.324 128.495 241.274 128.5C241.224 128.502 241.175 128.515 241.13 128.536C241.085 128.558 241.044 128.588 241.011 128.626C240.978 128.663 240.953 128.706 240.937 128.753C240.921 128.8 240.915 128.85 240.919 128.9L241.725 145.789C241.742 146.257 241.943 146.7 242.286 147.023C242.629 147.345 243.086 147.521 243.558 147.512H245.975L247.071 153.145C247.095 153.219 247.142 153.284 247.206 153.33C247.27 153.376 247.347 153.401 247.426 153.4Z" fill="#322380"/>
<path opacity="0.5" d="M207.444 138.636L213.749 141.327C213.749 141.327 207.754 136.638 206.582 136.254L207.444 138.636Z" fill="#AF4E4A"/>
<path d="M201.071 142.278C201.159 142.279 201.243 142.248 201.31 142.191C201.377 142.135 201.422 142.057 201.437 141.971C201.451 141.886 201.435 141.797 201.39 141.723C201.345 141.648 201.275 141.591 201.192 141.563C200.789 141.427 197.308 140.248 196.611 140.212C196.561 140.206 196.51 140.21 196.462 140.224C196.414 140.239 196.369 140.264 196.331 140.296C196.293 140.329 196.263 140.37 196.241 140.415C196.22 140.46 196.209 140.51 196.208 140.559C196.203 140.609 196.208 140.659 196.224 140.706C196.239 140.753 196.263 140.797 196.296 140.835C196.329 140.872 196.369 140.902 196.414 140.924C196.46 140.945 196.509 140.957 196.559 140.959C197.002 140.983 199.479 141.759 200.934 142.274C200.979 142.284 201.025 142.285 201.071 142.278Z" fill="#7D351D"/>
<path d="M251.66 155.405C251.747 155.404 251.832 155.373 251.898 155.316C251.964 155.26 252.008 155.182 252.022 155.096C252.036 155.01 252.019 154.923 251.974 154.848C251.929 154.774 251.859 154.718 251.777 154.689L243.957 152.087C243.911 152.072 243.862 152.066 243.813 152.069C243.765 152.073 243.717 152.086 243.673 152.108C243.63 152.129 243.591 152.159 243.559 152.196C243.527 152.233 243.503 152.275 243.488 152.321C243.472 152.367 243.466 152.415 243.47 152.464C243.473 152.512 243.486 152.559 243.508 152.602C243.53 152.645 243.56 152.684 243.597 152.716C243.634 152.747 243.677 152.771 243.723 152.787L251.543 155.385C251.58 155.399 251.62 155.406 251.66 155.405Z" fill="#7D351D"/>
<path d="M200.136 146.992C200.226 146.994 200.313 146.964 200.382 146.907C200.451 146.85 200.497 146.771 200.511 146.683C200.525 146.595 200.507 146.505 200.46 146.429C200.412 146.354 200.339 146.298 200.253 146.272L196.708 145.137C196.616 145.113 196.518 145.125 196.435 145.17C196.352 145.216 196.289 145.291 196.261 145.381C196.232 145.47 196.238 145.568 196.28 145.652C196.321 145.737 196.393 145.803 196.482 145.837L200.023 146.972C200.06 146.984 200.098 146.991 200.136 146.992Z" fill="#7D351D"/>
<path d="M200.088 151.232C200.176 151.232 200.262 151.199 200.328 151.142C200.395 151.084 200.439 151.004 200.451 150.917C200.464 150.83 200.445 150.742 200.398 150.668C200.35 150.593 200.277 150.539 200.193 150.513L198.271 149.941C198.176 149.913 198.074 149.924 197.988 149.97C197.901 150.016 197.836 150.095 197.808 150.189C197.779 150.283 197.79 150.384 197.837 150.47C197.883 150.557 197.963 150.621 198.057 150.649L199.979 151.217C200.014 151.228 200.051 151.233 200.088 151.232Z" fill="#7D351D"/>
<path d="M156.779 112.201L163.007 118.885L158.797 121.507L155.385 118.537L156.779 112.201Z" fill="#B76856"/>
<path d="M159.482 94.2539H142.207C141.626 94.2539 141.155 94.721 141.155 95.2973V126.158C141.155 126.734 141.626 127.201 142.207 127.201H159.482C160.063 127.201 160.534 126.734 160.534 126.158V95.2973C160.534 94.721 160.063 94.2539 159.482 94.2539Z" fill="#2B2B39"/>
<path d="M159.317 96.7069V124.742C159.341 124.963 159.277 125.184 159.138 125.359C159 125.534 158.798 125.648 158.576 125.677H143.117C142.895 125.648 142.692 125.534 142.553 125.359C142.414 125.185 142.349 124.963 142.372 124.742V96.7069C142.349 96.4854 142.414 96.2638 142.553 96.0891C142.692 95.9144 142.895 95.8005 143.117 95.7715H158.576C158.798 95.8005 159 95.9146 159.138 96.0894C159.277 96.2642 159.341 96.4858 159.317 96.7069Z" fill="#5F5F75"/>
<path d="M148.637 117.634C148.625 118.244 148.371 118.826 147.929 119.251C147.488 119.676 146.895 119.911 146.28 119.905L138.988 119.801C138.372 119.79 137.786 119.538 137.357 119.1C136.928 118.662 136.692 118.073 136.699 117.462C136.71 116.851 136.964 116.27 137.406 115.844C137.847 115.419 138.441 115.184 139.056 115.192L146.348 115.296C146.963 115.307 147.549 115.559 147.978 115.997C148.406 116.435 148.643 117.024 148.637 117.634Z" fill="#B76856"/>
<path d="M148.782 112.972C148.77 113.583 148.516 114.164 148.074 114.589C147.633 115.014 147.04 115.249 146.425 115.243L138.553 115.131C137.937 115.119 137.352 114.867 136.923 114.429C136.495 113.991 136.258 113.403 136.264 112.792C136.275 112.182 136.529 111.6 136.97 111.174C137.412 110.749 138.006 110.514 138.621 110.522L146.493 110.634C147.108 110.645 147.694 110.897 148.123 111.335C148.551 111.773 148.788 112.362 148.782 112.972Z" fill="#B76856"/>
<path d="M160.924 120.068C160.483 120.494 159.889 120.729 159.273 120.722C158.657 120.716 158.069 120.468 157.637 120.032L152.134 114.436C151.704 113.998 151.466 113.41 151.473 112.8C151.479 112.19 151.728 111.606 152.166 111.178C152.606 110.751 153.199 110.516 153.814 110.522C154.429 110.528 155.017 110.775 155.449 111.21L160.957 116.806C161.387 117.243 161.626 117.832 161.62 118.444C161.614 119.055 161.364 119.639 160.924 120.068Z" fill="#B76856"/>
<path d="M146.997 122.168C146.986 122.779 146.733 123.361 146.291 123.786C145.849 124.212 145.256 124.446 144.64 124.439L139.906 124.371C139.291 124.361 138.705 124.11 138.276 123.673C137.847 123.235 137.611 122.647 137.618 122.036C137.629 121.426 137.883 120.844 138.324 120.418C138.766 119.993 139.359 119.758 139.975 119.766L144.709 119.83C145.324 119.84 145.91 120.092 146.339 120.53C146.768 120.969 147.005 121.558 146.997 122.168Z" fill="#B76856"/>
<path d="M146.888 126.541C146.877 127.151 146.624 127.733 146.182 128.159C145.74 128.584 145.147 128.819 144.531 128.811L142.199 128.779C141.583 128.768 140.998 128.515 140.569 128.077C140.141 127.639 139.904 127.051 139.91 126.441C139.922 125.83 140.176 125.249 140.618 124.824C141.059 124.399 141.652 124.164 142.267 124.17L144.6 124.206C145.215 124.216 145.801 124.467 146.23 124.904C146.659 125.342 146.896 125.93 146.888 126.541Z" fill="#B76856"/>
<path d="M138.541 115.344V115.312C138.541 115.206 138.583 115.104 138.659 115.029C138.734 114.954 138.837 114.912 138.943 114.912L146.36 114.948C146.467 114.948 146.57 114.99 146.645 115.065C146.721 115.14 146.763 115.242 146.763 115.348C146.763 115.454 146.721 115.556 146.645 115.63C146.57 115.705 146.467 115.748 146.36 115.748L138.943 115.712C138.842 115.712 138.744 115.674 138.669 115.606C138.595 115.538 138.549 115.444 138.541 115.344Z" fill="#7D351D"/>
<path d="M138.569 120.168V120.136C138.569 120.03 138.611 119.928 138.687 119.853C138.762 119.778 138.865 119.736 138.972 119.736L145.784 119.808C145.894 119.808 146 119.852 146.078 119.929C146.156 120.006 146.199 120.111 146.199 120.22C146.199 120.329 146.156 120.434 146.078 120.511C146 120.588 145.894 120.632 145.784 120.632L138.972 120.56C138.866 120.56 138.765 120.519 138.69 120.446C138.614 120.372 138.571 120.273 138.569 120.168Z" fill="#7D351D"/>
<path d="M139.705 124.588V124.564C139.702 124.51 139.711 124.456 139.73 124.405C139.749 124.354 139.778 124.308 139.815 124.269C139.853 124.229 139.899 124.198 139.949 124.177C139.999 124.156 140.053 124.145 140.108 124.145L145.462 124.053C145.572 124.053 145.678 124.096 145.755 124.173C145.833 124.251 145.877 124.355 145.877 124.464C145.877 124.574 145.833 124.678 145.755 124.756C145.678 124.833 145.572 124.876 145.462 124.876L140.112 124.968C140.008 124.969 139.907 124.93 139.831 124.86C139.755 124.789 139.71 124.692 139.705 124.588Z" fill="#7D351D"/>
</g>
<path d="M180.109 90.6603C181.225 91.7236 182.123 91.3359 182.123 89.8008V84.8479C182.123 84.1057 182.42 83.394 182.949 82.8692C183.478 82.3444 184.196 82.0496 184.943 82.0496H200.337C201.085 82.0496 201.803 81.7548 202.331 81.23C202.86 80.7052 203.157 79.9935 203.157 79.2513V59.6635C203.157 58.9214 202.86 58.2096 202.331 57.6848C201.803 57.16 201.085 56.8652 200.337 56.8652H146.755C146.007 56.8652 145.29 57.16 144.761 57.6848C144.232 58.2096 143.935 58.9214 143.935 59.6635V79.2513C143.935 79.9935 144.232 80.7052 144.761 81.23C145.29 81.7548 146.007 82.0496 146.755 82.0496H168.285C170.068 82.1463 171.769 82.8283 173.119 83.9884L180.109 90.6603Z" fill="#F0C86A"/>
<path d="M150.055 64.8175H197.042C197.311 64.8175 197.569 64.7114 197.76 64.5224C197.95 64.3335 198.057 64.0773 198.057 63.8101C198.057 63.5429 197.95 63.2867 197.76 63.0978C197.569 62.9089 197.311 62.8027 197.042 62.8027H150.055C149.785 62.8027 149.527 62.9089 149.337 63.0978C149.146 63.2867 149.039 63.5429 149.039 63.8101C149.039 64.0773 149.146 64.3335 149.337 64.5224C149.527 64.7114 149.785 64.8175 150.055 64.8175Z" fill="white"/>
<path d="M150.055 69.8469H197.042C197.176 69.8469 197.308 69.8207 197.431 69.7698C197.555 69.7189 197.667 69.6444 197.761 69.5504C197.856 69.4564 197.93 69.3449 197.981 69.2222C198.032 69.0995 198.058 68.9681 198.057 68.8355C198.057 68.5683 197.95 68.3121 197.76 68.1232C197.569 67.9343 197.311 67.8281 197.042 67.8281H150.055C149.785 67.8281 149.527 67.9343 149.337 68.1232C149.146 68.3121 149.039 68.5683 149.039 68.8355C149.039 68.9681 149.065 69.0995 149.115 69.2222C149.166 69.3449 149.241 69.4564 149.335 69.5504C149.43 69.6444 149.542 69.7189 149.665 69.7698C149.789 69.8207 149.921 69.8469 150.055 69.8469Z" fill="white"/>
<path d="M150.055 74.8722H183.239C183.373 74.8727 183.505 74.847 183.629 74.7967C183.753 74.7463 183.865 74.6721 183.96 74.5785C184.055 74.485 184.13 74.3737 184.181 74.2512C184.232 74.1288 184.259 73.9974 184.259 73.8648C184.259 73.7322 184.232 73.6009 184.181 73.4784C184.13 73.3559 184.055 73.2447 183.96 73.1511C183.865 73.0575 183.753 72.9834 183.629 72.933C183.505 72.8826 183.373 72.8569 183.239 72.8574H150.055C149.785 72.8574 149.527 72.9636 149.337 73.1525C149.146 73.3414 149.039 73.5976 149.039 73.8648C149.039 74.132 149.146 74.3882 149.337 74.5771C149.527 74.766 149.785 74.8722 150.055 74.8722Z" fill="white"/>
<g opacity="0.4">
<path d="M97.6808 120.227C69.6809 139.815 26.2389 137.716 7.38034 108.158C-2.15169 93.2198 -0.495871 73.7958 4.62467 63.746C20.5866 32.4375 84.4302 -11.0436 122.264 31.6859C146.763 59.3248 128.549 98.6284 97.6808 120.227Z" fill="#CCC0B2"/>
</g>
<mask id="mask2_543_14228" style="mask-type:luminance" maskUnits="userSpaceOnUse" x="0" y="0" width="134" height="134">
<path d="M97.6808 120.23C69.6809 139.817 26.2389 137.719 7.38034 108.161C-2.15169 93.2223 -0.495871 73.7984 4.62467 63.7486C11.3406 50.5808 21.2594 15.4346 39.3888 5.26087C64.4033 -8.73045 100.34 6.93184 122.268 31.6885C146.763 59.3273 128.549 98.631 97.6808 120.23Z" fill="white"/>
</mask>
<g mask="url(#mask2_543_14228)">
<path d="M85.1353 74.3284L95.7228 86.2809L117.144 65.4219L126.603 71.5421L109.578 103.458C106.758 114.252 92.7496 117.322 85.6187 108.679L74.8176 95.5952L85.1353 74.3284Z" fill="#E69773"/>
<path d="M92.4717 92.1838C92.4081 92.1835 92.3457 92.167 92.2904 92.1358C92.2077 92.0875 92.1477 92.0086 92.1235 91.9164C92.0993 91.8242 92.113 91.7263 92.1615 91.6441L95.7068 85.6478C95.7554 85.5651 95.8351 85.505 95.9284 85.4806C96.0217 85.4563 96.121 85.4697 96.2043 85.5179C96.2876 85.5662 96.3483 85.6453 96.3728 85.7379C96.3974 85.8304 96.3839 85.9289 96.3352 86.0116L92.7859 92.0079C92.7536 92.0619 92.7075 92.1065 92.6524 92.1374C92.5973 92.1682 92.535 92.1842 92.4717 92.1838Z" fill="#AF4E4A"/>
<path d="M117.232 66.3621H117.204C117.14 66.0423 117.075 65.7185 117.007 65.3947C115.963 60.2899 113.232 54.6653 112.172 49.5645C112.074 49.189 112.037 48.8003 112.064 48.4132C112.099 48.1284 112.203 47.8564 112.368 47.6207C112.533 47.385 112.754 47.1927 113.01 47.0604C113.267 46.9281 113.552 46.8599 113.841 46.8616C114.131 46.8633 114.415 46.9348 114.67 47.0701C115.247 47.4302 115.676 47.9831 115.879 48.6291C116.197 49.4526 116.499 50.2801 116.821 51.0996C116.881 51.28 117.004 51.4335 117.167 51.5324C117.331 51.6314 117.524 51.6693 117.713 51.6395C117.903 51.6097 118.075 51.514 118.199 51.3697C118.324 51.2253 118.392 51.0417 118.393 50.8517C118.575 47.6963 118.753 44.5436 118.925 41.3936C118.957 40.77 119.017 40.0944 119.444 39.6427C119.598 39.4998 119.782 39.393 119.983 39.3302C120.183 39.2674 120.396 39.2501 120.604 39.2796C120.813 39.3092 121.012 39.3848 121.187 39.5009C121.362 39.617 121.509 39.7707 121.616 39.9505C121.755 40.2673 121.829 40.6084 121.833 40.9538C122.011 43.1045 122.28 45.2472 122.365 47.4019C122.434 49.0768 122.728 50.1402 122.671 51.3554C122.671 50.9556 122.671 50.36 122.671 49.9603C122.792 47.5418 122.937 45.1233 122.953 42.7008C122.972 42.3022 123.094 41.9152 123.308 41.5775C123.442 41.3672 123.639 41.2038 123.872 41.1098C124.107 41.0138 124.37 41.0138 124.605 41.1098C124.737 41.1763 124.854 41.2682 124.949 41.38C125.045 41.4919 125.117 41.6215 125.161 41.7613C125.334 42.2325 125.434 42.7273 125.455 43.2284C125.524 44.6595 125.576 46.0907 125.644 47.5218C125.713 48.9529 125.673 50.4759 125.842 51.919C125.822 51.5047 125.845 51.0895 125.91 50.6798C125.991 49.8403 126.086 49.0035 126.196 48.1694C126.305 47.3339 126.329 46.3265 127.002 45.7149C127.134 45.5759 127.306 45.4794 127.494 45.4381C127.682 45.3968 127.879 45.4124 128.058 45.483C128.214 45.5693 128.34 45.7003 128.42 45.8588C128.639 46.3944 128.707 46.9788 128.618 47.5498L128.545 49.1847C128.501 50.2881 128.452 51.3914 128.388 52.4947L128.303 54.3895L129.033 52.0949C129.295 51.2075 130.209 49.7964 131.047 50.1961C131.281 50.3059 131.467 50.4957 131.571 50.7306C131.676 50.9656 131.691 51.23 131.615 51.4753L128.457 65.4027" fill="#E69773"/>
<path d="M117.232 66.3621H117.204C117.14 66.0423 117.075 65.7185 117.007 65.3947C115.963 60.2899 113.232 54.6653 112.172 49.5645C112.074 49.189 112.037 48.8003 112.064 48.4132C112.099 48.1284 112.203 47.8564 112.368 47.6207C112.533 47.385 112.754 47.1927 113.01 47.0604C113.267 46.9281 113.552 46.8599 113.841 46.8616C114.131 46.8633 114.415 46.9348 114.67 47.0701C115.247 47.4302 115.676 47.9831 115.879 48.6291C116.197 49.4526 116.499 50.2801 116.821 51.0996C116.881 51.28 117.004 51.4335 117.167 51.5324C117.331 51.6314 117.524 51.6693 117.713 51.6395C117.903 51.6097 118.075 51.514 118.199 51.3697C118.324 51.2253 118.392 51.0417 118.393 50.8517C118.575 47.6963 118.753 44.5436 118.925 41.3936C118.957 40.77 119.017 40.0944 119.444 39.6427C119.598 39.4998 119.782 39.393 119.983 39.3302C120.183 39.2674 120.396 39.2501 120.604 39.2796C120.813 39.3092 121.012 39.3848 121.187 39.5009C121.362 39.617 121.509 39.7707 121.616 39.9505C121.755 40.2673 121.829 40.6084 121.833 40.9538C122.011 43.1045 122.28 45.2472 122.365 47.4018C122.434 49.0768 122.728 50.1402 122.671 51.3554C122.671 50.9556 122.671 50.36 122.671 49.9603C122.792 47.5418 122.937 45.1233 122.953 42.7008C122.972 42.3022 123.094 41.9152 123.308 41.5775C123.442 41.3672 123.639 41.2038 123.872 41.1098C124.107 41.0138 124.37 41.0138 124.605 41.1098C124.737 41.1763 124.854 41.2682 124.949 41.38C125.045 41.4919 125.117 41.6215 125.161 41.7613C125.334 42.2325 125.434 42.7273 125.455 43.2284C125.524 44.6595 125.576 46.0907 125.644 47.5218C125.713 48.9529 125.673 50.4759 125.842 51.919C125.822 51.5047 125.845 51.0895 125.91 50.6798C125.991 49.8403 126.086 49.0035 126.196 48.1694C126.305 47.3339 126.329 46.3265 127.002 45.7149C127.134 45.5759 127.306 45.4794 127.494 45.4381C127.682 45.3968 127.879 45.4124 128.058 45.483C128.214 45.5693 128.34 45.7003 128.42 45.8588C128.639 46.3944 128.707 46.9788 128.618 47.5498L128.545 49.1847C128.501 50.2881 128.452 51.3914 128.388 52.4947L128.303 54.3895L129.033 52.0949C129.295 51.2075 130.209 49.7964 131.047 50.1961C131.281 50.3059 131.467 50.4957 131.571 50.7306C131.676 50.9656 131.691 51.23 131.615 51.4753L128.457 65.4027L126.615 71.5469L117.232 66.3621Z" fill="#E69773"/>
<path d="M120.186 57.7838C120.14 57.7941 120.094 57.7941 120.049 57.7838C120.002 57.7817 119.957 57.7698 119.915 57.7492C119.873 57.7285 119.836 57.6995 119.807 57.6639C119.776 57.6297 119.753 57.5898 119.739 57.5465C119.724 57.5033 119.719 57.4575 119.722 57.4121C120.02 53.2746 116.991 51.7676 116.862 51.7036C116.777 51.6631 116.712 51.5913 116.681 51.5037C116.646 51.4177 116.646 51.3219 116.681 51.2359C116.7 51.1945 116.728 51.1576 116.763 51.1273C116.798 51.0971 116.838 51.0742 116.882 51.06C116.925 51.0423 116.971 51.0332 117.017 51.0332C117.063 51.0332 117.109 51.0423 117.152 51.06C117.188 51.06 120.737 52.8669 120.411 57.4561C120.407 57.5038 120.394 57.5503 120.372 57.5929C120.35 57.6354 120.319 57.6732 120.282 57.7039C120.256 57.7369 120.223 57.7641 120.186 57.7838Z" fill="#AF4E4A"/>
<path d="M45.1338 40.3428C48.527 40.3428 51.2777 37.6135 51.2777 34.2466C51.2777 30.8798 48.527 28.1504 45.1338 28.1504C41.7407 28.1504 38.99 30.8798 38.99 34.2466C38.99 37.6135 41.7407 40.3428 45.1338 40.3428Z" fill="#00210E"/>
<path d="M41.6893 33.5401C45.0824 33.5401 47.8331 30.8107 47.8331 27.4439C47.8331 24.077 45.0824 21.3477 41.6893 21.3477C38.2961 21.3477 35.5454 24.077 35.5454 27.4439C35.5454 30.8107 38.2961 33.5401 41.6893 33.5401Z" fill="#00210E"/>
<path d="M41.4114 24.3956C44.8046 24.3956 47.5553 21.6662 47.5553 18.2993C47.5553 14.9325 44.8046 12.2031 41.4114 12.2031C38.0183 12.2031 35.2676 14.9325 35.2676 18.2993C35.2676 21.6662 38.0183 24.3956 41.4114 24.3956Z" fill="#00210E"/>
<path d="M45.9437 17.7628C49.3368 17.7628 52.0875 15.0334 52.0875 11.6665C52.0875 8.29968 49.3368 5.57031 45.9437 5.57031C42.5505 5.57031 39.7998 8.29968 39.7998 11.6665C39.7998 15.0334 42.5505 17.7628 45.9437 17.7628Z" fill="#00210E"/>
<path d="M54.1463 14.1788C57.5394 14.1788 60.2901 11.4494 60.2901 8.08255C60.2901 4.7157 57.5394 1.98633 54.1463 1.98633C50.7531 1.98633 48.0024 4.7157 48.0024 8.08255C48.0024 11.4494 50.7531 14.1788 54.1463 14.1788Z" fill="#00210E"/>
<path d="M64.3522 13.4586C67.5031 12.2093 69.0368 8.66206 67.7778 5.53555C66.5188 2.40905 62.9438 0.887226 59.7929 2.13647C56.642 3.38572 55.1083 6.93297 56.3673 10.0595C57.6263 13.186 61.2013 14.7078 64.3522 13.4586Z" fill="#00210E"/>
<path d="M70.1243 17.3467C73.5175 17.3467 76.2682 14.6174 76.2682 11.2505C76.2682 7.88367 73.5175 5.1543 70.1243 5.1543C66.7312 5.1543 63.9805 7.88367 63.9805 11.2505C63.9805 14.6174 66.7312 17.3467 70.1243 17.3467Z" fill="#00210E"/>
<path d="M74.3584 22.8096C77.7516 22.8096 80.5023 20.0803 80.5023 16.7134C80.5023 13.3466 77.7516 10.6172 74.3584 10.6172C70.9653 10.6172 68.2146 13.3466 68.2146 16.7134C68.2146 20.0803 70.9653 22.8096 74.3584 22.8096Z" fill="#00210E"/>
<path d="M92.9712 78.642L75.6718 62.52C74.2101 60.7314 72.3763 59.2771 70.2959 58.2567C68.2155 57.2363 65.9375 56.6738 63.6178 56.6076L37.028 55.8321C36.7581 55.8321 36.4922 55.8321 36.2222 55.8681L36.194 55.8281L31.2105 55.9241C23.8741 56.06 17.1099 60.3453 14.3461 67.0851C13.9747 67.9929 13.677 68.9286 13.4558 69.8834L8.8348 90.5466C8.75808 90.8874 8.75819 91.2408 8.83514 91.5816C8.91208 91.9224 9.06395 92.242 9.27989 92.5178C9.49583 92.7935 9.7705 93.0186 10.0843 93.1767C10.398 93.3349 10.7431 93.4224 11.0949 93.4328L24.4825 93.8605L21.469 132.185H81.5578L80.184 95.8713L93.076 82.3557C93.3154 82.1053 93.5027 81.8105 93.627 81.4881C93.7514 81.1658 93.8104 80.8223 93.8007 80.4772C93.791 80.1322 93.7127 79.7925 93.5703 79.4776C93.428 79.1626 93.2244 78.8787 92.9712 78.642Z" fill="#00894A"/>
<path d="M68.6496 23.0273C66.744 22.8154 64.9915 19.5774 64.9915 19.5774C64.9915 19.5774 53.159 19.0857 52.732 17.4707L51.6604 27.0927L48.7838 26.7769L46.2578 26.4971C45.8658 26.449 45.4694 26.449 45.0774 26.4971C44.0086 26.6421 43.0189 27.1361 42.2646 27.9013C41.5102 28.6664 41.0342 29.659 40.9116 30.7225L40.8593 31.1902C40.7212 32.456 41.0937 33.7245 41.8954 34.7185C42.6972 35.7126 43.8629 36.3512 45.1378 36.4949L46.423 36.6388L43.3571 52.441C43.1413 53.5409 43.1463 54.6723 43.3719 55.7703C43.5974 56.8683 44.0391 57.9113 44.6716 58.8397C45.304 59.768 46.1149 60.5634 47.0577 61.1804C48.0004 61.7973 49.0566 62.2236 50.1657 62.4348L50.9714 62.5907C52.08 62.8048 53.2202 62.7999 54.3267 62.576C55.4333 62.3522 56.4845 61.914 57.4201 61.2864C58.3557 60.6589 59.1573 59.8543 59.7791 58.9188C60.4008 57.9834 60.8304 56.9354 61.0433 55.8349L62.1996 49.8826C64.2445 50.0747 66.2837 49.4628 67.8787 48.1785C69.4736 46.8941 70.4969 45.04 70.7284 43.0149L72.8274 24.3304C72.8758 23.8987 72.8798 22.5595 72.8556 22.1398C72.215 22.3437 71.5261 23.3391 70.813 23.2591L68.6496 23.0273Z" fill="#E69773"/>
<path d="M44.9364 33.2824C44.8597 33.2731 44.788 33.2398 44.7317 33.1872C44.6754 33.1346 44.6376 33.0656 44.6236 32.9902C44.6097 32.9147 44.6204 32.8369 44.6542 32.7679C44.688 32.6989 44.7431 32.6425 44.8115 32.6068L46.2055 31.9072L44.9042 30.1044C44.849 30.0268 44.827 29.9308 44.8428 29.8372C44.8586 29.7436 44.9111 29.6601 44.9888 29.6047C45.0671 29.5493 45.1641 29.5267 45.2591 29.5416C45.354 29.5566 45.4393 29.6079 45.4964 29.6846L47.0435 31.8233C47.0733 31.8652 47.0937 31.9128 47.1034 31.9632C47.1132 32.0135 47.1119 32.0653 47.0999 32.1151C47.0882 32.166 47.0651 32.2136 47.0323 32.2545C46.9995 32.2953 46.9579 32.3283 46.9105 32.351L45.1379 33.2384C45.0766 33.2726 45.0065 33.2879 44.9364 33.2824Z" fill="#AF4E4A"/>
<path d="M63.6945 36.1029L62.3529 35.955C62.2573 35.9449 62.1696 35.8976 62.1091 35.8234C62.0487 35.7491 62.0204 35.6541 62.0306 35.5593C62.0407 35.4644 62.0885 35.3774 62.1633 35.3174C62.2381 35.2574 62.3338 35.2294 62.4294 35.2395L63.7791 35.3874C63.9659 35.4082 64.1551 35.3882 64.3333 35.3286C64.5115 35.269 64.6744 35.1713 64.8104 35.0425C64.9464 34.9136 65.0522 34.7567 65.1205 34.5829C65.1887 34.409 65.2176 34.2224 65.2052 34.0362L64.8991 29.2392C64.8917 29.19 64.8946 29.1398 64.9077 29.0919C64.9208 29.0439 64.9438 28.9991 64.9752 28.9604C65.0066 28.9216 65.0458 28.8898 65.0902 28.8668C65.1347 28.8439 65.1834 28.8303 65.2334 28.827C65.2834 28.8237 65.3335 28.8306 65.3807 28.8475C65.4278 28.8644 65.4709 28.8908 65.5073 28.925C65.5436 28.9592 65.5724 29.0005 65.5918 29.0464C65.6113 29.0922 65.6209 29.1415 65.6202 29.1912L65.9304 33.9882C65.9487 34.2791 65.9025 34.5705 65.7953 34.8419C65.6881 35.1132 65.5223 35.3581 65.3097 35.5592C65.097 35.7603 64.8426 35.9128 64.5643 36.006C64.286 36.0993 63.9905 36.131 63.6985 36.0989L63.6945 36.1029Z" fill="#AF4E4A"/>
<path d="M69.4555 32.4497C69.4685 32.6426 69.4236 32.835 69.3266 33.0026C69.2296 33.1703 69.0847 33.3057 68.9103 33.3918C68.7358 33.4779 68.5396 33.5108 68.3463 33.4864C68.153 33.4621 67.9713 33.3815 67.8241 33.2549C67.6769 33.1282 67.5708 32.9612 67.5191 32.7748C67.4673 32.5884 67.4724 32.391 67.5335 32.2075C67.5947 32.0239 67.7092 31.8624 67.8627 31.7433C68.0161 31.6243 68.2017 31.5529 68.396 31.5383C68.5261 31.5279 68.657 31.5434 68.781 31.5838C68.9051 31.6242 69.0197 31.6887 69.1184 31.7735C69.217 31.8584 69.2976 31.9619 69.3555 32.078C69.4134 32.1941 69.4474 32.3204 69.4555 32.4497Z" fill="#111111"/>
<path d="M61.8732 44.6841C61.827 44.6888 61.7805 44.679 61.7402 44.6561C61.4364 44.4805 61.0862 44.4 60.7355 44.425C60.3847 44.4499 60.0498 44.5792 59.7742 44.796C59.7322 44.8301 59.6784 44.8466 59.6243 44.8422C59.5702 44.8377 59.5199 44.8125 59.4842 44.772C59.4666 44.7516 59.4534 44.7279 59.4451 44.7023C59.4369 44.6768 59.4338 44.6499 59.436 44.6231C59.4383 44.5964 59.4458 44.5703 59.4582 44.5465C59.4706 44.5227 59.4877 44.5015 59.5083 44.4842C60.6323 43.5408 61.9256 44.3003 61.9497 44.3083C61.9958 44.3358 62.0291 44.38 62.0427 44.4315C62.0562 44.4831 62.0489 44.5379 62.0223 44.5841C62.0062 44.6105 61.9846 44.6332 61.9589 44.6504C61.9331 44.6677 61.9039 44.6792 61.8732 44.6841Z" fill="#AF4E4A"/>
<path d="M55.4192 27.5018C55.9859 27.6359 56.5746 27.6509 57.1475 27.5458C57.7599 27.4818 58.3562 27.4339 58.9121 27.4099C59.4681 27.3859 60.0724 27.3779 60.6888 27.3859C61.2676 27.4375 61.8509 27.3681 62.401 27.182C62.8563 26.9661 63.0174 26.3825 62.4373 25.7429C61.8571 25.1033 60.5156 24.4437 58.7349 24.5197C56.9542 24.5956 55.665 25.3871 55.2016 26.0747C54.7383 26.7623 54.9398 27.3299 55.4192 27.5018Z" fill="#2B2B39"/>
<path d="M72.1063 29.3947C71.7036 29.4084 71.3033 29.3275 70.938 29.1589C70.5351 29.011 70.1322 28.879 69.7777 28.7591C69.4231 28.6392 69.0042 28.5552 68.5691 28.4633C68.17 28.4107 67.7891 28.2655 67.4571 28.0396C67.1952 27.8037 67.1912 27.348 67.7029 26.9362C68.097 26.6729 68.5471 26.5034 69.0181 26.441C69.4891 26.3786 69.9683 26.425 70.4183 26.5765C70.8775 26.6866 71.3045 26.9014 71.6654 27.204C72.0263 27.5066 72.311 27.8885 72.4971 28.3194C72.7187 28.955 72.4608 29.3348 72.1063 29.3947Z" fill="#2B2B39"/>
<path d="M60.8822 31.8516C60.8427 32.0598 60.7419 32.2517 60.5925 32.403C60.4431 32.5544 60.2518 32.6584 60.0429 32.7019C59.8339 32.7454 59.6166 32.7264 59.4185 32.6474C59.2204 32.5684 59.0504 32.4329 58.9299 32.258C58.8094 32.0831 58.7438 31.8767 58.7415 31.6649C58.7392 31.4531 58.8003 31.2453 58.917 31.0679C59.0336 30.8905 59.2007 30.7514 59.3971 30.6681C59.5934 30.5849 59.8102 30.5613 60.0201 30.6004C60.1595 30.6263 60.2924 30.6792 60.4112 30.7562C60.53 30.8331 60.6324 30.9325 60.7125 31.0487C60.7925 31.1649 60.8487 31.2956 60.8779 31.4334C60.907 31.5711 60.9085 31.7133 60.8822 31.8516Z" fill="#111111"/>
<path d="M58.5898 32.6468C58.8951 32.4859 59.2461 32.4319 59.5861 32.4936C59.926 32.5552 60.2351 32.729 60.4632 32.9866" fill="#E69773"/>
<path d="M60.4229 33.3419C60.3347 33.3325 60.253 33.2912 60.1933 33.226C60.0221 33.0265 59.7869 32.8914 59.5273 32.8434C59.2677 32.7954 58.9993 32.8373 58.7671 32.9622C58.6827 33.0077 58.5835 33.0181 58.4914 32.9911C58.3992 32.9641 58.3216 32.902 58.2756 32.8182C58.2293 32.736 58.2177 32.639 58.2434 32.5483C58.269 32.4576 58.3299 32.3808 58.4126 32.3345C58.7871 32.1302 59.2205 32.0585 59.6415 32.1311C60.0626 32.2038 60.4462 32.4165 60.7291 32.7343C60.7616 32.769 60.7867 32.8097 60.8031 32.8542C60.8195 32.8986 60.8268 32.9459 60.8245 32.9932C60.8223 33.0405 60.8105 33.0868 60.79 33.1295C60.7695 33.1723 60.7406 33.2105 60.705 33.242C60.6681 33.278 60.6238 33.3057 60.5751 33.3229C60.5264 33.3402 60.4745 33.3467 60.4229 33.3419Z" fill="#AF4E4A"/>
<path d="M67.5903 33.5654C67.8675 33.4851 68.1582 33.4614 68.4449 33.4958C68.7316 33.5301 69.0083 33.6218 69.2582 33.7653" fill="#E69773"/>
<path d="M69.2017 34.1187C69.1442 34.1134 69.0889 34.0942 69.0405 34.0628C68.836 33.9485 68.6106 33.8759 68.3775 33.8491C68.1444 33.8223 67.9082 33.842 67.6828 33.9069C67.5915 33.9344 67.4929 33.9251 67.4084 33.881C67.3239 33.8368 67.2604 33.7614 67.2316 33.671C67.2166 33.6261 67.2108 33.5788 67.2144 33.5316C67.2181 33.4845 67.2312 33.4386 67.2529 33.3965C67.2747 33.3544 67.3047 33.3171 67.3411 33.2867C67.3776 33.2563 67.4198 33.2333 67.4653 33.2193C67.7937 33.1238 68.1383 33.0962 68.4778 33.1382C68.8174 33.1801 69.1446 33.2907 69.4394 33.4631C69.5192 33.5154 69.5749 33.5968 69.5945 33.6896C69.6142 33.7824 69.596 33.8792 69.5441 33.9588C69.5081 34.0149 69.4568 34.0596 69.3962 34.0879C69.3356 34.1162 69.2682 34.1269 69.2017 34.1187Z" fill="#AF4E4A"/>
<path d="M57.3533 35.8197C57.53 35.734 57.7304 35.7092 57.923 35.749C58.1155 35.7888 58.2893 35.891 58.4168 36.0395C59.2601 36.9967 60.3892 37.6619 61.6398 37.9384C61.7346 37.9649 61.8217 38.0132 61.894 38.0795C61.9663 38.1457 62.0218 38.228 62.056 38.3196C62.0901 38.4112 62.102 38.5095 62.0906 38.6065C62.0792 38.7035 62.0448 38.7965 61.9904 38.8778C61.5109 39.6533 60.3265 40.7966 58.2718 39.5494C55.7579 38.0303 56.4226 36.2994 57.3533 35.8197Z" fill="white"/>
<path d="M62.1432 49.9213C62.1432 49.9213 53.3082 49.5215 51.5396 45.7559C51.5396 45.7559 51.882 53.611 61.2086 54.7463L62.1432 49.9213Z" fill="#AF4E4A"/>
<path d="M52.9576 33.881C52.8972 34.4486 53.6184 34.9963 54.5691 35.0803C55.5199 35.1642 56.3539 34.8084 56.4143 34.2408C56.4747 33.6731 55.7576 33.1255 54.8028 33.0415C53.848 32.9576 53.0221 33.3134 52.9576 33.881Z" fill="#AF4E4A"/>
<path d="M57.5181 35.4851C56.4563 35.4747 55.4215 35.152 54.5446 34.5579C53.6677 33.9637 52.9882 33.1247 52.5921 32.1472C52.1959 31.1697 52.1009 30.0975 52.3191 29.0664C52.5373 28.0353 53.0589 27.0916 53.8179 26.3547C54.5769 25.6178 55.5391 25.121 56.5828 24.927C57.6265 24.733 58.7047 24.8506 59.681 25.2649C60.6573 25.6792 61.4878 26.3716 62.0674 27.2544C62.6469 28.1372 62.9495 29.1708 62.9368 30.2243C62.9177 31.6338 62.3369 32.9784 61.3215 33.9642C60.3061 34.95 58.9387 35.4968 57.5181 35.4851ZM57.6108 25.6192C56.7055 25.6105 55.818 25.8685 55.0604 26.3604C54.3029 26.8523 53.7094 27.5561 53.3551 28.3828C53.0008 29.2094 52.9015 30.1218 53.0698 31.0044C53.2381 31.8871 53.6665 32.7004 54.3007 33.3414C54.9349 33.9825 55.7465 34.4225 56.6328 34.6058C57.5191 34.7891 58.4402 34.7075 59.2797 34.3712C60.1193 34.035 60.8394 33.4592 61.3491 32.7168C61.8588 31.9744 62.1351 31.0986 62.1431 30.2004C62.1528 28.9969 61.6811 27.8389 60.8314 26.9801C59.9818 26.1213 58.8236 25.6319 57.6108 25.6192Z" fill="#FDFEFF"/>
<path d="M69.7817 37.1669C68.7194 37.1574 67.6839 36.8355 66.806 36.2419C65.9282 35.6483 65.2475 34.8097 64.85 33.8322C64.4526 32.8547 64.3562 31.7822 64.5731 30.7503C64.79 29.7185 65.3105 28.7736 66.0687 28.0353C66.8269 27.297 67.7887 26.7984 68.8325 26.6026C69.8763 26.4067 70.9552 26.5224 71.9327 26.9351C72.9102 27.3477 73.7424 28.0388 74.3241 28.9208C74.9057 29.8028 75.2107 30.8362 75.2004 31.8902C75.1855 33.3025 74.6066 34.6512 73.5907 35.6404C72.5749 36.6297 71.205 37.1787 69.7817 37.1669ZM69.8784 27.3011C68.9731 27.2924 68.0855 27.5503 67.328 28.0423C66.5705 28.5342 65.977 29.238 65.6227 30.0646C65.2683 30.8913 65.1691 31.8037 65.3374 32.6863C65.5057 33.569 65.934 34.3823 66.5683 35.0233C67.2025 35.6644 68.0141 36.1044 68.9004 36.2877C69.7866 36.471 70.7078 36.3893 71.5473 36.0531C72.3868 35.7168 73.107 35.1411 73.6167 34.3987C74.1264 33.6562 74.4027 32.7805 74.4107 31.8822C74.4193 30.6791 73.9473 29.5216 73.0978 28.6631C72.2484 27.8045 71.0908 27.3148 69.8784 27.3011Z" fill="#FDFEFF"/>
<path d="M64.5603 31.6665C64.3586 31.3881 64.0551 31.1991 63.7147 31.1401C63.3743 31.081 63.0242 31.1567 62.7393 31.3507L62.3364 30.6791C62.7902 30.3764 63.3455 30.2621 63.8832 30.3608C64.4209 30.4594 64.8982 30.7631 65.213 31.2068L64.5603 31.6665Z" fill="#FDFEFF"/>
<path d="M53.0341 28.0407C52.9544 28.0459 52.8744 28.0351 52.799 28.009C52.7235 27.9829 52.6542 27.942 52.5949 27.8888C52.5385 27.8449 51.6361 27.2172 47.7 26.8735C47.6346 26.8747 47.5697 26.8625 47.5093 26.8375C47.449 26.8125 47.3945 26.7753 47.3494 26.7283C47.3044 26.6813 47.2696 26.6255 47.2474 26.5645C47.2252 26.5035 47.2161 26.4385 47.2206 26.3738C47.2532 26.2429 47.3344 26.1291 47.4479 26.055C47.5614 25.9809 47.6989 25.952 47.833 25.974C52.3653 26.3738 53.308 27.1733 53.4531 27.3052C53.4981 27.35 53.5317 27.4047 53.5513 27.465C53.5708 27.5252 53.5757 27.5891 53.5654 27.6516C53.5552 27.714 53.5302 27.7731 53.4925 27.8241C53.4547 27.8751 53.4053 27.9164 53.3483 27.9448C53.2537 28.0032 53.1454 28.0362 53.0341 28.0407Z" fill="#FDFEFF"/>
<path d="M68.8836 23.8585C72.2767 23.8585 75.0274 21.1291 75.0274 17.7622C75.0274 14.3954 72.2767 11.666 68.8836 11.666C65.4904 11.666 62.7397 14.3954 62.7397 17.7622C62.7397 21.1291 65.4904 23.8585 68.8836 23.8585Z" fill="#00210E"/>
<path d="M60.5398 20.2706C63.933 20.2706 66.6837 17.5412 66.6837 14.1743C66.6837 10.8075 63.933 8.07812 60.5398 8.07812C57.1467 8.07812 54.396 10.8075 54.396 14.1743C54.396 17.5412 57.1467 20.2706 60.5398 20.2706Z" fill="#00210E"/>
<path d="M52.0874 22.0792C55.4806 22.0792 58.2313 19.3498 58.2313 15.9829C58.2313 12.6161 55.4806 9.88672 52.0874 9.88672C48.6943 9.88672 45.9436 12.6161 45.9436 15.9829C45.9436 19.3498 48.6943 22.0792 52.0874 22.0792Z" fill="#00210E"/>
<path d="M48.2964 29.1109C50.8863 29.1109 52.9859 27.0276 52.9859 24.4578C52.9859 21.888 50.8863 19.8047 48.2964 19.8047C45.7065 19.8047 43.6069 21.888 43.6069 24.4578C43.6069 27.0276 45.7065 29.1109 48.2964 29.1109Z" fill="#00210E"/>
<path d="M45.8228 25.2066C48.4127 25.2066 50.5122 23.1233 50.5122 20.5535C50.5122 17.9837 48.4127 15.9004 45.8228 15.9004C43.2328 15.9004 41.1333 17.9837 41.1333 20.5535C41.1333 23.1233 43.2328 25.2066 45.8228 25.2066Z" fill="#00210E"/>
<path d="M65.3823 59.828L63.3679 54.6552C63.2914 53.6518 62.2802 53.1801 61.6436 53.8557L54.2066 61.5709C54.1753 61.5995 54.1343 61.6154 54.0917 61.6154C54.0492 61.6154 54.0082 61.5995 53.9769 61.5709L42.9543 52.6284C42.8601 52.5522 42.7506 52.4971 42.633 52.4666C42.5155 52.4362 42.3927 52.4313 42.2731 52.4521C42.1534 52.473 42.0397 52.5192 41.9397 52.5875C41.8396 52.6559 41.7556 52.7448 41.6933 52.8483L38.5831 59.1284C38.4242 59.4495 38.3633 59.8097 38.4076 60.1647C38.452 60.5197 38.5998 60.8542 38.8328 61.1271L45.307 68.7624C45.6168 69.0921 46.0412 69.2928 46.4944 69.324C46.9476 69.3552 47.3958 69.2145 47.7485 68.9303L53.8601 63.3338C53.8916 63.3051 53.9287 63.2829 53.969 63.2685C54.0093 63.2542 54.052 63.2479 54.0948 63.2502C54.1375 63.2524 54.1794 63.2631 54.218 63.2815C54.2565 63.3 54.291 63.3259 54.3194 63.3578L58.1829 67.6951C58.2683 67.8368 58.3911 67.9526 58.5381 68.0299C58.6851 68.1072 58.8507 68.143 59.0168 68.1336C59.1828 68.1241 59.3432 68.0696 59.4803 67.9761C59.6174 67.8826 59.726 67.7536 59.7944 67.6031L65.0318 61.6388C65.2546 61.3995 65.4055 61.103 65.4675 60.783C65.5294 60.463 65.4999 60.1322 65.3823 59.828Z" fill="#00C46D"/>
<path d="M69.5721 30.1612C70.0677 29.9133 71.369 29.3177 72.4124 29.3617C72.4707 29.3631 72.528 29.3763 72.5809 29.4006C72.6338 29.4248 72.6811 29.4595 72.72 29.5026C72.7589 29.5457 72.7884 29.5961 72.8069 29.651C72.8254 29.7058 72.8323 29.7638 72.8274 29.8214C72.8211 29.8963 72.797 29.9688 72.7571 30.0327C72.7172 30.0966 72.6626 30.1502 72.5977 30.1892C72.5133 30.2419 72.4155 30.2697 72.3157 30.2691C71.4737 30.2451 70.2047 30.8328 69.7897 31.0686C69.7183 31.104 69.6398 31.1231 69.5601 31.1246L69.5721 30.1612Z" fill="#FDFEFF"/>
<path d="M55.6287 68.9111C55.6287 69.1562 55.5554 69.3958 55.4182 69.5996C55.281 69.8034 55.0859 69.9622 54.8577 70.056C54.6295 70.1498 54.3784 70.1743 54.1361 70.1265C53.8939 70.0787 53.6713 69.9607 53.4967 69.7874C53.322 69.6141 53.203 69.3933 53.1549 69.1529C53.1067 68.9125 53.1314 68.6633 53.2259 68.4369C53.3205 68.2104 53.4805 68.0169 53.6859 67.8807C53.8913 67.7446 54.1328 67.6719 54.3798 67.6719C54.711 67.6719 55.0287 67.8024 55.2629 68.0348C55.4971 68.2672 55.6287 68.5824 55.6287 68.9111Z" fill="#750021"/>
<path d="M55.6287 74.671C55.6279 74.9159 55.554 75.1551 55.4162 75.3583C55.2785 75.5616 55.0832 75.7198 54.8549 75.813C54.6266 75.9062 54.3757 75.9302 54.1337 75.8819C53.8917 75.8336 53.6695 75.7153 53.4952 75.5418C53.321 75.3684 53.2024 75.1475 53.1546 74.9073C53.1067 74.667 53.1317 74.418 53.2263 74.1918C53.321 73.9656 53.481 73.7723 53.6863 73.6363C53.8916 73.5003 54.1329 73.4277 54.3798 73.4277C54.5441 73.4277 54.7069 73.4599 54.8586 73.5224C55.0104 73.585 55.1483 73.6766 55.2643 73.7921C55.3803 73.9076 55.4722 74.0447 55.5348 74.1955C55.5973 74.3463 55.6292 74.5079 55.6287 74.671Z" fill="#750021"/>
<path d="M55.6287 80.4268C55.6279 80.6717 55.554 80.911 55.4162 81.1142C55.2785 81.3175 55.0832 81.4757 54.8549 81.5689C54.6266 81.6621 54.3757 81.686 54.1337 81.6378C53.8917 81.5895 53.6695 81.4711 53.4952 81.2977C53.321 81.1242 53.2024 80.9034 53.1546 80.6631C53.1067 80.4228 53.1317 80.1739 53.2263 79.9477C53.321 79.7215 53.481 79.5282 53.6863 79.3922C53.8916 79.2562 54.1329 79.1836 54.3798 79.1836C54.5441 79.1836 54.7069 79.2158 54.8586 79.2783C55.0104 79.3408 55.1483 79.4325 55.2643 79.548C55.3803 79.6635 55.4722 79.8005 55.5348 79.9514C55.5973 80.1022 55.6292 80.2637 55.6287 80.4268Z" fill="#750021"/>
<path d="M64.8345 117.944L33.5351 100.355L34.7719 94.0073L12.0981 93.3438L10.9177 99.2601C8.77038 114.095 27.9835 121.29 27.9835 121.29L58.602 131.504" fill="#E69773"/>
<path d="M33.644 100.179H33.5755C33.5288 100.17 33.4843 100.153 33.4445 100.127C33.4048 100.101 33.3706 100.067 33.344 100.028C33.3174 99.9894 33.2989 99.9455 33.2895 99.8992C33.2801 99.853 33.2801 99.8054 33.2895 99.7592L34.4739 93.671H37.427C37.6977 93.6712 37.9581 93.5679 38.1539 93.3825C38.3498 93.1971 38.4661 92.9439 38.4785 92.6756L39.2601 76.1778C39.2579 76.1278 39.2663 76.0779 39.2847 76.0313C39.3031 75.9847 39.3311 75.9424 39.3669 75.9071C39.4027 75.8719 39.4456 75.8444 39.4927 75.8265C39.5398 75.8086 39.5902 75.8007 39.6405 75.8032C39.6909 75.8057 39.7402 75.8186 39.7853 75.8411C39.8304 75.8636 39.8702 75.8952 39.9023 75.9338C39.9343 75.9725 39.9579 76.0173 39.9715 76.0655C39.9851 76.1137 39.9884 76.1642 39.9812 76.2138L39.2037 92.7116C39.1869 93.1689 38.9894 93.6014 38.654 93.9155C38.3185 94.2296 37.872 94.4003 37.4109 94.3905H35.0621L33.9905 99.8911C33.9748 99.9712 33.9318 100.044 33.8687 100.096C33.8056 100.148 33.7263 100.178 33.644 100.179Z" fill="#750021"/>
<path d="M25.8039 103.222C25.7187 103.22 25.6368 103.189 25.5725 103.134C25.5081 103.079 25.4655 103.002 25.4521 102.919C25.4386 102.836 25.4552 102.75 25.4989 102.678C25.5426 102.605 25.6106 102.55 25.6911 102.522L33.3457 99.9839C33.4365 99.9533 33.5359 99.9597 33.6219 100.002C33.708 100.044 33.7738 100.118 33.805 100.208C33.8345 100.298 33.8269 100.397 33.784 100.482C33.7411 100.567 33.6661 100.632 33.5753 100.663L25.9207 103.206C25.8828 103.217 25.8434 103.222 25.8039 103.222Z" fill="#AF4E4A"/>
<path d="M57.4297 130.481C57.879 131.186 58.4889 131.776 59.2104 132.204L69.3709 137.7C71.1879 138.808 73.7663 137.892 73.029 136.453C74.1732 137.652 75.8491 138.536 77.1746 137.001C78.0005 136.233 77.7426 135.402 77.1746 134.646C78.2462 135.71 79.4992 136.537 80.6917 135.342C82.1743 134.234 81.4974 132.867 80.5386 131.744C81.3444 132.384 82.3153 132.727 83.2097 131.836C85.5383 129.082 81.5418 126.827 79.3219 125.188C78.218 124.489 77.2189 123.837 76.2883 123.225C77.5291 122.882 78.7861 122.534 79.8255 121.786C80.0046 121.684 80.1578 121.543 80.2737 121.373C80.3895 121.203 80.465 121.01 80.4943 120.807C80.4881 120.649 80.4448 120.494 80.3679 120.355C80.291 120.216 80.1825 120.097 80.0511 120.007C79.7881 119.825 79.4949 119.69 79.1849 119.608C76.3648 118.732 67.7473 117.753 67.7473 117.753C66.7721 117.736 65.797 117.794 64.8305 117.925" fill="#E69773"/>
<path d="M75.4946 132.879C75.6397 133.011 75.8008 133.175 75.966 133.355C75.7928 133.183 75.6477 133.023 75.4946 132.879Z" fill="#E69773"/>
<path opacity="0.3" d="M76.2922 123.231L70.7769 120.229C70.7769 120.229 77.5693 121.879 78.5161 122.511L76.2922 123.231Z" fill="#AF4E4A"/>
<path d="M77.2308 129.85C77.1819 129.787 77.1569 129.71 77.1602 129.63C77.1635 129.551 77.195 129.476 77.249 129.417C77.3031 129.359 77.3762 129.321 77.4554 129.311C77.5347 129.301 77.615 129.319 77.6821 129.362C78.0044 129.57 80.8285 131.405 81.2475 131.881C81.2776 131.914 81.3006 131.953 81.3153 131.995C81.33 132.037 81.336 132.081 81.333 132.125C81.33 132.17 81.318 132.213 81.2978 132.253C81.2776 132.293 81.2495 132.328 81.2153 132.357C81.1818 132.386 81.1427 132.408 81.1004 132.423C81.0581 132.437 81.0134 132.443 80.9689 132.44C80.9243 132.437 80.8808 132.425 80.8408 132.405C80.8008 132.385 80.7651 132.358 80.7359 132.325C79.6399 131.463 78.4967 130.662 77.3114 129.926C77.2799 129.906 77.2526 129.88 77.2308 129.85Z" fill="#AF4E4A"/>
<path d="M74.3182 133.17C74.2762 133.112 74.2537 133.042 74.2537 132.97C74.2537 132.899 74.2762 132.829 74.3182 132.77C74.3695 132.697 74.4477 132.647 74.5358 132.631C74.6239 132.614 74.7151 132.633 74.7896 132.682L77.6097 134.581C77.6469 134.606 77.6788 134.637 77.7036 134.674C77.7284 134.711 77.7456 134.752 77.7542 134.796C77.7628 134.839 77.7627 134.884 77.7538 134.928C77.7449 134.971 77.7274 135.012 77.7024 135.049C77.6773 135.086 77.645 135.118 77.6075 135.142C77.5701 135.167 77.528 135.184 77.4839 135.193C77.4397 135.201 77.3943 135.201 77.3503 135.192C77.3062 135.183 77.2643 135.166 77.227 135.141L74.4069 133.242C74.3753 133.221 74.3457 133.197 74.3182 133.17Z" fill="#AF4E4A"/>
<path d="M53.2476 129.228C53.2476 129.228 55.3546 120.538 60.3704 115.377C61.7278 115.304 63.0599 115.761 64.0809 116.652C60.4787 120.846 57.9165 125.818 56.5995 131.171C55.9353 131.096 55.2942 130.885 54.7171 130.55C54.1399 130.216 53.6394 129.765 53.2476 129.228Z" fill="#2B2B39"/>
<path d="M63.1787 122.529C63.6248 121.668 63.8034 120.694 63.6919 119.732C63.5804 118.77 63.1838 117.862 62.5522 117.123C61.9207 116.385 61.0826 115.849 60.1439 115.583C59.2053 115.317 58.2082 115.333 57.2789 115.629C56.3495 115.926 55.5296 116.489 54.9229 117.248C54.3161 118.007 53.9498 118.927 53.8702 119.892C53.7906 120.858 54.0013 121.825 54.4757 122.671C54.9501 123.518 55.6669 124.206 56.5353 124.648C57.6995 125.241 59.0533 125.351 60.2991 124.954C61.5449 124.556 62.5807 123.684 63.1787 122.529Z" fill="#2B2B39"/>
<path d="M60.411 117.157C59.7857 116.838 59.0793 116.711 58.381 116.791C57.6828 116.871 57.0241 117.154 56.4883 117.606C55.9524 118.057 55.5636 118.656 55.3708 119.327C55.1781 119.997 55.1901 120.71 55.4055 121.374C55.6208 122.037 56.0297 122.623 56.5805 123.056C57.1313 123.49 57.7992 123.751 58.4998 123.808C59.2004 123.864 59.9021 123.713 60.5162 123.374C61.1304 123.035 61.6293 122.523 61.95 121.902C62.3787 121.07 62.4574 120.103 62.1689 119.214C61.8804 118.324 61.2483 117.585 60.411 117.157Z" fill="white"/>
</g>
<path d="M100.908 40.4411C99.8 41.5005 98.8935 41.1167 98.8935 39.5897V34.6647C98.8935 33.9267 98.5997 33.2186 98.0761 32.6945C97.5524 32.1704 96.8413 31.8728 96.0975 31.8665H89.7482C89.0038 31.8612 88.2916 31.564 87.7671 31.0398C87.2426 30.5156 86.9482 29.8069 86.9482 29.0682V9.63225C86.9482 8.89355 87.2426 8.18482 87.7671 7.66061C88.2916 7.1364 89.0038 6.83926 89.7482 6.83398H119.561C120.305 6.83926 121.018 7.1364 121.542 7.66061C122.067 8.18482 122.361 8.89355 122.361 9.63225V29.1082C122.361 29.8469 122.067 30.5556 121.542 31.0798C121.018 31.604 120.305 31.9012 119.561 31.9064H112.712C110.931 31.994 109.23 32.6677 107.878 33.8212L100.908 40.4411Z" fill="#467B6C"/>
<path d="M116.245 14.7392H93.0237C92.7555 14.7392 92.4983 14.6335 92.3086 14.4453C92.119 14.2571 92.0125 14.0019 92.0125 13.7358C92.0135 13.47 92.1204 13.2154 92.3098 13.0275C92.4992 12.8395 92.7558 12.7335 93.0237 12.7324H116.245C116.514 12.7324 116.771 12.8381 116.96 13.0263C117.15 13.2145 117.257 13.4697 117.257 13.7358C117.257 14.0019 117.15 14.2571 116.96 14.4453C116.771 14.6335 116.514 14.7392 116.245 14.7392Z" fill="white"/>
<path d="M116.245 19.7411H93.0237C92.7555 19.7411 92.4983 19.6354 92.3086 19.4472C92.119 19.2591 92.0125 19.0039 92.0125 18.7378C92.0125 18.4716 92.119 18.2164 92.3086 18.0283C92.4983 17.8401 92.7555 17.7344 93.0237 17.7344H116.245C116.514 17.7344 116.771 17.8401 116.96 18.0283C117.15 18.2164 117.257 18.4716 117.257 18.7378C117.257 19.0039 117.15 19.2591 116.96 19.4472C116.771 19.6354 116.514 19.7411 116.245 19.7411Z" fill="white"/>
<path d="M116.245 24.7431H97.8059C97.538 24.742 97.2814 24.636 97.092 24.448C96.9026 24.2601 96.7957 24.0055 96.7947 23.7397C96.7947 23.4736 96.9012 23.2184 97.0909 23.0302C97.2805 22.842 97.5377 22.7363 97.8059 22.7363H116.258C116.526 22.7363 116.783 22.842 116.973 23.0302C117.162 23.2184 117.269 23.4736 117.269 23.7397C117.269 23.8725 117.242 24.0039 117.191 24.1265C117.139 24.249 117.064 24.3601 116.968 24.4535C116.873 24.5468 116.76 24.6205 116.636 24.6702C116.512 24.7199 116.379 24.7447 116.245 24.7431Z" fill="white"/>
<path d="M117.808 93.1582H75.7241C74.9921 93.1591 74.2806 93.3981 73.6985 93.8385C73.1164 94.2789 72.6958 94.8965 72.5011 95.5967L62.8079 130.467H34.6067C34.4905 130.468 34.3767 130.499 34.2771 130.558C34.1776 130.618 34.096 130.703 34.0411 130.804C33.9862 130.906 33.96 131.02 33.9653 131.135C33.9705 131.251 34.007 131.362 34.0709 131.458L36.2988 134.772H109.695L121.035 97.4715C121.188 96.9718 121.22 96.4436 121.129 95.9294C121.039 95.4151 120.829 94.9289 120.515 94.5097C120.201 94.0906 119.793 93.75 119.323 93.5153C118.853 93.2807 118.335 93.1584 117.808 93.1582Z" fill="#5F5F75"/>
<path d="M113.308 134.862H65.2253L76.103 95.6865C76.2976 94.9863 76.7182 94.3688 77.3003 93.9284C77.8824 93.488 78.594 93.249 79.326 93.248H121.426C121.952 93.2482 122.47 93.3704 122.94 93.6048C123.409 93.8393 123.817 94.1796 124.13 94.5984C124.443 95.0172 124.654 95.5029 124.744 96.0167C124.834 96.5305 124.802 97.0582 124.649 97.5574L113.308 134.862Z" fill="#2B2B39"/>
<path d="M92.3994 115.535C92.3986 114.474 92.7149 113.437 93.3082 112.555C93.9016 111.673 94.7453 110.985 95.7326 110.579C96.72 110.173 97.8066 110.066 98.855 110.273C99.9033 110.479 100.866 110.99 101.622 111.74C102.378 112.49 102.893 113.446 103.101 114.486C103.309 115.526 103.202 116.604 102.793 117.584C102.383 118.564 101.69 119.401 100.801 119.989C99.9119 120.578 98.8668 120.892 97.7979 120.891C96.3668 120.889 94.9949 120.324 93.983 119.32C92.971 118.316 92.4015 116.955 92.3994 115.535ZM93.2052 115.535C93.2052 116.432 93.473 117.309 93.9748 118.055C94.4767 118.801 95.19 119.383 96.0249 119.728C96.8597 120.072 97.7787 120.163 98.6658 119.99C99.553 119.817 100.368 119.387 101.009 118.754C101.65 118.121 102.088 117.314 102.268 116.435C102.447 115.556 102.36 114.644 102.017 113.813C101.674 112.983 101.091 112.272 100.342 111.77C99.5926 111.269 98.7101 110.998 97.806 110.993C96.5915 110.993 95.4265 111.472 94.567 112.323C93.7074 113.174 93.2234 114.329 93.2213 115.535H93.2052Z" fill="#F6EEE3"/>
<path d="M206.3 34.1723C206.227 34.1712 206.154 34.1562 206.086 34.1283L203.464 33.069C203.394 33.0413 203.33 33.0003 203.276 32.9482C203.222 32.896 203.179 32.8338 203.15 32.7652C203.091 32.6243 203.091 32.4663 203.15 32.3254L203.955 30.3267C203.493 30.0115 203.071 29.6424 202.698 29.2274L200.712 30.0588C200.643 30.0884 200.568 30.1039 200.492 30.1046C200.417 30.1053 200.342 30.0911 200.272 30.0629C200.201 30.0346 200.138 29.9929 200.084 29.94C200.03 29.8872 199.988 29.8243 199.959 29.755L198.859 27.1686C198.83 27.0996 198.815 27.0255 198.815 26.9508C198.815 26.876 198.83 26.802 198.859 26.7329C198.917 26.5925 199.028 26.4804 199.169 26.4211L201.022 25.6456C200.954 25.1596 200.938 24.6678 200.974 24.1785L199.161 23.427C199.02 23.3695 198.907 23.2588 198.847 23.1191C198.818 23.0501 198.803 22.9761 198.803 22.9013C198.803 22.8265 198.818 22.7525 198.847 22.6834L199.91 20.081C199.969 19.9413 200.081 19.8296 200.221 19.7692C200.29 19.7405 200.365 19.7258 200.44 19.7258C200.516 19.7258 200.59 19.7405 200.66 19.7692L202.388 20.4648C202.758 19.9821 203.192 19.5506 203.677 19.1816L202.896 17.3427C202.866 17.2737 202.85 17.1996 202.85 17.1246C202.849 17.0495 202.863 16.9751 202.892 16.9056C202.92 16.8361 202.962 16.7728 203.015 16.7196C203.069 16.6663 203.132 16.624 203.202 16.5952L205.808 15.5039C205.95 15.4461 206.11 15.4461 206.252 15.5039C206.327 15.5317 206.396 15.5754 206.453 15.632C206.51 15.6885 206.554 15.7567 206.582 15.8317L207.388 17.7825C207.718 17.7585 208.049 17.7585 208.379 17.7825L209.245 15.6678C209.302 15.5274 209.413 15.4152 209.554 15.356C209.694 15.2968 209.853 15.2954 209.994 15.352L212.625 16.4113C212.695 16.4393 212.759 16.4809 212.812 16.5338C212.865 16.5867 212.907 16.6497 212.935 16.7191C212.964 16.7882 212.979 16.8622 212.979 16.937C212.979 17.0118 212.964 17.0858 212.935 17.1548L212.13 19.1536C212.616 19.5215 213.05 19.9532 213.419 20.4368L215.276 19.6373C215.346 19.6086 215.42 19.5938 215.496 19.5938C215.571 19.5938 215.646 19.6086 215.715 19.6373C215.856 19.6942 215.968 19.8032 216.029 19.9411L217.129 22.5315C217.187 22.6711 217.188 22.8276 217.13 22.9674C217.073 23.1072 216.963 23.2191 216.823 23.279L214.833 24.1105C214.868 24.5514 214.858 24.9947 214.805 25.4337L216.819 26.2572C216.96 26.3149 217.072 26.4252 217.132 26.5643C217.191 26.7034 217.193 26.8602 217.137 27.0007L216.07 29.6031C216.042 29.6725 216 29.7355 215.946 29.7884C215.893 29.8413 215.829 29.883 215.76 29.9109C215.69 29.9396 215.615 29.9544 215.54 29.9544C215.465 29.9544 215.39 29.9396 215.32 29.9109L213.189 29.0515C212.976 29.3002 212.746 29.5339 212.5 29.751L213.338 31.7258C213.396 31.8654 213.397 32.0219 213.339 32.1617C213.282 32.3015 213.172 32.4134 213.032 32.4733L210.421 33.5647C210.352 33.5934 210.277 33.6081 210.202 33.6081C210.126 33.6081 210.052 33.5934 209.982 33.5647C209.842 33.5078 209.729 33.3988 209.668 33.2609L208.886 31.418C208.514 31.4726 208.138 31.4953 207.762 31.486L206.836 33.8205C206.791 33.925 206.717 34.0141 206.621 34.0767C206.526 34.1393 206.414 34.1726 206.3 34.1723ZM204.431 32.2215L205.986 32.8491L206.86 30.7184C206.905 30.6052 206.986 30.5095 207.091 30.4454C207.195 30.3813 207.318 30.3523 207.44 30.3627C208.004 30.4107 208.571 30.3743 209.124 30.2547C209.255 30.2257 209.393 30.2434 209.512 30.3048C209.631 30.3662 209.725 30.4674 209.777 30.5905L210.514 32.3254L212.061 31.6778L211.284 29.843C211.234 29.7277 211.225 29.5995 211.256 29.4782C211.287 29.3568 211.358 29.249 211.457 29.1714C211.871 28.8507 212.24 28.4755 212.553 28.0561C212.628 27.9545 212.736 27.8809 212.859 27.8469C212.981 27.8128 213.112 27.8203 213.229 27.8682L215.244 28.6677L215.848 27.1407L213.922 26.3412C213.799 26.2916 213.697 26.2011 213.634 26.0851C213.571 25.9691 213.55 25.8349 213.576 25.7055C213.694 25.0926 213.709 24.4645 213.62 23.8467C213.602 23.7222 213.627 23.5954 213.69 23.4862C213.752 23.3769 213.85 23.2914 213.967 23.2431L215.848 22.4875L215.195 20.9525L213.431 21.684C213.308 21.7357 213.17 21.7428 213.042 21.7041C212.914 21.6654 212.803 21.5833 212.73 21.4722C212.298 20.8362 211.742 20.2925 211.094 19.8732C210.983 19.8005 210.901 19.6917 210.862 19.5655C210.823 19.4393 210.83 19.3035 210.881 19.1816L211.662 17.2748L210.103 16.6312L209.297 18.6299C209.248 18.7466 209.161 18.844 209.05 18.9074C208.94 18.9709 208.812 18.9969 208.685 18.9817C208.165 18.9098 207.638 18.9098 207.118 18.9817C206.993 18.9971 206.867 18.9718 206.758 18.9098C206.649 18.8478 206.563 18.7524 206.514 18.6379L205.732 16.7991L204.165 17.4307L204.902 19.1656C204.953 19.2888 204.959 19.4256 204.92 19.553C204.882 19.6804 204.8 19.7906 204.688 19.8652C204.039 20.2893 203.484 20.8401 203.057 21.4842C202.984 21.5945 202.874 21.6763 202.747 21.7156C202.62 21.755 202.483 21.7495 202.36 21.7L200.748 21.0484L200.136 22.5875L201.828 23.2711C201.946 23.3187 202.044 23.4039 202.108 23.5132C202.171 23.6225 202.196 23.7497 202.179 23.8747C202.084 24.54 202.109 25.2166 202.251 25.8734C202.281 26.0031 202.263 26.1391 202.201 26.2571C202.139 26.375 202.037 26.4672 201.913 26.517L200.164 27.2486L200.817 28.7876L202.67 28.0121C202.787 27.9637 202.916 27.9546 203.039 27.9864C203.161 28.0182 203.269 28.0891 203.347 28.188C203.794 28.7557 204.345 29.2344 204.971 29.5991C205.091 29.6667 205.182 29.7757 205.226 29.9053C205.271 30.035 205.266 30.1764 205.212 30.3027L204.431 32.2215ZM207.907 27.7843C207.333 27.7859 206.769 27.6329 206.276 27.3414C205.783 27.0499 205.378 26.6309 205.106 26.1292C204.834 25.6274 204.704 25.0618 204.731 24.4926C204.757 23.9235 204.939 23.3722 205.257 22.8975C205.575 22.4229 206.016 22.0428 206.535 21.7978C207.053 21.5529 207.629 21.4522 208.201 21.5065C208.772 21.5609 209.318 21.7682 209.78 22.1065C210.242 22.4447 210.603 22.9011 210.824 23.427C211.027 23.9047 211.107 24.4247 211.058 24.9407C211.009 25.4567 210.833 25.9527 210.544 26.3847C210.255 26.8166 209.864 27.1711 209.404 27.4167C208.944 27.6623 208.43 27.7913 207.907 27.7922V27.7843ZM207.907 22.6354C207.639 22.6365 207.373 22.6909 207.126 22.7953C206.882 22.8977 206.66 23.0468 206.474 23.2341C206.288 23.4214 206.141 23.6432 206.041 23.8869C205.942 24.1306 205.891 24.3914 205.893 24.6544C205.895 24.9174 205.949 25.1775 206.052 25.4197C206.155 25.662 206.306 25.8817 206.494 26.0664C206.683 26.251 206.907 26.397 207.152 26.4959C207.398 26.5948 207.661 26.6448 207.926 26.6429C208.191 26.6411 208.453 26.5874 208.697 26.4851C208.942 26.3833 209.163 26.2347 209.35 26.0477C209.536 25.8607 209.684 25.6391 209.784 25.3954C209.883 25.1518 209.934 24.891 209.932 24.628C209.93 24.365 209.876 24.1049 209.773 23.8627C209.62 23.4953 209.36 23.1815 209.026 22.9615C208.692 22.7414 208.3 22.6251 207.899 22.6275L207.907 22.6354Z" fill="#CCC0B2"/>
<path d="M110.976 170.382C109.353 170.382 107.766 169.904 106.417 169.009C105.067 168.115 104.015 166.843 103.394 165.355C102.773 163.867 102.61 162.23 102.927 160.65C103.244 159.07 104.025 157.62 105.173 156.481C106.321 155.342 107.783 154.566 109.375 154.252C110.967 153.938 112.617 154.099 114.116 154.716C115.616 155.332 116.898 156.376 117.799 157.715C118.701 159.054 119.182 160.628 119.182 162.239C119.18 164.398 118.315 166.468 116.776 167.994C115.238 169.521 113.152 170.379 110.976 170.382ZM110.976 155.239C109.581 155.239 108.217 155.65 107.057 156.419C105.897 157.188 104.992 158.281 104.458 159.56C103.925 160.839 103.785 162.246 104.057 163.604C104.329 164.962 105.001 166.209 105.988 167.188C106.974 168.167 108.231 168.834 109.6 169.104C110.968 169.374 112.386 169.235 113.675 168.706C114.964 168.176 116.066 167.279 116.841 166.127C117.616 164.976 118.03 163.623 118.03 162.239C118.028 160.383 117.284 158.604 115.962 157.291C114.639 155.979 112.846 155.241 110.976 155.239Z" fill="#CCC0B2"/>
<path d="M108.74 166.058H108.708C108.63 166.052 108.554 166.03 108.484 165.994C108.415 165.957 108.354 165.907 108.305 165.846L106.814 164.004C106.731 163.884 106.697 163.738 106.718 163.595C106.739 163.452 106.815 163.322 106.929 163.232C107.043 163.141 107.187 163.097 107.333 163.108C107.478 163.12 107.614 163.185 107.713 163.292L108.8 164.635L114.888 158.583C114.998 158.492 115.137 158.445 115.28 158.452C115.423 158.458 115.558 158.517 115.659 158.617C115.76 158.718 115.819 158.852 115.826 158.993C115.832 159.135 115.785 159.274 115.694 159.382L109.143 165.882C109.091 165.937 109.028 165.98 108.959 166.01C108.89 166.04 108.816 166.057 108.74 166.058Z" fill="#CCC0B2"/>
<path d="M30.1751 182.602L24.3173 179.024H10.2973C9.66433 179.024 9.05728 178.775 8.60936 178.331C8.16144 177.887 7.90927 177.286 7.9082 176.658V166.564C7.90927 165.936 8.16144 165.334 8.60936 164.89C9.05728 164.446 9.66433 164.197 10.2973 164.197H26.94C27.5708 164.2 28.1748 164.451 28.6201 164.894C29.0654 165.338 29.3159 165.938 29.317 166.564V176.805L31.0171 181.938C31.0536 182.05 31.055 182.169 31.0212 182.281C30.9874 182.394 30.9199 182.493 30.8278 182.566C30.7251 182.645 30.5991 182.688 30.4692 182.69C30.3647 182.689 30.2627 182.658 30.1751 182.602ZM10.2973 165.341C9.96955 165.342 9.65558 165.471 9.42386 165.701C9.19214 165.931 9.06149 166.243 9.06043 166.568V176.662C9.06149 176.987 9.19214 177.298 9.42386 177.528C9.65558 177.758 9.96955 177.888 10.2973 177.889H24.4825C24.5892 177.888 24.694 177.917 24.7846 177.973L29.4459 180.819L28.2091 177.077C28.1896 177.021 28.1801 176.961 28.1809 176.901V166.564C28.1788 166.239 28.0471 165.928 27.8146 165.698C27.5821 165.469 27.2677 165.341 26.94 165.341H10.2973Z" fill="#CCC0B2"/>
<path d="M21.8879 171.734C21.8879 172.003 21.9683 172.266 22.1188 172.489C22.2693 172.713 22.4832 172.887 22.7335 172.99C22.9838 173.093 23.2592 173.12 23.5249 173.067C23.7907 173.015 24.0347 172.885 24.2263 172.695C24.4179 172.505 24.5483 172.263 24.6012 171.999C24.654 171.736 24.6269 171.462 24.5232 171.214C24.4195 170.966 24.244 170.753 24.0187 170.604C23.7935 170.455 23.5286 170.375 23.2577 170.375C23.0778 170.375 22.8997 170.41 22.7335 170.478C22.5673 170.547 22.4163 170.647 22.2891 170.773C22.1619 170.899 22.061 171.049 21.9922 171.214C21.9234 171.379 21.8879 171.556 21.8879 171.734Z" fill="#CCC0B2"/>
<path d="M16.9326 171.734C16.9326 172.003 17.013 172.266 17.1635 172.489C17.314 172.713 17.5279 172.887 17.7782 172.99C18.0285 173.093 18.3039 173.12 18.5696 173.067C18.8353 173.015 19.0794 172.885 19.271 172.695C19.4625 172.505 19.593 172.263 19.6458 171.999C19.6987 171.736 19.6716 171.462 19.5679 171.214C19.4642 170.966 19.2887 170.753 19.0634 170.604C18.8381 170.455 18.5733 170.375 18.3024 170.375C18.1225 170.375 17.9444 170.41 17.7782 170.478C17.612 170.547 17.461 170.647 17.3338 170.773C17.2066 170.899 17.1057 171.049 17.0369 171.214C16.968 171.379 16.9326 171.556 16.9326 171.734Z" fill="#CCC0B2"/>
<path d="M11.9934 171.734C11.9926 172.004 12.0726 172.268 12.2233 172.493C12.3739 172.718 12.5884 172.893 12.8396 172.997C13.0908 173.1 13.3674 173.128 13.6342 173.075C13.9011 173.023 14.1463 172.893 14.3386 172.702C14.531 172.511 14.6619 172.268 14.7148 172.003C14.7677 171.738 14.7402 171.464 14.6357 171.215C14.5312 170.965 14.3545 170.753 14.1279 170.603C13.9014 170.454 13.6352 170.374 13.3632 170.375C12.9999 170.375 12.6515 170.518 12.3946 170.773C12.1377 171.028 11.9934 171.374 11.9934 171.734Z" fill="#CCC0B2"/>
<defs>
<linearGradient id="paint0_linear_543_14228" x1="259.981" y1="110.694" x2="199.53" y2="229.363" gradientUnits="userSpaceOnUse">
<stop stop-color="#006D3A"/>
<stop offset="1" stop-color="#00ED85"/>
</linearGradient>
</defs>
</svg>
