<svg width="360" height="374" viewBox="0 0 360 374" fill="none" xmlns="http://www.w3.org/2000/svg">
<path d="M71.0895 264.821C72.0112 264.442 73.02 264.326 74.0036 264.486C74.9873 264.647 75.9071 265.077 76.6609 265.729C77.4147 266.38 77.9728 267.229 78.2731 268.179C78.5735 269.129 78.6042 270.144 78.362 271.111C81.8528 269.538 86.2242 271.622 88.0954 274.94C89.9666 278.258 89.8329 282.417 88.7401 286.08C89.9743 286.129 91.1644 286.552 92.1516 287.294C93.1388 288.037 93.876 289.062 94.2648 290.235C94.6536 291.407 94.6755 292.67 94.3275 293.855C93.9795 295.04 93.2782 296.091 92.3174 296.867C93.7715 296.778 95.2089 297.217 96.366 298.102C97.523 298.987 98.322 300.26 98.6164 301.687C98.9107 303.114 98.6807 304.599 97.9684 305.869C97.2562 307.14 96.1096 308.112 94.7389 308.605C96.2318 309.696 97.3008 311.27 97.7639 313.06C98.227 314.849 98.0556 316.744 97.2789 318.422C96.5022 320.1 95.1682 321.456 93.5038 322.261C91.8395 323.066 89.9477 323.269 88.1504 322.836C88.1196 324.3 87.7085 325.73 86.9573 326.987C86.2061 328.244 85.1408 329.283 83.8662 330.003C82.5915 330.724 81.1513 331.1 79.6873 331.095C78.2232 331.09 76.7856 330.704 75.5159 329.975C74.4191 331.515 72.9985 332.795 71.3538 333.727C69.7091 334.66 67.8803 335.22 65.9958 335.37C64.1113 335.52 62.2169 335.255 60.4456 334.595C58.6742 333.935 57.069 332.894 55.7426 331.547C53.1796 333.12 50.3492 334.621 47.338 334.456C44.3268 334.291 41.2605 331.822 41.5279 328.827C38.8154 329.755 35.7964 330.533 33.1311 329.479C30.4658 328.426 28.7676 324.699 30.6702 322.553C25.8114 323.441 20.7246 319.007 20.9448 314.07C19.6769 314.618 18.271 314.761 16.9187 314.481C15.5663 314.2 14.3333 313.51 13.3877 312.503C12.4421 311.497 11.8299 310.223 11.6346 308.856C11.4393 307.488 11.6704 306.094 12.2964 304.863C9.01001 303.613 7.94076 299.155 9.26946 295.892C10.5982 292.63 13.5858 290.389 16.5577 288.502C15.5352 287.02 14.956 285.277 14.8877 283.478C14.8195 281.678 15.265 279.897 16.1722 278.341C17.0794 276.786 18.4108 275.521 20.0106 274.694C21.6104 273.868 23.4125 273.514 25.206 273.674C24.7935 272.172 24.888 270.576 25.4748 269.134C26.0617 267.691 27.1081 266.482 28.4518 265.695C29.7955 264.907 31.3614 264.585 32.9068 264.778C34.4522 264.972 35.8907 265.669 36.9993 266.763C36.8184 261.928 42.2826 257.824 46.8741 259.333C48.2972 259.797 49.6259 260.694 51.1197 260.646C53.1481 260.583 54.697 258.822 56.6232 258.146C57.3743 257.921 58.1644 257.857 58.9419 257.959C59.7193 258.061 60.4665 258.325 61.1346 258.736C61.8026 259.146 62.3764 259.693 62.8184 260.341C63.2603 260.989 63.5604 261.722 63.6991 262.494C63.6991 261.063 65.2716 259.994 66.7182 260.245C67.4144 260.422 68.0528 260.777 68.5709 261.274C69.0891 261.772 69.4693 262.395 69.6744 263.084C70.0668 264.468 70.2132 265.91 70.1068 267.345" fill="#EBEBEB"/>
<path d="M72.08 306.357C71.9149 306.357 70.4132 318.795 68.7229 334.182C67.0325 349.568 65.7982 362.053 65.9554 362.069C66.1126 362.084 67.6222 349.631 69.3125 334.244C71.0029 318.858 72.2373 306.373 72.08 306.357Z" fill="#E0E0E0"/>
<path d="M69.8475 324.471C69.9812 324.573 72.1433 321.979 74.6906 318.669C77.2379 315.359 79.1956 312.607 79.0698 312.505C78.944 312.403 76.7662 315.005 74.2267 318.307C71.6873 321.609 69.7217 324.377 69.8475 324.471Z" fill="#E0E0E0"/>
<path d="M60.8686 289.43C60.7035 289.43 59.9881 305.665 59.2962 325.69C58.6043 345.715 58.1326 361.974 58.2977 361.974C58.4628 361.974 59.1704 345.754 59.8702 325.714C60.5699 305.673 61.0573 289.43 60.8686 289.43Z" fill="#E0E0E0"/>
<path d="M52.0003 290.215C51.9713 290.458 51.9713 290.703 52.0003 290.946C52.0003 291.481 52.0003 292.173 52.0474 293.029C52.1025 294.916 52.1732 297.519 52.2597 300.695C52.4484 307.166 52.6292 316.113 52.6686 325.988C52.7079 335.862 52.5899 344.81 52.4563 351.288C52.3855 354.472 52.3305 357.067 52.2912 358.954C52.2912 359.811 52.2912 360.526 52.2912 361.037C52.2622 361.28 52.2622 361.525 52.2912 361.768C52.3411 361.53 52.37 361.288 52.3777 361.045C52.3777 360.502 52.4563 359.818 52.5192 358.961C52.6214 357.153 52.7472 354.535 52.8651 351.296C53.101 344.825 53.2897 335.878 53.2504 325.988C53.211 316.097 52.9595 307.118 52.6764 300.679C52.527 297.448 52.3934 294.83 52.2676 293.022C52.2047 292.165 52.1497 291.449 52.1103 290.938C52.095 290.694 52.0581 290.452 52.0003 290.215Z" fill="#E0E0E0"/>
<path d="M48.2423 314.039C48.1008 314.086 48.7061 316.161 50.0663 318.441C51.4264 320.721 52.9517 322.255 53.0618 322.152C53.1718 322.05 51.8903 320.375 50.5773 318.143C49.2644 315.91 48.4074 313.976 48.2423 314.039Z" fill="#E0E0E0"/>
<path d="M35.5606 300.586C35.5591 300.799 35.5882 301.01 35.6471 301.215C35.7493 301.687 35.8672 302.268 36.0166 302.984C36.3704 304.596 36.8579 306.789 37.4397 309.47C38.6426 314.974 40.2386 322.521 41.8267 330.926C43.4149 339.331 44.6807 346.973 45.5534 352.508C45.9858 355.22 46.3396 357.437 46.5912 359.072C46.717 359.788 46.8113 360.378 46.89 360.849C46.9105 361.06 46.9608 361.266 47.0393 361.463C47.062 361.254 47.062 361.043 47.0393 360.834C46.9922 360.362 46.9293 359.764 46.8506 359.041C46.6777 357.469 46.3868 355.228 46.0015 352.453C45.2153 346.894 44.0203 339.236 42.44 330.816C40.8597 322.396 39.1851 314.832 37.8799 309.376C37.2274 306.648 36.677 304.446 36.3075 302.929C36.111 302.229 35.9537 301.647 35.8279 301.191C35.7592 300.981 35.6696 300.778 35.5606 300.586Z" fill="#E0E0E0"/>
<path d="M30.4737 313.282C30.3715 313.4 32.51 315.523 35.2539 318C37.9978 320.476 40.325 322.45 40.4272 322.3C40.5294 322.151 38.3988 320.068 35.647 317.583C32.8953 315.099 30.5838 313.165 30.4737 313.282Z" fill="#E0E0E0"/>
<path d="M37.9822 310.909C38.1316 310.979 39.1694 309.297 40.3409 307.143C41.5123 304.988 42.2828 303.212 42.1413 303.094C41.9998 302.976 40.9541 304.705 39.822 306.867C38.6898 309.029 37.8407 310.83 37.9822 310.909Z" fill="#E0E0E0"/>
<path d="M12.2728 278.273C12.4475 276.424 11.9614 274.572 10.9007 273.046C9.83998 271.52 8.27327 270.42 6.4784 269.939C6.12461 273.438 8.2238 277.44 12.2728 278.273Z" fill="#E0E0E0"/>
<path d="M10.4252 282.085C8.67981 284.861 3.24707 285.521 0 283.728C1.1977 282.173 2.94603 281.136 4.88526 280.83C6.82449 280.524 8.80712 280.974 10.4252 282.085Z" fill="#E0E0E0"/>
<path d="M295.641 213.662H267.502V221.108H295.641V213.662Z" fill="#EBEBEB"/>
<path d="M283.745 228.953C283.739 228.909 283.739 228.864 283.745 228.819V228.434C283.745 228.08 283.745 227.593 283.745 226.972C283.745 225.682 283.745 223.827 283.698 221.507L283.784 221.594L255.638 221.649L255.779 221.507V228.929L255.638 228.788L275.694 228.851H281.614H283.187H283.226H281.654L275.765 228.898L255.614 228.961H255.473V221.397L255.614 221.256L283.761 221.311H283.847V221.397C283.847 223.756 283.847 225.611 283.8 226.901C283.8 227.522 283.8 228.002 283.8 228.348C283.8 228.497 283.8 228.623 283.8 228.717C283.8 228.811 283.745 228.953 283.745 228.953Z" fill="#E0E0E0"/>
<path d="M67.4653 41.3789H39.3267V48.8244H67.4653V41.3789Z" fill="#EBEBEB"/>
<path d="M55.5695 56.7101C55.5639 56.6657 55.5639 56.6208 55.5695 56.5765V56.1912C55.5695 55.8374 55.5695 55.35 55.5695 54.7289C55.5695 53.4395 55.5695 51.584 55.5145 49.2254L55.6088 49.3118L27.4623 49.3669L27.6038 49.2254V56.7101L27.4623 56.5686L47.5029 56.5922L53.4231 56.6315L47.5344 56.6787L27.3837 56.7416H27.2422V49.2489L27.3837 49.1074L55.5302 49.1625H55.6167V49.2489C55.6167 51.6076 55.5774 53.4631 55.5617 54.7524C55.5617 55.3736 55.5617 55.8531 55.5617 56.1991C55.5617 56.3485 55.5617 56.4743 55.5617 56.5686C55.5617 56.6629 55.5695 56.7101 55.5695 56.7101Z" fill="#E0E0E0"/>
<path d="M187.929 103.41H159.791V110.856H187.929V103.41Z" fill="#EBEBEB"/>
<path d="M183.346 32.6668C183.342 32.6223 183.342 32.5776 183.346 32.5331V32.1558C183.346 31.802 183.346 31.3145 183.346 30.6855C183.346 29.404 183.346 27.5407 183.298 25.2213L183.385 25.3078L155.215 25.3707C155.278 25.3078 155.065 25.5122 155.356 25.2213V28.9952C155.356 30.2374 155.356 31.456 155.356 32.6511L155.223 32.5096L175.279 32.5803L181.191 32.6196H182.764H183.33C183.33 32.6196 183.29 32.6196 183.204 32.6196H182.803H181.231L175.342 32.6589L155.215 32.8083H155.073V29.0109C155.073 28.3898 155.073 27.7608 155.073 27.1319V25.2607L155.223 25.1191L183.361 25.1742H183.448V25.2607C183.448 27.6193 183.448 29.4826 183.401 30.7642C183.401 31.3774 183.401 31.8649 183.401 32.2108V32.5725C183.353 32.6354 183.353 32.6747 183.346 32.6668Z" fill="#E0E0E0"/>
<path d="M187.159 25.2607C187.159 25.2607 187.159 25.2136 187.159 25.1192C187.159 25.0249 187.159 24.8833 187.159 24.7261C187.159 24.3644 187.159 23.8613 187.159 23.2323C187.159 21.9272 187.159 20.0874 187.104 17.8153L187.206 17.9253L170.302 17.9647C170.176 18.0904 170.475 17.7838 170.444 17.8231V21.6441C170.444 22.8942 170.444 24.0971 170.444 25.2529L170.31 25.1192L182.402 25.1821H185.924H186.876H187.214C187.112 25.1939 187.009 25.1939 186.907 25.1821H185.987H182.496L170.31 25.245H170.153V17.7917C170.153 17.7917 170.42 17.5165 170.294 17.6423L187.198 17.6816H187.308V17.7838C187.308 20.0796 187.261 21.9429 187.253 23.2873C187.253 23.9084 187.253 24.3959 187.253 24.7575C187.233 24.9273 187.202 25.0954 187.159 25.2607Z" fill="#E0E0E0"/>
<path d="M178.329 272.456C178.329 272.456 178.329 272.409 178.329 272.322C178.329 272.236 178.329 272.094 178.329 271.937C178.329 271.591 178.329 271.104 178.329 270.475C178.329 269.185 178.329 267.33 178.274 265.01L178.369 265.097L150.222 265.152L150.364 265.01V272.44L150.222 272.299L170.279 272.361L176.199 272.401H177.771H177.811H176.238L170.349 272.44L150.199 272.503H150.057V265.058L150.199 264.916L178.345 264.971H178.432V265.058C178.432 267.416 178.432 269.272 178.384 270.561C178.384 271.182 178.384 271.662 178.384 272.008C178.384 272.165 178.384 272.283 178.384 272.377C178.384 272.472 178.329 272.456 178.329 272.456Z" fill="#E0E0E0"/>
<path d="M182.142 265.01C182.142 265.01 182.142 264.963 182.142 264.869C182.142 264.774 182.142 264.633 182.142 264.475C182.142 264.106 182.142 263.611 182.142 262.982C182.142 261.676 182.142 259.837 182.087 257.565L182.19 257.667H165.278C165.152 257.8 165.451 257.494 165.42 257.525V264.955L165.278 264.821L177.378 264.884H180.9H181.852H182.19C182.088 264.897 181.985 264.897 181.883 264.884H180.963H177.465L165.278 264.947H165.145V264.806C165.145 263.65 165.145 262.447 165.145 261.197V257.376L165.286 257.234H182.198H182.3V257.337C182.3 259.632 182.3 261.496 182.245 262.84C182.245 263.461 182.245 263.949 182.245 264.31C182.233 264.546 182.198 264.781 182.142 265.01Z" fill="#E0E0E0"/>
<path d="M54.2961 216.068C54.2961 216.068 54.2961 216.021 54.2961 215.934C54.2961 215.848 54.2961 215.706 54.2961 215.549C54.2961 215.203 54.2961 214.716 54.2961 214.087C54.2961 212.805 54.2961 210.942 54.2411 208.622L54.3276 208.709L26.1889 208.764C26.2518 208.701 26.0474 208.913 26.3304 208.622V216.052L26.1889 215.911L46.2453 215.974L52.1655 216.021H53.7379H54.304C54.304 216.021 54.304 216.021 54.1782 216.021H53.7929H52.2205L46.3318 216.06L26.1811 216.123H26.0396V208.552L26.1811 208.41L54.3197 208.465H54.4141V208.552C54.4141 210.91 54.3747 212.774 54.359 214.055C54.359 214.668 54.359 215.156 54.359 215.502C54.359 215.651 54.359 215.769 54.359 215.863C54.359 215.958 54.304 216.076 54.2961 216.068Z" fill="#E0E0E0"/>
<path d="M58.1169 208.622C58.1169 208.622 58.1169 208.575 58.1169 208.481C58.1169 208.387 58.1169 208.245 58.1169 208.088C58.1169 207.718 58.1169 207.223 58.1169 206.594C58.1169 205.289 58.1169 203.449 58.0618 201.177L58.164 201.279L41.2132 201.326L41.3548 201.177V208.607L41.2132 208.473L53.3131 208.536L56.8353 208.575H57.7867H58.1247C58.0229 208.588 57.9199 208.588 57.8181 208.575H56.8982H53.3996L41.2132 208.764H41.0796V208.622C41.0796 207.467 41.0796 206.264 41.0796 205.014V201.193C41.0796 201.193 41.3548 200.925 41.2211 201.051L58.1326 201.091H58.2348V201.193C58.2348 203.488 58.2348 205.352 58.1798 206.696C58.1798 207.317 58.1798 207.805 58.1798 208.166C58.1681 208.32 58.1471 208.472 58.1169 208.622Z" fill="#E0E0E0"/>
<path d="M28.4372 154.907C28.4339 154.863 28.4339 154.818 28.4372 154.774V154.396C28.4372 154.042 28.4372 153.555 28.4372 152.926C28.4372 151.644 28.4372 149.781 28.39 147.462L28.4765 147.556L0.329995 147.611L0.471514 147.47V154.899L0.329995 154.766L20.3863 154.829L26.2987 154.868H27.8711H28.4372C28.4372 154.868 28.4372 154.868 28.3114 154.868H27.9104H26.338L20.4492 154.907L0.329995 155.049H0.188477V151.251C0.188477 150.63 0.188477 150.001 0.188477 149.372V147.478L0.337858 147.328L28.4765 147.383H28.563V147.47C28.563 149.828 28.563 151.692 28.5158 152.973C28.5158 153.586 28.5158 154.074 28.5158 154.42V154.781C28.445 154.876 28.445 154.915 28.4372 154.907Z" fill="#E0E0E0"/>
<path d="M287.134 321.522C287.13 321.478 287.13 321.433 287.134 321.389C287.134 321.287 287.134 321.161 287.134 321.004C287.134 320.658 287.134 320.17 287.134 319.541C287.134 318.26 287.134 316.396 287.087 314.077L287.173 314.163L259.034 314.218C259.097 314.156 258.893 314.368 259.176 314.077V321.507L259.034 321.365L279.091 321.428H285.003H286.575H287.142C287.142 321.428 287.102 321.428 287.016 321.428H286.615H285.042L279.154 321.467L258.995 321.664H258.854V317.859C258.854 317.238 258.854 316.616 258.854 315.98V314.093L259.003 313.951L287.142 314.006H287.228V314.093C287.228 316.451 287.228 318.315 287.181 319.596C287.181 320.209 287.181 320.689 287.181 321.035V321.404C287.142 321.483 287.142 321.522 287.134 321.522Z" fill="#E0E0E0"/>
<path d="M328.064 175.625H315.681V365.716H328.064V175.625Z" fill="#EBEBEB"/>
<path d="M324.966 61.1211H318.771V192.065H324.966V61.1211Z" fill="#EBEBEB"/>
<path d="M331.217 175.626H312.395C312.053 175.626 311.725 175.49 311.483 175.248C311.241 175.006 311.105 174.678 311.105 174.336C311.105 174.167 311.139 174 311.204 173.844C311.269 173.688 311.364 173.546 311.484 173.427C311.603 173.308 311.746 173.214 311.902 173.15C312.058 173.086 312.226 173.054 312.395 173.055H331.217C331.557 173.055 331.883 173.19 332.123 173.43C332.363 173.67 332.498 173.996 332.498 174.336C332.498 174.677 332.364 175.004 332.123 175.245C331.883 175.487 331.557 175.624 331.217 175.626Z" fill="#EBEBEB"/>
<path d="M301.356 29.6395L311.081 57.9433C311.858 60.1932 313.316 62.1451 315.254 63.5275C317.192 64.9098 319.512 65.6538 321.892 65.656C324.361 65.665 326.768 64.8751 328.751 63.4043C330.735 61.9335 332.19 59.8607 332.899 57.4951L341.209 29.5059L301.356 29.6395Z" fill="#EBEBEB"/>
<path d="M295.161 28.4934C296.626 29.0234 298.123 29.4619 299.642 29.8063H342.656L346.225 28.8157L335.737 25.435L332.899 18.9723L330.91 18.076C330.91 18.076 328.394 9.13674 321.475 9.21536C314.557 9.29398 311.333 18.1153 311.333 18.1153L308.896 18.9723L305.617 25.317L295.161 28.4934Z" fill="#EBEBEB"/>
<path d="M323.999 6.51059C323.999 6.96465 323.865 7.40851 323.612 7.78604C323.36 8.16357 323.001 8.45783 322.582 8.63159C322.163 8.80535 321.701 8.85081 321.256 8.76223C320.81 8.67365 320.401 8.455 320.08 8.13393C319.759 7.81287 319.54 7.4038 319.452 6.95847C319.363 6.51314 319.409 6.05154 319.582 5.63205C319.756 5.21255 320.05 4.85401 320.428 4.60175C320.806 4.34949 321.249 4.21484 321.703 4.21484C322.312 4.21692 322.894 4.45945 323.325 4.88954C323.755 5.31963 323.997 5.90236 323.999 6.51059Z" fill="#EBEBEB"/>
<path d="M323.221 1.51741C323.222 1.81975 323.134 2.11572 322.967 2.36775C322.8 2.61978 322.562 2.81649 322.283 2.93291C322.004 3.04932 321.697 3.08019 321.4 3.02159C321.103 2.96299 320.831 2.81756 320.617 2.60378C320.403 2.38999 320.258 2.1175 320.199 1.8209C320.141 1.52429 320.172 1.21697 320.288 0.937946C320.404 0.658923 320.601 0.420792 320.853 0.253794C321.105 0.0867965 321.401 -0.00153426 321.704 2.01685e-05C322.106 2.01685e-05 322.492 0.159888 322.776 0.444455C323.061 0.729022 323.221 1.11498 323.221 1.51741Z" fill="#EBEBEB"/>
<path d="M322.269 1.51758H321.129V9.2618H322.269V1.51758Z" fill="#EBEBEB"/>
<path d="M304.595 29.7031L313.534 55.9234C314.082 57.523 315.024 58.9588 316.273 60.098C317.522 61.2372 319.038 62.0431 320.681 62.4411L320.516 29.8446L304.595 29.7031Z" fill="white"/>
<path d="M338.976 29.7031L330.069 55.9234C329.521 57.523 328.58 58.9588 327.33 60.098C326.081 61.2372 324.565 62.0431 322.922 62.4411L323.999 29.8368L338.976 29.7031Z" fill="white"/>
<path d="M345.793 28.9475C345.625 28.9835 345.454 28.9994 345.282 28.9947L343.812 29.0419L338.387 29.1205L320.508 29.1912C313.519 29.1912 307.198 29.2305 302.614 29.089C300.326 29.0183 298.479 28.8767 297.197 28.7431C296.56 28.6802 296.073 28.6173 295.735 28.5623C295.564 28.5501 295.395 28.5185 295.231 28.4679C295.401 28.4456 295.573 28.4456 295.742 28.4679L297.213 28.5623C298.494 28.6409 300.358 28.7274 302.622 28.7588C307.198 28.8139 313.519 28.7116 320.508 28.7588H338.387L343.804 28.8217L345.282 28.861C345.455 28.8692 345.627 28.8982 345.793 28.9475Z" fill="#E0E0E0"/>
<path d="M335.722 25.435C335.722 25.5687 328.968 25.6709 320.634 25.6709C312.3 25.6709 305.547 25.5687 305.547 25.435C305.547 25.3014 312.3 25.207 320.634 25.207C328.968 25.207 335.722 25.3092 335.722 25.435Z" fill="#E0E0E0"/>
<path d="M332.781 18.9715C332.488 19.0864 332.181 19.1655 331.869 19.2073C331.279 19.3331 330.415 19.4746 329.345 19.6162C326.55 19.9727 323.735 20.1538 320.917 20.1586C318.091 20.1571 315.267 20.0049 312.457 19.7026C311.38 19.5847 310.515 19.4668 309.918 19.3646C309.604 19.3394 309.295 19.2733 308.998 19.168C309.311 19.1269 309.628 19.1269 309.941 19.168L312.481 19.3567C314.627 19.5061 317.599 19.6633 320.886 19.6555C324.172 19.6476 327.136 19.4668 329.275 19.2545C331.413 19.0422 332.765 18.885 332.781 18.9715Z" fill="#E0E0E0"/>
<path d="M331.075 18.1387C330.829 18.2626 330.563 18.3425 330.289 18.3745C329.802 18.5003 329.078 18.6497 328.182 18.7991C325.843 19.1861 323.477 19.3885 321.106 19.4045C318.738 19.4207 316.372 19.2498 314.03 18.8934C313.134 18.7519 312.41 18.6183 311.915 18.5003C311.643 18.4651 311.378 18.3882 311.129 18.2723C312.103 18.3186 313.074 18.4183 314.038 18.5711C316.369 18.8334 318.713 18.9594 321.059 18.9485C323.404 18.9269 325.745 18.7694 328.072 18.4767C329.066 18.3078 330.069 18.195 331.075 18.1387Z" fill="#E0E0E0"/>
<path d="M327.396 64.5726C326.921 64.9019 326.387 65.1368 325.823 65.2644C323.196 66.0681 320.379 65.9964 317.796 65.06C317.252 64.8973 316.744 64.6303 316.302 64.2738C316.349 64.1323 318.661 65.2801 321.806 65.343C324.951 65.4059 327.333 64.3996 327.396 64.5726Z" fill="#E0E0E0"/>
<path d="M329.487 175.618C327.046 175.845 324.594 175.921 322.144 175.846C319.693 175.921 317.241 175.845 314.8 175.618C317.241 175.39 319.693 175.314 322.144 175.39C324.594 175.314 327.046 175.39 329.487 175.618Z" fill="#E0E0E0"/>
<path d="M359.898 126.777C359.893 126.73 359.893 126.683 359.898 126.636C359.898 126.541 359.898 126.416 359.898 126.258C359.898 125.905 359.898 125.417 359.898 124.796C359.898 123.507 359.898 121.651 359.843 119.332L359.937 119.418L331.791 119.473L331.932 119.332V126.769L331.791 126.628L351.847 126.691H357.767H359.34H359.764H359.913H359.379H357.806L351.918 126.73L331.767 126.793H331.625V119.214L331.767 119.064L359.913 119.127H360V119.214C360 121.572 359.961 123.428 359.953 124.717C359.953 125.338 359.953 125.818 359.953 126.164C359.953 126.313 359.953 126.431 359.953 126.533C359.953 126.636 359.898 126.777 359.898 126.777Z" fill="#E0E0E0"/>
<path d="M347.051 361.133H10.6294V369.349H347.051" fill="#F5F5F5"/>
<path d="M347.051 369.348H345.321H340.258H320.752L248.884 369.395L10.6609 369.442H10.3071V360.975H10.6609L248.884 361.022L320.736 361.069H340.234H345.298H347.027C347.027 361.069 346.445 361.069 345.298 361.069H340.234H320.736L248.884 361.116L10.6609 361.163L11.0147 361.006V369.222L10.6609 369.073L248.884 369.112L320.752 369.159H340.258H345.321C346.445 369.332 347.051 369.348 347.051 369.348Z" fill="#263238"/>
<path d="M76.7583 369.67C76.5591 366.877 76.5591 364.074 76.7583 361.281C76.9574 364.074 76.9574 366.877 76.7583 369.67Z" fill="#263238"/>
<path d="M111.682 369.67C111.482 366.877 111.482 364.074 111.682 361.281C111.881 364.074 111.881 366.877 111.682 369.67Z" fill="#263238"/>
<path d="M146.605 369.67C146.396 366.878 146.396 364.074 146.605 361.281C146.805 364.074 146.805 366.877 146.605 369.67Z" fill="#263238"/>
<path d="M181.521 369.67C181.322 366.877 181.322 364.074 181.521 361.281C181.721 364.074 181.721 366.877 181.521 369.67Z" fill="#263238"/>
<path d="M215.517 369.67C215.307 366.878 215.307 364.074 215.517 361.281C215.716 364.074 215.716 366.877 215.517 369.67Z" fill="#263238"/>
<path d="M249.505 369.67C249.306 366.877 249.306 364.074 249.505 361.281C249.704 364.074 249.704 366.877 249.505 369.67Z" fill="#263238"/>
<path d="M283.493 369.67C283.294 366.877 283.294 364.074 283.493 361.281C283.692 364.074 283.692 366.877 283.493 369.67Z" fill="#263238"/>
<path d="M319.132 369.875C318.933 367.082 318.933 364.279 319.132 361.486C319.331 364.279 319.331 367.082 319.132 369.875Z" fill="#263238"/>
<path d="M44.8925 369.67C44.6934 366.877 44.6934 364.074 44.8925 361.281C45.0917 364.074 45.0917 366.877 44.8925 369.67Z" fill="#263238"/>
<path d="M347.177 369.914C346.978 367.119 346.978 364.313 347.177 361.518C347.376 364.313 347.376 367.119 347.177 369.914Z" fill="#263238"/>
<path d="M282.503 110.659L278.965 101.854C273.48 101.19 268.441 98.4985 264.839 94.3082C261.238 90.1178 259.334 84.7318 259.502 79.2089C259.67 73.686 261.898 68.4258 265.748 64.4621C269.597 60.4985 274.79 58.1183 280.306 57.7893C285.822 57.4603 291.261 59.2064 295.554 62.6844C299.848 66.1623 302.685 71.1205 303.509 76.5843C304.332 82.0481 303.082 87.6222 300.004 92.2109C296.926 96.7996 292.242 100.071 286.875 101.382L282.503 110.659Z" fill="white"/>
<path fill-rule="evenodd" clip-rule="evenodd" d="M278.943 88.9404C278.396 88.5975 277.914 88.1241 277.188 88.173C276.902 88.173 276.967 87.969 276.959 87.822C276.959 85.0628 276.959 82.3036 276.959 79.5445C276.943 79.4515 276.956 79.3558 276.997 79.2708C277.038 79.1858 277.105 79.1159 277.188 79.071C279.294 78.0016 280.2 75.9118 281.482 74.124C282.14 73.2349 282.613 72.2225 282.873 71.1468C283.132 70.0712 283.173 68.9544 282.992 67.8628C282.96 67.7448 282.955 67.6211 282.977 67.5009C282.999 67.3807 283.048 67.2671 283.12 67.1684C283.193 67.0696 283.286 66.9883 283.394 66.9305C283.501 66.8727 283.621 66.8398 283.743 66.8343C284.023 66.7339 284.328 66.7274 284.612 66.8157C284.897 66.9041 285.144 67.0825 285.318 67.324C285.931 68.4467 286.343 69.6678 286.535 70.9322C286.54 71.9752 286.413 73.0146 286.159 74.0261C286.069 74.7853 285.898 75.5363 285.751 76.3036C285.939 76.4343 286.151 76.3689 286.355 76.3689H293.343C294.322 76.3689 294.804 76.6465 294.975 77.2996C295.042 77.7031 294.974 78.1173 294.782 78.4785C294.59 78.8397 294.285 79.1282 293.914 79.2996C293.743 79.3894 293.433 79.2996 293.408 79.5853C293.384 79.871 293.71 79.8302 293.873 79.9445C294.69 80.5159 294.567 81.7077 293.596 82.3934C293.359 82.5567 292.902 82.4832 292.894 82.8261C292.886 83.169 293.318 83.1036 293.506 83.2914C293.66 83.4846 293.766 83.7111 293.816 83.9528C293.866 84.1946 293.858 84.4447 293.794 84.683C293.73 84.9213 293.61 85.1411 293.445 85.3248C293.281 85.5085 293.075 85.6508 292.845 85.7404C292.703 85.7835 292.564 85.8353 292.428 85.8955C292.314 85.9771 292.2 86.0669 292.428 86.222C292.655 86.3364 292.846 86.5114 292.979 86.7275C293.112 86.9437 293.182 87.1926 293.182 87.4465C293.182 87.7004 293.112 87.9493 292.979 88.1655C292.846 88.3817 292.655 88.5567 292.428 88.671L292.118 88.8914C291.751 89.1135 291.32 89.2082 290.894 89.1608H279.939C279.766 89.1937 279.589 89.1911 279.418 89.1532C279.247 89.1153 279.085 89.0429 278.943 88.9404Z" fill="#00ED85"/>
<path fill-rule="evenodd" clip-rule="evenodd" d="M268.543 84.1158C268.543 82.3607 268.543 80.6138 268.543 78.8587C268.543 78.5076 268.543 78.328 269.016 78.3362C271.144 78.3362 273.28 78.3362 275.424 78.3362C275.841 78.3362 275.906 78.475 275.906 78.8505C275.906 82.377 275.906 85.9144 275.906 89.4627C275.906 89.9117 275.792 90.0423 275.343 90.0342C273.269 90.0342 271.196 90.0342 269.122 90.0342C268.608 90.0342 268.534 89.8627 268.543 89.4138C268.608 87.6178 268.551 85.8709 268.543 84.1158Z" fill="#00ED85"/>
<path d="M282.503 110.66C282.716 110.188 284.076 107.263 286.82 101.351L286.883 101.453C286.873 101.453 286.864 101.451 286.856 101.448C286.847 101.444 286.839 101.439 286.833 101.432C286.826 101.426 286.821 101.418 286.817 101.409C286.814 101.401 286.812 101.392 286.812 101.382C286.813 101.366 286.819 101.351 286.828 101.338C286.838 101.326 286.852 101.316 286.867 101.311C288.576 100.886 290.231 100.263 291.797 99.456C293.646 98.4815 295.35 97.2536 296.86 95.8079C297.697 95.0061 298.462 94.1327 299.148 93.1977C299.494 92.7103 299.855 92.2228 300.201 91.7118L301.129 90.0922C303.702 85.1108 304.281 79.3364 302.749 73.9433C301.911 70.9579 300.445 68.1861 298.448 65.8139C296.325 63.3206 293.678 61.3261 290.696 59.9723C287.587 58.5462 284.183 57.8831 280.766 58.0382L279.445 58.1247C279.005 58.1247 278.572 58.2505 278.14 58.3055C277.708 58.3605 277.267 58.4234 276.851 58.5414L275.585 58.8716C275.165 58.9767 274.752 59.1107 274.35 59.2725L273.132 59.7207L271.976 60.2789C271.582 60.4469 271.201 60.644 270.836 60.8686C267.941 62.5294 265.456 64.8185 263.564 67.5671C261.767 70.1573 260.56 73.1091 260.026 76.2155C259.09 81.8205 260.336 87.5712 263.509 92.2857C264.882 94.2625 266.553 96.0154 268.462 97.4826C271.534 99.8037 275.161 101.278 278.981 101.76C278.994 101.762 279.006 101.767 279.015 101.776C279.025 101.784 279.032 101.795 279.036 101.807C281.253 107.436 282.323 110.172 282.511 110.636L278.91 101.854L278.966 101.901C275.11 101.441 271.444 99.9743 268.336 97.6477C266.409 96.169 264.717 94.4061 263.32 92.4194C260.096 87.6581 258.824 81.8406 259.766 76.1683C260.305 73.0202 261.532 70.0297 263.359 67.4099C265.266 64.6354 267.77 62.3225 270.687 60.6406C271.057 60.4156 271.44 60.2135 271.835 60.0352L273.014 59.477L274.248 59.021C274.655 58.8591 275.073 58.7251 275.498 58.62L276.78 58.2819C277.204 58.164 277.653 58.1247 278.085 58.046C278.517 57.9674 278.966 57.8809 279.406 57.8574L280.75 57.7709C284.21 57.6121 287.658 58.2834 290.806 59.7285C293.832 61.1003 296.517 63.1248 298.668 65.6566C300.615 67.985 302.065 70.6871 302.929 73.5968C303.793 76.5065 304.053 79.5622 303.692 82.576C303.371 85.2442 302.572 87.8328 301.333 90.218L300.39 91.8533C300.044 92.3722 299.674 92.8596 299.321 93.355C298.617 94.2983 297.827 95.1747 296.962 95.9731C295.438 97.4344 293.712 98.6683 291.836 99.6368C290.255 100.444 288.585 101.061 286.859 101.477V101.335C286.878 101.335 286.896 101.343 286.909 101.356C286.922 101.369 286.93 101.387 286.93 101.406L282.503 110.66Z" fill="#263238"/>
<path d="M81.6091 127.641L76.7582 119.103C79.7678 114.242 80.8504 108.431 79.7933 102.812C78.7361 97.1935 75.6156 92.1734 71.0452 88.7385C66.4747 85.3037 60.7847 83.7025 55.0937 84.2497C49.4026 84.797 44.122 87.453 40.2898 91.6958C36.4575 95.9387 34.3508 101.461 34.3837 107.179C34.4165 112.896 36.5866 118.394 40.4673 122.593C44.3481 126.791 49.6589 129.386 55.3558 129.868C61.0528 130.35 66.724 128.683 71.2547 125.196L81.6091 127.641Z" fill="#FAFAFA"/>
<path d="M73.3164 110.315C75.3508 101.821 70.1146 93.2865 61.6211 91.252C53.1276 89.2176 44.593 94.4538 42.5586 102.947C40.5242 111.441 45.7603 119.975 54.2539 122.01C62.7474 124.044 71.282 118.808 73.3164 110.315Z" fill="#12CF73"/>
<path d="M52.0361 112.702V100.564L66.5145 106.636L52.0361 112.702Z" fill="white"/>
<path d="M81.6093 127.642L71.2549 125.283H71.1527L71.2156 125.197L71.3178 125.299C69.8605 126.422 68.2775 127.372 66.6005 128.129C64.6 129.022 62.4818 129.623 60.3108 129.914C59.1129 130.081 57.9029 130.144 56.6942 130.102C56.0731 130.063 55.4362 130.047 54.7994 129.992L52.8732 129.702C47.1165 128.579 42.0063 125.3 38.5876 120.534C36.6894 117.901 35.3735 114.894 34.7273 111.713C34.0783 108.335 34.1857 104.855 35.0418 101.524C35.8996 98.0334 37.5789 94.7987 39.9399 92.089L40.8755 91.059C41.1821 90.7131 41.5517 90.4301 41.8819 90.1077C42.2111 89.7901 42.5576 89.4909 42.9197 89.2114L44.0125 88.3859C44.3735 88.109 44.7545 87.8594 45.1525 87.639L46.3083 86.9314L47.519 86.3418C47.916 86.1352 48.3256 85.954 48.7455 85.7993C51.9917 84.5163 55.4846 83.9789 58.9663 84.2268C62.2771 84.4463 65.4986 85.3939 68.4009 87.0022C73.5979 89.8989 77.4803 94.6851 79.2428 100.368C79.9539 102.779 80.2906 105.284 80.2413 107.798C80.1779 109.979 79.7992 112.14 79.117 114.213C78.5472 115.937 77.7794 117.588 76.8291 119.135V119.064L81.6172 127.634L76.7112 119.127C77.6465 117.586 78.401 115.943 78.9598 114.229C79.6238 112.166 79.9892 110.019 80.0447 107.853C80.0838 105.363 79.7445 102.882 79.0384 100.494C77.2711 94.8827 73.4186 90.1636 68.2751 87.3088C65.4152 85.7272 62.2427 84.7932 58.982 84.5728C55.534 84.3317 52.0758 84.8691 48.8635 86.1452C48.4496 86.2992 48.0453 86.4777 47.6527 86.6798L46.4498 87.2695L45.3098 87.9614C44.9181 88.181 44.5424 88.4279 44.1855 88.7004L43.1005 89.4866C42.731 89.7461 42.4244 90.0763 42.0784 90.375C41.7325 90.6738 41.3866 90.9726 41.0878 91.3106L40.1679 92.3249C37.8402 94.9891 36.18 98.1692 35.3248 101.602C34.4972 104.891 34.4032 108.321 35.0497 111.65C35.6694 114.69 36.9032 117.572 38.6755 120.119C40.4478 122.666 42.7214 124.825 45.3569 126.462C47.6922 127.917 50.2701 128.94 52.9675 129.481L54.878 129.772C55.5148 129.827 56.1359 129.843 56.7571 129.882C57.9549 129.933 59.1548 129.875 60.3422 129.709C62.4885 129.43 64.5831 128.842 66.5612 127.964C68.2367 127.22 69.8198 126.283 71.2784 125.173L71.703 124.851L71.3728 125.275V125.165L81.6093 127.642Z" fill="#263238"/>
<path d="M210.988 333.361L210.674 351.083C210.674 351.083 228.584 357.372 228.843 360.635L194.462 361.264L193.817 333.629L210.988 333.361Z" fill="#12CF73"/>
<path d="M200.029 349.786C199.699 349.891 199.42 350.115 199.246 350.414C199.072 350.713 199.014 351.067 199.085 351.405C199.178 351.734 199.392 352.015 199.684 352.192C199.976 352.368 200.324 352.427 200.658 352.357C201.006 352.243 201.3 352.004 201.483 351.686C201.666 351.368 201.725 350.994 201.648 350.635C201.51 350.301 201.248 350.032 200.917 349.886C200.587 349.74 200.212 349.726 199.872 349.849" fill="#E0E0E0"/>
<path d="M194.462 361.266L194.509 358.475L227.459 358.915C227.459 358.915 229.032 359.552 228.843 360.637L194.462 361.266Z" fill="#263238"/>
<path d="M211.232 350.902C211.232 351.068 210.391 351.162 209.573 351.689C208.755 352.215 208.331 352.962 208.173 352.899C208.016 352.837 208.252 351.854 209.251 351.201C210.249 350.549 211.263 350.753 211.232 350.902Z" fill="#263238"/>
<path d="M214.865 352.326C214.904 352.491 214.181 352.79 213.63 353.505C213.08 354.221 212.915 354.983 212.75 354.976C212.585 354.968 212.459 354.024 213.166 353.144C213.874 352.263 214.857 352.169 214.865 352.326Z" fill="#263238"/>
<path d="M216.995 356.603C216.838 356.643 216.594 355.817 216.995 354.882C217.396 353.946 218.19 353.576 218.261 353.71C218.331 353.844 217.86 354.355 217.53 355.117C217.199 355.88 217.16 356.588 216.995 356.603Z" fill="#263238"/>
<path d="M210.855 346.823C210.784 346.98 210.014 346.76 209.062 346.823C208.111 346.886 207.38 347.216 207.293 347.075C207.207 346.933 207.899 346.288 209.023 346.241C210.147 346.194 210.934 346.721 210.855 346.823Z" fill="#263238"/>
<path d="M191.003 323.912L178.699 336.673C178.699 336.673 187.536 353.458 185.491 356.037L159.932 333.08L178.282 312.41L191.003 323.912Z" fill="#12CF73"/>
<path d="M171.78 328.464C171.465 328.316 171.108 328.29 170.776 328.39C170.443 328.49 170.16 328.709 169.979 329.006C169.824 329.315 169.792 329.671 169.89 330.003C169.987 330.334 170.208 330.616 170.506 330.791C170.839 330.943 171.217 330.967 171.566 330.859C171.916 330.75 172.213 330.516 172.401 330.201C172.53 329.859 172.52 329.479 172.373 329.144C172.226 328.809 171.954 328.545 171.615 328.408" fill="#E0E0E0"/>
<path d="M159.932 333.079L161.866 331.066L185.688 353.867C185.688 353.867 186.38 355.384 185.531 356.068L159.932 333.079Z" fill="#263238"/>
<path d="M179.233 336.917C179.115 337.035 178.447 336.531 177.464 336.382C176.481 336.233 175.687 336.461 175.616 336.311C175.546 336.162 176.403 335.604 177.558 335.808C178.714 336.013 179.359 336.822 179.233 336.917Z" fill="#263238"/>
<path d="M180.916 340.43C180.837 340.579 180.13 340.304 179.21 340.43C178.29 340.555 177.684 341.027 177.566 340.909C177.449 340.791 177.999 340.013 179.139 339.848C180.279 339.683 181.026 340.312 180.916 340.43Z" fill="#263238"/>
<path d="M179.587 345.014C179.446 344.935 179.831 344.157 180.766 343.764C181.702 343.371 182.535 343.614 182.496 343.764C182.457 343.913 181.765 343.952 181.002 344.29C180.24 344.628 179.697 345.116 179.587 345.014Z" fill="#263238"/>
<path d="M181.71 333.692C181.553 333.763 181.136 333.071 180.389 332.489C179.642 331.907 178.887 331.632 178.919 331.467C178.95 331.302 179.878 331.326 180.751 332.033C181.623 332.741 181.859 333.653 181.71 333.692Z" fill="#263238"/>
<path d="M258.806 141.273L243.687 151.258L243.907 155.189L247.838 163.515C247.838 163.515 249.662 165.245 255.016 159.82C260.37 154.395 267.14 143.616 267.14 143.616L258.806 141.273Z" fill="#BA7F72"/>
<path d="M284.256 120.47C284.168 120.274 284.032 120.104 283.86 119.976C283.688 119.848 283.486 119.767 283.273 119.739L275.867 118.749C275.545 118.711 275.22 118.739 274.91 118.833C274.6 118.926 274.313 119.082 274.066 119.291L252.838 137.508L253.798 138.443L261.754 140.354L284.389 120.801L284.256 120.47Z" fill="#263238"/>
<path d="M278.375 121.965C278.462 122.044 278.576 122.088 278.693 122.088C278.811 122.088 278.925 122.044 279.012 121.965C279.064 121.941 279.112 121.907 279.151 121.865C279.19 121.823 279.221 121.773 279.241 121.719C279.26 121.664 279.269 121.607 279.266 121.549C279.263 121.492 279.249 121.435 279.224 121.383C279.144 121.297 279.035 121.245 278.918 121.237C278.8 121.23 278.685 121.268 278.595 121.344C278.538 121.368 278.487 121.404 278.445 121.449C278.402 121.494 278.37 121.548 278.349 121.606C278.328 121.664 278.32 121.726 278.324 121.788C278.329 121.85 278.346 121.91 278.375 121.965Z" fill="white"/>
<path d="M284.405 120.8C283.918 120.805 283.431 120.768 282.951 120.69L279.02 120.226L276.299 119.888C276.073 119.847 275.84 119.855 275.617 119.914C275.394 119.972 275.187 120.079 275.01 120.226L273.799 121.272L268.382 125.942C264.522 129.244 261.015 132.232 258.468 134.347L255.425 136.862C255.064 137.181 254.681 137.473 254.277 137.735C254.593 137.372 254.94 137.038 255.315 136.737L258.256 134.119C260.756 131.925 264.231 128.914 268.083 125.612L273.532 120.973L274.758 119.927C274.977 119.752 275.23 119.626 275.501 119.557C275.772 119.488 276.055 119.477 276.331 119.526L279.051 119.927L282.982 120.525C283.462 120.585 283.937 120.677 284.405 120.8Z" fill="#455A64"/>
<path d="M276.7 124.606C276.7 124.606 276.032 124.283 275.128 126.115C274.224 127.947 271.37 133.191 271.37 133.191L268.225 130.172L263.398 129.473C263.398 129.473 262.116 130.125 262.722 130.841C263.327 131.556 266.118 132.916 266.118 132.916L267.415 136.643L262.022 131.925C262.022 131.925 259.789 131.886 260.048 133.325C260.308 134.764 263.39 139.913 263.39 139.913L260.331 138.797L257.25 135.503C257.25 135.503 256.094 135.235 256.251 136.328C256.408 137.421 259.278 142.005 259.278 142.005L263.327 145.59C263.327 145.59 265.937 146.109 266.393 145.425C266.715 144.875 266.979 144.292 267.179 143.687C267.179 143.687 268.642 143.687 269.082 143.121C269.383 142.608 269.576 142.038 269.648 141.447C269.648 141.447 271.677 142.414 272.274 141.305C272.877 139.878 273.238 138.361 273.343 136.816C273.343 135.841 276.889 127.664 276.873 127.381C276.858 127.098 278.194 124.425 276.7 124.606Z" fill="#BA7F72"/>
<path d="M266.503 145.433C266.071 145.56 265.613 145.574 265.175 145.472C264.103 145.333 263.068 144.991 262.124 144.466C261.178 143.948 260.342 143.251 259.663 142.414C259.144 141.761 258.94 141.298 258.987 141.266C259.034 141.235 260.237 142.839 262.368 144.034C264.498 145.229 266.519 145.284 266.503 145.433Z" fill="#8B5D54"/>
<path d="M265.866 143.444C265.756 143.53 265.08 142.862 264.372 141.871C263.665 140.881 263.303 140 263.421 139.937C263.539 139.874 264.105 140.629 264.781 141.588C265.457 142.547 265.968 143.357 265.866 143.444Z" fill="#8B5D54"/>
<path d="M269.459 140.095C269.357 140.182 268.673 139.529 268.036 138.523C267.399 137.516 267.156 136.604 267.25 136.549C267.344 136.494 267.84 137.336 268.429 138.263C269.019 139.191 269.569 140.001 269.459 140.095Z" fill="#8B5D54"/>
<path d="M272.966 137.563C272.824 137.563 272.596 136.572 272.125 135.409C271.653 134.245 271.118 133.357 271.236 133.27C271.354 133.184 272.093 133.985 272.589 135.22C272.959 135.941 273.091 136.762 272.966 137.563Z" fill="#8B5D54"/>
<path d="M217.074 59.8066C213.827 61.2769 208.787 63.5254 205.87 65.5696C205.194 66.0413 204.439 66.8433 204.832 67.5666C205.225 68.2899 206.601 68.5808 207.325 68.7145C209.817 69.1705 215.721 69.084 219.597 67.2206L217.074 59.8066Z" fill="#455A64"/>
<path d="M219.275 78.2112C218.079 74.6992 217.19 71.0901 216.618 67.4243C216.049 63.7421 216.403 59.9764 217.648 56.4645C217.852 55.9378 219.574 52.4312 220.132 52.5334C220.525 52.5806 219.456 55.8591 219.652 56.2129C221.539 59.5465 222.011 63.5405 221.649 67.3536C221.269 71.0621 220.478 74.7168 219.291 78.2505" fill="#263238"/>
<path d="M236.415 121.257C230.668 121.06 218.576 104.393 218.654 98.6453L219.102 64.0518C218.929 54.7587 224.189 46.9045 233.49 46.9909L234.347 47.046C238.514 47.3262 242.423 49.1651 245.296 52.1968C248.169 55.2285 249.795 59.2308 249.851 63.4071C249.961 71.4658 249.977 80.3658 249.631 84.6349C248.923 93.527 239.929 94.3132 239.929 94.3132C239.929 94.3132 239.851 96.381 239.788 99.0305C239.646 104.904 241.942 121.422 236.061 121.218L236.415 121.257Z" fill="#BA7F72"/>
<path d="M239.929 94.3527C235.818 94.0667 231.875 92.6068 228.568 90.1465C228.568 90.1465 230.927 97.0259 239.843 96.8215L239.929 94.3527Z" fill="#8B5D54"/>
<path d="M246.84 70.7114C246.822 71.0437 246.674 71.3556 246.429 71.5804C246.183 71.8052 245.859 71.9251 245.527 71.9143C245.364 71.9153 245.203 71.8841 245.053 71.8224C244.903 71.7608 244.767 71.6699 244.652 71.5551C244.537 71.4402 244.446 71.3038 244.384 71.1535C244.323 71.0033 244.291 70.8423 244.293 70.6799C244.313 70.3483 244.461 70.0376 244.706 69.8132C244.951 69.5888 245.273 69.4682 245.605 69.477C245.768 69.4749 245.93 69.5054 246.08 69.5667C246.231 69.628 246.368 69.7188 246.483 69.8338C246.598 69.9489 246.689 70.0858 246.75 70.2365C246.811 70.3872 246.842 70.5487 246.84 70.7114Z" fill="#263238"/>
<path d="M247.697 67.2212C247.524 67.3706 246.612 66.6001 245.244 66.5058C243.876 66.4114 242.83 67.0325 242.689 66.8596C242.547 66.6866 242.799 66.49 243.263 66.1991C243.884 65.8311 244.603 65.6636 245.323 65.7195C246.034 65.7715 246.711 66.0467 247.257 66.5058C247.658 66.8438 247.776 67.1505 247.697 67.2212Z" fill="#263238"/>
<path d="M234.323 70.4359C234.307 70.7627 234.166 71.0707 233.929 71.2961C233.691 71.5215 233.377 71.6471 233.049 71.6467C232.887 71.6488 232.725 71.6183 232.575 71.557C232.424 71.4957 232.287 71.4049 232.172 71.2898C232.057 71.1748 231.966 71.0379 231.905 70.8872C231.843 70.7364 231.813 70.575 231.815 70.4123C231.837 70.0821 231.986 69.7733 232.231 69.5506C232.476 69.3278 232.797 69.2084 233.128 69.2173C233.447 69.2234 233.751 69.3545 233.975 69.5824C234.198 69.8103 234.323 70.1167 234.323 70.4359Z" fill="#263238"/>
<path d="M234.268 66.6301C234.095 66.7874 233.183 66.009 231.815 65.9225C230.447 65.836 229.394 66.4493 229.26 66.2763C229.126 66.1034 229.37 65.9068 229.834 65.6159C230.452 65.2462 231.168 65.076 231.886 65.1284C232.601 65.1756 233.282 65.4512 233.828 65.9147C234.221 66.2527 234.347 66.5672 234.268 66.6301Z" fill="#263238"/>
<path d="M238.467 77.4724C239.203 77.2965 239.958 77.212 240.715 77.2208C241.069 77.2208 241.399 77.1658 241.502 76.9299C241.552 76.5701 241.495 76.2034 241.336 75.8764C241.061 75.0115 240.778 74.0995 240.48 73.1482C239.3 69.2643 238.475 66.0723 238.632 66.0723C238.789 66.0723 239.866 69.1385 241.053 73.0224C241.329 73.9816 241.604 74.8936 241.84 75.7663C242.028 76.2035 242.059 76.6927 241.926 77.15C241.866 77.2695 241.779 77.3738 241.673 77.4555C241.567 77.5371 241.444 77.5939 241.313 77.6218C241.114 77.6435 240.914 77.6435 240.715 77.6218C239.963 77.6703 239.207 77.62 238.467 77.4724Z" fill="#263238"/>
<path d="M234.488 61.5134C234.276 61.8514 232.971 61.3954 231.344 61.2539C229.716 61.1124 228.372 61.2539 228.199 60.8923C228.136 60.7193 228.435 60.4205 228.985 60.1768C229.774 59.8717 230.623 59.7547 231.465 59.8353C232.307 59.9158 233.119 60.1915 233.836 60.6407C234.347 61.0023 234.622 61.3561 234.488 61.5134Z" fill="#263238"/>
<path d="M247.587 63.9961C247.288 64.2948 246.187 63.9096 244.851 63.8231C243.514 63.7366 242.358 63.9096 242.115 63.5637C242.012 63.4064 242.209 63.0998 242.72 62.8325C243.42 62.5017 244.197 62.3659 244.968 62.4394C245.741 62.4829 246.486 62.7386 247.123 63.1784C247.579 63.5243 247.72 63.8545 247.587 63.9961Z" fill="#263238"/>
<path d="M219.385 70.7025C219.236 70.6239 213.386 68.4775 213.174 74.5786C212.962 80.6796 219.125 79.6339 219.141 79.461C219.157 79.288 219.385 70.7025 219.385 70.7025Z" fill="#BA7F72"/>
<path d="M217.365 77.0883C217.365 77.0883 217.255 77.1591 217.074 77.2298C216.822 77.3313 216.54 77.3313 216.288 77.2298C215.651 76.9704 215.14 75.9247 215.148 74.824C215.154 74.301 215.275 73.7858 215.501 73.3145C215.566 73.1267 215.674 72.9572 215.818 72.8203C215.962 72.6835 216.136 72.5833 216.327 72.5283C216.451 72.5011 216.58 72.5175 216.694 72.5748C216.807 72.6321 216.897 72.7268 216.948 72.8427C217.027 73.0157 216.948 73.1336 217.011 73.1494C217.074 73.1651 217.145 73.0471 217.105 72.7956C217.074 72.6432 216.994 72.5052 216.877 72.4025C216.712 72.2737 216.504 72.212 216.296 72.2295C216.044 72.2705 215.808 72.3751 215.608 72.5334C215.409 72.6916 215.253 72.8983 215.156 73.1336C214.878 73.6544 214.73 74.2341 214.723 74.824C214.723 76.0505 215.313 77.2298 216.185 77.5129C216.347 77.5654 216.519 77.5813 216.687 77.5596C216.856 77.5378 217.017 77.4789 217.16 77.3871C217.326 77.2298 217.381 77.0962 217.365 77.0883Z" fill="#8B5D54"/>
<path d="M246.171 53.2027C247.17 52.6838 244.292 49.4132 241.902 48.2496C238.278 46.4884 232.703 45.317 229.323 46.1818C225.219 47.2275 221.783 49.1694 219.644 52.8175C217.577 56.5378 216.535 60.7407 216.625 64.9959C216.547 66.2938 216.819 67.5889 217.412 68.7462C218.198 70.1142 219.841 71.0105 219.723 72.866C219.689 73.2022 219.723 73.5419 219.823 73.8647C219.923 74.1875 220.087 74.4869 220.305 74.745C221.39 75.9636 222.781 74.8865 223.45 73.778C224.849 71.4193 225.077 68.5811 225.266 65.8451C225.506 63.9088 225.429 61.9464 225.038 60.0349C224.763 59.0128 224.307 58.0379 224.094 57.0001C223.957 56.4873 223.931 55.9507 224.019 55.427C224.107 54.9033 224.307 54.4048 224.605 53.9653C224.761 53.7879 224.932 53.6247 225.117 53.4779C225.987 52.7569 227.033 52.2807 228.148 52.0983C229.263 51.9159 230.407 52.0339 231.461 52.4401C234.866 53.7452 240.684 55.7186 242.24 54.5943C244.489 52.9747 245.047 51.8897 245.047 51.8897L246.171 53.2027Z" fill="#263238"/>
<path d="M234.677 78.1102C234.598 78.1102 234.535 78.4562 234.677 78.9829C234.826 79.687 235.195 80.3256 235.73 80.807C236.234 81.2641 236.818 81.624 237.452 81.8684C237.932 82.0649 238.239 82.1199 238.294 82.0413C238.349 81.9627 238.081 81.7583 237.665 81.4752C237.127 81.1323 236.618 80.7485 236.139 80.3274C235.046 79.3682 234.881 78.0709 234.677 78.1102Z" fill="#263238"/>
<path d="M243.868 48.0604C241.578 45.9551 238.75 44.5248 235.697 43.9281C232.644 43.3314 229.485 43.5915 226.571 44.6797C221.162 46.8182 216.036 52.1173 215.478 57.8802L215.627 62.1415L216.413 61.7248C221.516 59.8615 227.169 57.6837 230.471 57.0075C237.334 55.6631 249.033 57.9038 249.033 57.9038C248.419 54.1512 246.607 50.6982 243.868 48.0604Z" fill="#455A64"/>
<path d="M243.38 53.3666C242.991 52.8162 242.411 52.4297 241.753 52.2816C239.463 51.6817 237.065 51.6225 234.748 52.1087C234.155 52.1686 233.583 52.3592 233.073 52.6669C232.815 52.8292 232.615 53.0679 232.499 53.3498C232.383 53.6317 232.359 53.9427 232.428 54.2393C232.664 55.0255 233.694 55.2771 234.52 55.1906C235.396 55.2188 236.271 55.0965 237.106 54.829C238.75 54.6031 240.42 54.6616 242.044 55.002C242.299 55.0779 242.567 55.0967 242.83 55.057C242.99 54.9966 243.134 54.9011 243.251 54.7777C243.369 54.6543 243.458 54.506 243.511 54.3437C243.563 54.1815 243.579 54.0095 243.557 53.8404C243.534 53.6713 243.474 53.5094 243.38 53.3666Z" fill="#263238"/>
<path d="M236.297 53.879C236.874 54.0105 237.409 54.2843 237.852 54.6755C238.296 55.0666 238.635 55.5626 238.839 56.1183C239.042 56.6739 239.103 57.2716 239.016 57.8569C238.929 58.4421 238.697 58.9963 238.341 59.469C238.783 59.3393 239.19 59.1115 239.532 58.8025C239.874 58.4934 240.141 58.1112 240.314 57.6843C240.574 58.3274 240.574 59.046 240.314 59.6891C241.118 59.2855 241.789 58.6608 242.249 57.8887C242.436 58.6266 242.462 59.396 242.327 60.1451C243.23 59.6032 243.882 58.7275 244.143 57.7078C244.39 56.6912 244.36 55.627 244.057 54.6259C243.897 53.8579 243.45 53.1801 242.807 52.7311C242.149 52.4379 241.421 52.3345 240.708 52.4323C239.167 52.4562 237.633 52.6434 236.132 52.9905" fill="#263238"/>
<path d="M249.183 56.2143C248.741 56.1789 248.302 56.1132 247.87 56.0177C247.453 55.9391 246.934 55.8448 246.297 55.7662C245.66 55.6875 245.016 55.5617 244.261 55.4988C242.489 55.2899 240.707 55.1718 238.922 55.145C236.738 55.1178 234.554 55.2176 232.381 55.4438C230.213 55.6966 228.06 56.072 225.934 56.5681C224.198 56.9788 222.484 57.4801 220.8 58.0698C220.069 58.2978 219.432 58.5651 218.866 58.7774C218.3 58.9896 217.813 59.1862 217.427 59.3513C217.025 59.5396 216.61 59.6998 216.185 59.8309C216.553 59.5843 216.946 59.3762 217.357 59.2098C217.742 59.0132 218.214 58.7931 218.78 58.5651C219.346 58.3371 219.975 58.0462 220.698 57.7789C222.381 57.1576 224.097 56.6326 225.84 56.2064C230.119 55.1452 234.522 54.664 238.93 54.7755C240.724 54.8228 242.514 54.9697 244.292 55.2158C245.078 55.3023 245.739 55.4438 246.336 55.5539C246.934 55.6639 247.445 55.7662 247.862 55.8684C248.311 55.9454 248.753 56.0612 249.183 56.2143Z" fill="#263238"/>
<path d="M230.439 44.0194C230.479 44.0823 229.755 44.5305 228.749 45.4346C226.101 47.8273 224.364 51.0643 223.835 54.594C223.638 55.9384 223.662 56.7954 223.591 56.7954C223.521 56.7954 223.536 56.5831 223.505 56.1979C223.473 55.6524 223.489 55.1052 223.552 54.5626C223.924 50.9104 225.724 47.5533 228.56 45.2223C228.976 44.8674 229.423 44.5516 229.897 44.2789C230.235 44.0823 230.424 43.9958 230.439 44.0194Z" fill="#263238"/>
<path d="M239.386 52.4158C239.192 51.9013 239.027 51.3763 238.891 50.8434C238.471 49.5951 237.849 48.4239 237.051 47.3762C236.25 46.3328 235.286 45.4249 234.197 44.6873C233.715 44.4186 233.25 44.1192 232.806 43.791C233.367 43.9045 233.901 44.1262 234.378 44.4436C236.746 45.8286 238.476 48.0868 239.198 50.7333C239.366 51.2772 239.43 51.8481 239.386 52.4158Z" fill="#263238"/>
<g opacity="0.3">
<path d="M216.539 61.7012C212.687 63.423 208.543 65.0426 205.532 68.1639C206.047 68.4072 206.592 68.5817 207.152 68.6828C208.748 68.9801 210.374 69.0804 211.995 68.9815C213.611 68.9318 215.213 68.6674 216.759 68.1953L216.539 61.7012Z" fill="black"/>
</g>
<path d="M190.413 184.146L186.482 208.691L189.367 228.976L189.493 233.378L192.41 255.023C192.41 255.023 191.325 275.409 190.783 279.844C190.24 284.278 192.158 346.593 192.158 346.593L211.995 345.721C211.995 345.721 219.487 253.246 219.464 252.232C219.44 251.218 229.779 183.045 229.779 183.045L190.413 184.146Z" fill="#263238"/>
<path d="M240.542 187.936C240.542 187.936 240.149 270.999 238.294 275.803C236.438 280.607 184.304 332.238 184.304 332.238L167.794 319.375L209.967 262.697L212.561 183.557L240.542 187.936Z" fill="#263238"/>
<path d="M226.713 209.65C226.823 209.65 224.354 230.642 221.209 256.493C218.064 282.344 215.407 303.304 215.297 303.289C215.187 303.273 217.656 282.305 220.801 256.446C223.945 230.587 226.603 209.635 226.713 209.65Z" fill="#455A64"/>
<path d="M192.387 255.023C192.397 255.091 192.397 255.16 192.387 255.228V255.825C192.347 256.384 192.292 257.154 192.222 258.129C192.056 260.126 191.876 263.027 191.655 266.604C191.254 273.759 190.916 283.665 191.011 294.602C191.105 305.538 191.412 315.444 191.6 322.614C191.687 326.176 191.75 329.069 191.797 331.105C191.797 332.088 191.797 332.859 191.797 333.417C191.797 333.661 191.797 333.857 191.797 334.014C191.808 334.085 191.808 334.156 191.797 334.227C191.787 334.159 191.787 334.09 191.797 334.022C191.797 333.857 191.797 333.661 191.758 333.417C191.758 332.859 191.703 332.088 191.655 331.113C191.577 329.077 191.467 326.184 191.325 322.622C191.066 315.46 190.681 305.553 190.61 294.602C190.539 283.65 190.909 273.743 191.396 266.589C191.655 263.004 191.883 260.11 192.096 258.113C192.198 257.146 192.277 256.376 192.339 255.818C192.339 255.574 192.394 255.377 192.41 255.22C192.391 255.156 192.383 255.09 192.387 255.023Z" fill="#455A64"/>
<path d="M212.435 207.899C212.49 208.001 208.873 209.904 204.376 212.144C199.879 214.385 196.176 216.13 196.129 216.028C196.082 215.926 199.683 214.023 204.188 211.783C208.693 209.542 212.388 207.797 212.435 207.899Z" fill="#455A64"/>
<path d="M252.383 143.641L262.336 152.627C262.336 152.627 246.753 169.649 241.934 173.415C237.114 177.181 243.836 147.91 243.836 147.91L252.383 143.641Z" fill="#14B4B2"/>
<path d="M218.568 90.3906L214.424 96.13L198.307 102.09L190.995 156.897L186.38 205.838C186.38 205.838 192.835 196.632 197.772 196.506C202.71 196.38 227.703 203.362 229.394 204.636L232.688 193.558L235.408 206.389C235.408 206.389 240.126 207.442 242.547 200.429L241.509 176.104C241.509 176.104 244.811 132.257 244.654 125.645C244.497 119.032 240 100.674 240 100.674L238.333 106.091L223.819 93.7085L218.568 90.3906Z" fill="#00CBC8"/>
<path d="M202.961 100.422C202.961 100.422 192.371 100.422 188.951 119.999C185.531 139.575 180.601 160.662 183.141 168.532C185.68 176.402 195.618 199.076 195.618 199.076L209.267 194.154L203.669 158.555L210.147 123.71C210.147 123.71 210.941 101.853 202.961 100.422Z" fill="#14B4B2"/>
<path d="M215.14 202.025C215.14 202.025 208.638 194.375 208.143 194.564L197.34 198.495C197.104 201.272 197.128 204.064 197.411 206.837C197.835 210.831 198.519 215.1 198.519 215.1L212.734 207.521C213.049 209.099 213.513 210.644 214.118 212.136C214.904 213.787 217.656 212.042 217.656 212.042L215.14 202.025Z" fill="#BA7F72"/>
<path d="M210.147 123.709C210.147 123.709 210.147 123.921 210.053 124.33C209.958 124.739 209.872 125.36 209.738 126.154L208.48 133.128C207.372 139.182 205.776 147.893 203.826 158.578V158.523C205.398 168.665 207.348 180.812 209.455 194.123V194.288L209.298 194.343L195.657 199.264L195.476 199.327L195.405 199.154C194.022 195.939 192.552 192.542 191.066 189.099C188.463 182.935 185.932 176.904 183.746 171.016C183.463 170.277 183.219 169.53 182.96 168.783C182.842 168.413 182.763 167.997 182.669 167.635C182.561 167.255 182.487 166.865 182.449 166.471C182.336 165.703 182.271 164.928 182.252 164.152C182.213 163.387 182.213 162.621 182.252 161.856C182.35 158.88 182.613 155.912 183.038 152.964C183.825 147.201 184.807 141.784 185.735 136.713C186.663 131.642 187.567 126.917 188.369 122.608C188.738 120.446 189.155 118.394 189.595 116.468L190.382 113.693C190.688 112.812 191.026 111.971 191.325 111.153C192.411 108.352 194.078 105.812 196.215 103.7C197.581 102.379 199.229 101.384 201.035 100.791C201.504 100.645 201.986 100.543 202.474 100.484H202.843H202.969L202.474 100.547C201.993 100.624 201.52 100.739 201.058 100.893C199.288 101.517 197.677 102.524 196.341 103.842C194.24 105.95 192.608 108.479 191.553 111.263C191.254 112.05 190.924 112.914 190.633 113.787C190.342 114.66 190.114 115.603 189.847 116.555C189.43 118.473 189.014 120.486 188.652 122.679C187.866 126.996 187.001 131.721 186.073 136.792C185.145 141.863 184.155 147.288 183.416 153.035C183.007 155.97 182.76 158.926 182.677 161.888C182.677 162.674 182.677 163.397 182.677 164.16C182.699 164.923 182.765 165.684 182.873 166.44C182.912 166.82 182.983 167.196 183.085 167.564C183.18 167.942 183.251 168.35 183.369 168.681C183.62 169.42 183.864 170.167 184.155 170.906C186.34 176.81 188.872 182.84 191.474 188.989L195.806 199.013L195.555 198.903L209.196 193.997L209.07 194.209C206.986 180.891 205.092 168.744 203.511 158.601V158.546L208.307 133.12C208.889 130.117 209.337 127.766 209.644 126.162C209.801 125.376 209.919 124.771 210.006 124.346C210.092 123.921 210.147 123.709 210.147 123.709Z" fill="#263238"/>
<path d="M238.262 106.092C238.178 106.342 238.073 106.584 237.948 106.815L236.981 108.796L233.396 115.676L233.254 115.943L233.05 115.676C231.784 113.938 230.329 112.059 228.726 110.172C226.043 106.954 223.182 103.888 220.156 100.989C218.992 99.8808 218.033 99.0002 217.373 98.387C217.012 98.089 216.673 97.7658 216.358 97.4199C216.753 97.6715 217.127 97.9555 217.475 98.269C218.167 98.843 219.165 99.6921 220.352 100.785C223.453 103.626 226.356 106.675 229.04 109.913C230.652 111.839 232.098 113.734 233.356 115.487H233.034L236.729 108.671L237.814 106.737C237.937 106.504 238.087 106.288 238.262 106.092Z" fill="#263238"/>
<path d="M241.831 109.007C241.965 108.96 242.618 111.452 242.162 114.77L242.075 115.352L241.792 114.817C241.635 114.534 241.486 114.228 241.344 113.921C240.558 112.191 240.157 110.556 239.732 109.416C239.308 108.276 238.993 107.6 239.048 107.576C239.46 108.098 239.781 108.686 240 109.314C240.503 110.438 240.967 112.073 241.714 113.748C241.855 114.055 241.997 114.345 242.146 114.621L241.769 114.676C241.983 113.345 242.049 111.995 241.965 110.65C241.926 109.62 241.792 109.031 241.831 109.007Z" fill="#263238"/>
<path d="M238.954 108.914C238.966 108.987 238.966 109.061 238.954 109.134C238.954 109.307 238.954 109.512 238.954 109.779C238.954 110.345 238.954 111.178 238.954 112.255C238.954 114.402 238.836 117.507 238.624 121.344C238.215 129.025 237.28 139.592 236.32 151.275C235.361 162.958 234.418 173.502 233.765 181.152C233.419 184.949 233.136 188.039 232.94 190.209C232.837 191.254 232.759 192.072 232.696 192.67C232.664 192.932 232.641 193.144 232.625 193.306C232.618 193.381 232.605 193.454 232.586 193.527C232.577 193.453 232.577 193.38 232.586 193.306C232.586 193.133 232.586 192.921 232.625 192.662C232.625 192.064 232.72 191.239 232.79 190.193L233.482 181.12C234.111 173.439 234.968 162.88 235.919 151.205C236.871 139.529 237.861 128.963 238.341 121.328C238.593 117.5 238.726 114.394 238.805 112.248C238.844 111.202 238.876 110.376 238.891 109.779C238.891 109.512 238.891 109.299 238.891 109.134C238.902 109.058 238.923 108.984 238.954 108.914Z" fill="#263238"/>
<path d="M244.67 131.941C244.78 131.941 244.175 141.895 243.31 154.16C242.445 166.425 241.651 176.355 241.541 176.347C241.431 176.339 242.036 166.393 242.901 154.128C243.766 141.863 244.56 131.934 244.67 131.941Z" fill="#263238"/>
<path d="M212.789 114.888C212.718 114.888 212.718 113.906 212.333 112.404C211.835 110.438 210.856 108.628 209.483 107.136C208.111 105.643 206.388 104.517 204.471 103.858C203 103.339 202.025 103.26 202.033 103.182C202.262 103.143 202.496 103.143 202.725 103.182C203.349 103.251 203.965 103.38 204.565 103.567C206.566 104.169 208.369 105.298 209.784 106.836C211.199 108.374 212.175 110.265 212.608 112.31C212.742 112.922 212.818 113.546 212.836 114.173C212.868 114.412 212.852 114.655 212.789 114.888Z" fill="#263238"/>
<g opacity="0.3">
<path d="M242.099 173.068C245.081 164.947 245.627 156.132 243.672 147.705C243.147 156.228 242.623 164.748 242.099 173.265" fill="black"/>
</g>
<path d="M208.441 132.586C208.167 132.54 207.902 132.453 207.655 132.326L205.532 131.485C203.748 130.777 201.279 129.81 198.527 128.788C195.775 127.766 193.267 126.886 191.451 126.265L189.297 125.518C189.023 125.445 188.759 125.339 188.511 125.203C188.779 125.222 189.044 125.278 189.297 125.368C189.824 125.502 190.571 125.714 191.491 125.989C193.338 126.548 195.862 127.381 198.621 128.403C201.381 129.425 203.842 130.439 205.595 131.218C206.476 131.611 207.168 131.941 207.671 132.177C207.942 132.284 208.2 132.421 208.441 132.586Z" fill="white"/>
<path d="M211.279 109.495C210.491 109.338 209.716 109.122 208.96 108.85C207.545 108.425 205.587 107.851 203.402 107.277C201.216 106.704 199.219 106.271 197.772 105.964C196.974 105.833 196.186 105.646 195.414 105.406C196.207 105.417 196.997 105.506 197.772 105.674C199.235 105.917 201.255 106.318 203.449 106.876C205.642 107.435 207.6 108.072 208.999 108.567C209.789 108.798 210.553 109.108 211.279 109.495Z" fill="white"/>
<path d="M220.8 101.695C218.539 102.35 216.242 102.875 213.921 103.268C211.626 103.785 209.303 104.169 206.963 104.416C209.224 103.76 211.521 103.235 213.842 102.843C216.137 102.326 218.461 101.942 220.8 101.695Z" fill="white"/>
<path d="M222.735 93.6992C222.215 94.7195 221.576 95.6748 220.832 96.5453C220.194 97.4915 219.447 98.3597 218.607 99.132C219.13 98.1162 219.769 97.1639 220.51 96.2937C221.146 95.3441 221.893 94.4731 222.735 93.6992Z" fill="white"/>
<path d="M233.907 103.15C233.285 104.399 232.54 105.581 231.682 106.68C230.931 107.858 230.073 108.963 229.119 109.983C229.742 108.735 230.487 107.553 231.344 106.452C232.094 105.275 232.952 104.17 233.907 103.15Z" fill="white"/>
<path d="M237.955 127.658C237.587 127.666 237.219 127.642 236.855 127.587C236.147 127.516 235.133 127.398 233.883 127.233C231.375 126.911 227.923 126.4 224.118 125.723C220.313 125.047 216.901 124.355 214.432 123.805C213.197 123.53 212.207 123.294 211.523 123.113C211.161 123.042 210.806 122.939 210.461 122.807C210.831 122.817 211.197 122.87 211.554 122.964L214.495 123.522C216.971 124.002 220.399 124.654 224.189 125.323C227.978 125.991 231.43 126.549 233.922 126.95L236.878 127.43C237.244 127.468 237.605 127.545 237.955 127.658Z" fill="white"/>
<path d="M244.756 126.573C242.622 126.296 240.53 125.754 238.529 124.961C239.599 125.028 240.656 125.231 241.674 125.566C242.739 125.772 243.775 126.11 244.756 126.573Z" fill="white"/>
<path d="M235.88 155.874C235.88 155.984 229.008 154.884 220.58 153.413C212.152 151.943 205.328 150.662 205.351 150.544C205.375 150.426 212.223 151.534 220.651 153.005C229.079 154.475 235.896 155.772 235.88 155.874Z" fill="white"/>
<path d="M242.916 155.229C241.767 155.124 240.626 154.935 239.504 154.663C238.359 154.518 237.226 154.286 236.116 153.971C238.444 153.934 240.756 154.362 242.916 155.229Z" fill="white"/>
<path d="M253.617 161.464C252.092 159.222 250.68 156.905 249.387 154.522C247.154 150.63 245.456 147.446 245.511 147.367C247.039 149.61 248.451 151.93 249.741 154.317C251.154 156.632 252.448 159.017 253.617 161.464Z" fill="white"/>
<path d="M203.739 155.826C203.739 155.944 199.164 155.268 193.566 154.325C187.968 153.381 183.439 152.524 183.455 152.414C183.471 152.304 188.031 152.972 193.676 153.916C199.321 154.859 203.763 155.716 203.739 155.826Z" fill="white"/>
<path d="M233.702 179.964C233.341 179.995 232.978 179.995 232.617 179.964C231.925 179.964 230.927 179.909 229.685 179.838C227.208 179.697 223.788 179.39 220.038 178.856C216.288 178.321 212.923 177.653 210.509 177.094C209.298 176.811 208.323 176.568 207.655 176.387C207.301 176.312 206.956 176.201 206.625 176.057C206.986 176.084 207.343 176.142 207.694 176.23L210.564 176.811C212.993 177.291 216.358 177.912 220.101 178.447C223.843 178.981 227.24 179.335 229.708 179.547L232.633 179.807C232.994 179.82 233.353 179.872 233.702 179.964Z" fill="white"/>
<path d="M241.541 180.271C238.967 180.191 236.408 179.84 233.907 179.225C235.196 179.197 236.484 179.302 237.751 179.54C239.037 179.645 240.308 179.891 241.541 180.271Z" fill="white"/>
<path d="M207.812 184.115C207.104 184.556 206.357 184.93 205.579 185.232C204.18 185.861 202.214 186.67 200.005 187.465C197.796 188.259 195.76 188.872 194.281 189.273C193.491 189.535 192.678 189.719 191.852 189.823C192.617 189.49 193.405 189.215 194.211 188.998C195.673 188.526 197.678 187.865 199.887 187.079C202.096 186.293 204.062 185.507 205.485 184.964C206.238 184.623 207.016 184.339 207.812 184.115Z" fill="white"/>
<g opacity="0.3">
<path d="M209.581 126.744C206.083 144.898 203.244 162.124 203.645 159.765L209.267 194.178L212.585 199.1C209.691 175.977 207.309 149.749 209.581 126.744Z" fill="black"/>
</g>
<path d="M131.628 133.829C120.393 135.056 106.469 134.726 95.2026 133.476C90.3831 120.472 93.866 106.469 94.8252 92.6317L119.253 91.8848L131.628 133.829Z" fill="#263238"/>
<path d="M124.607 90.3052C124.619 89.4655 124.314 88.6522 123.753 88.0272C123.192 87.4022 122.416 87.0113 121.58 86.9324L105.856 79.4948C100.156 78.9366 94.3299 89.0709 94.0154 94.7867C93.7844 101.053 94.1768 107.326 95.1869 113.514C96.7593 123.02 103.175 123.287 103.175 123.287L102.389 155.671L123.31 138.862L124.607 90.3052Z" fill="#FFBE9D"/>
<path d="M98.1826 103.238C98.1825 103.556 98.3066 103.861 98.5283 104.089C98.7501 104.317 99.0521 104.449 99.3698 104.457C99.5252 104.469 99.6814 104.449 99.829 104.399C99.9767 104.35 100.113 104.271 100.229 104.167C100.346 104.064 100.441 103.938 100.508 103.797C100.575 103.657 100.613 103.504 100.62 103.348C100.62 103.03 100.496 102.724 100.275 102.495C100.053 102.266 99.7511 102.132 99.4327 102.122C99.2769 102.111 99.1206 102.132 98.9729 102.183C98.8251 102.233 98.6891 102.313 98.5726 102.417C98.4561 102.521 98.3616 102.647 98.2946 102.788C98.2277 102.929 98.1896 103.082 98.1826 103.238Z" fill="#263238"/>
<path d="M95.7688 99.1663C95.9024 99.2842 96.8616 99.1663 98.1274 99.4493C99.3932 99.7323 100.282 100.306 100.439 100.236C100.596 100.165 100.384 100.031 100.006 99.7795C99.4394 99.4293 98.8175 99.1768 98.1667 99.0326C97.5445 98.8811 96.9003 98.8412 96.2641 98.9147C95.8631 98.9697 95.7059 99.0876 95.7688 99.1663Z" fill="#263238"/>
<path d="M109.96 102.351C109.96 102.512 109.992 102.671 110.053 102.819C110.115 102.968 110.206 103.102 110.32 103.215C110.434 103.329 110.569 103.418 110.718 103.479C110.866 103.54 111.026 103.571 111.186 103.57C111.342 103.581 111.498 103.562 111.646 103.512C111.793 103.462 111.93 103.383 112.046 103.28C112.163 103.177 112.257 103.051 112.324 102.91C112.391 102.769 112.43 102.617 112.437 102.461C112.437 102.142 112.313 101.836 112.091 101.607C111.87 101.378 111.568 101.245 111.249 101.235C111.09 101.218 110.93 101.235 110.778 101.283C110.625 101.331 110.484 101.41 110.364 101.514C110.243 101.619 110.145 101.747 110.075 101.891C110.006 102.035 109.967 102.191 109.96 102.351Z" fill="#263238"/>
<path d="M108.725 100.024C108.914 100.071 109.748 99.4185 111.084 99.0332C112.421 98.648 113.6 98.7423 113.718 98.6087C113.836 98.475 113.561 98.4357 113.057 98.3885C112.337 98.3337 111.613 98.4083 110.919 98.6087C110.241 98.7886 109.604 99.0954 109.04 99.5128C108.718 99.8037 108.631 100.008 108.725 100.024Z" fill="#263238"/>
<path d="M103.985 108.734C103.294 108.518 102.577 108.394 101.854 108.364C101.516 108.364 101.193 108.27 101.138 108.042C101.108 107.696 101.182 107.348 101.351 107.044C101.665 106.257 101.988 105.377 102.326 104.481C103.67 100.833 104.684 97.8371 104.496 97.782C104.307 97.727 103.135 100.644 101.791 104.292C101.469 105.188 101.154 106.045 100.863 106.871C100.655 107.278 100.597 107.745 100.698 108.191C100.749 108.309 100.825 108.412 100.922 108.496C101.019 108.579 101.133 108.639 101.256 108.671C101.441 108.721 101.631 108.748 101.822 108.75C102.541 108.836 103.267 108.83 103.985 108.734Z" fill="#263238"/>
<path d="M103.199 123.287C107.672 123.378 112.078 122.194 115.904 119.875C115.904 119.875 112.869 126.951 103.325 126.165L103.199 123.287Z" fill="#EB996E"/>
<path d="M104.236 111.926C104.501 111.475 104.862 111.088 105.295 110.794C105.727 110.501 106.22 110.307 106.737 110.228C107.036 110.195 107.337 110.252 107.604 110.392C107.87 110.533 108.088 110.749 108.23 111.014C108.378 111.366 108.438 111.749 108.406 112.13C108.373 112.511 108.248 112.878 108.042 113.2C107.844 113.54 107.551 113.815 107.199 113.991C106.847 114.167 106.451 114.236 106.06 114.19C105.414 114.009 104.837 113.639 104.401 113.129C104.251 113.005 104.135 112.846 104.063 112.665C104.026 112.55 104.016 112.427 104.033 112.307C104.051 112.187 104.096 112.073 104.166 111.973" fill="#EB996E"/>
<path d="M107.861 109.608C107.648 109.608 107.656 111.023 106.446 112.053C105.235 113.083 103.717 112.925 103.702 113.13C103.686 113.334 104.048 113.397 104.684 113.413C105.515 113.425 106.324 113.147 106.972 112.627C107.59 112.114 107.985 111.381 108.073 110.582C108.12 109.953 107.963 109.6 107.861 109.608Z" fill="#263238"/>
<path d="M107.593 94.2916C107.759 94.6297 109.048 94.2916 110.597 94.3388C112.146 94.386 113.435 94.6376 113.608 94.2995C113.679 94.1344 113.427 93.8278 112.892 93.5133C112.179 93.164 111.395 92.9824 110.601 92.9824C109.806 92.9824 109.022 93.164 108.309 93.5133C107.774 93.8199 107.515 94.1265 107.593 94.2916Z" fill="#263238"/>
<path d="M95.3364 96.2491C95.6273 96.54 96.7516 96.2492 98.1039 96.1863C99.4562 96.1234 100.604 96.3592 100.864 96.0447C100.974 95.8875 100.793 95.5966 100.29 95.3136C99.5898 94.9684 98.8121 94.8112 98.0332 94.8575C97.2591 94.8685 96.5019 95.0857 95.8396 95.4865C95.36 95.7931 95.2106 96.1076 95.3364 96.2491Z" fill="#263238"/>
<path d="M134.042 113.939C133.255 109.709 130.897 96.147 127.202 89.0475C123.506 81.9479 119.229 79.1018 115.047 78.0404C110.864 76.9791 106.257 77.8989 104.393 79.6129C102.53 81.3268 102.75 86.6102 102.75 86.6102C102.75 86.6102 113.514 88.9688 116.965 94.6846C120.896 101.234 121.91 104.544 121.91 104.544L123.208 108.137C123.208 108.137 123.994 126.943 123.585 130.402L135.606 133.359C134.631 129.207 134.812 118.177 134.042 113.939Z" fill="#263238"/>
<path d="M103.143 86.8855C103.143 86.8855 97.3805 86.3194 95.2813 92.845C94.3536 95.7933 94.1334 104.402 94.1334 104.402C94.1334 104.402 92.7968 97.5623 93.0642 93.7099C93.3315 89.8574 95.2027 84.9671 98.1274 82.2468C101.052 79.5265 103.371 78.3158 108.505 78.5988C107.036 79.1607 105.761 80.1354 104.834 81.4056C104.228 82.3805 103.945 83.2139 103.143 86.8855Z" fill="#263238"/>
<path d="M121.84 105.015C121.853 104.527 121.989 104.05 122.236 103.628C122.484 103.207 122.834 102.855 123.254 102.605C123.673 102.356 124.15 102.217 124.638 102.201C125.126 102.185 125.611 102.293 126.046 102.515C127.052 103.081 127.831 104.237 127.76 106.446C127.579 112.413 121.627 110.998 121.619 110.825C121.612 110.652 121.745 107.484 121.84 105.015Z" fill="#FFBE9D"/>
<path d="M123.514 108.656C123.514 108.656 123.616 108.726 123.789 108.813C123.914 108.865 124.047 108.892 124.182 108.892C124.317 108.892 124.451 108.865 124.576 108.813C124.967 108.58 125.289 108.248 125.51 107.851C125.731 107.453 125.843 107.003 125.833 106.548C125.866 106.036 125.783 105.523 125.59 105.047C125.536 104.856 125.436 104.68 125.299 104.536C125.162 104.393 124.992 104.284 124.804 104.221C124.685 104.187 124.559 104.196 124.445 104.244C124.332 104.293 124.239 104.379 124.182 104.489C124.096 104.654 124.135 104.779 124.104 104.787C124.072 104.795 123.978 104.685 124.033 104.434C124.069 104.288 124.155 104.16 124.277 104.072C124.446 103.953 124.655 103.905 124.859 103.938C125.103 103.994 125.329 104.111 125.515 104.279C125.7 104.447 125.84 104.66 125.92 104.897C126.155 105.423 126.26 105.997 126.227 106.572C126.148 107.767 125.503 108.876 124.654 109.096C124.493 109.139 124.325 109.145 124.162 109.114C123.998 109.082 123.844 109.014 123.711 108.915C123.522 108.797 123.491 108.663 123.514 108.656Z" fill="#EB996E"/>
<path d="M109.331 109.976C109.221 109.976 108.969 109.481 108.34 109.19C107.711 108.899 107.177 109.072 107.13 108.97C107.082 108.868 107.224 108.805 107.483 108.726C107.826 108.637 108.188 108.667 108.512 108.809C108.836 108.952 109.102 109.2 109.268 109.512C109.386 109.788 109.378 109.961 109.331 109.976Z" fill="#EB996E"/>
<path d="M109.968 109.977C109.858 109.977 109.645 109.631 109.307 109.246C108.969 108.861 108.631 108.585 108.686 108.46C108.741 108.334 109.221 108.46 109.622 108.955C110.023 109.45 110.07 109.953 109.968 109.977Z" fill="#EB996E"/>
<path d="M96.9561 103.301C96.9168 103.403 96.6888 103.411 96.4529 103.301C96.2171 103.191 96.0598 103.041 96.107 102.939C96.1542 102.837 96.3743 102.829 96.6102 102.939C96.846 103.049 97.0347 103.191 96.9561 103.301Z" fill="#EB996E"/>
<path d="M119.977 337.799L121.596 356.385L118.64 371.449C118.589 371.706 118.592 371.971 118.648 372.226C118.704 372.482 118.812 372.724 118.966 372.936C119.119 373.149 119.314 373.327 119.54 373.461C119.765 373.594 120.015 373.68 120.275 373.713C120.578 373.753 120.886 373.719 121.174 373.615C121.461 373.511 121.719 373.34 121.926 373.116C124.592 370.207 134.341 359.467 134.144 358.115C133.924 356.542 133.743 338.396 133.743 338.396L119.977 337.799Z" fill="#12CF73"/>
<path d="M120.275 373.712L134.065 356.855L134.12 357.642C134.16 358.323 133.96 358.996 133.554 359.544C132.461 361.007 129.356 364.985 121.981 373.107C121.768 373.34 121.501 373.517 121.203 373.621C120.906 373.725 120.587 373.754 120.275 373.704V373.712Z" fill="#263238"/>
<g opacity="0.6">
<path d="M129.859 351.1C129.643 351.284 129.501 351.54 129.46 351.821C129.42 352.102 129.483 352.388 129.639 352.626C129.815 352.85 130.07 352.999 130.352 353.042C130.634 353.084 130.922 353.017 131.156 352.854C131.387 352.659 131.537 352.385 131.578 352.086C131.619 351.787 131.547 351.483 131.376 351.234C131.171 351.027 130.894 350.905 130.602 350.894C130.311 350.882 130.025 350.981 129.804 351.171" fill="white"/>
</g>
<path d="M124.009 365.308C123.524 364.757 122.94 364.301 122.288 363.963C121.588 363.734 120.851 363.644 120.118 363.696C120.118 363.649 120.322 363.491 120.755 363.397C121.324 363.297 121.911 363.363 122.445 363.586C122.979 363.803 123.438 364.172 123.766 364.647C124.009 365.017 124.057 365.292 124.009 365.308Z" fill="#263238"/>
<path d="M122.846 367.887C122.293 367.625 121.726 367.394 121.148 367.195C120.54 367.118 119.928 367.078 119.316 367.077C119.588 366.878 119.906 366.747 120.24 366.698C120.574 366.649 120.916 366.682 121.234 366.794C122.351 367.046 122.98 367.832 122.846 367.887Z" fill="#263238"/>
<path d="M126.274 361.958C125.458 361.477 124.607 361.059 123.727 360.708C122.804 360.481 121.866 360.323 120.92 360.236C121.874 359.917 122.909 359.945 123.845 360.315C124.825 360.553 125.688 361.137 126.274 361.958Z" fill="#263238"/>
<path d="M126.25 356.258C126.25 356.368 125.158 356.007 123.813 356.046C122.469 356.085 121.455 356.471 121.384 356.361C122.082 355.845 122.939 355.589 123.805 355.637C124.668 355.546 125.536 355.767 126.25 356.258Z" fill="#263238"/>
<path d="M125.92 350.802C125.091 350.587 124.236 350.489 123.381 350.511C122.54 350.666 121.723 350.93 120.951 351.297C120.951 351.258 121.108 351.014 121.525 350.739C122.074 350.39 122.697 350.174 123.344 350.11C123.992 350.046 124.645 350.135 125.252 350.369C125.708 350.55 125.944 350.755 125.92 350.802Z" fill="#263238"/>
<path d="M123.349 349.465C123.275 349.24 123.251 349.001 123.279 348.765C123.302 348.116 123.451 347.478 123.719 346.886C123.879 346.437 124.183 346.052 124.584 345.794C124.723 345.723 124.881 345.696 125.037 345.715C125.192 345.735 125.338 345.8 125.456 345.904C125.669 346.128 125.795 346.421 125.81 346.729C125.806 347.358 125.583 347.965 125.18 348.447C124.777 348.929 124.219 349.256 123.601 349.371C122.993 349.465 122.372 349.378 121.813 349.123C121.254 348.867 120.782 348.453 120.456 347.932C120.377 347.798 120.326 347.649 120.309 347.495C120.291 347.34 120.307 347.184 120.354 347.036C120.416 346.884 120.527 346.757 120.669 346.675C120.812 346.594 120.978 346.563 121.14 346.588C121.605 346.662 122.044 346.854 122.414 347.146C122.944 347.518 123.405 347.981 123.774 348.514C123.925 348.697 124.037 348.908 124.104 349.135C123.572 348.468 122.947 347.88 122.249 347.39C121.919 347.148 121.536 346.989 121.132 346.926C121.046 346.916 120.958 346.934 120.883 346.978C120.808 347.022 120.749 347.089 120.715 347.169C120.691 347.27 120.688 347.374 120.707 347.476C120.726 347.578 120.767 347.674 120.826 347.759C121.123 348.205 121.541 348.555 122.032 348.77C122.522 348.985 123.064 349.054 123.593 348.97C124.113 348.868 124.584 348.594 124.929 348.191C125.274 347.789 125.474 347.282 125.496 346.753C125.493 346.539 125.415 346.333 125.275 346.171C125.214 346.11 125.134 346.07 125.047 346.057C124.961 346.044 124.873 346.059 124.796 346.1C124.445 346.314 124.17 346.633 124.01 347.012C123.65 347.786 123.426 348.616 123.349 349.465Z" fill="#263238"/>
<path d="M103.985 336.965L104.26 352.383C104.26 352.383 88.685 357.839 88.457 360.693L118.333 361.235L118.891 337.201L103.985 336.965Z" fill="#12CF73"/>
<path d="M113.545 351.259C113.826 351.356 114.062 351.553 114.207 351.813C114.352 352.072 114.396 352.376 114.331 352.666C114.25 352.955 114.061 353.201 113.804 353.355C113.547 353.508 113.24 353.557 112.948 353.492C112.644 353.392 112.387 353.184 112.228 352.907C112.068 352.629 112.017 352.303 112.083 351.99C112.2 351.691 112.432 351.45 112.726 351.32C113.021 351.19 113.355 351.183 113.655 351.298" fill="#E0E0E0"/>
<path d="M118.365 361.236V358.814L89.6991 359.192C89.6991 359.192 88.3626 359.75 88.4962 360.694L118.365 361.236Z" fill="#263238"/>
<path d="M103.78 352.224C103.78 352.366 104.511 352.444 105.219 352.932C105.926 353.419 106.296 354.033 106.438 353.977C106.579 353.922 106.367 353.073 105.494 352.507C104.621 351.941 103.749 352.083 103.78 352.224Z" fill="#263238"/>
<path d="M100.619 353.46C100.58 353.601 101.209 353.861 101.689 354.49C102.168 355.119 102.31 355.771 102.475 355.771C102.64 355.771 102.734 354.938 102.113 354.199C101.492 353.46 100.619 353.326 100.619 353.46Z" fill="#263238"/>
<path d="M98.7644 357.186C98.8981 357.186 99.1182 356.494 98.7644 355.685C98.4106 354.875 97.7266 354.545 97.6637 354.67C97.6008 354.796 98.0096 355.221 98.3005 355.889C98.5914 356.557 98.6072 357.171 98.7644 357.186Z" fill="#263238"/>
<path d="M104.111 348.702C104.174 348.836 104.842 348.647 105.683 348.702C106.524 348.757 107.145 349.048 107.256 348.922C107.366 348.796 106.729 348.262 105.754 348.191C104.779 348.12 104.032 348.584 104.111 348.702Z" fill="#263238"/>
<path d="M147.674 210.809C147.674 210.809 148.225 224.489 147.958 230.936C147.69 237.383 135.457 285.09 135.457 285.09L136.086 348.176L117.075 347.61C117.075 347.61 111.941 283.14 112.208 282.354C112.476 281.568 112.208 265.694 112.208 265.694L116.926 229.961V211.634L147.674 210.809Z" fill="#455A64"/>
<path d="M83.15 208.607C83.15 208.607 82.4109 222.657 82.9298 230.716C83.4488 238.774 94.7231 282.842 94.7231 282.842L102.231 347.61H118.986L116.942 231.007V211.634L83.15 208.607Z" fill="#455A64"/>
<g opacity="0.3">
<path d="M83.6689 216.312C91.0751 220.825 100.179 221.69 108.828 221.32C117.476 220.951 126.125 219.473 134.773 219.748C139.168 219.897 144.208 220.306 147.352 217.24C125.857 216.43 105.109 216.249 83.6689 216.312Z" fill="black"/>
</g>
<path d="M117.099 227.115C117.081 227.219 117.058 227.321 117.028 227.422C116.973 227.642 116.895 227.933 116.8 228.31C116.596 229.097 116.266 230.229 115.928 231.715C114.913 235.909 114.126 240.156 113.569 244.436C111.818 258.571 111.573 272.853 112.838 287.041C114.017 303.685 115.558 318.709 116.643 329.59C117.178 335.015 117.618 339.418 117.917 342.477C118.058 343.986 118.168 345.158 118.247 345.983C118.247 346.368 118.302 346.675 118.318 346.895C118.326 347 118.326 347.105 118.318 347.21C118.291 347.109 118.273 347.007 118.263 346.903C118.263 346.675 118.2 346.376 118.145 345.991L117.744 342.492C117.413 339.434 116.957 335.039 116.336 329.622C115.181 318.749 113.592 303.724 112.405 287.064C110.998 270.42 111.698 255.23 113.254 244.396C113.828 240.112 114.65 235.865 115.715 231.675C116.077 230.189 116.431 229.057 116.667 228.287C116.777 227.917 116.871 227.626 116.934 227.406C116.977 227.303 117.032 227.205 117.099 227.115Z" fill="#263238"/>
<path d="M115.118 234.757C113.951 234.173 112.888 233.4 111.973 232.47C110.968 231.64 110.103 230.655 109.41 229.553C110.399 230.377 111.346 231.251 112.248 232.171C113.797 233.61 115.157 234.663 115.118 234.757Z" fill="#263238"/>
<path d="M91.1772 134.782L100.179 130.403C108.152 132.762 115.353 133.501 119.222 127.038C119.222 127.038 130.661 125.19 134.081 127.038C137.501 128.886 137.226 151.772 137.226 151.772L140.276 181.161C140.276 181.161 149.31 199.079 147.816 217.783L83.0242 216.25C83.0242 216.25 82.3166 206.343 85.3828 197.829C87.2339 192.683 88.124 187.241 88.0088 181.774L87.5056 157.126L91.1772 134.782Z" fill="#12CF73"/>
<g opacity="0.3">
<path d="M95.0849 188.638C99.3434 185.554 103.063 181.787 106.092 177.489C107.286 175.629 108.599 173.849 110.023 172.159C111.456 170.459 113.415 169.286 115.589 168.825C119.002 168.267 122.257 170.225 125.158 172.096L134.773 178.315C135.546 178.91 136.458 179.297 137.423 179.439C138.398 179.502 139.781 179.494 139.883 178.527C137.267 177.054 134.755 175.402 132.367 173.582C129.065 171.034 125.566 169.25 122.272 166.702C120.747 165.523 119.127 164.171 118.774 162.276C118.766 161.597 118.593 160.931 118.27 160.334C117.712 159.642 116.698 159.658 115.794 159.736C114.064 159.894 112.248 160.075 110.786 161.018C108.765 162.323 107.861 164.76 106.973 167.001C103.937 174.628 99.6895 181.714 94.3931 187.985" fill="black"/>
</g>
<path d="M91.1772 134.781C91.1772 134.781 81.7033 136.684 79.8557 150.631C78.0081 164.579 72.654 182.866 75.8146 188.637C76.703 190.264 79.6985 193.433 81.436 194.07C86.4835 195.933 91.8298 191.758 95.2341 187.591L104.849 173.235L106.87 169.438L96.6493 162.818L90.5246 169.217L91.1772 134.781Z" fill="#12CF73"/>
<path d="M132.178 126.463C135.321 126.991 138.313 128.19 140.95 129.978C143.588 131.766 145.809 134.101 147.462 136.825C155.458 149.593 160.042 171.537 158.886 178.133C157.841 184.273 147.352 188.086 144.601 186.435C142.03 184.863 115.904 162.637 115.904 162.637L124.45 153.304L139.247 161.025L134.529 145.725L132.178 126.463Z" fill="#12CF73"/>
<path d="M94.3457 153.092C94.4872 153.092 94.2749 156.134 93.7796 159.845C93.5437 161.614 93.3236 163.226 93.1428 164.563C93.086 165.223 92.9756 165.878 92.8126 166.52C92.6711 166.52 92.8833 163.47 93.3786 159.767C93.6145 157.99 93.8346 156.386 94.0155 155.049C94.0713 154.389 94.1817 153.734 94.3457 153.092Z" fill="#263238"/>
<path d="M135.756 149.75C135.756 149.75 135.756 149.805 135.834 149.931L136.023 150.497L136.731 152.683L139.357 160.954L139.435 161.213L139.199 161.088L124.379 153.414H124.568L116.045 162.762V162.495C122.933 168.533 130.724 175.389 139.066 182.473L141.896 184.831C142.376 185.201 142.84 185.617 143.319 185.948C143.542 186.127 143.784 186.28 144.042 186.404C144.311 186.5 144.591 186.561 144.876 186.584C146.045 186.656 147.218 186.525 148.343 186.199C149.469 185.9 150.566 185.503 151.622 185.012C153.696 184.1 155.556 182.76 157.078 181.081C157.798 180.27 158.335 179.312 158.65 178.274C158.893 177.245 158.986 176.185 158.925 175.129C158.707 171.092 158.131 167.083 157.204 163.147C156.417 159.429 155.45 156.009 154.475 152.927C153.024 148.019 151.063 143.276 148.626 138.775C147.933 137.561 147.145 136.404 146.267 135.315C145.984 134.93 145.717 134.686 145.568 134.529C145.484 134.436 145.405 134.339 145.332 134.238C145.685 134.572 146.018 134.927 146.33 135.3C147.217 136.367 148.006 137.512 148.689 138.72C151.192 143.206 153.201 147.951 154.68 152.872C155.678 155.961 156.63 159.389 157.463 163.092C158.413 167.049 159.005 171.083 159.232 175.145C159.301 176.248 159.206 177.356 158.949 178.431C158.612 179.521 158.047 180.526 157.29 181.38C155.729 183.101 153.825 184.478 151.7 185.421C150.624 185.922 149.506 186.327 148.359 186.632C147.186 186.975 145.962 187.111 144.742 187.033C144.422 187.004 144.107 186.933 143.807 186.82C143.525 186.686 143.261 186.517 143.02 186.317C142.517 185.956 142.061 185.531 141.574 185.185L138.735 182.826C130.386 175.75 122.61 168.871 115.739 162.809L115.597 162.691L115.723 162.55L124.285 153.233L124.371 153.139L124.481 153.194L139.254 160.962L139.097 161.095C138.012 157.542 137.163 154.727 136.573 152.785C136.29 151.834 136.07 151.103 135.921 150.584L135.756 150.018V149.75Z" fill="#263238"/>
<path d="M148.736 160.908C148.657 161.01 146.833 159.689 144.302 158.549C141.77 157.409 139.584 156.977 139.584 156.828C140.082 156.815 140.579 156.885 141.055 157.032C142.221 157.305 143.358 157.69 144.451 158.18C145.555 158.659 146.608 159.246 147.596 159.933C148.026 160.195 148.41 160.524 148.736 160.908Z" fill="#263238"/>
<path d="M85.8231 174.131C85.8756 174.059 85.9334 173.991 85.996 173.927L86.5385 173.329L88.6534 171.065L96.5156 162.715L96.5864 162.637L96.6886 162.692L107.216 168.981L107.358 169.068L107.279 169.217L104.975 173.353L95.0768 188.079C93.5639 189.956 91.7588 191.578 89.7306 192.882C88.0638 194.009 86.1186 194.653 84.1091 194.746C83.6129 194.75 83.1175 194.702 82.631 194.604C82.1516 194.478 81.6896 194.293 81.2552 194.054C80.4102 193.586 79.6192 193.028 78.8965 192.387C77.4626 191.186 76.2654 189.727 75.3664 188.086C75.2599 187.879 75.1705 187.664 75.0991 187.442C75.0362 187.222 74.9969 186.994 74.9497 186.773L74.8003 186.105C74.8003 185.885 74.761 185.657 74.7374 185.437C74.6605 184.561 74.6342 183.682 74.6588 182.803C74.8342 179.538 75.2176 176.287 75.8067 173.07C76.302 170.051 76.8366 167.244 77.3162 164.689C78.299 159.578 79.0852 155.435 79.5648 152.565C79.8164 151.134 79.9894 150.018 80.1073 149.263C80.1702 148.901 80.2174 148.611 80.2488 148.398L80.3117 148.107C80.3204 148.207 80.3204 148.307 80.3117 148.406C80.3117 148.618 80.2488 148.909 80.2095 149.271C80.1152 150.057 79.9658 151.158 79.7378 152.597C79.3054 155.474 78.5585 159.625 77.615 164.744C77.1511 167.307 76.6401 170.106 76.1526 173.125C75.6052 176.329 75.2534 179.564 75.0991 182.811C75.077 183.674 75.1059 184.538 75.1856 185.398C75.1856 185.618 75.1856 185.838 75.2485 186.05L75.39 186.687C75.4372 186.899 75.4765 187.112 75.5315 187.324C75.6019 187.528 75.686 187.728 75.7831 187.921C76.6656 189.508 77.833 190.918 79.2267 192.08C80.6262 193.252 82.2222 194.439 84.1563 194.337C86.0887 194.248 87.9585 193.625 89.5576 192.536C91.546 191.251 93.3185 189.659 94.8095 187.819L104.732 173.117C105.518 171.686 106.304 170.287 107.09 168.989L107.153 169.225L96.6571 162.935H96.8301L88.85 171.199C87.9144 172.142 87.1911 172.889 86.6801 173.408L86.114 173.974C85.8938 174.076 85.8309 174.139 85.8231 174.131Z" fill="#263238"/>
<path d="M117.94 177.441C117.94 177.504 116.989 177.85 115.487 178.558C113.547 179.474 111.703 180.583 109.984 181.868C108.259 183.165 106.665 184.63 105.227 186.239C104.126 187.481 103.521 188.315 103.458 188.275C103.553 188.05 103.677 187.839 103.828 187.646C104.192 187.101 104.585 186.576 105.007 186.074C107.796 182.689 111.362 180.026 115.401 178.314C116.187 177.992 116.816 177.764 117.264 177.63C117.478 177.532 117.706 177.468 117.94 177.441Z" fill="#263238"/>
<path d="M97.5926 163.526L96.6884 157.779L92.4429 153.117L92.9539 145.766C92.9539 145.766 94.5263 145.247 94.5263 146.694C94.5263 148.14 95.0295 151.67 95.0295 151.67L96.2875 152.81L96.083 145.671L99.2987 141.615C99.6702 141.965 99.928 142.42 100.039 142.919C100.149 143.418 100.108 143.938 99.9198 144.413C99.6467 145.306 99.224 146.147 98.6697 146.898L98.9842 151.356H100.093V147.212L104.81 141.104C104.81 141.104 105.329 141.512 104.81 143.376C104.441 144.63 103.954 145.846 103.356 147.008L105.038 154.571L106.61 155.295L107.397 154.052L109.755 149.076C109.956 149.02 110.168 149.019 110.369 149.075C110.57 149.13 110.752 149.239 110.895 149.39C111.312 149.909 109.755 153.942 109.653 154.674C109.551 155.405 111.972 160.059 110.966 162.441L106.249 168.574L97.5926 163.526Z" fill="#FFBE9D"/>
<path d="M101.642 135.08V159.358H115.448V135.465L101.642 135.08Z" fill="#263238"/>
<path d="M115.448 140.27C115.448 140.27 117.673 140.27 117.877 141.928C118.082 143.587 118.082 144.287 119.536 145.97C120.991 147.652 122.539 149.075 122.846 152.597L123.176 154.374L116.942 160.994C116.942 160.994 106.65 160.782 105.376 160.365C104.462 160.025 103.609 159.536 102.853 158.919L101.406 154.571C101.406 154.571 101.933 153.588 102.861 154.854C103.625 155.826 104.466 156.736 105.376 157.574L108.451 157.881L109.897 157.157L104.205 154.673C104.205 154.673 100.062 152.393 100.062 151.874C100.062 151.355 100.242 150.16 100.242 150.16C100.036 149.871 99.9104 149.532 99.8786 149.178C99.8468 148.825 99.91 148.469 100.062 148.147C100.573 147.007 102.648 148.147 102.648 148.147C102.648 148.147 108.938 150.506 109.897 150.632C110.656 150.688 111.418 150.688 112.177 150.632L102.963 145.246C102.963 145.246 102.963 144.208 104.826 144.625C106.689 145.042 112.279 147.212 113.317 147.416C114.066 147.494 114.818 147.31 115.448 146.897V140.27Z" fill="#FFBE9D"/>
<path d="M115.448 140.269C115.448 140.269 115.448 140.426 115.448 140.725C115.448 141.024 115.448 141.464 115.448 142.015C115.448 143.155 115.448 144.798 115.503 146.897V146.952C115.123 147.192 114.706 147.364 114.268 147.463C113.787 147.569 113.285 147.536 112.822 147.369C111.878 147.078 110.88 146.724 109.818 146.354C108.757 145.985 107.625 145.568 106.438 145.207C105.832 145 105.215 144.829 104.59 144.696C104.283 144.637 103.969 144.637 103.662 144.696C103.526 144.712 103.399 144.773 103.3 144.868C103.2 144.963 103.135 145.087 103.112 145.222L103.033 145.089L112.271 150.451L112.79 150.749L112.193 150.789C111.39 150.863 110.582 150.863 109.779 150.789C108.981 150.585 108.194 150.341 107.42 150.058C105.848 149.515 104.236 148.933 102.601 148.32C102.26 148.147 101.901 148.01 101.532 147.911C101.19 147.796 100.817 147.822 100.494 147.982C100.243 148.247 100.108 148.6 100.116 148.965C100.108 149.35 100.224 149.727 100.447 150.042L100.494 150.113V150.191C100.415 150.718 100.344 151.268 100.313 151.803C100.258 151.882 100.549 152.11 100.737 152.259C100.953 152.432 101.179 152.592 101.414 152.739C102.349 153.36 103.348 153.934 104.354 154.5L108.615 156.355L110.054 156.984L110.455 157.157L110.062 157.354L108.615 158.077H108.56H108.505L105.423 157.762H105.353L105.305 157.715C104.617 157.075 103.964 156.397 103.348 155.687C103.033 155.341 102.766 154.901 102.483 154.633C102.365 154.501 102.203 154.417 102.027 154.397C101.948 154.407 101.872 154.436 101.806 154.481C101.741 154.526 101.687 154.586 101.649 154.657V154.5L103.096 158.847L103.033 158.761C103.523 159.157 104.049 159.504 104.606 159.799C104.877 159.948 105.161 160.071 105.455 160.168C105.75 160.24 106.049 160.29 106.351 160.318C107.593 160.451 108.828 160.514 110.038 160.569C112.46 160.687 114.756 160.758 116.996 160.813L116.863 160.868L123.152 154.264V154.39C123.035 153.753 122.932 153.179 122.83 152.613C122.759 151.498 122.493 150.404 122.044 149.381C121.606 148.487 121.045 147.659 120.377 146.921C119.775 146.285 119.225 145.601 118.734 144.876C118.343 144.241 118.109 143.521 118.05 142.777C118.061 142.207 117.917 141.644 117.633 141.15C117.363 140.831 117.005 140.598 116.603 140.481C116.272 140.382 115.933 140.311 115.589 140.269C115.94 140.252 116.292 140.297 116.627 140.403C117.051 140.513 117.432 140.748 117.72 141.079C117.906 141.304 118.026 141.576 118.066 141.865C118.121 142.156 118.152 142.455 118.199 142.785C118.272 143.503 118.509 144.194 118.891 144.806C119.387 145.514 119.939 146.182 120.542 146.803C121.235 147.549 121.818 148.391 122.272 149.303C122.703 150.361 122.943 151.487 122.979 152.628C123.082 153.187 123.192 153.761 123.31 154.405V154.476L123.255 154.531L117.044 161.159L116.996 161.222H116.918C114.701 161.222 112.373 161.12 109.952 161.01C108.733 160.955 107.499 160.899 106.233 160.774C105.908 160.74 105.584 160.685 105.266 160.609C104.953 160.499 104.649 160.367 104.354 160.215C103.771 159.906 103.219 159.542 102.703 159.13H102.664V159.075C102.184 157.652 101.697 156.198 101.209 154.728V154.641L101.249 154.563C101.319 154.429 101.422 154.317 101.549 154.235C101.676 154.154 101.821 154.107 101.972 154.099C102.254 154.114 102.518 154.238 102.711 154.445C103.073 154.814 103.293 155.184 103.607 155.53C104.213 156.227 104.856 156.891 105.533 157.519L105.415 157.464L108.497 157.77H108.387L109.834 157.047V157.346L108.395 156.717L104.11 154.861C103.088 154.295 102.098 153.713 101.138 153.084C100.903 152.927 100.667 152.77 100.439 152.589L100.101 152.306C100.044 152.244 99.9914 152.178 99.9434 152.11C99.9118 152.05 99.888 151.987 99.8726 151.921C99.8654 151.879 99.8654 151.837 99.8726 151.795C99.8726 151.221 99.9827 150.687 100.053 150.144L100.101 150.301C99.8189 149.911 99.6725 149.438 99.6839 148.957C99.649 148.716 99.6797 148.47 99.7726 148.246C99.8656 148.021 100.018 147.825 100.212 147.68C100.407 147.534 100.638 147.444 100.879 147.418C101.121 147.392 101.366 147.432 101.587 147.534C101.994 147.638 102.387 147.792 102.758 147.99C104.385 148.603 105.997 149.193 107.562 149.743C108.348 150.003 109.134 150.293 109.873 150.459C110.658 150.531 111.447 150.531 112.232 150.459L112.161 150.797L102.955 145.387L102.868 145.34V145.254C102.887 145.048 102.975 144.854 103.118 144.705C103.261 144.555 103.45 144.457 103.654 144.428C104.002 144.361 104.36 144.361 104.708 144.428C105.344 144.569 105.972 144.747 106.587 144.963C107.782 145.356 108.946 145.749 109.968 146.134C110.99 146.52 112.02 146.881 112.947 147.18C113.365 147.319 113.81 147.358 114.245 147.294C114.681 147.229 115.095 147.064 115.455 146.81V146.889C115.455 144.766 115.455 143.107 115.51 141.952C115.51 141.428 115.51 141.003 115.51 140.678C115.477 140.544 115.456 140.407 115.448 140.269Z" fill="#EB996E"/>
<path d="M111.108 154.374C110.533 154.358 109.963 154.257 109.417 154.076C108.082 153.728 106.77 153.3 105.486 152.794C104.196 152.296 102.936 151.724 101.712 151.08C101.185 150.846 100.695 150.536 100.258 150.16C100.802 150.328 101.329 150.549 101.83 150.821C102.789 151.253 104.126 151.827 105.628 152.393C107.129 152.959 108.497 153.447 109.504 153.769C110.056 153.92 110.593 154.122 111.108 154.374Z" fill="#EB996E"/>
<path d="M112.389 156.89C112.444 156.985 112.138 157.252 111.666 157.229C111.194 157.205 110.88 156.898 110.99 156.812C111.1 156.725 111.344 156.812 111.69 156.812C112.035 156.812 112.334 156.788 112.389 156.89Z" fill="#EB996E"/>
<path d="M114.001 154.131C114.103 154.178 113.891 154.658 113.317 154.815C112.743 154.972 112.318 154.674 112.381 154.579C112.444 154.485 112.798 154.579 113.167 154.422C113.537 154.265 113.899 154.068 114.001 154.131Z" fill="#EB996E"/>
<path d="M115.903 150.348C115.998 150.411 115.809 150.789 115.353 150.906C114.897 151.024 114.567 150.796 114.567 150.702C114.567 150.608 114.905 150.608 115.219 150.513C115.534 150.419 115.817 150.27 115.903 150.348Z" fill="#EB996E"/>
<path d="M117.555 146.464C117.555 146.574 117.036 146.739 116.376 146.904C115.715 147.069 115.165 147.171 115.118 147.069C115.071 146.967 115.589 146.676 116.273 146.503C116.957 146.33 117.539 146.338 117.555 146.464Z" fill="#EB996E"/>
<path d="M124.552 110.614C123.412 107.414 122.359 104.026 121.006 100.904C120.771 100.346 120.079 100.118 119.851 99.5522C118.09 95.1965 116.784 90.5736 114.048 86.7526C111.312 82.9316 106.642 79.999 102.051 80.9739L103.765 87.5309C106.123 91.0689 111.226 92.2954 112.916 96.1793C113.993 98.6637 113.357 101.604 114.284 104.152C114.898 105.85 116.171 107.241 116.91 108.869C117.948 111.18 117.877 113.822 117.791 116.361L117.476 125.576C117.421 127.211 117.398 128.988 118.38 130.293C119.906 132.337 123.562 132.455 126.093 132.149C127.202 132.015 128.452 132.101 128.979 131.999C128.979 131.999 127.878 123.547 127.807 123.036C126.911 116.849 126.636 116.464 124.552 110.614Z" fill="#263238"/>
<path d="M130.574 124.845C130.56 124.662 130.56 124.478 130.574 124.294C130.574 123.886 130.637 123.359 130.684 122.722C130.771 121.338 130.936 119.349 130.999 116.88C131.106 113.986 130.919 111.089 130.441 108.232C130.145 106.561 129.684 104.922 129.065 103.342C128.407 101.646 127.538 100.04 126.478 98.5616C125.42 97.0803 124.13 95.7795 122.657 94.7092C121.264 93.7471 119.749 92.9751 118.152 92.4134C115.094 91.3127 112.2 90.613 109.96 89.4966C108.146 88.7 106.534 87.5072 105.242 86.0058C104.767 85.4612 104.39 84.8388 104.126 84.166C104.497 84.7745 104.913 85.3552 105.368 85.9036C106.684 87.3398 108.292 88.4767 110.085 89.2371C112.31 90.2985 115.18 90.9668 118.278 92.0596C119.916 92.633 121.469 93.4265 122.893 94.4183C124.409 95.5048 125.737 96.8328 126.824 98.3493C127.907 99.8565 128.789 101.498 129.45 103.232C130.077 104.837 130.538 106.502 130.826 108.201C131.295 111.071 131.456 113.984 131.305 116.888C131.203 119.365 130.999 121.354 130.857 122.73C130.779 123.39 130.716 123.909 130.669 124.302C130.658 124.486 130.627 124.668 130.574 124.845Z" fill="#E0E0E0"/>
<path d="M129.427 94.5987C128.495 93.652 127.461 92.8109 126.345 92.0906C125.101 91.3586 123.783 90.7604 122.414 90.3059C120.73 89.7476 119.019 89.2752 117.288 88.8907C114.123 88.1342 111.093 86.8987 108.301 85.227C107.467 84.7096 106.678 84.1231 105.942 83.4737C105.648 83.2462 105.384 82.982 105.156 82.6875C105.458 82.8829 105.745 83.1011 106.013 83.3401C106.786 83.9339 107.597 84.475 108.443 84.9597C111.246 86.5402 114.254 87.7255 117.382 88.4819C119.124 88.8695 120.843 89.3524 122.532 89.9285C123.91 90.4116 125.229 91.0499 126.463 91.8312C127.297 92.3643 128.061 93.0009 128.735 93.726C128.916 93.924 129.086 94.1313 129.246 94.3471C129.387 94.5122 129.435 94.5908 129.427 94.5987Z" fill="#E0E0E0"/>
<path d="M124.466 131.582C123.86 131.204 123.314 130.737 122.846 130.198C121.519 128.742 120.631 126.94 120.283 125.001C120.172 124.362 120.114 123.715 120.11 123.067C120.132 122.362 120.211 121.66 120.346 120.968C120.613 119.537 121.093 118.067 121.423 116.494C121.856 114.887 121.773 113.185 121.187 111.628C120.503 110.055 119.111 108.758 118.357 106.973C117.602 105.188 117.618 103.294 117.287 101.595C116.969 99.9529 116.308 98.3962 115.346 97.0276C114.475 95.7792 113.476 94.6251 112.366 93.5839C111.414 92.6563 110.383 91.8144 109.284 91.0681C107.644 90.0319 106.143 88.7901 104.818 87.3728C104.335 86.8404 103.956 86.2216 103.702 85.5488C104.062 86.1551 104.475 86.7287 104.936 87.2628C106.292 88.6307 107.807 89.8316 109.449 90.8401C110.569 91.5849 111.621 92.4267 112.594 93.3559C113.735 94.4007 114.761 95.5658 115.652 96.831C116.66 98.2391 117.352 99.8482 117.681 101.548C118.019 103.294 118.027 105.157 118.734 106.847C119.442 108.538 120.825 109.819 121.549 111.494C122.171 113.128 122.256 114.918 121.792 116.604C121.439 118.177 120.951 119.663 120.676 121.062C120.54 121.733 120.458 122.414 120.432 123.098C120.424 123.73 120.468 124.361 120.566 124.985C120.875 126.878 121.69 128.652 122.925 130.119C123.411 130.634 123.926 131.123 124.466 131.582Z" fill="#E0E0E0"/>
</svg>
