<svg width="196" height="192" viewBox="0 0 196 192" fill="none" xmlns="http://www.w3.org/2000/svg">
<path d="M192.887 84.7091C187.782 51.2965 166.852 10.2465 125.504 5.951C125.504 5.951 94.1106 2.13194 63.1614 7.91925C44.7968 11.3545 28.6911 21.5789 18.5008 36.2746C8.3106 50.9704 4.90558 68.8886 9.03872 85.972C11.723 97.0682 13.5349 108.552 13.0376 119.954C12.172 139.797 12.6699 158.319 31.9277 170.154C49.1179 180.718 70.7613 190.04 91.4062 191.672C105.436 192.781 121.17 190.986 134.69 187.334C203.606 168.718 197.991 118.122 192.887 84.7091Z" fill="#F4F7FA"/>
<path d="M52.0336 154.559C56.7311 147.673 62.8701 136.416 64.7263 121.64C65.6409 114.362 65.7731 104.187 61.7655 93.6565C60.8595 91.2782 57.129 81.4732 53.1758 81.8108C51.5236 81.9517 50.1371 83.8354 49.5768 85.3507C47.7649 90.2535 53.4019 94.4685 51.3491 98.4553C50.7055 99.7062 49.3788 100.791 48.489 100.547C48.0823 100.435 46.8348 99.7887 46.8932 92.2674C46.9717 82.1228 49.3412 80.2552 48.8158 73.4465C48.6017 70.671 47.9749 62.549 43.1674 60.6291C41.6521 60.0252 39.2382 59.844 37.7666 61.1391C35.2836 63.3241 37.3136 68.0767 38.639 76.9321C39.9811 85.8936 39.9972 95.0677 39.0416 95.2275C38.2867 95.3543 36.6533 89.8764 35.7534 85.7795C34.1428 78.4252 35.0984 76.4516 34.0602 71.4448C32.3114 63.0134 26.7268 54.7593 23.8183 55.4069C20.9629 56.039 20.8193 65.2098 20.8133 65.8568C20.7703 70.4509 21.8789 72.5742 24.8545 83.3629C27.4998 92.9525 27.5307 94.5638 27.0019 94.8107C26.2885 95.1463 24.529 92.9935 23.5123 91.4339C20.7441 87.1995 20.775 83.2764 20.2999 79.719C19.3081 72.295 15.5776 62.4464 11.2599 62.0786C8.93729 61.8773 6.75698 64.4515 5.83358 66.2923C4.8216 68.3055 4.476 71.124 6.62343 76.9066C10.7841 88.1175 16.7566 90.1414 18.5685 99.6941C19.1155 102.585 19.3127 106.338 18.3954 106.622C17.3472 106.95 15.0595 102.684 12.8584 98.5338C8.26689 89.877 7.71124 86.3807 5.95505 86.3009C3.69689 86.1975 0.97166 91.8144 0.209993 97.0729C-0.369814 101.077 -0.500673 109.622 10.3351 123.591C22.9399 139.844 39.3684 149.216 52.0336 154.559Z" fill="#00CBC8"/>
<g style="mix-blend-mode:soft-light" opacity="0.26">
<path d="M17.9316 85.4658C22.9465 95.1722 21.4138 97.5666 25.6832 107.657C29.3197 116.252 32.3006 118.931 38.092 127.929C42.0922 134.145 47.1112 142.879 51.908 154.309C30.3666 143.364 24.9537 134.751 24.6504 128.521C24.5283 126.006 25.0007 119.021 20.5421 115.14C17.9209 112.858 16.311 114.012 12.6979 111.419C6.60658 107.048 5.45636 99.6589 5.32081 98.6919C4.82287 95.148 5.71003 93.7837 5.77177 91.1337C5.80331 89.7915 5.61876 88.2588 5.03359 86.5469C5.34295 86.3745 5.64963 86.2852 5.94826 86.2993C7.70446 86.3792 8.26011 89.8754 12.8516 98.5322C15.0527 102.682 17.3404 106.949 18.3886 106.621C19.306 106.334 19.1087 102.583 18.5617 99.6925C16.7552 90.1398 10.7813 88.1159 6.61665 76.905C4.46922 71.1204 4.81482 68.3059 5.8268 66.2907C6.67101 64.6083 8.56544 62.3226 10.6585 62.0918C10.2163 64.6029 10.0841 67.3932 10.5807 70.3527C11.5544 76.1266 14.1783 78.2028 17.9316 85.4658Z" fill="white"/>
</g>
<g style="mix-blend-mode:soft-light" opacity="0.26">
<path d="M44.5937 76.4651C44.9406 81.5726 43.8193 82.7732 43.2113 89.1953C42.4335 97.4146 42.045 101.525 44.073 105.721C46.9337 111.639 51.7232 112.022 52.7472 118.064C53.1928 120.689 52.3842 121.174 52.8908 124.589C53.6485 129.698 56.065 132.695 57.0025 134.539C58.6487 137.778 58.7587 143.431 52.2379 154.068C55.2664 135.832 51.4823 126.598 46.77 121.521C42.514 116.935 38.7842 117.12 35.0034 111.052C29.9704 102.974 34.0263 98.5467 30.3059 83.1684C28.0518 73.8406 25.9681 72.6595 25.0044 64.4845C24.6553 61.5 24.5879 58.4893 24.8031 55.4922C27.8457 56.4901 32.4896 63.894 34.0552 71.4475C35.0933 76.4557 34.135 78.4267 35.7483 85.7823C36.6469 89.8758 38.2803 95.3571 39.0366 95.2302C39.9901 95.0705 39.9714 85.8963 38.6339 76.9349C37.3106 68.0768 35.2819 63.3269 37.7615 61.1419C38.9439 60.1011 40.7337 60.0139 42.1778 60.3333C42.2028 62.284 42.3544 64.2311 42.6315 66.1622C43.3314 71.0053 44.2944 72.071 44.5937 76.4651Z" fill="white"/>
</g>
<path d="M49.0115 174.658C46.0991 176.134 37.7053 179.892 27.6117 177.43C20.6111 175.723 11.6784 170.757 9.09678 162.902C8.34653 160.62 7.49292 156.149 8.99747 155.284C10.0477 154.68 11.8871 156.041 12.2441 156.305C15.3009 158.566 14.4734 161.662 17.5523 164.237C18.7495 165.237 20.4701 166.104 20.8345 165.719C21.6579 164.847 14.205 158.973 9.9779 149.169C6.52054 141.149 5.11397 130.252 9.25583 127.371C9.41219 127.262 11.0516 126.152 12.2616 126.757C14.8069 128.028 11.8072 135.065 15.7753 141.012C16.7074 142.41 18.0932 143.85 18.575 143.593C19.6024 143.048 15.4042 135.447 13.6091 124.096C12.0408 114.176 14.2607 110.01 15.8578 108.021C16.2873 107.484 18.3227 105.054 19.6118 105.56C20.8285 106.038 20.799 108.902 20.7761 111.181C20.7204 116.586 19.2729 118.187 19.9407 121.522C20.5211 124.419 22.0807 126.867 22.58 126.721C23.198 126.542 21.8539 122.494 21.7606 116.683C21.7136 113.765 21.5432 103.09 27.1882 99.9207C28.4056 99.2376 30.3242 98.6611 31.1435 99.4329C31.9898 100.231 31.2247 102.055 29.5746 107.009C28.5519 110.079 27.3137 113.976 26.6581 118.525C26.1467 122.075 26.3648 123.419 27.0453 123.765C27.6164 124.056 28.4888 123.631 29.0209 123.169C31.6609 120.864 27.9472 115.771 30.3081 109.939C31.0227 108.176 32.6078 105.567 34.0661 105.746C36.602 106.056 37.4885 114.62 37.5845 115.614C37.9818 119.688 38.5475 125.493 35.7679 131.552C34.3506 134.639 32.2112 137.476 33.3755 139.264C33.6869 139.741 34.3305 140.293 34.9794 140.219C36.4967 140.047 36.5282 136.62 39.0729 132.182C40.1305 130.336 41.2767 128.337 42.5115 128.468C43.9094 128.616 44.9321 131.443 45.23 133.617C46.0722 139.759 41.723 144.986 42.9484 145.903C43.0591 145.986 43.5047 145.951 44.3966 145.88C46.4011 145.72 46.8795 145.415 47.5425 145.553C49.0733 145.873 49.8242 148.187 49.9007 148.43C51.1455 152.42 46.089 155.103 43.5436 163.544C42.2303 167.9 42.833 169.651 43.2168 170.466C44.5717 173.34 47.8425 174.354 49.0115 174.658Z" fill="url(#paint0_linear_543_13957)"/>
<g style="mix-blend-mode:soft-light">
<path d="M49.252 174.582C49.1177 174.595 48.9882 174.607 48.8594 174.618L48.9735 174.648L49.252 174.582Z" fill="url(#paint1_linear_543_13957)"/>
<path d="M49.0113 174.659L48.9697 174.679C49.3227 174.626 49.682 174.564 50.0475 174.494C49.775 174.528 49.5106 174.556 49.2496 174.581L48.9711 174.648L49.0113 174.659Z" fill="url(#paint2_linear_543_13957)"/>
<path d="M44.1895 171.934C45.1759 173.047 46.4537 173.74 47.5019 174.162C46.3098 173.559 45.1972 172.811 44.1895 171.934Z" fill="url(#paint3_linear_543_13957)"/>
<path d="M48.681 174.722C48.7702 174.71 48.8615 174.695 48.9494 174.682L48.8823 174.668L48.6682 174.716L48.681 174.722Z" fill="url(#paint4_linear_543_13957)"/>
<g style="mix-blend-mode:soft-light" opacity="0.8">
<path d="M10.1284 136.642C10.3814 141.296 13.3435 142.525 17.0344 149.801C19.2623 154.193 18.555 154.478 20.2683 157.921C21.2118 159.817 27.3817 171.693 39.9247 174.429C41.6648 174.809 44.694 175.266 48.5815 174.739L48.6701 174.719L48.5037 174.646C43.4283 174.99 40.7998 173.64 39.3227 172.209C37.3605 170.312 37.8584 168.437 34.9299 165.264C31.902 161.983 30.3766 162.329 28.8278 159.997C25.9053 155.598 29.9418 152.269 27.7138 146.481C25.7369 141.345 21.7607 141.888 20.3099 136.556C19.3536 133.042 20.9951 132.49 20.1253 127.732C19.1926 122.632 17.1626 122.49 16.8371 118.329C16.5385 114.528 18.1524 113.612 18.3202 108.893C18.3559 107.872 18.3185 106.85 18.2081 105.834C17.1766 106.438 16.1533 107.663 15.8627 108.025C14.2655 110.013 12.0456 114.179 13.6139 124.1C15.4084 135.451 19.6066 143.052 18.5799 143.597C18.098 143.853 16.7123 142.413 15.7801 141.016C11.8121 135.069 14.8118 128.032 12.2664 126.761C11.6745 126.465 10.98 126.579 10.4069 126.787C10.5636 127.529 10.6769 128.28 10.7464 129.036C11.0961 132.936 9.96463 133.681 10.1284 136.642Z" fill="white"/>
</g>
<path d="M48.6902 174.63C48.5513 174.602 48.4104 174.571 48.2661 174.537C48.344 174.573 48.4218 174.61 48.501 174.644C48.5634 174.64 48.6272 174.636 48.6902 174.63Z" fill="url(#paint5_linear_543_13957)"/>
<path d="M48.6674 174.718L48.8815 174.67L48.6902 174.631C48.6271 174.636 48.5634 174.641 48.501 174.645L48.6674 174.718Z" fill="url(#paint6_linear_543_13957)"/>
<path d="M48.5808 174.736L48.6828 174.722L48.6694 174.717L48.5808 174.736Z" fill="url(#paint7_linear_543_13957)"/>
<g style="mix-blend-mode:soft-light" opacity="0.8">
<path d="M48.5808 174.736C44.6443 175.624 40.6129 176.022 36.5787 175.919C31.3047 175.777 25.606 175.542 22.164 171.742C21.1454 170.617 20.9689 169.893 19.3798 168.4C16.0788 165.301 13.877 165.643 12.1114 163.131C10.9034 161.414 11.488 160.623 10.5276 157.551C10.2687 156.726 9.956 155.919 9.5915 155.135C9.38459 155.134 9.18091 155.186 8.99961 155.286C7.49507 156.151 8.34867 160.622 9.09893 162.904C11.6785 170.758 20.6112 175.725 27.6118 177.429C37.4632 179.83 45.6932 176.313 48.7902 174.768L48.6808 174.72L48.5808 174.736Z" fill="white"/>
</g>
<g style="mix-blend-mode:soft-light" opacity="0.8">
<path d="M42.513 128.469C41.2782 128.335 40.132 130.337 39.0744 132.183C36.531 136.621 36.4995 140.048 34.9809 140.22C34.3319 140.294 33.6884 139.742 33.377 139.264C32.2127 137.477 34.3521 134.642 35.7694 131.553C38.549 125.494 37.9839 119.689 37.586 115.615C37.4893 114.621 36.6035 106.057 34.0675 105.747C32.6073 105.568 31.0222 108.177 30.3095 109.94C27.9467 115.772 31.6624 120.865 29.0224 123.169C28.4902 123.634 27.6178 124.057 27.0468 123.766C26.3663 123.42 26.1482 122.076 26.6596 118.526C27.3152 113.977 28.5533 110.08 29.576 107.01C31.2262 102.056 31.9919 100.232 31.145 99.4338C30.7001 99.0143 29.9304 98.9949 29.1251 99.172C29.1302 99.8973 29.0494 100.621 28.8842 101.327C28.2614 103.962 26.9112 104.304 26.1871 107.245C25.5409 109.87 26.4401 110.316 25.9368 113.643C25.4261 117.018 24.443 116.947 24.1142 119.564C23.6532 123.234 25.5369 123.761 25.908 128.586C26.2502 133.04 24.7349 133.747 25.712 136.63C26.724 139.618 28.4728 139.22 30.4572 142.567C33.1582 147.123 30.639 149.076 33.322 153.47C35.3191 156.741 37.6041 157.118 38.1047 160.274C38.398 162.122 37.7162 162.631 38.0503 164.719C38.5349 167.749 40.4662 169.793 41.2769 170.646C43.4619 172.955 46.126 174.033 48.2668 174.539C48.0064 174.418 47.752 174.293 47.5024 174.165C46.4542 173.743 45.1765 173.049 44.19 171.936C43.023 170.904 42.117 169.741 41.5346 168.471C40.332 165.85 40.3407 163.765 40.3407 163.765C40.3582 159.537 43.3196 157.927 42.4674 155.482C41.6151 153.037 38.1477 153.162 37.9215 151.093C37.7557 149.579 39.5864 149.263 40.4206 146.835C41.3561 144.112 39.5562 143.051 40.0065 139.816C40.4501 136.63 42.3848 136.311 43.2371 133.136C43.5149 132.1 43.6874 130.72 43.4102 128.956C43.1331 128.678 42.8331 128.502 42.513 128.469Z" fill="white"/>
</g>
<path d="M48.6902 174.629L48.8573 174.617C48.397 174.492 47.9444 174.34 47.5017 174.162C47.7513 174.29 48.0057 174.416 48.2661 174.536C48.4103 174.57 48.5513 174.6 48.6902 174.629Z" fill="url(#paint8_linear_543_13957)"/>
<path d="M48.9715 174.648L48.8816 174.669L48.9487 174.683H48.9675L49.0091 174.662L48.9715 174.648Z" fill="url(#paint9_linear_543_13957)"/>
<path d="M48.9606 174.684L48.97 174.68H48.9512L48.9606 174.684Z" fill="url(#paint10_linear_543_13957)"/>
<path d="M48.6807 174.721L48.79 174.769L48.9605 174.684H48.9511C48.8612 174.695 48.7699 174.709 48.6807 174.721Z" fill="url(#paint11_linear_543_13957)"/>
<path d="M48.8814 174.668L48.9714 174.648L48.8573 174.617L48.6902 174.629L48.8814 174.668Z" fill="url(#paint12_linear_543_13957)"/>
</g>
<path d="M79.8599 127.728C97.5044 113.218 102.628 100.048 104.057 90.7231C105.154 83.5688 107.261 57.891 102.054 38.1555C101.358 35.5175 99.2404 28.0895 102.709 24.8314C104.252 23.3839 107.052 22.6061 109.031 23.6335C112.209 25.283 110.798 30.306 112.868 44.1408C113.531 48.5739 114.571 54.039 118.149 59.6646C118.406 60.0673 120.766 63.7796 121.437 63.4589C122.338 63.0307 119.357 55.855 115.878 44.0649C111.841 30.361 111.075 23.7845 113.373 17.4235C113.895 15.9773 115.204 12.3542 117.1 12.2952C119.859 12.2099 122.78 19.7064 123.845 25.6213C124.873 31.32 123.851 33.7358 125.342 42.3826C126.403 48.543 127.277 49.3785 127.913 49.4583C129.349 49.6382 131.301 46.1748 132.093 43.1328C133.905 36.1698 129.504 31.9387 124.861 18.3932C121.946 9.88736 120.164 4.49061 122.73 1.7352C125.276 -1.00075 131.163 -0.118292 134.97 1.77211C141.561 5.04022 143.806 12.2683 146.069 19.534C147.742 24.9126 151.614 37.3616 150.054 46.2902C149.703 48.3034 149.956 50.9447 150.471 51.032C151.324 51.1769 153.878 44.3884 154.419 37.369C155.172 27.6204 151.857 19.846 150.93 17.7939C146.737 8.54186 141.039 5.33549 142.434 2.76194C143.68 0.460841 149.624 0.444064 154.036 2.50492C161.894 6.17567 164.057 16.0484 165.914 24.5355C167.336 31.0308 171.877 51.7648 163.243 62.0161C162.091 63.3844 158.792 66.8357 159.801 69.5038C160.317 70.8695 161.983 72.0875 163.454 71.9197C168.734 71.3278 170.667 53.0056 170.91 50.5455C171.983 39.6251 167.028 33.7016 170.171 30.9287C172.314 29.0424 176.718 29.5128 179.524 31.4227C187.919 37.1355 187.585 59.523 177.41 74.1825C166.415 90.0245 145.395 94.728 146.3 97.062C146.693 98.0746 150.726 97.374 152.42 97.0801C154.393 96.7372 173.446 93.1174 181.525 76.4917C185.131 69.0697 184.618 63.0334 187.053 62.7905C189.488 62.5475 192.931 68.2657 193.409 73.0323C194.933 88.2253 167.152 102.534 155.788 108.387C140.797 116.11 115.598 126.185 79.8599 127.728Z" fill="#00CBC8"/>
<g style="mix-blend-mode:soft-light" opacity="0.26">
<path d="M138.039 18.6486C141.983 26.1424 137.993 29.7883 139.891 42.8238C141.442 53.4824 144.432 53.2617 144.813 60.1999C145.358 70.1874 139.537 77.5483 129.408 90.3577C122.682 98.8622 114.567 108.934 100.172 117.747C94.3432 121.313 88.1601 124.263 81.7218 126.551C81.3751 126.75 81.023 126.948 80.6655 127.145C91.6235 124.912 100.1 122.008 106.064 119.609C113.299 116.699 116.869 114.523 119.999 111.901C125.099 107.63 125.264 105.33 133.212 95.3834C141.769 84.6751 142.59 86.0743 145.316 80.8393C149.905 72.0275 147.087 69.009 152.17 61.7983C156.174 56.1171 159.283 56.0641 161.103 50.9129C162.319 47.4764 161.624 45.5538 160.511 37.1936C158.085 18.9734 159.915 17.0561 156.734 13.3229C153.209 9.18446 149.451 9.76628 145.818 4.1964C145.239 3.30923 144.734 2.37651 144.306 1.40744C143.428 1.70002 142.763 2.14897 142.432 2.76031C141.037 5.33588 146.735 8.54225 150.928 17.7923C151.857 19.8444 155.172 27.6187 154.417 37.3674C153.876 44.3848 151.322 51.1753 150.469 51.0304C149.954 50.9431 149.701 48.2998 150.052 46.2886C151.611 37.3633 147.739 24.911 146.066 19.5324C143.807 12.2667 141.559 5.03725 134.971 1.7678C131.342 -0.0346936 125.823 -0.916479 123.11 1.37522C124.493 2.89855 126.09 4.67018 127.85 6.64379C134.151 13.7108 137.3 17.2447 138.039 18.6486Z" fill="white"/>
</g>
<g style="mix-blend-mode:soft-light" opacity="0.26">
<path d="M187.055 62.7907C184.62 63.0336 185.133 69.0699 181.527 76.4919C173.448 93.1177 154.394 96.7374 152.422 97.0803C150.728 97.3743 146.695 98.0749 146.302 97.0622C145.397 94.7282 166.417 90.0247 177.412 74.1828C187.587 59.5233 187.921 37.1357 179.526 31.4229C177.766 30.225 175.378 29.5942 173.313 29.7553C173.906 32.1644 174.662 34.9319 175.627 37.9598C178.26 46.2186 179.931 48.5365 180.019 53.2481C180.158 60.6339 176.261 66.2991 174.755 68.4874C170.259 75.0277 167.078 74.2479 154.191 84.5662C145.758 91.3179 142.518 95.3369 141.499 96.6381C136.627 102.858 134.445 108.344 133.809 109.708C130.744 116.288 118.656 123.582 80.1234 127.505C80.0335 127.58 79.9483 127.653 79.855 127.727C115.593 126.184 140.792 116.109 155.785 108.387C167.149 102.534 194.93 88.2256 193.407 73.0326C192.933 68.266 189.484 62.5484 187.055 62.7907Z" fill="white"/>
</g>
<g style="mix-blend-mode:soft-light" opacity="0.26">
<path d="M109.606 47.2219C110.873 55.1002 108.197 55.7089 109.864 62.5733C111.769 70.4167 115.736 71.573 115.037 76.5543C114.433 80.8492 111.293 81.3552 108.093 87.519C105.156 93.1747 105.019 98.1037 104.749 100.085C104.018 105.461 98.9724 113.717 81.0796 126.777C81.2923 126.703 81.5044 126.629 81.7198 126.552C90.5498 121.503 96.4391 116.053 100.436 111.488C104.836 106.463 105.047 104.68 113.218 94.996C121.59 85.0756 124.163 83.6355 126.496 77.8985C127.541 75.3296 131.092 66.6017 128.04 57.7234C125.454 50.1994 120.457 49.3425 119.837 42.0513C119.445 37.4169 121.355 36.4606 120.635 30.8746C120.023 26.1362 118.407 24.9444 117.135 19.9832C116.524 17.5781 116.197 15.11 116.158 12.6289C114.771 13.5644 113.809 16.2292 113.375 17.421C111.078 23.7814 111.843 30.3579 115.881 44.0625C119.356 55.8559 122.34 63.0316 121.439 63.4564C120.764 63.7772 118.405 60.0662 118.151 59.6622C114.574 54.0366 113.533 48.5714 112.87 44.1383C110.8 30.3035 112.211 25.2813 109.034 23.6311C107.859 23.0218 106.396 23.0506 105.074 23.4747C104.523 25.6758 104.231 28.0924 104.422 30.6746C104.925 37.4679 108.264 38.8765 109.606 47.2219Z" fill="white"/>
</g>
<path d="M124.82 164.048C122.329 156.093 119.731 143.537 122.254 128.86C123.497 121.631 126.331 111.858 133.229 102.948C134.788 100.935 141.211 92.6405 144.897 94.1141C146.436 94.7295 147.215 96.9326 147.313 98.5479C147.62 103.766 141 106.159 141.804 110.57C142.056 111.954 143.012 113.379 143.932 113.403C144.354 113.415 145.735 113.159 147.868 105.946C150.744 96.2159 149.022 93.739 151.504 87.3806C152.517 84.7876 155.48 77.1992 160.637 76.763C162.263 76.6254 164.624 77.1549 165.656 78.8225C167.394 81.6349 164.071 85.5916 160.228 93.6786C156.336 101.866 153.652 110.635 154.518 111.065C155.203 111.406 158.36 106.64 160.411 102.982C164.095 96.4152 163.751 94.2497 166.202 89.7623C170.327 82.204 178.071 75.9335 180.668 77.3971C183.218 78.8326 180.684 87.6491 180.502 88.2685C179.206 92.676 177.528 94.3853 171.542 103.841C166.221 112.246 165.723 113.779 166.154 114.169C166.739 114.697 169.049 113.15 170.479 111.955C174.359 108.709 175.471 104.947 176.961 101.681C180.069 94.8671 186.505 86.5304 190.742 87.4343C193.024 87.9208 194.359 91.0152 194.708 93.0451C195.089 95.2671 194.601 98.06 190.863 102.97C183.62 112.485 177.316 112.683 172.807 121.297C171.444 123.904 170.163 127.435 170.957 127.976C171.865 128.594 175.295 125.178 178.607 121.848C185.519 114.902 187.068 111.719 188.771 112.153C190.963 112.711 191.935 118.878 191.134 124.131C190.524 128.13 188.161 136.345 173.731 146.556C156.936 158.438 138.491 162.621 124.82 164.048Z" fill="url(#paint13_linear_543_13957)"/>
<g style="mix-blend-mode:soft-light" opacity="0.26">
<path d="M177.549 107.87C169.927 115.697 170.698 118.434 163.677 126.845C157.696 134.011 154.065 135.703 145.906 142.63C140.269 147.413 132.927 154.307 125.012 163.849C148.808 159.646 156.492 152.977 158.594 147.107C159.442 144.738 161.023 137.914 166.418 135.498C169.589 134.078 170.794 135.65 175.008 134.223C182.108 131.813 185.358 125.078 185.769 124.192C187.276 120.947 186.825 119.383 187.537 116.829C187.897 115.535 188.519 114.124 189.575 112.655C189.33 112.4 189.062 112.226 188.77 112.152C187.067 111.719 185.517 114.903 178.606 121.848C175.293 125.178 171.863 128.594 170.956 127.975C170.162 127.434 171.442 123.903 172.806 121.297C177.314 112.682 183.618 112.484 190.862 102.97C194.6 98.0596 195.09 95.2666 194.706 93.0447C194.388 91.1892 193.24 88.4512 191.305 87.6211C190.998 90.1524 190.312 92.8615 188.977 95.5471C186.368 100.79 183.253 102.013 177.549 107.87Z" fill="white"/>
</g>
<g style="mix-blend-mode:soft-light" opacity="0.26">
<path d="M154.66 91.4986C152.841 96.2847 153.565 97.761 152.278 104.08C150.63 112.171 149.807 116.216 146.645 119.641C142.187 124.472 137.495 123.444 134.755 128.925C133.565 131.307 134.198 132.007 132.719 135.126C130.505 139.794 127.324 141.959 125.89 143.447C123.373 146.065 121.623 151.444 124.768 163.512C127.176 145.185 133.483 137.451 139.468 133.965C144.874 130.815 148.39 132.078 153.773 127.37C160.936 121.106 158.346 115.693 166.378 102.059C171.248 93.7937 173.586 93.2682 176.885 85.7261C178.087 82.9718 179.027 80.1108 179.694 77.1807C176.493 77.2478 169.896 82.9834 166.199 89.7545C163.748 94.2439 164.092 96.4095 160.408 102.975C158.357 106.633 155.2 111.398 154.515 111.058C153.649 110.627 156.336 101.855 160.225 93.6708C164.068 85.5838 167.392 81.6272 165.653 78.8147C164.824 77.4726 163.138 76.8686 161.663 76.7559C161.071 78.615 160.36 80.4338 159.533 82.2009C157.456 86.6427 156.224 87.3816 154.66 91.4986Z" fill="white"/>
</g>
<path d="M157.976 17.4813L51.5437 14.4051L36.6284 13.9743C32.0967 13.8434 28.4031 17.3491 28.4031 21.8083V183.85C28.4031 188.309 32.094 191.696 36.6271 191.261L134.081 181.913L158.001 179.622C161.769 179.261 164.774 175.592 164.774 171.558V24.9791C164.774 20.9453 161.743 17.5906 157.976 17.4813Z" fill="url(#paint14_linear_543_13957)"/>
<path d="M166.712 171.478C166.712 175.505 163.759 179.058 160.001 179.418L39.2082 191.016C34.6945 191.449 31.0674 188.198 31.0674 183.751V21.8665C31.0674 17.4166 34.7006 13.9157 39.2142 14.0465L160.029 17.5408C163.783 17.6495 166.712 21.0001 166.712 25.0259V171.478Z" fill="url(#paint15_linear_543_13957)"/>
<g style="mix-blend-mode:soft-light" opacity="0.7">
<path d="M36.6357 19.3184V177.656C36.6357 182.085 40.2179 185.579 44.6967 185.166L155.332 174.966C159.114 174.617 161.865 170.877 161.865 166.836V22.4778L36.6357 19.3184Z" fill="white"/>
</g>
<path d="M166.712 25.0286V35.2356L31.0659 33.1485V21.8672C31.0659 17.416 34.6226 13.9143 39.1376 14.0445L159.979 17.5401C163.737 17.6468 166.712 21.0022 166.712 25.0286Z" fill="#00522A"/>
<path d="M46.7362 23.8132C46.7362 26.013 44.9297 27.7618 42.6943 27.7189C40.459 27.6759 38.6296 25.8466 38.6296 23.6334C38.6296 21.4202 40.4523 19.6741 42.6943 19.7278C44.9364 19.7815 46.7362 21.6128 46.7362 23.8132Z" fill="white"/>
<path d="M58.7986 24.078C58.7995 24.5953 58.6965 25.1076 58.4959 25.5844C58.2953 26.0612 58.0011 26.493 57.6307 26.8541C57.2603 27.2152 56.8212 27.4984 56.3395 27.6869C55.8577 27.8754 55.343 27.9653 54.8259 27.9514C52.6221 27.9091 50.8303 26.0959 50.8303 23.9022C50.8294 23.3829 50.9331 22.8688 51.1351 22.3904C51.3371 21.9121 51.6334 21.4793 52.0063 21.1179C52.3791 20.7565 52.8209 20.4739 53.3054 20.2869C53.7898 20.0999 54.3069 20.0123 54.8259 20.0294C57.023 20.0838 58.7986 21.897 58.7986 24.078Z" fill="white"/>
<path d="M70.6592 24.3419C70.6622 24.8528 70.5627 25.3592 70.3666 25.8309C70.1704 26.3027 69.8816 26.7303 69.5173 27.0884C69.1529 27.4466 68.7204 27.728 68.2453 27.9161C67.7703 28.1041 67.2624 28.1949 66.7516 28.1831C64.5847 28.1415 62.8238 26.3444 62.8238 24.1688C62.8211 23.6565 62.9216 23.1489 63.1192 22.6762C63.3168 22.2035 63.6075 21.7754 63.974 21.4173C64.3405 21.0593 64.7753 20.7787 65.2524 20.5922C65.7296 20.4056 66.2394 20.317 66.7516 20.3316C68.9144 20.382 70.6592 22.1791 70.6592 24.3419Z" fill="white"/>
<g opacity="0.15">
<path d="M136.218 181.709L39.1692 191.026C34.6536 191.459 31.0674 188.073 31.0674 183.625V21.8691C31.0674 17.4179 34.6241 13.9163 39.139 14.0465L53.9778 14.476C53.5987 16.2369 53.2457 18.0232 52.9504 19.8351C52.9115 20.062 52.8692 20.2915 52.833 20.5183C52.5102 22.5765 52.2384 24.6641 52.0424 26.7713C51.831 29.0227 51.6968 31.2977 51.6572 33.586C51.4559 44.9466 53.506 56.6406 59.4303 67.5012C73.4973 93.2891 98.0753 93.8743 117.067 116.97C126.108 127.965 135.257 145.759 136.147 176.588C136.198 178.236 136.223 179.719 136.218 181.709Z" fill="white"/>
</g>
<g style="mix-blend-mode:multiply">
<g style="mix-blend-mode:multiply" opacity="0.3">
<path d="M153.309 44.866L50.7382 44.0667C49.4291 44.0551 48.1364 44.3597 46.9702 44.9546C44.353 46.2907 42.5552 48.9964 42.5552 52.1182V75.7124C42.5552 80.187 46.24 83.7524 50.7423 83.6612L134.804 81.9493L153.313 81.5721C157.159 81.4943 160.271 78.0926 160.271 73.9891V52.3605C160.267 48.2582 157.155 44.8948 153.309 44.866Z" fill="url(#paint16_linear_543_13957)"/>
</g>
<g style="mix-blend-mode:multiply" opacity="0.3">
<path d="M153.309 136.314L50.7382 142.71C49.4085 142.795 48.1171 143.19 46.9667 143.862C44.3496 145.382 42.5518 148.213 42.5518 151.336V174.93C42.5518 179.404 46.2366 182.714 50.7388 182.304L134.8 174.695L153.31 173.017C157.156 172.669 160.267 169.049 160.267 164.947V143.32C160.267 139.217 157.155 136.074 153.309 136.314Z" fill="url(#paint17_linear_543_13957)"/>
</g>
<g style="mix-blend-mode:multiply" opacity="0.3">
<path d="M153.309 90.4517L50.7382 93.2393C49.418 93.2758 48.1254 93.6254 46.9667 94.2593C44.3496 95.686 42.5518 98.4549 42.5518 101.574V125.168C42.5518 129.643 46.2366 133.08 50.7388 132.83L134.8 128.179L153.31 127.155C157.156 126.942 160.267 123.432 160.267 119.33V97.7026C160.267 93.6003 157.155 90.347 153.309 90.4517Z" fill="url(#paint18_linear_543_13957)"/>
</g>
</g>
<path d="M164.369 48.2343V69.7964C164.369 73.8852 161.276 77.2654 157.457 77.3312L55.5602 79.0807C51.0889 79.1572 47.4302 75.5911 47.4302 71.1325V47.6202C47.4337 46.5598 47.6474 45.5105 48.0589 44.5331C48.4703 43.5557 49.0714 42.6695 49.8274 41.9258C50.5833 41.182 51.4792 40.5955 52.4632 40.2C53.4472 39.8046 54.4998 39.608 55.5602 39.6218L157.454 40.7418C161.276 40.7841 164.369 44.1455 164.369 48.2343Z" fill="#D8DEE8"/>
<path d="M162.836 48.1297C162.836 44.5657 160.204 41.6479 156.874 41.6137L55.3351 40.5668C51.4429 40.5265 48.2654 43.6383 48.2654 47.5177V70.6166C48.2654 74.4961 51.4745 77.589 55.3653 77.5286L156.856 75.8973C160.187 75.8436 162.836 72.9124 162.836 69.3483V48.1297Z" fill="white"/>
<path d="M91.1625 54.4459L93.1757 58.3468L97.631 58.9005C97.7371 58.9115 97.8379 58.9527 97.9212 59.0194C98.0045 59.0861 98.0669 59.1753 98.101 59.2765C98.135 59.3776 98.1392 59.4864 98.1131 59.5899C98.087 59.6934 98.0317 59.7872 97.9537 59.8601L94.7386 62.9645L95.5003 67.2425C95.5828 67.7042 95.0795 68.0733 94.648 67.8673L90.631 65.9454L86.5636 68.1116C86.1214 68.3471 85.604 68.0035 85.6912 67.5304L86.473 63.1551L83.1485 60.1352C82.7875 59.8071 82.9868 59.2206 83.4841 59.1427L88.0661 58.4314L90.0955 54.46C90.3136 54.0292 90.9444 54.0231 91.1625 54.4459Z" fill="url(#paint19_linear_543_13957)"/>
<path d="M107.874 54.2733L109.789 58.0796L114.031 58.6211C114.134 58.6339 114.231 58.6757 114.311 58.7416C114.391 58.8075 114.45 58.8949 114.483 58.9934C114.515 59.0919 114.518 59.1975 114.493 59.298C114.467 59.3984 114.414 59.4895 114.338 59.5606L111.277 62.5885L112.003 66.7632C112.019 66.8662 112.007 66.9717 111.968 67.0684C111.929 67.1651 111.864 67.2492 111.781 67.3119C111.698 67.3746 111.599 67.4133 111.495 67.424C111.391 67.4347 111.286 67.4169 111.192 67.3726L107.367 65.4936L103.499 67.6021C103.078 67.8316 102.586 67.4967 102.667 67.035L103.408 62.7657L100.245 59.817C99.9013 59.4969 100.091 58.9245 100.565 58.8493L104.927 58.1574L106.859 54.2867C106.905 54.1924 106.977 54.1128 107.066 54.0567C107.155 54.0006 107.257 53.9702 107.363 53.9688C107.468 53.9674 107.571 53.9951 107.661 54.0488C107.752 54.1026 107.825 54.1803 107.874 54.2733Z" fill="url(#paint20_linear_543_13957)"/>
<path d="M123.791 54.1095L125.615 57.8259L129.659 58.356C130.092 58.4131 130.263 58.9533 129.952 59.2714L127.033 62.2241L127.725 66.3001C127.8 66.7404 127.343 67.0913 126.951 66.894L123.307 65.058L119.621 67.1142C119.533 67.1656 119.433 67.1908 119.331 67.1867C119.229 67.1826 119.131 67.1494 119.047 67.091C118.964 67.0327 118.899 66.9516 118.86 66.8575C118.822 66.7633 118.811 66.66 118.829 66.5598L119.537 62.3952L116.524 59.5163C116.197 59.2036 116.378 58.6439 116.83 58.5721L120.982 57.901L122.823 54.1202C122.866 54.0286 122.934 53.9509 123.019 53.8961C123.104 53.8414 123.202 53.8117 123.303 53.8106C123.405 53.8095 123.504 53.8369 123.59 53.8898C123.676 53.9427 123.746 54.0188 123.791 54.1095Z" fill="url(#paint21_linear_543_13957)"/>
<path d="M138.966 53.9527L140.707 57.5832L144.565 58.1026C144.979 58.1583 145.144 58.6865 144.845 58.9965L142.061 61.8821L142.72 65.8642C142.791 66.2944 142.355 66.6366 141.982 66.444L138.505 64.6496L134.99 66.6554C134.905 66.7046 134.807 66.7281 134.709 66.7233C134.611 66.7185 134.516 66.6855 134.437 66.6283C134.357 66.5711 134.295 66.492 134.259 66.4007C134.223 66.3093 134.214 66.2095 134.233 66.1132L134.909 62.0465L132.036 59.2334C131.965 59.1628 131.916 59.0743 131.893 58.9776C131.869 58.8808 131.873 58.7795 131.903 58.6846C131.933 58.5898 131.988 58.5049 132.063 58.4392C132.137 58.3735 132.229 58.3295 132.327 58.312L136.286 57.6557L138.042 53.9648C138.081 53.8753 138.145 53.799 138.226 53.7449C138.307 53.6909 138.402 53.6615 138.5 53.6602C138.598 53.6589 138.694 53.6859 138.776 53.7377C138.859 53.7896 138.925 53.8643 138.966 53.9527Z" fill="#D8DEE8"/>
<path d="M153.451 53.8049L155.114 57.3535L158.8 57.8629C159.196 57.9179 159.353 58.434 159.069 58.7353L156.408 61.5538L157.038 65.446C157.105 65.8661 156.69 66.2003 156.334 66.0117L153.012 64.2548L149.657 66.2123C149.293 66.4251 148.866 66.1117 148.936 65.6822L149.581 61.7095L146.838 58.9581C146.54 58.6594 146.704 58.1273 147.116 58.0575L150.897 57.4173L152.574 53.8103C152.612 53.7254 152.673 53.6532 152.75 53.6023C152.828 53.5514 152.918 53.524 153.011 53.5234C153.104 53.5229 153.195 53.5492 153.273 53.5991C153.351 53.649 153.413 53.7205 153.451 53.8049Z" fill="#D8DEE8"/>
<path d="M136.919 49.5457C136.915 49.9328 136.76 50.3029 136.486 50.5773C136.213 50.8516 135.844 51.0086 135.457 51.0146L85.8304 50.8657C84.9989 50.8657 84.354 50.1772 84.354 49.3309V48.6022C84.354 47.7566 84.9627 47.0728 85.7941 47.0782L135.49 47.3647C136.261 47.3694 136.916 48.0311 136.916 48.8411L136.919 49.5457Z" fill="url(#paint22_linear_543_13957)"/>
<path d="M66.6548 72.1117C59.5341 72.1989 53.687 66.4378 53.687 59.2681C53.687 52.0984 59.5341 46.3023 66.6548 46.3459C73.7011 46.3896 79.3857 52.1514 79.3857 59.1902C79.3857 66.2291 73.7038 72.0251 66.6548 72.1117Z" fill="url(#paint23_linear_543_13957)"/>
<path d="M78.3632 59.1911C78.3632 65.6749 73.1456 70.9911 66.655 71.0656C60.1033 71.1415 54.7468 65.8575 54.7468 59.2629C54.7468 52.6683 60.1033 47.3514 66.655 47.3849C73.1456 47.4232 78.3632 52.7079 78.3632 59.1911Z" fill="white"/>
<mask id="mask0_543_13957" style="mask-type:luminance" maskUnits="userSpaceOnUse" x="54" y="47" width="25" height="25">
<path d="M78.3635 59.1891C78.3635 65.673 73.1459 70.9892 66.6553 71.0637C60.1036 71.1395 54.7471 65.8555 54.7471 59.2609C54.7471 52.6663 60.1036 47.3494 66.6553 47.383C73.1459 47.4212 78.3635 52.7059 78.3635 59.1891Z" fill="white"/>
</mask>
<g mask="url(#mask0_543_13957)">
<path d="M62.3763 70.291C57.3506 69.5347 56.238 68.9831 55.7226 67.957C54.9737 66.4666 55.5213 64.0387 56.7997 62.5388C57.9217 61.2249 59.3196 60.9618 59.2793 60.0559C59.2458 59.3103 58.2868 59.2184 57.5828 57.8178C57.3775 57.4092 56.9789 56.616 57.152 55.6583C57.4063 54.2578 58.7029 53.523 58.8082 53.4653C60.1631 52.7271 60.9348 53.5787 61.9535 52.915C63.2286 52.0849 62.6501 50.3374 63.8439 49.8348C64.7116 49.4691 65.8209 50.0563 66.1095 50.2093C67.0738 50.7199 66.9725 51.234 67.7872 51.5514C68.7414 51.9225 69.1964 51.338 70.3037 51.5742C71.217 51.7695 71.8787 52.4043 72.4176 53.0432C73.6255 54.4779 73.0269 55.3309 73.9208 57.0998C75.1784 59.5868 77.0748 59.2949 77.4103 61.2886C77.5862 62.3308 77.1352 62.8066 77.4815 64.4031C77.7157 65.4808 78.0103 65.672 78.0626 66.3069C78.2123 68.1315 76.044 69.7515 75.6394 70.0374C73.0591 71.8539 69.481 71.3607 62.3763 70.291Z" fill="url(#paint24_linear_543_13957)"/>
<path style="mix-blend-mode:multiply" opacity="0.3" d="M70.4647 65.4032C67.1214 65.1872 64.8558 68.2365 63.9553 67.4903C63.1023 66.783 65.5095 64.3523 64.6874 61.5372C63.8821 58.7724 60.7106 58.2047 60.9616 56.6384C61.2448 54.8701 65.4907 54.4118 65.3907 53.1113C65.3316 52.3442 63.8318 52.1791 63.5318 50.9598C63.458 50.6407 63.4687 50.3079 63.5627 49.9941C62.7366 50.6384 63.1117 52.1557 61.9521 52.9113C60.9334 53.575 60.1617 52.7214 58.8068 53.4616C58.7014 53.5193 57.4049 54.2541 57.1506 55.6546C56.9768 56.6122 57.3761 57.4054 57.5814 57.8141C58.2854 59.2146 59.2443 59.3066 59.2779 60.0521C59.3181 60.9581 57.9203 61.2211 56.7983 62.5351C55.5172 64.0349 54.9723 66.4629 55.7212 67.9533C56.2366 68.9794 57.3492 69.531 62.3749 70.2873C69.4795 71.357 73.0577 71.8502 75.6373 70.0329C76.6359 69.329 77.8129 68.1332 78.0652 67.0749C77.5613 67.5292 77.0674 67.7527 76.6063 67.8386C74.4596 68.2412 73.4657 65.5979 70.4647 65.4032Z" fill="url(#paint25_linear_543_13957)"/>
<path d="M58.3075 70.8138C57.625 69.7972 58.039 68.1967 58.129 67.8611C58.4705 66.5445 59.2772 65.7258 59.5711 65.4345C61.5843 63.4395 64.6505 63.4395 66.9623 63.4395C69.2621 63.4395 70.5445 63.4395 71.9396 64.2266C74.4501 65.6426 76.1714 68.957 75.1688 70.6018C74.5434 71.6265 73.3281 71.238 66.0637 71.5782C61.3139 71.7996 59.1638 72.0875 58.3075 70.8138Z" fill="url(#paint26_linear_543_13957)"/>
<path d="M65.7489 59.5254C65.7489 59.5254 66.2368 63.027 63.7639 63.737C63.6989 63.7557 63.6401 63.7912 63.5934 63.84C63.5467 63.8888 63.5137 63.949 63.4978 64.0147C63.4819 64.0803 63.4837 64.149 63.503 64.2138C63.5222 64.2785 63.5583 64.337 63.6075 64.3833L66.6548 67.2293C66.6989 67.2701 66.7507 67.3016 66.8072 67.3222C66.8636 67.3427 66.9236 67.3517 66.9836 67.3488C67.0436 67.3459 67.1024 67.331 67.1565 67.305C67.2107 67.2791 67.2592 67.2426 67.2991 67.1977L70.0505 64.1229C70.0922 64.0768 70.122 64.0212 70.1372 63.961C70.1524 63.9007 70.1526 63.8376 70.1377 63.7773C70.1229 63.7169 70.0935 63.6611 70.0521 63.6148C70.0106 63.5685 69.9585 63.533 69.9001 63.5115C69.0177 63.1908 67.436 62.2506 67.7682 59.6864L65.7489 59.5254Z" fill="url(#paint27_linear_543_13957)"/>
<path d="M64.2337 57.5822C64.2337 57.6204 64.9008 61.0409 66.6093 61.0335C68.2246 61.0261 68.8366 58.511 69.0359 57.3379C69.0574 57.1366 69.0782 56.9353 69.103 56.7393C68.8743 56.815 68.6286 56.8225 68.3957 56.7608C68.3219 56.7407 67.8535 56.6138 67.6797 56.2239C67.4857 55.7918 67.8421 55.4482 67.6394 55.0711C67.5213 54.8523 67.2844 54.7496 67.1026 54.6973C67.2234 54.8744 67.4569 55.2704 67.3247 55.6301C67.2361 55.8716 66.9892 56.0998 66.4322 56.2448C64.839 56.6528 64.217 56.8071 64.2337 57.5822Z" fill="url(#paint28_linear_543_13957)"/>
<path d="M64.6525 57.9912C64.6525 57.9912 63.7701 57.2456 63.6929 57.7033C63.5325 58.6569 64.2875 59.1796 64.6995 58.8951C65.1116 58.6106 64.6525 57.9912 64.6525 57.9912Z" fill="url(#paint29_linear_543_13957)"/>
<path d="M68.5299 57.9826C68.5299 57.9826 69.4063 57.2371 69.4821 57.692C69.6419 58.6409 68.8923 59.1684 68.4856 58.8845C68.0789 58.6007 68.5299 57.9826 68.5299 57.9826Z" fill="url(#paint30_linear_543_13957)"/>
</g>
<g style="mix-blend-mode:multiply" opacity="0.3">
<path d="M139.064 77.6446L55.5605 79.078C51.0891 79.1545 47.4304 75.5885 47.4304 71.1299V47.6176C47.4309 46.1405 47.8411 44.6925 48.6153 43.4346C49.3895 42.1767 50.4974 41.1581 51.8159 40.4922C52.0924 40.6781 52.3668 40.8693 52.6359 41.0666C52.6943 41.1096 52.7527 41.1539 52.8111 41.2008C55.4048 43.1396 57.6019 45.6487 58.9011 48.8953C59.0353 49.2309 59.1608 49.5751 59.2749 49.9294C59.2749 49.9341 59.2749 49.9395 59.2802 49.9449C59.901 51.8561 60.566 53.6646 61.3008 55.3577C63.5878 60.6162 66.5446 64.7299 70.9294 67.2021C71.8604 67.7261 72.8354 68.168 73.8432 68.5228C74.219 68.657 74.6048 68.7798 74.9994 68.8919C79.2534 70.1145 84.5689 70.1595 91.326 68.7711C91.8246 68.6684 92.3158 68.5697 92.8104 68.4657L93.6405 68.2973C96.7382 67.6698 99.766 67.0894 102.734 66.6478L103.353 66.5599C104.248 66.4337 105.136 66.3235 106.017 66.2291C106.683 66.1579 107.346 66.0962 108.006 66.0438C108.146 66.0344 108.287 66.023 108.428 66.015C109.131 65.9653 109.83 65.9277 110.525 65.9069C110.968 65.8935 111.409 65.885 111.85 65.8814C112.967 65.8754 114.078 65.9069 115.181 65.9834C116.413 66.0693 117.636 66.2103 118.853 66.4176C119.356 66.5022 119.858 66.5981 120.359 66.7055C126.382 68.002 132.253 70.9762 138.092 76.6729C138.404 76.9776 138.718 77.2896 139.032 77.6124C139.043 77.6226 139.054 77.6333 139.064 77.6446Z" fill="#D8DEE8"/>
</g>
<path d="M164.369 138.904V160.465C164.369 164.555 161.276 168.151 157.457 168.485L55.5602 177.382C51.0889 177.773 47.4302 174.464 47.4302 170.005V146.491C47.4302 143.38 49.2125 140.564 51.8143 139.059C52.9571 138.393 54.24 138.005 55.5602 137.924L157.454 131.896C161.276 131.67 164.369 134.815 164.369 138.904Z" fill="#D8DEE8"/>
<path d="M162.836 138.804C162.836 135.24 160.204 132.509 156.874 132.707L55.3351 138.775C51.4429 139.007 48.2654 142.341 48.2654 146.223V169.322C48.2654 173.202 51.4745 176.071 55.3653 175.736L156.856 166.994C160.187 166.707 162.836 163.589 162.836 160.026V138.804Z" fill="white"/>
<path d="M91.1625 150.254L93.1757 154.012L97.6309 154.253C98.1088 154.279 98.302 154.832 97.9537 155.193L94.7386 158.523L95.5003 162.747C95.5828 163.204 95.0795 163.608 94.648 163.432L90.629 161.793L86.5636 164.241C86.1214 164.509 85.604 164.2 85.6912 163.72L86.473 159.291L83.1485 156.503C82.7875 156.2 82.9868 155.6 83.4841 155.487L88.0661 154.454L90.0955 150.341C90.3136 149.896 90.9444 149.848 91.1625 150.254Z" fill="url(#paint31_linear_543_13957)"/>
<path d="M107.874 148.907L109.789 152.579L114.031 152.822C114.486 152.849 114.668 153.389 114.338 153.738L111.277 156.98L112.003 161.105C112.081 161.55 111.6 161.943 111.191 161.77L107.366 160.159L103.498 162.539C103.077 162.798 102.586 162.498 102.666 162.03L103.41 157.711L100.247 154.985C99.9033 154.688 100.093 154.103 100.567 153.994L104.929 152.996L106.86 148.987C107.067 148.557 107.667 148.509 107.874 148.907Z" fill="url(#paint32_linear_543_13957)"/>
<path d="M123.791 147.628L125.615 151.217L129.659 151.463C130.092 151.49 130.263 152.018 129.952 152.357L127.033 155.517L127.725 159.543C127.8 159.978 127.343 160.361 126.951 160.192L123.307 158.611L119.621 160.926C119.219 161.177 118.749 160.883 118.829 160.427L119.537 156.213L116.524 153.545C116.197 153.255 116.378 152.684 116.83 152.58L120.982 151.615L122.823 147.704C123.021 147.285 123.593 147.239 123.791 147.628Z" fill="url(#paint33_linear_543_13957)"/>
<path d="M138.966 146.408L140.707 149.916L144.565 150.165C144.979 150.192 145.144 150.708 144.845 151.037L142.061 154.118L142.72 158.054C142.791 158.479 142.355 158.852 141.981 158.685L138.505 157.135L134.99 159.388C134.607 159.632 134.16 159.344 134.233 158.899L134.909 154.785L132.035 152.173C131.724 151.89 131.896 151.333 132.327 151.234L136.286 150.3L138.042 146.485C138.232 146.071 138.778 146.027 138.966 146.408Z" fill="url(#paint34_linear_543_13957)"/>
<path d="M153.452 145.242L155.114 148.674L158.801 148.925C159.196 148.952 159.354 149.457 159.069 149.78L156.408 152.786L157.038 156.634C157.106 157.049 156.69 157.413 156.334 157.25L153.013 155.726L149.657 157.919C149.293 158.157 148.866 157.874 148.936 157.439L149.581 153.421L146.838 150.863C146.54 150.586 146.704 150.042 147.116 149.943L150.897 149.038L152.574 145.313C152.75 144.912 153.272 144.87 153.452 145.242Z" fill="#D8DEE8"/>
<path d="M136.919 142.379C136.919 143.192 136.228 143.896 135.457 143.948L85.8301 147.298C84.9987 147.354 84.3538 146.72 84.3538 145.874V145.145C84.3538 144.299 84.9624 143.564 85.7939 143.511L135.49 140.302C136.261 140.252 136.916 140.867 136.916 141.68L136.919 142.379Z" fill="url(#paint35_linear_543_13957)"/>
<path d="M66.6548 169.638C59.5341 170.226 53.687 164.874 53.687 157.704C53.687 150.534 59.5341 144.328 66.6548 143.876C73.7011 143.425 79.3857 148.788 79.3857 155.827C79.3857 162.866 73.7038 169.057 66.6548 169.638Z" fill="url(#paint36_linear_543_13957)"/>
<path d="M78.3632 155.898C78.3632 162.382 73.1456 168.063 66.655 168.594C60.1033 169.13 54.7468 164.221 54.7468 157.626C54.7468 151.032 60.1033 145.339 66.655 144.916C73.1456 144.496 78.3632 149.414 78.3632 155.898Z" fill="white"/>
<mask id="mask1_543_13957" style="mask-type:luminance" maskUnits="userSpaceOnUse" x="54" y="144" width="25" height="25">
<path d="M78.3635 155.902C78.3635 162.385 73.1459 168.067 66.6553 168.598C60.1036 169.134 54.7471 164.225 54.7471 157.63C54.7471 151.036 60.1036 145.343 66.6553 144.919C73.1459 144.5 78.3635 149.418 78.3635 155.902Z" fill="white"/>
</mask>
<g mask="url(#mask1_543_13957)">
<path d="M55.993 169.311C55.1206 167.95 56.35 165.505 57.1217 164.381C59.3651 161.113 63.4688 160.697 66.8147 160.358C70.0862 160.027 73.2295 159.709 75.5212 161.88C77.0137 163.294 78.384 165.991 77.4673 167.559C76.5057 169.21 73.8274 168.211 67.4167 168.714C60.2999 169.274 57.0768 171.011 55.993 169.311Z" fill="url(#paint37_linear_543_13957)"/>
<path d="M69.9028 160.656C69.9028 161.264 68.4265 162.106 66.5992 162.247C64.7718 162.388 63.28 161.771 63.28 161.161C63.28 160.551 64.7678 160.71 66.5992 160.571C68.4305 160.432 69.9028 160.046 69.9028 160.656Z" fill="url(#paint38_linear_543_13957)"/>
<path d="M65.3806 156.745C64.8759 156.782 66.0403 160.246 64.2055 160.872C64.0284 160.933 63.9988 161.174 64.1606 161.249C64.6538 161.48 65.5759 161.747 67.0858 161.631C67.8342 161.572 68.5505 161.302 69.152 160.852C69.1807 160.833 69.2039 160.806 69.2191 160.774C69.2344 160.743 69.2413 160.708 69.2391 160.674C69.2369 160.639 69.2258 160.605 69.2068 160.576C69.1878 160.547 69.1615 160.523 69.1305 160.507C68.5675 160.259 67.7884 159.391 68.0192 156.643L65.3806 156.745Z" fill="url(#paint39_linear_543_13957)"/>
<path d="M63.8467 152.596C63.8541 152.64 64.0071 155.873 64.7479 157.439C64.96 157.888 66.0129 157.755 66.694 157.649C67.2846 157.556 68.2093 157.704 68.469 157.276C69.5139 155.559 69.3374 151.505 69.3374 151.505C69.3374 151.505 68.8005 150.19 66.6028 150.378C64.405 150.566 63.8467 152.596 63.8467 152.596Z" fill="url(#paint40_linear_543_13957)"/>
<path d="M64.364 154.301C64.364 154.301 63.9016 153.796 63.4654 153.755C63.0292 153.714 62.7447 154.865 63.3399 155.557C63.9351 156.25 64.6223 155.591 64.6223 155.591L64.364 154.301Z" fill="url(#paint41_linear_543_13957)"/>
<path d="M68.854 153.98C68.854 153.98 69.3137 153.412 69.7459 153.309C70.178 153.207 70.4592 154.312 69.87 155.086C69.2808 155.859 68.595 155.303 68.595 155.303L68.854 153.98Z" fill="url(#paint42_linear_543_13957)"/>
<path d="M64.0024 154.287C64.0602 154.39 64.1273 154.488 64.1722 154.469C64.3588 154.407 63.6354 152.635 64.3024 151.951C64.6453 151.597 65.0312 151.871 66.4344 151.71C67.8376 151.549 68.2047 151.184 68.6302 151.414C69.0174 151.622 69.3643 152.271 69.0771 154.286L69.3173 154.213C69.21 153.567 69.3274 153.146 69.4616 152.877C69.5596 152.681 69.7368 152.424 69.7227 152.072C69.7146 151.854 69.6421 151.849 69.6301 151.669C69.5958 151.147 70.1917 150.964 70.2199 150.444C70.2421 150.041 69.8998 149.974 69.9622 149.554C70.0159 149.196 70.283 149.111 70.2407 148.858C70.1951 148.584 69.8381 148.403 69.5851 148.348C69.3321 148.294 69.2355 148.38 69.0852 148.285C68.8416 148.133 68.9583 147.825 68.7825 147.726C68.4691 147.549 67.843 148.382 67.4404 148.212C67.1954 148.109 67.29 147.747 67.0733 147.675C66.6552 147.536 65.9157 148.761 65.6184 148.625C65.4754 148.558 65.613 148.264 65.413 148.066C65.1782 147.834 64.6138 147.872 64.3568 148.152C64.1165 148.413 64.3205 148.688 64.0662 149.018C63.838 149.312 63.5743 149.215 63.3166 149.456C62.8784 149.864 63.0307 150.712 63.0851 151.014C63.2723 152.055 63.8555 152.228 63.7246 152.955C63.6911 153.141 63.6132 153.351 63.6689 153.647C63.7174 153.887 63.8331 154.109 64.0024 154.287Z" fill="url(#paint43_linear_543_13957)"/>
<g style="mix-blend-mode:multiply" opacity="0.3">
<path d="M69.3637 151.64C69.312 151.128 69.7099 150.861 69.6428 150.499C69.5891 150.208 69.2563 149.963 68.9436 149.929C68.2725 149.854 67.8437 150.869 67.1787 150.81C66.6639 150.763 66.721 150.135 66.1398 149.924C65.2178 149.588 64.2494 150.869 63.6347 150.575C63.4502 150.486 63.2629 150.239 63.2495 149.535C62.8965 149.965 63.0355 150.735 63.0865 151.021C63.2737 152.062 63.8568 152.234 63.726 152.962C63.6924 153.148 63.6146 153.358 63.6703 153.654C63.7189 153.893 63.834 154.114 64.0025 154.29C64.0602 154.394 64.1273 154.492 64.1722 154.473C64.3588 154.411 63.6354 152.639 64.3024 151.954C64.6454 151.601 65.0312 151.875 66.4344 151.713C67.8376 151.552 68.2047 151.188 68.6302 151.418C69.0174 151.626 69.3643 152.275 69.0771 154.29L69.3174 154.215C69.21 153.569 69.3274 153.148 69.4616 152.879C69.5019 152.799 69.5556 152.707 69.6039 152.603C69.5934 152.416 69.5599 152.231 69.5039 152.052C69.4321 151.825 69.3798 151.805 69.3637 151.64Z" fill="url(#paint44_linear_543_13957)"/>
</g>
</g>
<g style="mix-blend-mode:multiply" opacity="0.3">
<path d="M139.064 170.092L55.56 177.383C51.0886 177.774 47.4299 174.465 47.4299 170.006V146.493C47.4299 143.382 49.2123 140.566 51.8141 139.061C52.0905 139.227 52.365 139.396 52.6341 139.577C52.6925 139.616 52.7509 139.656 52.8093 139.697C55.403 141.454 57.6 143.808 58.8992 146.964C59.0335 147.291 59.1589 147.626 59.273 147.971L59.2784 147.986C59.8991 149.854 60.5642 151.616 61.299 153.258C63.586 158.358 66.5428 162.261 70.9275 164.426C71.8627 164.887 72.838 165.26 73.8413 165.543C74.2171 165.65 74.603 165.744 74.9976 165.831C79.2515 166.756 84.5671 166.427 91.3241 164.565C91.8227 164.427 92.314 164.291 92.8086 164.155L93.6387 163.928C96.7363 163.084 99.7642 162.288 102.732 161.641C102.938 161.598 103.145 161.553 103.351 161.507C104.246 161.318 105.134 161.145 106.015 160.99C106.681 160.872 107.344 160.763 108.004 160.665C108.145 160.646 108.286 160.624 108.426 160.607C109.129 160.507 109.828 160.421 110.524 160.351C110.966 160.306 111.408 160.267 111.848 160.232C112.965 160.148 114.076 160.102 115.179 160.098C116.405 160.095 117.631 160.153 118.851 160.274C119.354 160.323 119.856 160.384 120.357 160.457C126.38 161.329 132.252 163.893 138.091 169.181C138.403 169.464 138.717 169.754 139.03 170.053C139.041 170.07 139.053 170.08 139.064 170.092Z" fill="#D8DEE8"/>
</g>
<path d="M164.369 93.4311V114.993C164.369 119.082 161.276 122.57 157.457 122.77L55.5602 128.082C51.0889 128.315 47.4302 124.877 47.4302 120.418V96.9059C47.4302 93.7942 49.2125 91.0408 51.8143 89.6275C52.9649 88.9983 54.2492 88.6532 55.5602 88.6209L157.454 86.1775C161.276 86.089 164.369 89.3416 164.369 93.4311Z" fill="#D8DEE8"/>
<path d="M162.836 93.3059C162.836 89.7418 160.204 86.9166 156.874 86.9978L55.3351 89.4962C51.4429 89.5915 48.2654 92.8146 48.2654 96.6941V119.793C48.2654 123.672 51.4745 126.654 55.3653 126.455L156.856 121.283C160.187 121.113 162.836 118.089 162.836 114.525V93.3059Z" fill="white"/>
<path d="M91.1623 102.204L93.1755 106.034L97.6308 106.432C98.1086 106.474 98.3018 107.036 97.9536 107.38L94.7384 110.597L95.5001 114.849C95.5827 115.307 95.0793 115.694 94.6478 115.503L90.6308 113.722L86.5634 116.031C86.1212 116.282 85.6038 115.956 85.691 115.48L86.4728 111.078L83.1463 108.176C82.7853 107.861 82.9846 107.267 83.4819 107.169L88.064 106.297L90.0933 102.254C90.3134 101.819 90.9442 101.791 91.1623 102.204Z" fill="url(#paint45_linear_543_13957)"/>
<path d="M107.874 101.449L109.789 105.188L114.031 105.581C114.486 105.624 114.668 106.171 114.338 106.508L111.277 109.643L112.003 113.792C112.081 114.24 111.6 114.616 111.191 114.429L107.366 112.684L103.498 114.929C103.077 115.172 102.586 114.854 102.666 114.392L103.41 110.097L100.247 107.259C99.9033 106.951 100.093 106.372 100.567 106.28L104.929 105.436L106.86 101.494C107.067 101.071 107.667 101.044 107.874 101.449Z" fill="url(#paint46_linear_543_13957)"/>
<path d="M123.791 100.727L125.615 104.379L129.659 104.768C130.092 104.81 130.263 105.344 129.952 105.673L127.033 108.73L127.725 112.782C127.8 113.219 127.343 113.587 126.951 113.403L123.307 111.695L119.621 113.88C119.219 114.117 118.749 113.807 118.829 113.353L119.537 109.164L116.524 106.39C116.197 106.089 116.378 105.524 116.83 105.435L120.982 104.616L122.823 100.771C123.021 100.358 123.593 100.332 123.791 100.727Z" fill="url(#paint47_linear_543_13957)"/>
<path d="M138.967 100.039L140.707 103.608L144.565 103.993C144.979 104.034 145.144 104.556 144.845 104.877L142.062 107.86L142.721 111.819C142.792 112.246 142.356 112.604 141.982 112.423L138.505 110.75L134.99 112.879C134.908 112.932 134.812 112.96 134.714 112.959C134.616 112.958 134.521 112.928 134.44 112.873C134.359 112.818 134.296 112.74 134.26 112.65C134.223 112.559 134.214 112.459 134.233 112.364L134.909 108.27L132.036 105.558C131.724 105.263 131.896 104.712 132.327 104.626L136.286 103.83L138.042 100.077C138.232 99.6764 138.778 99.6509 138.967 100.039Z" fill="url(#paint48_linear_543_13957)"/>
<path d="M153.451 99.3832L155.114 102.873L158.801 103.253C159.196 103.294 159.354 103.805 159.069 104.118L156.407 107.033L157.037 110.904C157.104 111.322 156.689 111.671 156.332 111.495L153.011 109.852L149.656 111.927C149.291 112.152 148.865 111.854 148.934 111.422L149.579 107.427L146.837 104.773C146.539 104.485 146.702 103.946 147.114 103.862L150.895 103.09L152.573 99.4242C152.75 99.0289 153.272 99.0054 153.451 99.3832Z" fill="url(#paint49_linear_543_13957)"/>
<path d="M136.919 95.6318C136.919 96.4451 136.229 97.1263 135.457 97.1504L85.8304 98.7375C84.9989 98.7637 84.354 98.1033 84.354 97.2611V96.5324C84.354 95.6861 84.9627 94.9775 85.7941 94.9533L135.49 93.5045C136.261 93.4817 136.916 94.1205 136.916 94.9339L136.919 95.6318Z" fill="url(#paint50_linear_543_13957)"/>
<path d="M66.6548 120.724C59.5341 121.06 53.687 115.504 53.687 108.334C53.687 101.164 59.5341 95.1631 66.6548 94.9584C73.7011 94.7571 79.3857 100.319 79.3857 107.358C79.3857 114.397 73.7038 120.394 66.6548 120.724Z" fill="url(#paint51_linear_543_13957)"/>
<path d="M78.3632 107.399C78.3632 113.882 73.1456 119.381 66.655 119.68C60.1033 119.984 54.7468 114.888 54.7468 108.293C54.7468 101.699 60.1033 96.1944 66.655 96.0011C73.1456 95.8132 78.3632 100.915 78.3632 107.399Z" fill="white"/>
<mask id="mask2_543_13957" style="mask-type:luminance" maskUnits="userSpaceOnUse" x="54" y="95" width="25" height="25">
<path d="M78.3632 107.399C78.3632 113.882 73.1456 119.381 66.655 119.68C60.1033 119.984 54.7468 114.888 54.7468 108.293C54.7468 101.699 60.1033 96.1944 66.655 96.0011C73.1456 95.8132 78.3632 100.915 78.3632 107.399Z" fill="white"/>
</mask>
<g mask="url(#mask2_543_13957)">
<path d="M67.3868 119.925C60.0285 120.328 57.4301 121.421 56.247 119.873C55.1591 118.445 56.0604 115.804 57.3569 114.261C59.4017 111.826 62.6711 111.577 67.1197 111.274C71.2803 110.99 73.8304 110.815 75.8336 112.526C77.7045 114.12 78.8963 117.177 77.734 118.834C76.6563 120.378 74.3411 119.546 67.3868 119.925Z" fill="url(#paint52_linear_543_13957)"/>
<path d="M64.6715 111.364L63.8105 111.62C63.7616 111.634 63.7166 111.659 63.679 111.693C63.6414 111.727 63.6122 111.77 63.5938 111.817C63.5754 111.865 63.5683 111.916 63.5729 111.967C63.5776 112.017 63.5939 112.066 63.6206 112.11C64.2072 113.001 65.758 115.231 66.727 115.458C67.7283 115.693 69.5939 112.712 70.2133 111.667C70.2389 111.626 70.2548 111.58 70.2596 111.533C70.2645 111.485 70.2582 111.437 70.2413 111.392C70.2244 111.347 70.1973 111.307 70.1621 111.275C70.127 111.242 70.0847 111.218 70.0388 111.205L69.4127 111.03C68.8953 110.886 68.3545 110.846 67.8216 110.912L65.4728 111.196C65.2015 111.23 64.9335 111.286 64.6715 111.364Z" fill="url(#paint53_linear_543_13957)"/>
<path d="M65.3099 107.996C65.3099 107.996 65.7796 111.382 65.1287 111.733L66.9862 113.685L68.8652 111.207C68.8652 111.207 68.1565 110.7 68.3431 107.881L65.3099 107.996Z" fill="url(#paint54_linear_543_13957)"/>
<path d="M64.2118 103.158C64.1447 103.251 63.2723 107.578 66.2921 107.913C69.3019 108.248 69.4341 105.079 69.3958 103.74C69.3576 102.401 67.9825 101.959 67.1947 101.892C66.4069 101.825 64.45 102.827 64.2118 103.158Z" fill="url(#paint55_linear_543_13957)"/>
<path d="M64.0361 105.675C64.0361 105.675 63.8845 104.978 63.3651 105.434C62.8457 105.891 63.6711 107.023 64.3509 106.95L64.0361 105.675Z" fill="url(#paint56_linear_543_13957)"/>
<path d="M69.3033 104.994C69.2167 105.056 68.9678 106.706 68.9678 106.706C68.9678 106.706 69.4013 106.742 69.7153 106.141C70.0294 105.54 70.1811 104.366 69.3033 104.994Z" fill="url(#paint57_linear_543_13957)"/>
<path d="M70.483 101.819C70.1669 101.303 69.3684 101.579 69.1348 101.081C68.9389 100.661 69.4033 100.244 69.1523 99.8828C68.9456 99.5801 68.4403 99.6043 68.3503 99.6083C67.6665 99.6412 67.5095 100.189 67.0216 100.193C66.425 100.197 66.4015 99.3801 65.6124 99.0607C64.8453 98.7507 63.7226 99.0607 63.2683 99.7009C62.9147 100.201 63.2153 100.55 62.7523 101.193C62.4328 101.635 62.1483 101.662 61.9926 102.091C61.8436 102.494 61.9443 102.868 62.0235 103.145C62.212 103.813 62.5637 104.097 63.0972 104.794C63.4313 105.233 63.7321 105.698 63.9971 106.182C64.205 106.731 64.3817 107.291 64.5266 107.86C64.6957 108.522 64.6856 108.658 64.844 108.866C65.3896 109.592 66.6337 109.47 67.1572 109.421C67.7558 109.362 68.4993 109.286 68.8758 108.754C69.0771 108.464 69.0523 108.21 69.0993 107.527C69.1464 106.854 69.2331 106.184 69.359 105.522C69.42 105.231 69.5017 104.946 69.6032 104.667C69.8207 104.076 70.0468 103.975 70.2918 103.364C70.4857 102.872 70.74 102.24 70.483 101.819ZM67.9953 106.461C67.6256 106.575 67.3759 106.493 66.874 106.483C65.8674 106.463 65.5506 106.946 65.0748 106.757C64.8769 106.677 64.4185 106.452 64.3212 105.992C64.2473 105.6 64.2366 105.198 64.2897 104.803C64.3689 104.218 64.4595 103.543 64.9252 103.23C65.6003 102.776 66.4619 103.487 67.0793 102.986C67.3155 102.795 67.4102 102.512 67.4531 102.298C67.5873 102.341 68.6798 102.701 69.0798 103.853C69.2645 104.409 69.2593 105.01 69.065 105.563C68.8396 105.912 68.4953 106.307 67.9953 106.461Z" fill="url(#paint58_linear_543_13957)"/>
<path d="M65.9125 107.247C66.4505 107.395 67.0228 107.357 67.5365 107.139C67.6036 107.111 67.662 107.183 67.6036 107.226C67.3701 107.401 67.0292 107.591 66.6588 107.577C66.3762 107.56 66.1011 107.48 65.8535 107.342C65.7924 107.31 65.8421 107.227 65.9125 107.247Z" fill="url(#paint59_linear_543_13957)"/>
</g>
<g style="mix-blend-mode:multiply" opacity="0.3">
<path d="M139.064 123.73L55.5605 128.083C51.0891 128.316 47.4304 124.879 47.4304 120.42V96.9073C47.4304 93.7956 49.2128 91.0422 51.8145 89.6289C52.091 89.8047 52.3655 89.9859 52.6346 90.1745C52.693 90.2154 52.7514 90.2577 52.8097 90.3C55.4034 92.1488 57.6005 94.5807 58.8997 97.7824C59.0339 98.1139 59.1594 98.4535 59.2735 98.8024L59.2789 98.8185C59.8996 100.708 60.5647 102.493 61.2995 104.16C63.5865 109.339 66.5432 113.349 70.928 115.668C71.861 116.16 72.8361 116.568 73.8418 116.887C74.2176 117.007 74.6035 117.117 74.9981 117.216C79.252 118.29 84.5676 118.149 91.3246 116.523C91.8232 116.404 92.3145 116.284 92.809 116.166C93.0869 116.099 93.362 116.032 93.6392 115.969C96.7368 115.231 99.7647 114.544 102.733 114.001C102.938 113.966 103.146 113.928 103.352 113.892C104.246 113.734 105.134 113.593 106.016 113.468C106.682 113.374 107.345 113.289 108.005 113.214C108.145 113.199 108.286 113.183 108.426 113.17C109.13 113.095 109.829 113.035 110.524 112.988C110.966 112.96 111.408 112.936 111.849 112.916C112.965 112.871 114.077 112.864 115.18 112.902C116.408 112.942 117.633 113.044 118.851 113.208C119.354 113.275 119.856 113.353 120.357 113.443C126.381 114.529 132.252 117.298 138.091 122.79C138.403 123.084 138.717 123.385 139.031 123.695C139.042 123.706 139.053 123.717 139.064 123.73Z" fill="#D8DEE8"/>
</g>
<defs>
<linearGradient id="paint0_linear_543_13957" x1="43.3479" y1="102.192" x2="-26.9856" y2="183.657" gradientUnits="userSpaceOnUse">
<stop stop-color="#006D3A"/>
<stop offset="1" stop-color="#00ED85"/>
</linearGradient>
<linearGradient id="paint1_linear_543_13957" x1="15.579" y1="123.66" x2="55.7706" y2="183.923" gradientUnits="userSpaceOnUse">
<stop stop-color="#FFC444"/>
<stop offset="1" stop-color="#F36F56"/>
</linearGradient>
<linearGradient id="paint2_linear_543_13957" x1="15.8994" y1="123.441" x2="56.0933" y2="183.708" gradientUnits="userSpaceOnUse">
<stop stop-color="#FFC444"/>
<stop offset="1" stop-color="#F36F56"/>
</linearGradient>
<linearGradient id="paint3_linear_543_13957" x1="14.0514" y1="124.668" x2="54.2489" y2="184.939" gradientUnits="userSpaceOnUse">
<stop stop-color="#FFC444"/>
<stop offset="1" stop-color="#F36F56"/>
</linearGradient>
<linearGradient id="paint4_linear_543_13957" x1="15.3625" y1="123.814" x2="55.5415" y2="184.073" gradientUnits="userSpaceOnUse">
<stop stop-color="#FFC444"/>
<stop offset="1" stop-color="#F36F56"/>
</linearGradient>
<linearGradient id="paint5_linear_543_13957" x1="15.1815" y1="123.913" x2="55.3821" y2="184.185" gradientUnits="userSpaceOnUse">
<stop stop-color="#FFC444"/>
<stop offset="1" stop-color="#F36F56"/>
</linearGradient>
<linearGradient id="paint6_linear_543_13957" x1="15.2979" y1="123.84" x2="55.4956" y2="184.109" gradientUnits="userSpaceOnUse">
<stop stop-color="#FFC444"/>
<stop offset="1" stop-color="#F36F56"/>
</linearGradient>
<linearGradient id="paint7_linear_543_13957" x1="15.223" y1="123.887" x2="55.4235" y2="184.156" gradientUnits="userSpaceOnUse">
<stop stop-color="#FFC444"/>
<stop offset="1" stop-color="#F36F56"/>
</linearGradient>
<linearGradient id="paint8_linear_543_13957" x1="15.0622" y1="123.995" x2="55.2591" y2="184.265" gradientUnits="userSpaceOnUse">
<stop stop-color="#FFC444"/>
<stop offset="1" stop-color="#F36F56"/>
</linearGradient>
<linearGradient id="paint9_linear_543_13957" x1="15.4764" y1="123.731" x2="55.6671" y2="183.991" gradientUnits="userSpaceOnUse">
<stop stop-color="#FFC444"/>
<stop offset="1" stop-color="#F36F56"/>
</linearGradient>
<linearGradient id="paint10_linear_543_13957" x1="15.4667" y1="123.656" x2="50.9795" y2="176.845" gradientUnits="userSpaceOnUse">
<stop stop-color="#FFC444"/>
<stop offset="1" stop-color="#F36F56"/>
</linearGradient>
<linearGradient id="paint11_linear_543_13957" x1="15.3677" y1="123.794" x2="55.5629" y2="184.061" gradientUnits="userSpaceOnUse">
<stop stop-color="#FFC444"/>
<stop offset="1" stop-color="#F36F56"/>
</linearGradient>
<linearGradient id="paint12_linear_543_13957" x1="15.4051" y1="123.772" x2="55.5987" y2="184.038" gradientUnits="userSpaceOnUse">
<stop stop-color="#FFC444"/>
<stop offset="1" stop-color="#F36F56"/>
</linearGradient>
<linearGradient id="paint13_linear_543_13957" x1="183.37" y1="80.1905" x2="116.462" y2="199.42" gradientUnits="userSpaceOnUse">
<stop stop-color="#21AC6F"/>
<stop offset="1" stop-color="#006D3A"/>
</linearGradient>
<linearGradient id="paint14_linear_543_13957" x1="98.1383" y1="70.4528" x2="89.8345" y2="211.022" gradientUnits="userSpaceOnUse">
<stop stop-color="#40447E"/>
<stop offset="1" stop-color="#3C3B6B"/>
</linearGradient>
<linearGradient id="paint15_linear_543_13957" x1="145.617" y1="21.0344" x2="3.54028" y2="251.199" gradientUnits="userSpaceOnUse">
<stop stop-color="#006D3A"/>
<stop offset="1" stop-color="#00ED85"/>
</linearGradient>
<linearGradient id="paint16_linear_543_13957" x1="42.5518" y1="63.8646" x2="160.267" y2="63.8646" gradientUnits="userSpaceOnUse">
<stop stop-color="#E38DDD"/>
<stop offset="1" stop-color="#9571F6"/>
</linearGradient>
<linearGradient id="paint17_linear_543_13957" x1="42.5518" y1="159.319" x2="160.267" y2="159.319" gradientUnits="userSpaceOnUse">
<stop stop-color="#E38DDD"/>
<stop offset="1" stop-color="#9571F6"/>
</linearGradient>
<linearGradient id="paint18_linear_543_13957" x1="42.5518" y1="111.647" x2="160.267" y2="111.647" gradientUnits="userSpaceOnUse">
<stop stop-color="#E38DDD"/>
<stop offset="1" stop-color="#9571F6"/>
</linearGradient>
<linearGradient id="paint19_linear_543_13957" x1="87.0884" y1="42.1613" x2="104.637" y2="130.644" gradientUnits="userSpaceOnUse">
<stop stop-color="#FFC444"/>
<stop offset="1" stop-color="#F36F56"/>
</linearGradient>
<linearGradient id="paint20_linear_543_13957" x1="103.279" y1="39.0715" x2="120.602" y2="126.42" gradientUnits="userSpaceOnUse">
<stop stop-color="#FFC444"/>
<stop offset="1" stop-color="#F36F56"/>
</linearGradient>
<linearGradient id="paint21_linear_543_13957" x1="118.698" y1="36.1329" x2="135.807" y2="122.404" gradientUnits="userSpaceOnUse">
<stop stop-color="#FFC444"/>
<stop offset="1" stop-color="#F36F56"/>
</linearGradient>
<linearGradient id="paint22_linear_543_13957" x1="128.744" y1="47.2336" x2="128.494" y2="54.2937" gradientUnits="userSpaceOnUse">
<stop stop-color="#006D3A"/>
<stop offset="1" stop-color="#00ED85"/>
</linearGradient>
<linearGradient id="paint23_linear_543_13957" x1="68.7385" y1="48.9618" x2="48.1972" y2="144.705" gradientUnits="userSpaceOnUse">
<stop stop-color="#FF9085"/>
<stop offset="1" stop-color="#FB6FBB"/>
</linearGradient>
<linearGradient id="paint24_linear_543_13957" x1="74.2409" y1="48.2726" x2="68.2395" y2="60.025" gradientUnits="userSpaceOnUse">
<stop stop-color="#40447E"/>
<stop offset="1" stop-color="#3C3B6B"/>
</linearGradient>
<linearGradient id="paint25_linear_543_13957" x1="74.2529" y1="48.3071" x2="68.2576" y2="60.0481" gradientUnits="userSpaceOnUse">
<stop stop-color="#40447E"/>
<stop offset="1" stop-color="#3C3B6B"/>
</linearGradient>
<linearGradient id="paint26_linear_543_13957" x1="67.5864" y1="75.8999" x2="65.9785" y2="64.2441" gradientUnits="userSpaceOnUse">
<stop stop-color="#FF9085"/>
<stop offset="1" stop-color="#FB6FBB"/>
</linearGradient>
<linearGradient id="paint27_linear_543_13957" x1="66.9897" y1="67.7118" x2="66.6146" y2="59.573" gradientUnits="userSpaceOnUse">
<stop stop-color="#FFC444"/>
<stop offset="1" stop-color="#F36F56"/>
</linearGradient>
<linearGradient id="paint28_linear_543_13957" x1="66.5771" y1="60.5503" x2="66.7214" y2="55.0395" gradientUnits="userSpaceOnUse">
<stop stop-color="#FFC444"/>
<stop offset="1" stop-color="#F36F56"/>
</linearGradient>
<linearGradient id="paint29_linear_543_13957" x1="64.2244" y1="59.9843" x2="64.3559" y2="54.9506" gradientUnits="userSpaceOnUse">
<stop stop-color="#FFC444"/>
<stop offset="1" stop-color="#F36F56"/>
</linearGradient>
<linearGradient id="paint30_linear_543_13957" x1="68.8614" y1="60.0918" x2="68.9929" y2="55.0662" gradientUnits="userSpaceOnUse">
<stop stop-color="#FFC444"/>
<stop offset="1" stop-color="#F36F56"/>
</linearGradient>
<linearGradient id="paint31_linear_543_13957" x1="82.5888" y1="138.188" x2="144.402" y2="278.26" gradientUnits="userSpaceOnUse">
<stop stop-color="#FFC444"/>
<stop offset="1" stop-color="#F36F56"/>
</linearGradient>
<linearGradient id="paint32_linear_543_13957" x1="96.7908" y1="131.011" x2="157.79" y2="269.239" gradientUnits="userSpaceOnUse">
<stop stop-color="#FFC444"/>
<stop offset="1" stop-color="#F36F56"/>
</linearGradient>
<linearGradient id="paint33_linear_543_13957" x1="110.321" y1="124.187" x2="170.549" y2="260.667" gradientUnits="userSpaceOnUse">
<stop stop-color="#FFC444"/>
<stop offset="1" stop-color="#F36F56"/>
</linearGradient>
<linearGradient id="paint34_linear_543_13957" x1="123.225" y1="117.688" x2="182.72" y2="252.509" gradientUnits="userSpaceOnUse">
<stop stop-color="#FFC444"/>
<stop offset="1" stop-color="#F36F56"/>
</linearGradient>
<linearGradient id="paint35_linear_543_13957" x1="128.744" y1="140.575" x2="127.955" y2="153.101" gradientUnits="userSpaceOnUse">
<stop stop-color="#006D3A"/>
<stop offset="1" stop-color="#00ED85"/>
</linearGradient>
<linearGradient id="paint36_linear_543_13957" x1="68.7747" y1="146.326" x2="47.8912" y2="243.667" gradientUnits="userSpaceOnUse">
<stop stop-color="#FF9085"/>
<stop offset="1" stop-color="#FB6FBB"/>
</linearGradient>
<linearGradient id="paint37_linear_543_13957" x1="66.965" y1="170.463" x2="66.5678" y2="165.053" gradientUnits="userSpaceOnUse">
<stop stop-color="#AA80F9"/>
<stop offset="1" stop-color="#6165D7"/>
</linearGradient>
<linearGradient id="paint38_linear_543_13957" x1="66.6179" y1="162.536" x2="66.528" y2="157.041" gradientUnits="userSpaceOnUse">
<stop stop-color="#AA80F9"/>
<stop offset="1" stop-color="#6165D7"/>
</linearGradient>
<linearGradient id="paint39_linear_543_13957" x1="66.6603" y1="163.02" x2="66.6328" y2="158.529" gradientUnits="userSpaceOnUse">
<stop stop-color="#AB316D"/>
<stop offset="1" stop-color="#792D3D"/>
</linearGradient>
<linearGradient id="paint40_linear_543_13957" x1="66.282" y1="156.652" x2="67.0262" y2="147.692" gradientUnits="userSpaceOnUse">
<stop stop-color="#AB316D"/>
<stop offset="1" stop-color="#792D3D"/>
</linearGradient>
<linearGradient id="paint41_linear_543_13957" x1="63.6875" y1="156.557" x2="64.4089" y2="147.866" gradientUnits="userSpaceOnUse">
<stop stop-color="#AB316D"/>
<stop offset="1" stop-color="#792D3D"/>
</linearGradient>
<linearGradient id="paint42_linear_543_13957" x1="69.2399" y1="156.676" x2="69.9868" y2="147.685" gradientUnits="userSpaceOnUse">
<stop stop-color="#AB316D"/>
<stop offset="1" stop-color="#792D3D"/>
</linearGradient>
<linearGradient id="paint43_linear_543_13957" x1="66.0787" y1="152.407" x2="68.0987" y2="146.144" gradientUnits="userSpaceOnUse">
<stop stop-color="#311944"/>
<stop offset="1" stop-color="#6B3976"/>
</linearGradient>
<linearGradient id="paint44_linear_543_13957" x1="66.0935" y1="152.364" x2="68.1504" y2="145.984" gradientUnits="userSpaceOnUse">
<stop stop-color="#311944"/>
<stop offset="1" stop-color="#6B3976"/>
</linearGradient>
<linearGradient id="paint45_linear_543_13957" x1="99.1098" y1="76.2969" x2="75.3232" y2="162.596" gradientUnits="userSpaceOnUse">
<stop stop-color="#FFC444"/>
<stop offset="1" stop-color="#F36F56"/>
</linearGradient>
<linearGradient id="paint46_linear_543_13957" x1="114.457" y1="80.4815" x2="90.9957" y2="165.602" gradientUnits="userSpaceOnUse">
<stop stop-color="#FFC444"/>
<stop offset="1" stop-color="#F36F56"/>
</linearGradient>
<linearGradient id="paint47_linear_543_13957" x1="129.076" y1="84.4519" x2="105.922" y2="168.456" gradientUnits="userSpaceOnUse">
<stop stop-color="#FFC444"/>
<stop offset="1" stop-color="#F36F56"/>
</linearGradient>
<linearGradient id="paint48_linear_543_13957" x1="143.017" y1="88.2239" x2="120.156" y2="171.168" gradientUnits="userSpaceOnUse">
<stop stop-color="#FFC444"/>
<stop offset="1" stop-color="#F36F56"/>
</linearGradient>
<linearGradient id="paint49_linear_543_13957" x1="156.327" y1="91.8169" x2="133.743" y2="173.754" gradientUnits="userSpaceOnUse">
<stop stop-color="#FFC444"/>
<stop offset="1" stop-color="#F36F56"/>
</linearGradient>
<linearGradient id="paint50_linear_543_13957" x1="128.744" y1="93.7106" x2="128.303" y2="103.089" gradientUnits="userSpaceOnUse">
<stop stop-color="#006D3A"/>
<stop offset="1" stop-color="#00ED85"/>
</linearGradient>
<linearGradient id="paint51_linear_543_13957" x1="68.7553" y1="97.5018" x2="48.0542" y2="193.989" gradientUnits="userSpaceOnUse">
<stop stop-color="#FF9085"/>
<stop offset="1" stop-color="#FB6FBB"/>
</linearGradient>
<linearGradient id="paint52_linear_543_13957" x1="74.8464" y1="102.012" x2="63.6604" y2="124.031" gradientUnits="userSpaceOnUse">
<stop stop-color="#FF9085"/>
<stop offset="1" stop-color="#FB6FBB"/>
</linearGradient>
<linearGradient id="paint53_linear_543_13957" x1="66.7646" y1="119.913" x2="66.9787" y2="108.238" gradientUnits="userSpaceOnUse">
<stop stop-color="#311944"/>
<stop offset="0.56" stop-color="#6F2B60"/>
<stop offset="1" stop-color="#A03976"/>
</linearGradient>
<linearGradient id="paint54_linear_543_13957" x1="66.9513" y1="114.883" x2="67.0359" y2="108.415" gradientUnits="userSpaceOnUse">
<stop stop-color="#FFC444"/>
<stop offset="1" stop-color="#F36F56"/>
</linearGradient>
<linearGradient id="paint55_linear_543_13957" x1="66.3599" y1="107.711" x2="67.0571" y2="101.337" gradientUnits="userSpaceOnUse">
<stop stop-color="#FFC444"/>
<stop offset="1" stop-color="#F36F56"/>
</linearGradient>
<linearGradient id="paint56_linear_543_13957" x1="63.7889" y1="107.588" x2="63.7595" y2="101.28" gradientUnits="userSpaceOnUse">
<stop stop-color="#FFC444"/>
<stop offset="1" stop-color="#F36F56"/>
</linearGradient>
<linearGradient id="paint57_linear_543_13957" x1="69.251" y1="107.953" x2="69.9542" y2="101.533" gradientUnits="userSpaceOnUse">
<stop stop-color="#FFC444"/>
<stop offset="1" stop-color="#F36F56"/>
</linearGradient>
<linearGradient id="paint58_linear_543_13957" x1="61.9154" y1="104.198" x2="70.5917" y2="104.198" gradientUnits="userSpaceOnUse">
<stop stop-color="#444B8C"/>
<stop offset="1" stop-color="#3E4177"/>
</linearGradient>
<linearGradient id="paint59_linear_543_13957" x1="67.4164" y1="101.295" x2="66.8131" y2="106.506" gradientUnits="userSpaceOnUse">
<stop stop-color="#FFC444"/>
<stop offset="1" stop-color="#F36F56"/>
</linearGradient>
</defs>
</svg>
