<svg width="217" height="49" viewBox="0 0 217 49" fill="none" xmlns="http://www.w3.org/2000/svg">
<g clip-path="url(#clip0_41_1562)">
<mask id="mask0_41_1562" style="mask-type:luminance" maskUnits="userSpaceOnUse" x="0" y="0" width="217" height="49">
<path d="M216.654 0.705078H0.00268555V48.6302H216.654V0.705078Z" fill="white"/>
</mask>
<g mask="url(#mask0_41_1562)">
<path d="M36.2204 38.1478C39.1751 34.3317 40.6677 29.6949 40.6677 24.2419C40.6677 17.8831 38.8107 12.7493 35.0965 8.84048C31.356 4.94048 26.4653 2.99048 20.3629 2.99048C14.2605 2.99048 9.33901 4.94048 5.59853 8.84048C1.85805 12.7405 -0.00341797 17.8846 -0.00341797 24.2419C-0.00341797 30.5993 1.85365 35.7434 5.59414 39.6434C9.33462 43.5434 14.2253 45.4934 20.3278 45.4934C24.2761 45.5574 28.1603 44.4857 31.5229 42.4052L37.2038 48.7052L42.1429 43.7419L36.2204 38.1478ZM22.9795 37.4684H17.0527V31.6758H22.9795V37.4684ZM23.0497 25.1155L21.9039 25.4287L21.7063 29.0067H18.3258L18.0317 23.2714L21.2322 22.4508C22.5975 22.1199 23.559 21.6831 24.0858 21.1272C24.6126 20.5714 24.8673 19.7596 24.8673 18.6611C24.8673 15.8684 23.6336 14.6596 20.7053 14.6596C17.5224 14.6596 16.1614 16.1243 16.1614 19.5567H11.4332C11.4332 16.8743 12.2892 14.7037 13.9795 13.0361C15.6697 11.3684 17.8868 10.5699 20.6702 10.5699C23.3804 10.5699 25.5624 11.264 27.2161 12.6522C28.019 13.3136 28.6597 14.1518 29.0883 15.1021C29.5169 16.0523 29.7221 17.0889 29.6878 18.1317C29.6878 21.7008 27.2161 24.0743 23.0497 25.1155Z" fill="#00ED85"/>
<path d="M68.4277 14.8623H76.4398V44.6197H68.7613V38.602C66.5662 43.2079 62.9135 45.4932 57.8252 45.4932C54.673 45.4932 52.2013 44.5358 50.3618 42.6123C48.5223 40.6888 47.6355 38.1211 47.6355 34.8432V14.8623H55.5643V31.7064C55.5643 34.2785 56.0033 36.1182 56.8813 37.1594C57.7594 38.2005 59.274 38.7697 61.4384 38.7697C65.8286 38.7697 68.4145 36.2814 68.4145 31.6491L68.4277 14.8623Z" fill="#00ED85"/>
<path d="M84.4592 1.60962H92.9807V9.26843H84.4592V1.60962ZM84.7709 14.8449H92.6997V44.6022H84.7709V14.8449Z" fill="#00ED85"/>
<path d="M110.25 38.2623H123.974V44.6197H99.3098V33.2329L120.681 20.9947L112.722 21.2505H99.5908V14.8623H123.689V26.4476L102.616 38.43L110.25 38.2623Z" fill="#00ED85"/>
<path d="M158.869 38.9947V44.6197C157.395 44.9824 155.885 45.1721 154.369 45.1844C150.066 45.1844 147.928 43.2344 147.783 38.8271C146.097 42.7977 142.388 45.4932 137.128 45.4932C134.455 45.4932 132.299 44.8182 130.688 43.4594C129.909 42.8209 129.287 42.0119 128.867 41.0942C128.448 40.1766 128.243 39.1747 128.269 38.1653C128.269 33.983 130.797 31.3844 136.79 30.2241C142.497 29.1521 146.071 28.3315 147.502 27.7933V27.2285C147.502 22.2256 145.957 20.108 142.274 20.108C138.59 20.108 136.904 22.058 136.904 26.6903H129.257C129.257 22.8785 130.468 19.7947 132.887 17.4785C135.306 15.1624 138.48 14.033 142.445 14.033C146.409 14.033 149.561 15.105 151.84 17.2535C154.118 19.4021 155.242 22.3977 155.242 26.183V35.483C155.242 37.0624 155.44 38.0506 155.861 38.4212C156.283 38.7918 157.24 39.0124 158.812 39.0124L158.869 38.9947ZM147.507 32.7521V31.5918C146.629 31.9006 144.276 32.5227 140.482 33.458C138.796 33.8241 137.668 34.2785 137.137 34.755C136.844 35.0434 136.616 35.3924 136.471 35.7779C136.325 36.1634 136.265 36.5761 136.294 36.9874C136.294 38.8844 137.558 39.8153 140.087 39.8153C144.614 39.8153 147.507 37.5256 147.507 32.7521Z" fill="#00ED85"/>
<path d="M183.402 14.5227V21.758H178.788C174.486 21.758 171.926 24.2992 171.926 28.9359V44.6197H163.997V14.8624H171.658V22.0977C173.261 17.0947 176.58 14.0153 180.742 14.0153C181.656 13.9709 182.568 14.1448 183.402 14.5227Z" fill="#00ED85"/>
<path d="M208.033 0.705078H215.997V44.6198H208.345V37.8918C206.514 42.7448 202.774 45.4933 198.024 45.4933C194.111 45.4933 190.989 44.0536 188.659 41.1742C186.324 38.3198 185.147 34.5036 185.147 29.7565C185.147 25.0095 186.302 21.1933 188.659 18.308C191.017 15.4227 194.112 14.0154 198.024 14.0154C202.414 14.0154 206.036 16.1595 208.033 20.258V0.705078ZM200.724 39.2683C203.283 39.2683 205.166 38.5051 206.317 37.0051C207.467 35.5051 208.033 33.0786 208.033 29.7742C208.033 26.4698 207.471 24.0389 206.317 22.5389C205.162 21.0389 203.283 20.2757 200.724 20.2757C198.164 20.2757 196.307 21.0389 195.152 22.5389C193.998 24.0389 193.396 26.4654 193.396 29.7742C193.396 33.083 193.989 35.5095 195.152 37.0051C196.316 38.5007 198.164 39.2683 200.724 39.2683Z" fill="#00ED85"/>
</g>
</g>
<defs>
<clipPath id="clip0_41_1562">
<rect width="216.661" height="48" fill="white" transform="translate(0 0.705078)"/>
</clipPath>
</defs>
</svg>
