<svg width="24" height="24" viewBox="0 0 24 24" fill="none" xmlns="http://www.w3.org/2000/svg">
<rect opacity="0.3" x="0.5" y="0.5" width="23" height="23" rx="11.5" stroke="#00522A"/>
<path d="M12.1738 5C11.2317 5 10.2989 5.18556 9.4285 5.54607C8.55813 5.90659 7.7673 6.43501 7.10115 7.10115C5.75581 8.4465 5 10.2712 5 12.1738C5 15.3446 7.05888 18.0348 9.90687 18.9889C10.2656 19.0463 10.3803 18.8239 10.3803 18.6302V17.4178C8.3932 17.8483 7.96995 16.4565 7.96995 16.4565C7.63995 15.6244 7.17366 15.402 7.17366 15.402C6.52084 14.9572 7.22387 14.9716 7.22387 14.9716C7.94125 15.0218 8.32146 15.7105 8.32146 15.7105C8.94558 16.8009 10.0001 16.4781 10.409 16.3059C10.4736 15.8396 10.6601 15.5239 10.861 15.3446C9.2684 15.1653 7.59691 14.5483 7.59691 11.8151C7.59691 11.0188 7.86952 10.3803 8.33581 9.871C8.26407 9.69166 8.01299 8.94558 8.40755 7.97712C8.40755 7.97712 9.01015 7.78343 10.3803 8.70885C10.9471 8.55103 11.564 8.47211 12.1738 8.47211C12.7836 8.47211 13.4005 8.55103 13.9672 8.70885C15.3374 7.78343 15.94 7.97712 15.94 7.97712C16.3346 8.94558 16.0835 9.69166 16.0118 9.871C16.4781 10.3803 16.7507 11.0188 16.7507 11.8151C16.7507 14.5555 15.072 15.1581 13.4722 15.3374C13.7305 15.5598 13.9672 15.9974 13.9672 16.6646V18.6302C13.9672 18.8239 14.082 19.0535 14.4479 18.9889C17.2959 18.0276 19.3476 15.3446 19.3476 12.1738C19.3476 11.2317 19.162 10.2989 18.8015 9.4285C18.441 8.55813 17.9126 7.7673 17.2464 7.10115C16.5803 6.43501 15.7894 5.90659 14.9191 5.54607C14.0487 5.18556 13.1159 5 12.1738 5Z" fill="#00522A"/>
</svg>
