<svg width="23" height="22" viewBox="0 0 23 22" fill="none" xmlns="http://www.w3.org/2000/svg">
<path d="M11.2731 0C9.79269 0 8.32679 0.291587 6.95907 0.858113C5.59135 1.42464 4.34862 2.25501 3.30181 3.30181C1.1877 5.41593 0 8.28329 0 11.2731C0 16.2558 3.23538 20.4832 7.7108 21.9825C8.27445 22.0727 8.45482 21.7233 8.45482 21.4189V19.5137C5.33218 20.1901 4.66706 18.0031 4.66706 18.0031C4.1485 16.6955 3.41575 16.346 3.41575 16.346C2.3899 15.6471 3.49466 15.6696 3.49466 15.6696C4.62197 15.7485 5.21944 16.8307 5.21944 16.8307C6.2002 18.5442 7.85735 18.037 8.49992 17.7664C8.60137 17.0336 8.89447 16.5376 9.21012 16.2558C6.70749 15.974 4.08086 15.0045 4.08086 10.7094C4.08086 9.45813 4.50924 8.45482 5.24199 7.65443C5.12926 7.37261 4.7347 6.2002 5.35472 4.67834C5.35472 4.67834 6.30166 4.37396 8.45482 5.82819C9.3454 5.58018 10.3149 5.45618 11.2731 5.45618C12.2313 5.45618 13.2008 5.58018 14.0914 5.82819C16.2445 4.37396 17.1915 4.67834 17.1915 4.67834C17.8115 6.2002 17.4169 7.37261 17.3042 7.65443C18.037 8.45482 18.4653 9.45813 18.4653 10.7094C18.4653 15.0158 15.8274 15.9627 13.3135 16.2445C13.7194 16.594 14.0914 17.2817 14.0914 18.3301V21.4189C14.0914 21.7233 14.2717 22.084 14.8467 21.9825C19.3221 20.4719 22.5462 16.2558 22.5462 11.2731C22.5462 9.79269 22.2546 8.32678 21.6881 6.95907C21.1216 5.59135 20.2912 4.34862 19.2444 3.30181C18.1976 2.25501 16.9548 1.42464 15.5871 0.858113C14.2194 0.291587 12.7535 0 11.2731 0Z" fill="#00522A"/>
</svg>
