<svg width="24" height="24" viewBox="0 0 24 24" fill="none" xmlns="http://www.w3.org/2000/svg">
<rect opacity="0.3" x="0.5" y="0.5" width="23" height="23" rx="11.5" stroke="#00522A"/>
<path d="M8.50906 13.6031C8.50788 13.9354 8.37531 14.2537 8.14028 14.4886C7.90525 14.7236 7.58683 14.856 7.25453 14.857C6.92212 14.856 6.60361 14.7235 6.36856 14.4884C6.13351 14.2534 6.00101 13.9349 6 13.6024C6 12.9117 6.56381 12.3473 7.25453 12.3473H8.5097V13.6024L8.50906 13.6031ZM9.14175 13.6031C9.14175 12.9124 9.70555 12.3479 10.3963 12.3479C11.087 12.3479 11.6514 12.9124 11.6514 13.6031V16.7455C11.6504 17.078 11.5179 17.3966 11.2827 17.6317C11.0475 17.8667 10.7288 17.9992 10.3963 18C10.0639 17.999 9.74536 17.8665 9.51031 17.6314C9.27526 17.3964 9.14276 17.0779 9.14175 16.7455V13.6031ZM10.3963 8.50906C10.064 8.50788 9.74563 8.37531 9.51072 8.14028C9.2758 7.90525 9.14339 7.58683 9.14239 7.25453C9.14239 6.56381 9.70619 6 10.3969 6C11.0876 6 11.6521 6.56381 11.6521 7.25453V8.5097L10.3963 8.50906ZM10.3963 9.14175C11.087 9.14175 11.6514 9.70555 11.6514 10.3963C11.6506 10.7289 11.5181 11.0477 11.2829 11.2829C11.0477 11.5181 10.7289 11.6506 10.3963 11.6514H7.25453C6.92201 11.6504 6.6034 11.5179 6.36833 11.2827C6.13326 11.0475 6.00084 10.7288 6 10.3963C6 9.70555 6.56381 9.14175 7.25453 9.14175H10.3969H10.3963ZM15.4903 10.3963C15.4903 9.70555 16.0547 9.14175 16.7455 9.14175C17.4362 9.14175 18 9.70555 18 10.3963C17.9992 10.7288 17.8667 11.0475 17.6317 11.2827C17.3966 11.5179 17.078 11.6504 16.7455 11.6514H15.4903V10.3963ZM14.8576 10.3963C14.8568 10.7288 14.7243 11.0475 14.4893 11.2827C14.2542 11.5179 13.9356 11.6504 13.6031 11.6514C13.2704 11.6506 12.9517 11.5181 12.7165 11.2829C12.4813 11.0477 12.3488 10.7289 12.3479 10.3963V7.25453C12.3479 6.56381 12.9124 6 13.6031 6C14.2938 6 14.8576 6.56381 14.8576 7.25453V10.3969V10.3963ZM13.6031 15.4903C14.2938 15.4903 14.8576 16.0547 14.8576 16.7455C14.8566 17.0779 14.7241 17.3964 14.4891 17.6314C14.254 17.8665 13.9355 17.999 13.6031 18C13.2706 17.9992 12.9519 17.8667 12.7167 17.6317C12.4815 17.3966 12.3489 17.078 12.3479 16.7455V15.4903H13.6031ZM13.6031 14.8576C13.2706 14.8568 12.9519 14.7243 12.7167 14.4893C12.4815 14.2542 12.3489 13.9356 12.3479 13.6031C12.3479 12.9124 12.9124 12.3479 13.6031 12.3479H16.7455C17.4362 12.3479 18 12.9124 18 13.6031C17.999 13.9355 17.8665 14.254 17.6314 14.4891C17.3964 14.7241 17.0779 14.8566 16.7455 14.8576H13.6031Z" fill="#00522A"/>
</svg>
