<svg width="24" height="24" viewBox="0 0 24 24" fill="none" xmlns="http://www.w3.org/2000/svg">
<rect opacity="0.3" x="0.5" y="0.5" width="23" height="23" rx="11.5" stroke="#00391B"/>
<path d="M16.5293 9.5896C16.5339 9.6952 16.5339 9.796 16.5339 9.9016C16.5386 13.1032 14.1863 16.7992 9.8847 16.7992C8.61597 16.7992 7.3704 16.42 6.30078 15.7096C6.486 15.7336 6.67121 15.7432 6.85643 15.7432C7.90752 15.7432 8.93084 15.3784 9.75968 14.7016C8.75951 14.6824 7.87974 14.0056 7.57414 13.0168C7.92605 13.0888 8.28721 13.0744 8.62986 12.9736C7.54172 12.7528 6.75919 11.7592 6.75456 10.6024C6.75456 10.5928 6.75456 10.5832 6.75456 10.5736C7.07869 10.7608 7.44449 10.8664 7.81492 10.876C6.7916 10.1656 6.47211 8.74959 7.09258 7.64079C8.28258 9.15759 10.0329 10.0744 11.9128 10.1752C11.723 9.3352 11.9823 8.45199 12.5888 7.85679C13.5288 6.93999 15.0105 6.98799 15.8996 7.96239C16.4228 7.85679 16.9275 7.65519 17.3859 7.37199C17.21 7.93359 16.8442 8.40879 16.358 8.71119C16.821 8.65359 17.2748 8.52399 17.7008 8.33199C17.3859 8.82159 16.9877 9.24399 16.5293 9.5896Z" fill="#00522A"/>
</svg>
